<svg version="1.1" id="Layer_1" xmlns="http://www.w3.org/2000/svg" xmlns:xlink="http://www.w3.org/1999/xlink" x="0px" y="0px"
	 width="100%" viewBox="0 0 1024 1024" enable-background="new 0 0 1024 1024" xml:space="preserve">
<path fill="#000000" opacity="1.000000" stroke="none" 
	d="
M546.958008,502.730011 
	C539.096313,524.331848 524.473999,538.089294 502.547607,543.918518 
	C496.662567,545.483093 494.132996,543.726624 493.826477,537.512878 
	C493.605347,533.029419 493.748352,528.527710 493.742249,524.034119 
	C493.713867,503.063263 493.789215,482.091461 493.582458,461.122406 
	C493.540283,456.845703 494.690948,453.923889 498.423889,451.613007 
	C504.838715,447.641846 509.422516,441.999664 511.747589,434.728149 
	C512.553040,432.209045 514.121216,430.912018 516.687866,430.467010 
	C521.436890,429.643738 526.134949,428.489807 530.903137,427.823608 
	C537.915649,426.843842 541.453308,429.074951 544.053345,436.384888 
	C551.756653,458.042908 554.565796,479.973572 546.958008,502.730011 
M531.357727,441.074066 
	C533.264709,442.048309 534.249023,441.112122 534.470886,439.331329 
	C534.610291,438.211975 533.708008,437.356232 532.607849,437.468781 
	C530.693604,437.664642 530.061707,438.812653 531.357727,441.074066 
z"/>
<path fill="#000000" opacity="1.000000" stroke="none" 
	d="
M433.703674,459.989685 
	C435.322845,451.382812 437.157623,443.277405 440.198975,435.507904 
	C442.786255,428.898285 446.402283,426.835083 453.393250,427.850861 
	C454.539398,428.017365 455.642426,428.503296 456.789307,428.638550 
	C465.289673,429.641113 472.424255,431.778900 475.486755,441.544312 
	C477.067413,446.584564 482.181244,450.131775 486.934967,453.026764 
	C489.342072,454.492706 490.250946,456.378906 490.242371,459.180664 
	C490.165192,484.473938 490.245972,509.767761 490.152679,535.060913 
	C490.123627,542.938904 486.845795,545.451355 479.443756,543.040894 
	C454.957184,535.066895 440.569336,517.868774 434.807709,493.133789 
	C432.294006,482.342194 432.020966,471.401886 433.703674,459.989685 
M445.259308,494.802368 
	C443.281677,496.207733 443.112549,497.730255 445.181152,499.120544 
	C446.356689,499.910614 447.596161,499.336914 448.145996,498.230652 
	C449.277557,495.953796 448.166595,494.821075 445.259308,494.802368 
M450.503693,436.470215 
	C445.681763,438.702637 450.254211,440.181702 450.221283,443.343109 
	C451.937592,440.211945 454.204498,438.496063 450.503693,436.470215 
M461.322296,516.958069 
	C462.830933,515.368408 462.705170,514.040161 460.517303,513.402283 
	C459.108795,512.991577 457.754852,513.634033 457.620667,515.145569 
	C457.422638,517.375488 458.845673,517.859070 461.322296,516.958069 
M473.923584,499.723480 
	C474.075836,501.869049 475.148590,502.867126 477.199951,501.901703 
	C478.578125,501.253052 479.113495,499.859802 478.033997,498.584290 
	C476.582184,496.868835 475.170898,497.256409 473.923584,499.723480 
M440.963806,456.359070 
	C442.952789,457.704437 444.137115,456.791992 444.398102,454.803833 
	C444.604401,453.232422 443.254425,452.352844 441.865448,452.507019 
	C439.568359,452.761993 439.298950,454.150543 440.963806,456.359070 
M478.554443,482.900452 
	C478.382507,485.020691 479.361847,485.989380 481.430176,485.490845 
	C482.523804,485.227295 482.937012,484.168915 482.555023,483.171753 
	C481.799866,481.200439 480.509644,480.812897 478.554443,482.900452 
M473.526764,526.880371 
	C472.749908,524.936584 471.558167,524.215393 469.809845,525.789978 
	C468.826843,526.675293 468.546478,527.840454 469.746582,528.746643 
	C471.519012,530.084900 472.779388,529.425720 473.526764,526.880371 
M458.410583,439.075165 
	C456.891876,440.753143 457.420258,442.015045 459.269104,442.893097 
	C460.359375,443.410797 461.270264,442.947327 461.504547,441.823975 
	C461.917419,439.844238 461.126709,438.674042 458.410583,439.075165 
z"/>
<path fill="#000000" opacity="1.000000" stroke="none" 
	d="
M578.883423,399.160706 
	C577.099243,400.389679 575.236084,401.458099 572.338318,402.062744 
	C578.632263,403.717499 580.051147,409.016968 582.460083,413.232117 
	C584.827026,417.373871 589.185059,420.851257 587.990906,426.523865 
	C593.935059,423.208832 600.245117,424.900116 606.403442,425.219604 
	C608.471436,425.326935 608.587891,427.554138 608.612915,429.190643 
	C608.777771,440.010406 608.854553,450.831543 608.971069,461.652069 
	C609.007324,465.018463 607.349487,466.413452 604.014709,466.369751 
	C602.320435,466.347565 600.405701,465.775269 598.705688,467.322876 
	C602.552917,468.932709 607.608154,466.093689 610.237427,470.460022 
	C613.136230,475.273865 617.048523,479.639496 618.390564,485.197418 
	C619.070068,488.011566 608.851440,501.750458 606.512573,502.129486 
	C597.107239,503.653778 589.046997,502.213959 587.699402,498.496002 
	C589.977112,497.865387 591.879272,499.207001 593.903503,499.517914 
	C598.478455,500.220520 602.162659,498.122101 602.674622,494.220490 
	C603.266724,489.707977 600.866272,487.577698 596.553101,486.782135 
	C591.327454,485.818207 587.005371,483.164429 583.963928,478.690308 
	C583.621643,478.186768 583.719604,477.145599 582.819397,477.385559 
	C577.112549,478.906708 576.678284,474.218536 575.316528,470.903107 
	C572.851929,464.902313 570.556702,458.827484 568.371582,452.718842 
	C567.651306,450.705292 565.142761,448.233307 567.668762,446.458099 
	C569.956604,444.850250 574.107788,444.658569 575.661011,446.589478 
	C581.072937,453.317352 585.914001,460.558624 588.624573,469.286102 
	C589.600769,468.934906 591.389160,468.291473 593.268799,467.615204 
	C586.055603,462.829102 583.594604,454.650635 579.083923,447.982391 
	C577.461121,445.583405 576.133179,444.574280 573.193054,445.046051 
	C569.021118,445.715546 564.915894,445.300049 561.324829,442.530060 
	C558.980713,440.721893 555.970093,440.771759 553.211853,440.318420 
	C549.527344,439.712891 547.174988,437.905914 546.175903,434.270966 
	C545.304565,431.100708 543.490051,428.444916 540.687744,426.782135 
	C537.370911,424.814056 537.204163,421.925842 539.328613,419.713318 
	C545.246033,413.550720 551.623840,407.830322 557.988159,401.775177 
	C555.083130,399.546509 556.335938,395.385986 555.241760,391.898071 
	C553.798340,387.296783 552.563171,382.629913 551.103149,378.034241 
	C550.347046,375.653992 550.447449,373.657654 551.910828,371.457825 
	C557.398499,363.208374 557.986023,362.989594 566.357178,368.206360 
	C572.290039,371.903595 578.166992,375.690399 584.090393,379.403015 
	C585.830444,380.493652 587.561096,381.523041 586.987061,384.713226 
	C584.159668,389.999817 581.521545,394.580261 578.883423,399.160706 
z"/>
<path fill="#000000" opacity="1.000000" stroke="none" 
	d="
M385.904602,454.948914 
	C382.249725,448.955017 378.736023,443.448792 379.599274,436.138611 
	C380.551788,428.072632 384.295380,421.885223 390.183136,416.572815 
	C385.281219,412.770874 382.375397,407.100677 380.280853,401.272705 
	C378.694336,396.858337 381.009979,392.662476 384.856293,390.013031 
	C389.648712,386.711823 394.629517,383.649811 399.714752,380.818146 
	C404.382874,378.218719 409.193420,379.422180 413.447815,384.173676 
	C412.819366,382.314423 412.180725,381.134552 412.057648,379.903107 
	C411.846680,377.792175 412.911835,375.701721 415.090393,376.714172 
	C417.702209,377.928009 419.563446,376.721771 421.725281,376.152100 
	C423.082245,375.794464 425.063293,376.324921 425.319763,374.263062 
	C425.544952,372.452576 423.987213,371.789307 422.583771,371.153015 
	C422.027802,370.900940 421.549255,370.478088 421.032837,370.131256 
	C424.543213,364.889313 425.491455,365.033234 429.510529,369.260864 
	C432.821747,372.743896 433.474976,376.162170 431.861328,380.584869 
	C430.498901,384.318939 429.766541,388.283325 428.764313,392.148132 
	C428.177551,394.410980 427.848877,396.807220 424.756805,397.123138 
	C421.982971,397.406586 420.445099,396.113495 419.359161,393.691925 
	C418.806671,392.459900 418.385040,390.906799 415.183258,389.876678 
	C423.050232,397.706299 416.570587,402.771179 413.928467,408.708160 
	C410.510040,416.389435 404.449036,417.394379 397.027740,416.516235 
	C404.728943,416.488434 411.934845,416.816193 414.358551,426.289764 
	C415.652802,424.625610 414.497040,423.922668 414.433258,423.063599 
	C414.238525,420.440430 410.373840,419.001953 411.889038,415.917236 
	C414.595581,410.407074 416.729950,404.459076 421.512970,400.295746 
	C423.902924,398.215393 426.531067,398.456451 428.124451,401.587433 
	C431.165253,407.562683 436.089172,411.758301 441.202454,415.811523 
	C447.118835,420.501282 447.140869,422.762268 441.375946,427.561707 
	C439.817383,428.859192 438.200287,430.274231 437.743652,432.230499 
	C436.550476,437.341980 433.419464,439.593872 428.294830,440.132355 
	C422.291809,440.763153 418.291260,444.160492 416.415405,450.063110 
	C415.265503,453.681519 413.749176,457.183472 412.336304,460.898346 
	C409.257385,460.623810 406.744934,457.859467 403.174683,459.911560 
	C406.308594,461.021484 410.721313,461.214447 410.078766,465.389069 
	C409.313843,470.358795 408.491058,475.711151 403.143494,478.482880 
	C398.862396,480.701843 394.677734,483.108002 390.382721,485.298615 
	C387.985779,486.521210 385.441132,486.827179 383.696625,484.229828 
	C381.838562,481.463409 378.561523,479.000061 380.873871,474.952057 
	C383.751770,469.914093 386.364227,464.718475 389.898224,460.120605 
	C388.527893,458.376404 387.303619,456.818054 385.904602,454.948914 
z"/>
<path fill="#000000" opacity="1.000000" stroke="none" 
	d="
M582.600403,599.013672 
	C582.603638,590.559326 582.723999,582.581177 582.559875,574.608948 
	C582.492920,571.356262 583.759460,569.473938 586.535156,567.866333 
	C595.023438,562.950134 603.420471,557.868103 611.721741,552.642151 
	C614.363037,550.979370 616.505066,551.062683 619.072144,552.615723 
	C627.609192,557.780396 636.166077,562.919434 644.848328,567.833252 
	C647.879456,569.548889 649.004761,571.861877 648.985474,575.125916 
	C648.927429,584.942627 648.899109,594.759766 648.917419,604.576538 
	C648.922546,607.291504 648.044250,609.384521 645.627502,610.825989 
	C636.627930,616.193481 627.647766,621.593506 618.688843,627.028442 
	C616.760132,628.198486 614.992004,628.150696 613.082031,627.020569 
	C603.919739,621.599121 594.730347,616.223328 585.557251,610.820007 
	C580.823547,608.031616 583.210754,603.367126 582.600403,599.013672 
z"/>
<path fill="#000000" opacity="1.000000" stroke="none" 
	d="
M479.017792,583.039185 
	C478.507050,581.481384 477.996307,579.923584 477.444580,578.240845 
	C474.574432,578.240845 471.907898,578.026978 469.285583,578.276978 
	C456.332886,579.512024 447.836060,568.577515 443.783356,559.583496 
	C443.011902,557.871460 443.405579,556.443787 444.348541,554.903442 
	C446.776672,550.937073 449.069672,546.887878 451.436310,542.838318 
	C447.216766,542.124451 437.411713,523.119324 437.477325,515.978821 
	C440.836761,516.715576 457.238983,535.811340 456.975952,538.442322 
	C466.184418,539.981201 473.927002,544.695984 482.084473,549.198975 
	C486.313110,546.569397 490.379791,542.627075 496.886841,546.476318 
	C501.108917,548.973877 505.893280,545.971680 510.336426,544.720581 
	C513.442932,543.845825 515.937866,541.203186 519.466431,541.316711 
	C520.764954,544.914734 516.976135,546.666077 516.858459,550.065735 
	C521.843811,543.706848 525.601807,536.944275 531.355347,531.789856 
	C537.280151,526.481995 541.398682,519.622314 546.527283,512.857300 
	C548.511475,516.052612 547.105957,518.155640 546.326355,520.107117 
	C544.537781,524.584229 542.417725,528.927490 540.538879,533.370239 
	C539.079651,536.820740 537.832092,540.394836 531.640259,539.359009 
	C537.419678,542.569519 538.362305,551.525146 534.507629,554.713623 
	C533.084045,555.891174 531.741638,557.069397 530.673645,558.592773 
	C529.137512,560.783936 528.464233,563.080261 529.555542,565.634888 
	C530.737732,568.402405 533.248230,567.985962 535.561646,568.045532 
	C536.534485,568.070557 537.504028,568.228210 540.098938,568.488342 
	C534.747803,573.220215 529.676697,576.031250 524.457214,578.549744 
	C523.037537,579.234802 522.053040,577.796753 521.357849,576.627075 
	C518.551697,571.905457 515.755066,567.177917 512.991211,562.431519 
	C511.834808,560.445435 511.677826,558.396545 512.857544,556.277588 
	C511.441956,557.362671 510.026428,558.447754 508.532349,559.593018 
	C514.027039,564.641541 516.474121,571.658752 520.315369,577.779785 
	C521.602600,579.830994 520.581970,581.201477 518.799194,582.283630 
	C512.398254,586.169067 506.155334,590.348877 499.561737,593.873169 
	C493.017395,597.371033 487.870178,595.670349 483.780609,589.520935 
	C482.401245,587.446777 480.940582,585.426697 479.258667,583.195862 
	C479.000244,583.009827 479.017792,583.039185 479.017792,583.039185 
M487.901062,557.684631 
	C486.898499,556.625732 485.895966,555.566833 484.626343,554.225891 
	C483.677612,555.730164 481.950867,556.431091 482.601501,558.839661 
	C485.389893,558.523865 487.743896,562.641418 490.976044,559.571045 
	C490.042084,559.053040 489.193024,558.582031 487.901062,557.684631 
z"/>
<path fill="#000000" opacity="1.000000" stroke="none" 
	d="
M616.666260,306.219177 
	C619.176941,305.149536 620.862854,306.320007 622.597717,307.319977 
	C630.239075,311.724365 637.830444,316.220001 645.558838,320.466156 
	C648.266357,321.953735 649.293701,323.880829 649.259460,326.870758 
	C649.154602,336.026093 649.147156,345.184082 649.247253,354.339417 
	C649.278320,357.172821 648.187195,359.035095 645.788452,360.433929 
	C638.025818,364.960815 630.293091,369.540131 622.590210,374.168030 
	C620.213623,375.595856 618.081482,375.730621 615.619568,374.219788 
	C607.817505,369.431641 599.937378,364.769287 592.044861,360.130615 
	C589.826416,358.826752 588.697205,357.147583 588.721191,354.491669 
	C588.807007,345.002960 588.855103,335.511810 588.720337,326.024414 
	C588.677368,323.000366 590.319397,321.528198 592.587463,320.215607 
	C600.509399,315.631042 608.410767,311.010773 616.666260,306.219177 
z"/>
<path fill="#000000" opacity="1.000000" stroke="none" 
	d="
M320.610474,740.082520 
	C306.326294,742.540344 292.334717,740.809753 278.398407,741.253418 
	C275.755341,741.337524 274.966797,739.647461 274.972412,737.369446 
	C275.019867,718.072205 275.069885,698.774963 275.151184,679.477844 
	C275.159576,677.490417 275.763153,675.733276 278.215424,675.796875 
	C290.992645,676.127808 303.876801,674.294983 316.529907,676.895081 
	C328.063110,679.265076 333.688843,689.090576 330.018890,699.221436 
	C328.958923,702.147461 326.594696,704.069153 324.458008,707.009521 
	C332.558472,711.244873 335.688385,718.079834 334.004028,726.839722 
	C332.631622,733.977356 327.587921,737.816101 320.610474,740.082520 
M305.423248,714.948853 
	C301.933685,714.978821 298.444153,715.022827 294.954529,715.033997 
	C292.513733,715.041870 291.257996,716.132751 291.346069,718.674622 
	C291.415070,720.666382 291.376282,722.662537 291.355957,724.656433 
	C291.335754,726.641052 292.199249,727.898010 294.263885,727.887634 
	C300.406311,727.856750 306.566986,728.002869 312.683258,727.562500 
	C316.112579,727.315613 317.734039,724.693115 317.718872,721.224304 
	C317.703186,717.636597 315.788147,715.660767 312.354034,715.208496 
	C310.387665,714.949585 308.377899,715.020325 305.423248,714.948853 
M299.551544,689.323425 
	C298.554443,689.323975 297.541901,689.438293 296.562897,689.305420 
	C292.273254,688.723328 290.868408,690.778320 291.333313,694.764099 
	C291.486389,696.076416 291.388611,697.420288 291.373962,698.749390 
	C291.351349,700.802429 292.381256,701.855530 294.400360,701.848755 
	C299.049927,701.833130 303.716461,701.991577 308.343323,701.643738 
	C311.917053,701.375061 314.232819,699.101013 314.152283,695.387878 
	C314.070435,691.612244 311.486908,689.799927 307.972382,689.452515 
	C305.501465,689.208252 302.992157,689.352173 299.551544,689.323425 
z"/>
<path fill="#000000" opacity="1.000000" stroke="none" 
	d="
M522.658142,397.254700 
	C529.645752,402.374695 534.589355,408.391602 535.324524,417.054291 
	C535.688171,421.339386 534.090454,423.572418 529.493469,424.635162 
	C504.747559,430.355957 480.089111,430.872375 455.375366,424.604370 
	C449.417603,423.093323 447.600494,420.247589 449.265259,414.158478 
	C451.488525,406.026367 456.450897,399.891388 463.684998,395.781494 
	C483.447144,384.554138 503.044830,385.441040 522.658142,397.254700 
z"/>
<path fill="#000000" opacity="1.000000" stroke="none" 
	d="
M378.256775,316.671753 
	C390.498352,320.819794 393.196289,329.260834 392.407196,341.168427 
	C391.352692,357.082001 392.154816,357.119720 378.335968,364.780029 
	C374.986511,366.636780 371.589996,368.453705 368.446625,370.624237 
	C365.444519,372.697052 362.883575,372.777130 359.760315,370.772919 
	C353.454132,366.726105 346.998840,362.899139 340.480316,359.201324 
	C337.383362,357.444550 335.891235,355.226990 336.048187,351.589325 
	C336.385559,343.771027 336.523499,335.942596 336.633026,328.116821 
	C336.669434,325.512238 337.675049,323.713409 339.927216,322.419250 
	C347.002960,318.353180 354.059540,314.252472 361.074768,310.083099 
	C363.208527,308.814911 365.045258,308.986389 367.113373,310.261505 
	C370.655457,312.445374 374.322601,314.426361 378.256775,316.671753 
z"/>
<path fill="#000000" opacity="1.000000" stroke="none" 
	d="
M672.481873,512.461060 
	C681.938782,515.830750 684.703186,522.347473 683.458130,531.607422 
	C682.776978,536.673279 683.244263,541.911011 683.401917,547.064880 
	C683.483276,549.724487 682.484009,551.436218 680.224731,552.740540 
	C673.454041,556.649414 666.720154,560.623230 660.017700,564.647949 
	C657.929810,565.901733 656.068237,565.901123 653.967102,564.648010 
	C647.252258,560.643372 640.485901,556.724365 633.710754,552.822083 
	C631.650391,551.635376 630.608398,550.039490 630.576721,547.590698 
	C630.475708,539.776001 630.329590,531.959839 630.027893,524.150879 
	C629.895386,520.720520 631.291992,518.598328 634.252930,516.960022 
	C640.945129,513.257324 647.560791,509.407623 654.095276,505.433167 
	C656.410645,504.024933 658.291260,504.078064 660.532227,505.480286 
	C664.337585,507.861389 668.281433,510.021027 672.481873,512.461060 
z"/>
<path fill="#000000" opacity="1.000000" stroke="none" 
	d="
M405.739685,359.692596 
	C408.469208,358.030914 411.031219,356.744263 413.264801,355.029755 
	C416.398102,352.624664 418.305023,353.292877 420.504761,356.455811 
	C423.132172,360.233734 420.518280,361.421326 418.073700,362.915863 
	C406.421936,370.039459 394.876709,377.349152 383.048950,384.168304 
	C376.760437,387.793823 373.853424,392.444946 373.891754,399.874695 
	C374.101562,440.526184 374.035248,481.179626 373.902222,521.831909 
	C373.881561,528.141296 376.086151,532.463562 381.660706,535.698669 
	C393.902649,542.803223 405.891693,550.343750 417.975433,557.720337 
	C419.800018,558.834106 421.791199,559.751770 423.066772,561.493408 
	C420.116638,569.252258 419.059875,569.687927 412.492065,565.710388 
	C399.384460,557.772217 386.341461,549.726562 373.193054,541.856873 
	C367.463074,538.427307 364.767151,533.259521 364.751068,526.929199 
	C364.638580,482.610199 364.678833,438.290680 364.717255,393.971375 
	C364.722717,387.675079 367.354797,382.841797 372.933746,379.537079 
	C383.824829,373.085693 394.601532,366.441223 405.739685,359.692596 
z"/>
<path fill="#000000" opacity="1.000000" stroke="none" 
	d="
M566.156128,507.393677 
	C565.239014,501.065063 561.247742,497.456116 556.714844,494.101654 
	C552.350220,490.871613 552.790771,488.666412 558.224182,486.425842 
	C556.785400,485.192169 554.234131,485.257385 554.254333,482.700378 
	C554.305237,476.271240 554.271118,469.841431 554.271118,463.370239 
	C558.192322,465.443237 564.521423,482.455811 562.864441,486.282471 
	C573.985535,488.811859 583.505981,493.435760 587.579834,505.499481 
	C593.307068,503.403412 599.097107,504.803650 604.856506,504.811737 
	C607.415527,504.815338 608.328979,506.308411 608.305603,508.676300 
	C608.261230,513.168945 608.467712,517.675293 608.182068,522.151123 
	C607.890076,526.726135 605.830688,530.358765 601.500366,532.536804 
	C598.981506,533.803833 596.636963,535.419067 594.221313,536.889648 
	C587.650391,540.889771 587.651978,540.892334 582.806763,534.325867 
	C580.897034,535.879517 577.332214,535.581970 576.865967,538.583740 
	C576.354492,541.876099 580.753296,540.300110 581.862610,542.462708 
	C581.833801,544.216248 580.373596,544.966675 579.181641,545.718079 
	C573.274109,549.442383 567.262390,553.001709 561.361023,556.735657 
	C558.979248,558.242676 557.495667,557.529785 555.916138,555.487976 
	C549.853516,547.650635 549.560059,546.374268 554.586548,537.744812 
	C557.280518,533.119690 560.166931,528.139893 562.131653,523.645752 
	C564.070923,519.209717 566.823914,513.520630 566.156128,507.393677 
z"/>
<path fill="#000000" opacity="1.000000" stroke="none" 
	d="
M429.717773,691.962769 
	C440.691864,671.747681 469.300385,669.905396 484.419586,682.057739 
	C487.440430,684.485718 488.970795,686.549072 484.807617,689.205078 
	C482.291138,690.810486 481.461304,695.089539 478.420990,695.021729 
	C475.943451,694.966492 473.579651,692.428894 471.058868,691.212952 
	C462.875000,687.265137 453.246094,688.772827 447.478027,694.795044 
	C441.712128,700.815002 440.620880,711.189270 444.930115,719.017883 
	C449.486542,727.295593 461.927124,730.929810 470.368408,726.574097 
	C472.389008,725.531494 472.669159,723.967102 472.671143,722.049194 
	C472.675140,718.219299 472.782257,714.388794 472.744568,710.559631 
	C472.717560,707.817627 474.004883,706.861755 476.686768,706.666870 
	C487.900024,705.851807 487.898743,705.781799 488.030518,716.812561 
	C488.068329,719.976379 487.704712,723.197388 488.177094,726.292664 
	C489.160187,732.734436 486.008362,735.913696 480.522491,738.417297 
	C471.229675,742.658325 461.691345,743.993896 451.829193,741.771423 
	C429.496002,736.738647 419.335327,713.971191 429.717773,691.962769 
z"/>
<path fill="#000000" opacity="1.000000" stroke="none" 
	d="
M409.334595,706.984924 
	C409.425018,713.480896 409.464081,719.449463 407.306488,725.219299 
	C404.779938,731.975769 400.410980,737.078735 393.755310,739.778381 
	C384.260864,743.629333 374.495758,743.732788 365.057770,739.745056 
	C354.680420,735.360352 350.280334,726.488403 349.819366,715.855957 
	C349.307495,704.049866 349.766205,692.204163 349.626770,680.377869 
	C349.585236,676.855042 351.045502,675.822449 354.391846,675.739624 
	C365.082764,675.474976 365.263336,675.362366 365.724548,686.079346 
	C366.139771,695.728210 365.904510,705.404846 366.310974,715.054260 
	C366.637604,722.808838 371.257446,727.542175 378.198212,727.982178 
	C387.285767,728.558167 392.436127,724.125671 392.789032,714.941650 
	C393.223755,703.627869 393.476624,692.302551 393.522736,680.981018 
	C393.538483,677.118958 394.794525,675.664429 398.722321,675.734985 
	C411.009827,675.955688 409.192993,674.810364 409.323242,685.997253 
	C409.402771,692.826599 409.335663,699.657715 409.334595,706.984924 
z"/>
<path fill="#000000" opacity="1.000000" stroke="none" 
	d="
M359.350616,401.889374 
	C360.401947,408.318665 357.862427,411.954651 352.470795,414.516724 
	C347.236450,417.004059 342.344482,420.229156 337.378082,423.254883 
	C335.284912,424.530121 333.527069,424.539062 331.385925,423.252197 
	C325.120056,419.486389 318.774567,415.847321 312.378052,412.307129 
	C309.602844,410.771179 308.415039,408.858246 308.559753,405.529083 
	C308.862640,398.559845 308.796783,391.566223 308.627960,384.588745 
	C308.553589,381.515015 309.718414,379.677551 312.359467,378.245300 
	C318.639191,374.839844 324.863098,371.322632 330.998627,367.664581 
	C333.309113,366.287048 335.189117,366.370514 337.444061,367.718170 
	C343.434723,371.298676 349.466736,374.822174 355.613983,378.123199 
	C358.517456,379.682312 359.502136,381.763947 359.389801,384.953156 
	C359.196747,390.431641 359.344849,395.922150 359.350616,401.889374 
z"/>
<path fill="#000000" opacity="1.000000" stroke="none" 
	d="
M379.972656,596.048096 
	C371.905701,603.037537 365.034576,600.964783 356.546234,596.216614 
	C346.941467,590.844055 342.992157,584.923218 343.533142,573.639954 
	C343.983826,564.240967 345.686859,558.194885 354.804077,553.717041 
	C372.855408,544.851196 364.941406,544.570251 382.996765,554.138123 
	C391.200043,558.485229 394.501770,563.866211 393.068665,572.655762 
	C393.042267,572.817749 393.041656,572.993469 393.073456,573.153992 
	C395.297058,584.375061 391.252197,592.066528 379.972656,596.048096 
z"/>
<path fill="#000000" opacity="1.000000" stroke="none" 
	d="
M712.122314,467.879578 
	C713.667603,469.545624 714.473938,470.913422 711.904053,471.858398 
	C706.159363,473.970856 702.813477,478.863861 698.939453,483.123993 
	C696.808228,485.467499 696.948792,487.944672 698.995667,490.304596 
	C701.937805,493.696625 704.808105,497.159760 707.903076,500.407715 
	C710.685181,503.327332 710.369995,505.658569 707.041931,507.675293 
	C702.771484,510.263092 698.430115,512.733887 694.162048,515.325500 
	C692.291565,516.461304 690.702576,515.873474 689.032959,514.914062 
	C682.681641,511.264618 676.329956,507.614838 669.935852,504.041382 
	C667.047607,502.427277 665.628235,500.244568 665.711548,496.788818 
	C665.888000,489.464813 665.853638,482.131714 665.713928,474.806030 
	C665.656555,471.799103 666.661072,469.809906 669.350098,468.346893 
	C675.633911,464.928162 681.897278,461.452942 687.989014,457.707977 
	C690.957703,455.882965 693.325439,455.988098 696.234314,457.801849 
	C701.457275,461.058563 706.999268,463.803925 712.122314,467.879578 
z"/>
<path fill="#000000" opacity="1.000000" stroke="none" 
	d="
M410.124756,536.098877 
	C409.932037,534.028625 408.760773,533.184265 406.743317,533.398560 
	C405.749969,533.504028 404.738831,533.781250 403.765961,533.682678 
	C399.186371,533.218872 393.666779,534.824463 390.266937,531.666321 
	C385.693573,527.418091 382.825287,521.502075 380.256653,515.687988 
	C379.577209,514.150146 380.777405,512.859192 381.198181,511.450775 
	C384.824371,499.313477 393.994202,496.566589 405.200928,496.979950 
	C408.602020,497.105377 410.453674,499.110565 411.538239,501.798615 
	C413.745758,507.269989 416.532562,512.781250 419.380707,517.563538 
	C424.073547,525.442993 427.372955,533.883972 431.723175,541.840637 
	C434.201477,546.373413 433.374390,550.146545 429.799469,552.295776 
	C426.194397,554.463135 421.742096,553.309082 419.135437,549.412231 
	C416.543671,545.537659 414.060883,541.590210 411.171570,537.233704 
	C410.597046,536.548035 410.367676,536.316711 410.124756,536.098877 
z"/>
<path fill="#000000" opacity="1.000000" stroke="none" 
	d="
M601.530029,372.419617 
	C606.115295,375.202332 610.317688,377.923370 614.685059,380.347168 
	C620.581665,383.619690 623.166992,388.898102 623.207275,395.205627 
	C623.388000,423.537415 623.316162,451.870789 623.313904,480.203613 
	C623.313843,480.820435 623.055237,481.437225 622.646484,483.263794 
	C618.708496,477.620331 614.344727,473.525543 614.396545,466.790222 
	C614.565979,444.793060 614.700073,422.794037 614.579285,400.797241 
	C614.544617,394.471802 611.749146,389.448883 605.955017,386.015656 
	C592.768433,378.202148 579.782776,370.049805 566.700684,362.059357 
	C564.181396,360.520569 561.900696,359.459503 564.293884,355.600433 
	C566.652832,351.796722 568.572571,352.147827 571.815247,354.200928 
	C581.527588,360.350433 591.406677,366.236603 601.530029,372.419617 
z"/>
<path fill="#000000" opacity="1.000000" stroke="none" 
	d="
M446.498505,575.486694 
	C459.012970,583.157898 471.355774,590.424622 483.368896,598.200745 
	C490.445374,602.781372 496.680847,602.525085 503.719208,598.043152 
	C517.336670,589.371765 531.306213,581.254150 545.106018,572.867798 
	C547.754211,571.258423 549.822266,570.461121 552.254456,573.663879 
	C554.807556,577.025818 554.594360,578.789795 550.905884,580.965576 
	C535.135315,590.268555 519.460510,599.736023 503.830505,609.274109 
	C496.666290,613.646118 489.904297,613.500305 482.780243,609.010437 
	C466.866394,598.981018 450.772308,589.237793 434.776733,579.337463 
	C432.620636,578.002930 429.669495,577.081055 432.077148,573.344788 
	C434.199768,570.050781 436.134491,568.219543 439.863556,571.297485 
	C441.771881,572.872681 444.067657,573.978394 446.498505,575.486694 
z"/>
<path fill="#000000" opacity="1.000000" stroke="none" 
	d="
M467.797852,321.757843 
	C473.233887,318.472107 478.325012,315.313812 483.503784,312.306427 
	C490.093597,308.479706 496.668030,308.338196 503.314026,312.413330 
	C519.198181,322.153015 535.161865,331.762878 551.047791,341.499725 
	C553.065002,342.736084 556.658020,343.382904 554.156677,347.251801 
	C551.954224,350.658478 549.785095,351.990204 545.654785,349.374298 
	C531.460876,340.384827 516.889954,331.988586 502.736786,322.937744 
	C496.304718,318.824463 490.798401,318.762238 484.321625,322.866852 
	C469.853394,332.036041 455.072021,340.712646 440.383820,349.532593 
	C434.139404,353.282257 433.039886,352.812561 429.814941,344.964447 
	C442.305939,337.335266 454.898926,329.643768 467.797852,321.757843 
z"/>
<path fill="#000000" opacity="1.000000" stroke="none" 
	d="
M509.600922,373.462738 
	C515.510254,377.378113 519.412048,382.152802 519.985413,390.587646 
	C501.342621,383.228271 483.276886,382.369263 464.796509,390.899139 
	C464.156494,383.272003 467.544342,378.746429 472.036530,374.946777 
	C478.210815,369.724304 478.352600,368.486694 472.231903,362.727570 
	C469.902588,360.535828 467.320282,358.764923 464.037262,358.264771 
	C461.743073,357.915253 459.455841,357.108093 460.213104,354.237122 
	C460.993195,351.279602 463.666931,351.271210 465.967377,352.052765 
	C472.175995,354.162079 477.025238,358.282349 480.551697,363.658447 
	C482.627747,366.823486 484.795044,367.889160 488.272766,366.594849 
	C489.194153,366.251953 490.348846,365.819611 491.188416,366.085419 
	C498.627991,368.440338 502.643311,364.171143 506.714752,358.909241 
	C509.226379,355.663147 513.080566,353.590698 517.124207,352.296539 
	C519.167847,351.642517 521.356873,351.537537 522.201172,353.920837 
	C523.126221,356.532257 521.557617,357.796539 519.046082,358.469086 
	C514.365967,359.722382 510.923309,362.744476 507.902222,366.471619 
	C505.412842,369.542908 505.376251,371.717102 509.600922,373.462738 
z"/>
<path fill="#000000" opacity="1.000000" stroke="none" 
	d="
M577.245972,678.459839 
	C580.841309,678.071167 582.127563,679.515198 582.117371,682.725647 
	C582.060181,700.705994 582.106567,718.686707 582.120239,736.667297 
	C582.122070,739.085022 581.509155,741.001343 578.587830,741.052368 
	C575.644043,741.103821 574.979126,739.199341 574.971680,736.776489 
	C574.952332,730.450012 574.850159,724.121399 574.981018,717.797852 
	C575.050598,714.434814 573.827271,712.969116 570.337769,713.011841 
	C560.849609,713.128174 551.357910,713.105469 541.869568,712.983398 
	C538.443176,712.939331 537.133972,714.271790 537.231873,717.722046 
	C537.411133,724.043274 537.256165,730.373657 537.273193,736.700134 
	C537.279663,739.106201 536.862427,741.051453 533.797974,740.975403 
	C531.005432,740.906128 530.671082,739.090881 530.670959,736.895020 
	C530.670105,718.581360 530.661499,700.267639 530.622192,681.953979 
	C530.617249,679.631897 531.254395,678.016052 533.936401,678.047974 
	C536.593750,678.079651 537.263855,679.733093 537.258667,682.020874 
	C537.240906,689.822144 537.251892,697.623352 537.251892,705.799622 
	C549.884216,705.799622 562.073059,705.799622 574.987488,705.799622 
	C574.987488,698.484985 574.925964,691.379883 575.026428,684.277039 
	C575.055115,682.253723 574.244690,679.811523 577.245972,678.459839 
z"/>
<path fill="#000000" opacity="1.000000" stroke="none" 
	d="
M744.102051,740.342590 
	C730.154785,741.875488 716.507202,740.915833 702.871521,741.046814 
	C699.434937,741.079834 699.652954,738.351990 699.650024,735.993164 
	C699.630249,720.332642 699.618164,704.672058 699.609619,689.011536 
	C699.603699,678.067627 699.607971,678.078003 710.763489,678.087463 
	C719.759888,678.095093 728.757019,678.010925 737.752319,678.106445 
	C740.215942,678.132629 743.689148,677.249512 743.637512,681.467224 
	C743.588501,685.476318 740.262024,684.365234 738.005615,684.388672 
	C729.010193,684.482239 720.009827,684.553955 711.018250,684.341003 
	C707.252441,684.251770 705.959717,685.657898 706.166809,689.299500 
	C706.393494,693.285828 706.399414,697.300842 706.211304,701.289734 
	C706.046631,704.783142 707.491455,706.025818 710.897949,705.962036 
	C718.559021,705.818420 726.224487,705.878845 733.887939,705.913818 
	C736.442932,705.925476 739.774048,705.123901 739.751831,709.274536 
	C739.728149,713.706787 736.088501,712.257385 733.763733,712.295288 
	C724.813721,712.441223 715.859924,712.354431 706.343140,712.354431 
	C706.343140,719.382507 706.287598,725.670227 706.367554,731.956177 
	C706.405212,734.917603 708.724243,734.689880 710.725098,734.693970 
	C720.554565,734.714050 730.384155,734.739319 740.213440,734.700317 
	C743.999695,734.685303 746.176758,735.776001 744.102051,740.342590 
z"/>
<path fill="#000000" opacity="1.000000" stroke="none" 
	d="
M483.166901,351.151184 
	C482.567780,349.785553 481.900940,348.445038 481.383789,347.049042 
	C480.340790,344.233490 476.758972,341.879120 478.790436,338.505798 
	C481.629120,333.791962 483.647247,328.251862 489.956299,326.504364 
	C494.244507,325.316589 497.797638,326.588715 501.294373,328.634064 
	C505.875885,331.313873 510.388367,334.111633 514.932434,336.855621 
	C521.239868,340.664337 522.266296,342.933563 516.733887,347.765320 
	C510.647736,353.080597 504.765320,359.829895 495.072205,359.248169 
	C491.213013,359.016602 487.835754,358.826019 485.189087,354.819580 
	C484.278351,353.256683 483.722626,352.203949 483.166901,351.151184 
z"/>
<path fill="#000000" opacity="1.000000" stroke="none" 
	d="
M623.379150,503.010223 
	C623.359497,511.005615 623.308716,518.502991 623.333069,526.000122 
	C623.356689,533.280334 620.413757,538.617188 613.979309,542.401367 
	C600.198486,550.505920 586.606628,558.932434 572.956055,567.257629 
	C566.240356,571.353455 565.877258,571.253906 562.260315,563.552124 
	C563.445435,561.159546 565.898193,560.250977 567.986389,558.977661 
	C580.500854,551.346802 592.934814,543.570129 605.655945,536.297363 
	C611.953857,532.696838 614.385803,527.429993 614.591553,520.716370 
	C614.759888,515.223633 614.886841,509.704742 614.547424,504.227478 
	C614.100647,497.018799 618.560181,492.369751 622.723206,486.109344 
	C623.842651,492.368286 623.155334,497.465790 623.379150,503.010223 
z"/>
<path fill="#000000" opacity="1.000000" stroke="none" 
	d="
M519.506714,361.409607 
	C527.099976,357.946381 527.612183,354.455200 521.295227,349.509125 
	C519.258362,347.914368 519.658081,346.586731 520.555603,344.836639 
	C521.539185,342.918549 523.097229,341.909180 525.021057,343.070374 
	C531.706604,347.105652 538.343567,351.229492 544.869324,355.517029 
	C547.327942,357.132355 545.566528,359.050995 544.517944,360.678223 
	C541.315674,365.647552 536.572815,369.744659 535.920654,376.153320 
	C535.833984,377.005188 534.517456,377.689697 535.682861,378.720398 
	C539.733887,382.303345 538.956970,387.569244 540.123535,392.106781 
	C541.238770,396.444519 537.010010,398.052155 534.548767,400.163849 
	C532.212524,402.168304 531.029846,398.794556 529.257874,397.947693 
	C522.565186,394.748901 523.850525,387.895508 522.191406,382.457031 
	C521.581177,380.456665 523.280945,379.090973 525.379028,378.824677 
	C526.852112,378.637756 528.347656,378.628479 530.139771,378.161713 
	C522.035645,378.453125 520.160583,372.042511 517.310364,366.781738 
	C516.107178,364.560852 515.555908,362.221100 519.506714,361.409607 
z"/>
<path fill="#000000" opacity="1.000000" stroke="none" 
	d="
M578.808350,399.485382 
	C581.521545,394.580261 584.159668,389.999817 586.961487,385.087372 
	C588.306152,384.219940 589.315308,383.395447 590.842957,383.763794 
	C601.000122,386.212738 608.329712,395.525848 608.395142,406.127716 
	C608.420776,410.282471 608.541138,414.436859 608.641357,418.590851 
	C608.700623,421.043030 607.583374,422.280182 605.084290,422.345947 
	C601.430420,422.442108 597.779724,422.707336 594.126099,422.743408 
	C592.074585,422.763702 590.051758,422.187408 588.899902,420.333313 
	C585.480713,414.829498 582.156616,409.265900 578.850403,403.693024 
	C578.132446,402.482849 578.326843,401.119141 578.808350,399.485382 
z"/>
<path fill="#000000" opacity="1.000000" stroke="none" 
	d="
M279.651184,374.005310 
	C276.276581,367.763489 277.506531,361.405701 278.388489,355.313629 
	C278.781616,352.597931 282.756714,352.059814 285.206940,350.766388 
	C288.233582,349.168732 291.118591,345.512451 294.458740,346.649261 
	C299.242859,348.277466 303.516113,351.440491 307.944489,354.054840 
	C308.978577,354.665314 309.302399,355.894897 309.294281,357.129181 
	C309.286591,358.293213 309.308624,359.457367 309.310669,360.621490 
	C309.334625,374.321808 308.891144,374.959137 296.440399,380.752228 
	C294.394836,381.704010 292.627045,381.529816 290.775116,380.457672 
	C287.179077,378.375763 283.564972,376.325012 279.651184,374.005310 
z"/>
<path fill="#000000" opacity="1.000000" stroke="none" 
	d="
M674.932373,706.799438 
	C670.319885,717.376648 665.847961,727.597473 661.420715,737.837585 
	C660.572388,739.799683 659.561096,741.276672 657.089478,741.259888 
	C654.984558,741.245544 653.646790,740.433960 652.817749,738.515869 
	C644.428101,719.105957 636.014465,699.706543 627.625061,680.296509 
	C627.505432,680.019775 627.610107,679.646179 627.610107,679.058044 
	C631.494995,677.492126 634.128235,677.906128 636.003357,682.493896 
	C641.671875,696.363220 647.704834,710.084412 653.674500,723.829041 
	C654.580017,725.913757 655.134277,728.243347 657.449402,730.414490 
	C659.121460,726.764587 660.741394,723.414795 662.205872,719.998352 
	C667.585510,707.449036 673.008850,694.916809 678.204773,682.291321 
	C679.842041,678.312988 682.187622,677.452087 686.316406,679.216492 
	C683.311340,688.725525 678.473267,697.300049 674.932373,706.799438 
z"/>
<path fill="#000000" opacity="1.000000" stroke="none" 
	d="
M338.247314,309.957397 
	C335.342072,311.693268 332.652405,313.048370 330.188171,314.733124 
	C326.916626,316.969818 323.979095,316.850739 320.475342,314.956329 
	C309.860565,309.217041 308.573151,306.955170 309.927887,294.732849 
	C310.169159,292.556274 310.988373,290.950256 312.953583,289.935547 
	C314.430817,289.172760 316.037231,288.540649 317.299347,287.501892 
	C322.464050,283.251251 327.133118,283.908142 332.547302,287.587860 
	C340.227844,292.807861 342.834442,301.022064 338.247314,309.957397 
z"/>
<path fill="#000000" opacity="1.000000" stroke="none" 
	d="
M547.233154,525.332397 
	C548.580078,522.058655 549.780518,519.137878 550.981567,516.217346 
	C551.492065,514.975891 552.362854,513.296448 551.476685,512.421570 
	C545.456360,506.478607 551.661377,501.550262 552.064148,496.088867 
	C560.859680,498.007965 565.212769,505.918091 561.953491,513.446716 
	C557.860352,522.901550 553.835388,532.396606 549.349854,541.665649 
	C547.511047,545.465393 547.713379,548.422363 550.010071,551.775208 
	C553.953918,557.532776 557.662781,563.451538 561.456665,569.311401 
	C562.888062,571.522217 565.081299,574.051941 561.950745,576.175720 
	C559.101379,578.108765 557.401917,575.430420 556.035034,573.364807 
	C550.807922,565.465393 545.716309,557.476257 540.478455,549.584106 
	C538.723999,546.940491 538.692871,544.509583 540.056641,541.653992 
	C542.561829,536.408386 544.760498,531.016357 547.233154,525.332397 
z"/>
<path fill="#000000" opacity="1.000000" stroke="none" 
	d="
M421.728333,511.959351 
	C420.004303,504.986206 423.283417,499.773682 431.383972,496.375610 
	C433.513519,499.718414 433.958344,503.741760 435.470734,507.332001 
	C435.817566,508.155304 435.647858,509.110748 434.972778,509.633026 
	C431.008118,512.700195 432.877014,516.081421 434.344727,519.458557 
	C437.655548,527.076477 440.841125,534.752808 444.343994,542.281433 
	C445.706848,545.210510 445.524445,547.565857 443.763275,550.169189 
	C438.456757,558.013123 433.252380,565.926514 428.042511,573.835449 
	C426.727356,575.831909 425.134552,577.325623 422.722534,575.924255 
	C420.191193,574.453491 420.930542,572.277283 422.195312,570.322693 
	C426.348083,563.904968 430.462433,557.458740 434.786499,551.157227 
	C436.694489,548.376648 436.847015,545.963867 435.406250,542.856079 
	C430.725189,532.759094 426.351593,522.519592 421.728333,511.959351 
z"/>
<path fill="#000000" opacity="1.000000" stroke="none" 
	d="
M599.955933,493.840210 
	C597.604126,497.389435 594.489624,496.667755 591.701477,495.711914 
	C583.470764,492.890259 576.456726,487.615784 568.666809,483.874451 
	C566.935730,483.043091 566.503723,481.005157 565.805725,479.321075 
	C563.578796,473.948151 561.352722,468.574829 559.141663,463.195343 
	C558.121704,460.713928 556.676697,458.736572 554.548584,456.891327 
	C550.478882,453.362579 551.305359,447.863953 549.618896,443.260803 
	C556.412292,442.019043 561.981140,444.808319 564.204712,450.466736 
	C567.243530,458.199860 570.225769,465.961365 572.954346,473.807312 
	C574.062805,476.994629 575.765442,479.338196 578.689819,480.966217 
	C584.749146,484.339600 590.233093,488.874969 597.455505,489.839172 
	C599.350403,490.092194 600.275085,491.457825 599.955933,493.840210 
z"/>
<path fill="#000000" opacity="1.000000" stroke="none" 
	d="
M391.373383,495.825348 
	C389.995270,496.079224 389.010681,496.295074 388.024841,496.300629 
	C385.878326,496.312714 384.523712,495.212372 384.368927,493.053711 
	C384.225159,491.048920 385.514008,490.122589 387.337891,489.685669 
	C393.570496,488.192688 398.939362,484.808746 404.486633,481.809052 
	C407.871185,479.978790 409.979614,477.329651 411.199524,473.590302 
	C413.670502,466.016144 416.452087,458.539276 419.258606,451.079865 
	C421.587494,444.889923 426.053436,442.423004 433.634186,443.324554 
	C431.984772,448.476562 433.438690,454.472534 427.630157,458.093109 
	C424.929901,459.776245 424.439362,463.051483 423.393188,465.819946 
	C416.921997,482.945251 416.945190,482.965332 400.837982,491.634064 
	C397.919312,493.204834 395.045410,494.911194 391.373383,495.825348 
z"/>
<path fill="#000000" opacity="1.000000" stroke="none" 
	d="
M573.210022,300.575378 
	C577.981262,303.429810 583.067749,305.044342 582.414551,312.274750 
	C581.669434,320.522583 578.457275,326.289886 570.252380,327.615295 
	C565.012634,328.461761 560.547974,324.389648 557.002502,320.874664 
	C553.365906,317.269318 556.181458,305.362854 560.827576,303.083832 
	C564.561829,301.252045 567.843689,296.618744 573.210022,300.575378 
z"/>
<path fill="#000000" opacity="1.000000" stroke="none" 
	d="
M435.112213,370.936462 
	C431.114899,365.357910 427.315125,360.088898 423.535614,354.805420 
	C422.762695,353.724915 421.974121,352.638519 421.355621,351.468750 
	C420.511108,349.871368 420.366272,348.152344 421.958588,346.957397 
	C423.840088,345.545471 425.514099,346.473053 426.701385,348.065887 
	C432.474731,355.811188 438.167542,363.616547 443.905121,371.388611 
	C445.121552,373.036407 444.994751,374.745331 444.489227,376.608307 
	C443.269653,381.102692 442.389313,385.701752 440.942169,390.117676 
	C439.786804,393.643250 440.396851,396.484161 443.294495,398.516541 
	C449.325836,402.746796 449.278229,407.645599 445.240326,413.158203 
	C436.564178,411.305939 429.862885,401.333221 431.849762,392.801422 
	C433.056946,387.617889 434.441376,382.467773 435.976990,377.372192 
	C436.655457,375.120972 436.756256,373.156555 435.112213,370.936462 
z"/>
<path fill="#000000" opacity="1.000000" stroke="none" 
	d="
M539.195190,413.313965 
	C534.314880,405.273712 534.202515,405.157745 540.577942,398.980042 
	C543.433411,396.213196 544.698486,393.391357 543.037537,389.673248 
	C537.704590,377.734863 540.345520,367.637604 549.596436,358.679718 
	C552.548706,355.821014 554.632263,352.068481 557.136169,348.742126 
	C558.585022,346.817383 560.240662,344.693024 562.834656,346.672241 
	C565.422913,348.647125 563.786011,350.849701 562.378906,352.761353 
	C558.035950,358.661346 553.671814,364.546112 549.266724,370.399811 
	C547.540771,372.693359 547.030945,374.950165 547.997742,377.835724 
	C549.686951,382.877014 550.753601,388.126495 552.432129,393.171967 
	C554.046387,398.024506 553.004211,402.061737 549.463379,405.483612 
	C546.401855,408.442322 543.965393,412.229095 539.195190,413.313965 
z"/>
<path fill="#000000" opacity="1.000000" stroke="none" 
	d="
M482.870819,350.951233 
	C483.722626,352.203949 484.278351,353.256683 484.898071,354.607605 
	C485.041046,355.229309 485.132233,355.550354 485.196899,355.876709 
	C485.553131,357.675354 487.840118,359.767761 485.391327,361.203644 
	C483.104401,362.544617 481.966309,359.904907 480.664337,358.574860 
	C475.901672,353.709564 470.677948,349.700226 463.593353,349.090515 
	C460.795654,348.849762 458.211304,349.322205 457.068054,352.439667 
	C456.004059,355.341003 456.996338,357.587463 459.202240,359.550629 
	C464.388489,364.166199 464.242096,365.106934 457.959839,368.602875 
	C457.423889,368.901123 456.878204,369.181793 456.475189,369.396912 
	C456.355835,371.061035 457.293030,371.871307 458.154053,372.597809 
	C459.030792,373.337524 460.111877,373.835083 461.980225,374.972382 
	C456.067871,377.167542 452.891388,376.510468 450.828430,371.867432 
	C449.415131,368.686523 447.744507,365.544098 445.704071,362.736877 
	C443.149933,359.222992 443.430023,355.808533 446.413269,353.403076 
	C453.449249,347.729858 460.275909,341.541504 470.085968,340.770691 
	C474.781952,340.401733 477.697296,341.959198 479.485046,346.273285 
	C480.163910,347.911407 481.524719,349.266937 482.870819,350.951233 
z"/>
<path fill="#000000" opacity="1.000000" stroke="none" 
	d="
M504.568542,431.850372 
	C509.066589,432.044952 509.322083,434.086334 507.654266,437.176514 
	C504.571808,442.887878 499.988434,447.150238 494.762299,450.839081 
	C493.170959,451.962341 491.650421,451.959717 490.148071,450.900543 
	C485.087860,447.333130 480.395966,443.315887 477.234009,437.928101 
	C474.625427,433.483246 475.696075,431.628448 480.718384,432.037201 
	C488.547089,432.674377 496.331512,432.297028 504.568542,431.850372 
z"/>
<path fill="#000000" opacity="1.000000" stroke="none" 
	d="
M612.323608,706.000122 
	C612.320312,716.142639 612.350220,725.785400 612.288818,735.427490 
	C612.273804,737.785461 613.034485,740.829834 609.132019,740.960022 
	C605.230103,741.090149 605.707153,738.139038 605.704712,735.697144 
	C605.687012,718.240845 605.698364,700.784607 605.726318,683.328308 
	C605.729919,681.064575 605.192749,678.363220 608.825684,678.314148 
	C612.676147,678.262085 612.296387,681.064270 612.303467,683.555054 
	C612.324219,690.870056 612.318604,698.185059 612.323608,706.000122 
z"/>
<path fill="#000000" opacity="1.000000" stroke="none" 
	d="
M424.101379,496.117737 
	C419.971588,498.396698 419.687439,502.926880 417.282135,506.001099 
	C411.823334,502.263184 410.330078,497.796173 413.639313,492.833832 
	C418.434998,485.642456 422.814575,478.316559 425.420349,470.022430 
	C425.710510,469.098846 426.304840,468.244690 426.885101,467.451172 
	C427.122192,467.126862 427.697235,467.049683 428.976959,466.473877 
	C429.446014,474.891479 430.210205,482.880402 430.155792,490.863800 
	C430.137756,493.509857 426.718811,494.634338 424.101379,496.117737 
z"/>
<path fill="#000000" opacity="1.000000" stroke="none" 
	d="
M451.678467,380.505676 
	C454.327698,376.755127 457.826050,377.933624 461.035706,378.214203 
	C462.546844,378.346344 463.411285,379.557831 462.935516,381.127014 
	C461.044495,387.364044 461.841492,394.856354 454.352020,398.480499 
	C452.393280,399.428314 450.919037,401.397217 448.722382,399.351654 
	C446.569092,397.346558 443.722992,395.472473 445.568512,391.834503 
	C447.450562,388.124603 449.503998,384.501678 451.678467,380.505676 
z"/>
<path fill="#000000" opacity="1.000000" stroke="none" 
	d="
M741.330200,456.026245 
	C742.159851,452.117310 742.841003,448.575073 743.460388,445.353973 
	C744.987366,444.753723 745.728271,445.249298 746.152466,445.955902 
	C749.475220,451.491547 747.172119,460.315887 741.638367,463.427826 
	C739.896484,464.407410 738.153259,465.384857 736.401428,466.346588 
	C734.818848,467.215424 733.133423,467.614014 731.918640,465.941589 
	C730.458191,463.931030 732.049194,462.622833 733.315308,461.252625 
	C735.496277,458.892365 739.633972,459.741760 741.330200,456.026245 
z"/>
<path fill="#000000" opacity="1.000000" stroke="none" 
	d="
M409.728516,535.934265 
	C410.367676,536.316711 410.597046,536.548035 410.974335,536.982178 
	C411.152161,541.319519 415.298859,543.877075 415.583191,549.050171 
	C407.995270,545.729126 401.958954,541.358215 394.662750,536.162354 
	C400.622467,534.783386 404.945099,534.483154 409.728516,535.934265 
z"/>
<path fill="#000000" opacity="1.000000" stroke="none" 
	d="
M380.842224,423.431000 
	C379.211945,418.559418 379.908051,413.899292 380.014038,408.899963 
	C386.514313,412.633575 388.186188,419.313354 380.842224,423.431000 
z"/>
<path fill="#000000" opacity="1.000000" stroke="none" 
	d="
M478.988098,582.998169 
	C479.547180,584.670898 480.118378,586.355225 481.024902,589.028259 
	C475.365082,587.545776 471.913452,584.256897 467.373291,581.033447 
	C472.157654,579.061829 475.679169,578.552124 478.752930,582.835632 
	C479.017792,583.039185 479.000244,583.009827 478.988098,582.998169 
z"/>
<path fill="#000000" opacity="1.000000" stroke="none" 
	d="
M519.774780,374.082275 
	C520.407227,375.223938 520.982483,376.056183 520.193787,377.636414 
	C516.598267,375.660400 514.126404,372.694824 511.646881,369.809723 
	C510.833832,368.863647 511.209381,367.539948 512.230652,366.722412 
	C513.344788,365.830536 514.584656,366.202271 515.296936,367.177551 
	C516.844910,369.296997 518.173706,371.576538 519.774780,374.082275 
z"/>
<path fill="#000000" opacity="1.000000" stroke="none" 
	d="
M379.785309,455.793518 
	C380.069305,453.999847 380.850250,452.998077 382.051086,454.338165 
	C383.653473,456.126282 385.670441,458.063812 384.552246,460.851624 
	C383.961517,462.324341 383.038269,463.794434 381.046753,464.461334 
	C378.779175,461.989044 380.157318,458.917480 379.785309,455.793518 
z"/>
<path fill="#000000" opacity="1.000000" stroke="none" 
	d="
M406.955170,496.193604 
	C405.441956,496.166290 404.217773,496.252869 403.672577,494.566193 
	C405.824615,491.892181 408.883575,490.647278 412.740143,488.881012 
	C411.935272,492.958008 410.548157,495.255188 406.955170,496.193604 
z"/>
<path fill="#000000" opacity="1.000000" stroke="none" 
	d="
M475.193359,335.157776 
	C476.344696,334.584229 477.209015,333.748230 478.151306,334.668823 
	C478.874908,335.375793 478.472992,336.246399 478.055145,336.939728 
	C476.653961,339.264618 474.655426,339.824707 472.120483,338.846954 
	C471.665588,336.493042 473.737213,336.274567 475.193359,335.157776 
z"/>
<path fill="#000000" opacity="1.000000" stroke="none" 
	d="
M446.670959,381.491394 
	C447.397156,379.166687 447.023041,376.459167 449.926819,375.820312 
	C450.266724,375.745544 451.220093,376.621246 451.191681,377.004578 
	C450.986816,379.764679 449.272858,381.490295 446.896088,382.654846 
	C446.882538,382.661530 446.706665,382.408142 446.661621,382.259491 
	C446.615845,382.108490 446.638275,381.936768 446.670959,381.491394 
z"/>
<path fill="#000000" opacity="1.000000" stroke="none" 
	d="
M439.857666,561.941040 
	C443.249908,561.299438 443.304169,564.072388 444.186310,566.064941 
	C441.887817,565.743408 439.217072,565.925964 439.857666,561.941040 
z"/>
</svg>