<svg version="1.1" id="Layer_1" xmlns="http://www.w3.org/2000/svg" xmlns:xlink="http://www.w3.org/1999/xlink" x="0px" y="0px"
	 width="100%" viewBox="0 0 1024 1024" enable-background="new 0 0 1024 1024" xml:space="preserve">
<path fill="#000000" opacity="1.000000" stroke="none" 
	d="
M541.745361,283.857056 
	C578.258423,290.014465 606.071533,308.514740 625.495239,339.532440 
	C636.624390,357.304535 641.945679,376.911774 643.187561,397.672241 
	C643.420532,401.566406 644.478943,403.229279 648.515015,403.721466 
	C682.377930,407.851288 710.096619,436.166748 714.426270,470.492310 
	C718.405273,502.038452 704.178772,532.806885 677.543701,547.817993 
	C665.491211,554.610535 652.403564,557.369202 638.765686,557.926025 
	C622.931702,558.572571 606.855774,559.210449 591.373352,556.620056 
	C575.847900,554.022400 560.185364,554.470886 544.767639,551.909851 
	C543.788208,551.747131 542.571960,551.308105 541.827271,551.694458 
	C533.256287,556.140625 525.024292,552.128296 516.665955,550.913940 
	C514.246460,550.562439 511.704132,550.423096 509.293854,550.748169 
	C497.293518,552.366516 485.332703,552.434570 473.242340,551.466675 
	C461.078156,550.492798 449.070679,551.697815 437.267212,555.648254 
	C419.896088,561.462219 402.048096,551.992737 398.235565,535.552185 
	C397.789978,533.630676 397.692444,531.593872 397.687683,529.609924 
	C397.632202,506.444000 397.766571,483.276642 397.550598,460.112457 
	C397.429779,447.149475 403.158203,438.063232 414.744232,432.784241 
	C418.112823,431.249420 419.053070,429.217682 418.993713,425.881287 
	C418.872314,419.053833 418.932648,412.181671 420.264404,405.478851 
	C425.359009,379.836884 441.748138,365.053345 466.117889,358.112152 
	C463.107910,355.289917 459.052887,353.808716 450.544128,352.502625 
	C419.676788,347.764313 390.515656,364.827271 379.774292,394.080933 
	C375.904510,404.620117 374.842346,415.556732 377.519196,426.501038 
	C378.633301,431.056030 377.206177,432.105438 373.122711,432.964081 
	C350.533936,437.713806 336.343475,451.387848 330.990387,473.897522 
	C324.100006,502.871643 345.041748,532.908264 374.637512,536.878296 
	C378.792114,537.435547 382.913605,537.754700 387.082703,537.558350 
	C388.836456,537.475769 390.536163,537.484924 391.110748,539.573975 
	C393.030487,546.553650 397.248169,551.967163 402.634735,557.387573 
	C396.922333,557.387573 391.205902,557.250671 385.498444,557.418335 
	C375.910187,557.699951 366.491119,556.736450 357.496674,553.349304 
	C329.998383,542.993896 314.286865,523.006897 310.640717,493.999146 
	C307.074219,465.624817 317.411713,442.821106 340.062561,425.533691 
	C344.458984,422.178253 349.414062,419.716614 354.512970,417.659760 
	C357.529510,416.442963 358.783539,414.827942 358.874023,411.403290 
	C359.352570,393.287811 365.242035,377.157349 377.428223,363.546448 
	C389.646149,349.900177 404.899292,342.179657 423.171051,340.775726 
	C426.333801,340.532715 427.913330,339.097076 429.365326,336.662323 
	C446.616791,307.734833 472.192627,290.766327 505.001740,284.373871 
	C517.039490,282.028412 529.176453,282.226624 541.745361,283.857056 
M546.469727,476.605988 
	C549.695129,480.556427 547.453552,485.357208 548.371704,489.927765 
	C551.060730,483.951202 550.111938,478.823364 545.410889,475.709229 
	C542.351807,474.996368 540.281433,476.631195 539.786072,479.230499 
	C539.032227,483.185822 538.281128,487.418274 541.411560,490.889984 
	C540.878967,488.790314 540.945862,486.652100 540.892578,484.510468 
	C540.794006,480.551331 540.564209,476.583984 546.469727,476.605988 
M601.738464,378.811188 
	C598.393677,377.836548 597.453857,375.085785 596.438721,372.142792 
	C582.739380,332.426758 542.708557,302.153320 492.111511,308.572784 
	C471.223267,311.222992 453.046844,320.360229 437.383698,334.406464 
	C435.633057,335.976379 433.207336,337.036926 432.187653,339.943787 
	C434.766937,340.562439 436.982544,341.235016 439.247314,341.612793 
	C449.359406,343.299500 458.417572,347.442596 466.061707,354.136017 
	C469.243530,356.922058 472.331024,357.714233 476.328949,357.801544 
	C492.300964,358.150391 505.697754,364.493896 516.460388,376.227509 
	C528.920288,389.811493 533.326721,406.141144 532.083984,424.195862 
	C531.737793,429.225464 533.048401,432.035187 538.183594,434.419037 
	C545.025757,437.595367 551.658386,442.652740 552.203674,451.091217 
	C553.244995,467.205475 553.472473,483.373688 553.223938,499.536285 
	C553.197693,501.243469 552.591125,503.201782 554.395264,504.873260 
	C557.360168,502.507965 560.592102,500.620880 564.372681,502.816467 
	C568.357727,505.130707 568.023804,509.202240 568.085205,513.032410 
	C568.101135,514.028198 568.038147,515.035278 567.900940,516.021729 
	C567.343384,520.030701 565.297241,522.390076 560.969177,522.305664 
	C556.722473,522.222839 554.582825,519.808777 553.964722,515.908936 
	C553.629761,513.795166 553.721863,511.613770 553.621338,509.462830 
	C553.368469,516.064453 552.732056,522.683228 553.495972,529.504578 
	C561.750977,526.797241 561.740845,526.798035 562.165649,532.417725 
	C562.297241,534.158569 561.748291,536.348572 564.467468,536.639954 
	C566.885559,536.899109 567.411438,535.120850 568.066589,533.303772 
	C569.235107,530.062256 571.854187,528.771301 575.127502,528.805725 
	C578.458008,528.840698 581.017395,530.331726 581.856079,533.673706 
	C582.534607,536.377258 584.187744,536.880981 586.617676,536.909241 
	C602.771545,537.096924 618.926025,537.650513 635.077209,537.554321 
	C661.462891,537.397156 683.602234,520.557312 690.750671,495.452057 
	C693.289124,486.537170 694.024231,477.483765 691.072815,468.424469 
	C689.591797,463.878418 685.747070,460.839325 683.524231,456.333282 
	C686.979736,454.622131 686.287903,452.161713 684.616821,449.572449 
	C684.256165,449.013550 683.978333,448.401398 683.620850,447.840179 
	C673.416565,431.817505 658.927734,422.505676 640.041138,420.243988 
	C631.320923,419.199738 631.231201,419.340057 628.959595,410.882629 
	C625.009094,396.174286 616.600708,385.247284 601.738464,378.811188 
M441.222687,424.325745 
	C441.370911,427.322479 440.226532,430.924316 445.460693,430.894958 
	C465.436768,430.782898 485.413849,430.810486 505.390381,430.849182 
	C508.615997,430.855408 509.836578,429.397919 509.756561,426.273224 
	C509.632965,421.448792 509.931183,416.606140 509.650665,411.794525 
	C508.832520,397.761414 497.816437,383.971558 484.828430,380.434784 
	C470.141998,376.435516 455.932648,381.866302 447.392700,394.625336 
	C441.511017,403.412811 440.775818,413.252197 441.222687,424.325745 
M461.342133,480.699097 
	C461.212036,485.268219 462.608337,489.333710 466.111176,492.274567 
	C468.535156,494.309662 468.860809,496.503448 468.254242,499.332672 
	C467.071991,504.846924 466.131653,510.413177 464.941406,515.925537 
	C464.500214,517.968872 464.276337,519.832947 466.963135,519.890076 
	C473.534393,520.029846 480.110657,519.935669 486.620911,519.935669 
	C486.760101,518.654724 486.930389,518.144836 486.848846,517.679138 
	C485.732727,511.305176 484.706543,504.911072 483.375641,498.581360 
	C482.871979,496.185852 483.303680,494.647491 485.061401,492.874603 
	C490.296661,487.594208 491.419281,481.023682 488.490204,475.124023 
	C485.733337,469.571228 480.118073,466.619995 473.618073,467.307709 
	C467.357208,467.970154 463.258270,472.183746 461.342133,480.699097 
M537.038635,456.530579 
	C536.985291,455.038940 536.909180,453.547668 536.883118,452.055542 
	C536.811951,447.972076 534.359924,445.839264 530.671265,445.658783 
	C526.962280,445.477295 524.358459,447.613617 523.660034,451.398071 
	C523.303040,453.332611 523.357300,455.358246 523.365173,457.342194 
	C523.394470,464.752808 525.666992,467.674194 531.207520,467.540009 
	C535.604187,467.433502 537.006409,465.013550 537.038635,456.530579 
M530.377380,531.951477 
	C530.413269,534.615540 530.163879,537.322205 530.553284,539.933533 
	C531.107300,543.648560 533.314453,545.960449 537.354248,545.833313 
	C541.336304,545.708069 543.496765,543.577393 543.722412,539.610291 
	C543.864197,537.117004 543.926697,534.613464 543.885071,532.116821 
	C543.791504,526.499878 541.882263,524.005310 537.399841,523.819885 
	C532.425964,523.614075 530.782776,526.797363 530.377380,531.951477 
M519.164124,538.085938 
	C519.455200,539.598083 518.522644,541.385132 520.663208,543.134399 
	C522.298706,536.152771 521.536194,529.669739 521.459290,522.191772 
	C518.678772,523.939697 517.048584,524.964478 515.418396,525.989258 
	C518.736450,525.817993 519.278870,527.680542 519.191895,530.229553 
	C519.112549,532.555542 519.168945,534.886047 519.164124,538.085938 
M511.375854,483.019989 
	C511.614471,484.828613 511.943878,486.594452 513.359131,487.873840 
	C512.420410,484.624908 513.315918,481.515320 513.600159,478.404205 
	C513.782288,476.410004 514.381042,474.735565 516.793518,474.794495 
	C519.061707,474.849945 520.066040,476.405945 520.136841,478.392792 
	C520.265198,481.995392 520.996765,485.712006 518.704773,489.051483 
	C522.676636,486.153870 521.940369,482.067535 521.535034,478.173431 
	C521.242554,475.363129 519.468018,473.541718 516.574524,473.551910 
	C513.936890,473.561218 512.299316,475.282410 511.736359,477.798950 
	C511.414703,479.236847 511.464325,480.757812 511.375854,483.019989 
M511.786438,449.421326 
	C514.382568,454.375916 510.600952,460.120056 514.275330,465.015442 
	C514.275330,458.659393 514.275330,452.303375 514.275330,445.693298 
	C511.856934,446.181305 510.318604,447.086182 508.816101,448.795898 
	C509.944489,448.937927 510.595001,449.019775 511.786438,449.421326 
M559.531250,517.144714 
	C560.212097,518.060486 561.077515,518.546875 562.004333,517.622253 
	C564.031189,515.600342 563.159729,508.878876 560.446716,506.496368 
	C558.078247,509.631683 559.262756,513.114807 559.531250,517.144714 
M531.230225,480.321320 
	C531.230225,482.972717 531.230225,485.624084 531.230225,488.275482 
	C532.734741,483.893799 533.024475,479.583435 532.087341,474.995361 
	C528.783630,476.335144 531.028015,478.106476 531.230225,480.321320 
M500.932220,536.007019 
	C497.525177,535.671753 497.071014,537.386169 498.024597,540.805786 
	C499.806519,539.524292 502.166290,541.500061 503.344635,539.073792 
	C504.042694,537.636597 503.023041,536.611816 500.932220,536.007019 
M505.345490,525.124207 
	C505.453888,526.261047 505.006256,527.563538 506.249756,528.878418 
	C507.239227,519.322693 507.083099,518.607239 502.682526,517.701233 
	C506.267731,519.734253 505.105377,522.184265 505.345490,525.124207 
M532.718018,510.044006 
	C532.514221,507.107727 533.109680,504.064575 531.577209,501.334015 
	C531.577209,505.608582 531.577209,509.883148 531.577209,514.157715 
	C531.874817,514.156616 532.172363,514.155457 532.469971,514.154297 
	C532.554077,513.049438 532.638184,511.944550 532.718018,510.044006 
z"/>
<path fill="#000000" opacity="1.000000" stroke="none" 
	d="
M534.591187,562.566284 
	C550.382751,560.686462 565.651489,563.255249 580.955139,563.138672 
	C582.254456,563.128784 583.619080,563.506958 584.847595,563.979919 
	C588.022095,565.202087 590.390991,567.676514 590.370789,570.930542 
	C590.351624,574.023804 586.965881,574.241028 584.595093,574.626221 
	C568.171753,577.294800 551.811462,580.100220 534.974609,578.494141 
	C525.731934,577.612427 516.353455,577.933838 507.026611,578.775818 
	C493.795746,579.970398 480.810425,577.284973 467.796570,575.540222 
	C464.799957,575.138489 461.071533,573.845642 461.331299,569.813721 
	C461.575256,566.027161 464.579224,564.233032 468.205139,563.679565 
	C478.309265,562.137512 488.495148,563.020020 498.639618,562.754517 
	C510.460785,562.445129 522.294922,562.629944 534.591187,562.566284 
z"/>
<path fill="#000000" opacity="1.000000" stroke="none" 
	d="
M387.645996,669.775208 
	C382.298065,673.596313 376.540314,675.063660 370.458527,675.251770 
	C364.973145,675.421631 359.470581,675.114929 353.990601,675.357239 
	C349.947601,675.536011 348.812958,673.733765 348.842743,670.005676 
	C348.957062,655.697754 348.985168,641.387268 348.829498,627.080139 
	C348.785156,623.007812 350.164520,621.423462 354.329498,621.615662 
	C361.137085,621.929810 368.041962,621.190491 374.765961,622.023804 
	C385.888153,623.402100 394.081696,629.310364 397.167786,640.521484 
	C400.333893,652.023438 397.240570,661.856262 387.645996,669.775208 
M360.248047,635.000000 
	C360.230103,641.812256 360.144897,648.625122 360.210144,655.436523 
	C360.305237,665.362305 358.599640,664.966675 370.051819,664.748657 
	C381.315002,664.534302 388.258331,656.441284 386.656525,645.312683 
	C385.809784,639.430115 382.402924,634.866760 376.734161,633.306702 
	C371.416748,631.843384 365.610077,629.924744 360.248047,635.000000 
z"/>
<path fill="#000000" opacity="1.000000" stroke="none" 
	d="
M471.506561,650.921814 
	C471.749939,643.828003 471.749939,643.827271 478.152527,643.814026 
	C482.147125,643.805786 486.146088,643.911926 490.134979,643.757568 
	C493.245911,643.637268 494.859924,644.856934 494.863525,648.021545 
	C494.870148,653.846558 494.883575,659.671509 494.872833,665.496521 
	C494.869965,667.052856 494.423706,668.452148 493.166199,669.487610 
	C479.703705,680.572876 453.348175,679.699158 445.967072,658.856873 
	C441.867035,647.279419 445.626129,633.629822 455.020569,626.333435 
	C464.436096,619.020630 479.159271,618.561401 489.234711,625.295349 
	C491.311829,626.683594 493.956146,628.045044 491.364868,631.063416 
	C489.366974,633.390747 488.643951,637.651855 483.496490,634.445190 
	C471.082428,626.711609 458.220459,632.446655 456.001068,646.415894 
	C454.897766,653.360046 457.304230,659.248047 463.082153,663.401917 
	C468.975311,667.638733 475.317719,666.983765 481.579193,664.304260 
	C485.046844,662.820312 484.029785,659.560364 483.853577,656.855591 
	C483.666656,653.986084 481.228729,654.597107 479.329773,654.182434 
	C476.627625,653.592346 472.637177,656.274414 471.506561,650.921814 
z"/>
<path fill="#000000" opacity="1.000000" stroke="none" 
	d="
M595.521484,675.249512 
	C592.481689,675.164307 589.786621,675.928101 587.085938,674.501221 
	C587.174683,670.538574 589.351746,667.264587 590.853577,663.860840 
	C596.630920,650.766907 602.733032,637.816467 608.536682,624.733765 
	C609.850830,621.771179 611.818176,620.945251 614.789551,621.004333 
	C617.778809,621.063721 620.211304,621.365662 621.647339,624.653931 
	C628.440002,640.207458 635.416321,655.680847 642.319763,671.186096 
	C642.790649,672.243652 643.350525,673.311218 642.706299,674.507935 
	C634.075806,676.868530 632.309570,676.213867 629.247192,668.172424 
	C627.814575,664.410461 625.701904,663.060547 621.779419,663.313171 
	C617.136780,663.612244 612.445679,663.596436 607.801758,663.303223 
	C604.016296,663.064148 602.082764,664.627563 600.624878,667.992981 
	C599.504944,670.578491 599.409485,674.057861 595.521484,675.249512 
M618.116882,642.363342 
	C617.217957,640.563721 617.092041,638.242249 614.642090,636.963562 
	C612.335632,642.151550 609.439270,646.720032 608.336609,652.355530 
	C613.207336,653.439270 617.384094,653.387634 621.941650,652.520630 
	C621.375854,648.914490 619.639893,646.059937 618.116882,642.363342 
z"/>
<path fill="#000000" opacity="1.000000" stroke="none" 
	d="
M667.997498,726.741394 
	C668.328735,731.610107 672.395508,734.017456 674.544495,737.641235 
	C675.530701,739.304382 677.380737,740.463074 677.561829,742.872864 
	C673.413696,744.564453 669.938049,744.573059 667.198975,740.341064 
	C665.125732,737.137878 662.681396,734.175598 660.416016,731.095947 
	C659.315491,729.599915 658.194702,728.379761 656.079895,728.155029 
	C649.082397,727.411682 648.087219,728.255615 648.092834,735.502930 
	C648.094238,737.330627 648.166870,739.169922 647.992737,740.983276 
	C647.734314,743.673645 645.682190,743.873779 643.576355,743.859070 
	C641.311340,743.843323 640.396790,742.773254 640.391357,740.437805 
	C640.363220,728.307922 640.326477,716.175781 640.045593,704.050110 
	C639.949524,699.904175 641.469788,698.417358 645.570984,698.634705 
	C650.544861,698.898376 655.543762,698.675842 660.531738,698.692017 
	C669.523438,698.721252 674.824890,702.070923 676.820496,708.953674 
	C678.890869,716.093994 676.056152,721.876526 667.997498,726.741394 
M648.190979,718.000732 
	C648.336548,719.014587 648.588318,720.230164 649.687927,720.331482 
	C654.942993,720.815796 660.293030,721.618408 665.375671,719.636902 
	C668.454651,718.436462 669.931396,715.689575 669.497559,712.413635 
	C669.069397,709.181946 667.065247,706.986572 663.760620,706.346619 
	C662.310547,706.065674 660.789124,706.030579 659.304749,706.068604 
	C646.875671,706.386597 648.137573,704.150330 648.190979,718.000732 
z"/>
<path fill="#000000" opacity="1.000000" stroke="none" 
	d="
M442.248657,739.340820 
	C428.184357,750.167847 409.507690,743.472412 404.805939,729.561218 
	C400.974548,718.225220 405.714386,705.643372 415.864990,700.450012 
	C426.292816,695.114807 439.388580,697.986023 445.862976,707.026917 
	C453.113831,717.152100 451.789368,729.922363 442.248657,739.340820 
M411.494934,722.256470 
	C411.811279,723.548767 412.061798,724.861450 412.454773,726.130005 
	C414.833923,733.809570 422.177734,738.750427 429.099030,737.362915 
	C437.078827,735.763062 443.422760,727.529358 442.527374,719.934509 
	C441.514648,711.344543 435.106720,705.295837 426.970001,705.249329 
	C418.382751,705.200256 413.702087,710.095581 411.494934,722.256470 
z"/>
<path fill="#000000" opacity="1.000000" stroke="none" 
	d="
M569.990906,621.685547 
	C573.318542,621.684509 576.169189,621.900696 578.973511,621.632446 
	C583.206848,621.227539 584.017273,623.474731 584.064331,627.036987 
	C584.114807,630.861328 582.623230,632.284119 578.736328,632.326111 
	C567.380127,632.448608 567.340393,632.581787 567.419678,644.200012 
	C567.478699,652.851196 567.573242,661.504211 567.833862,670.150879 
	C567.935791,673.532898 567.273254,675.625183 563.255188,675.383118 
	C559.909058,675.181580 556.547913,675.951965 556.673218,670.572083 
	C556.932739,659.425232 556.614990,648.265991 556.783936,637.115601 
	C556.840332,633.395508 555.500793,631.906860 551.850159,632.229431 
	C550.198792,632.375305 548.523132,632.249512 546.858521,632.243164 
	C540.717163,632.219849 539.125305,629.963806 540.696899,623.957397 
	C541.375244,621.365234 543.289856,621.732666 545.023071,621.720093 
	C553.179382,621.660767 561.336426,621.688904 569.990906,621.685547 
z"/>
<path fill="#000000" opacity="1.000000" stroke="none" 
	d="
M585.735352,715.003174 
	C585.748962,710.676270 585.820251,706.847351 585.753113,703.020935 
	C585.703674,700.203247 586.682739,698.666443 589.777649,698.693604 
	C598.597717,698.770996 607.419189,698.744202 616.239685,698.692932 
	C618.828247,698.677856 620.317871,699.475769 620.262329,702.397156 
	C620.208069,705.251892 618.718140,706.168213 616.157654,706.161255 
	C609.999878,706.144531 603.835510,706.339905 597.686279,706.112305 
	C593.462402,705.955994 593.269897,708.359253 593.279846,711.515137 
	C593.289612,714.618591 593.349365,717.176636 597.601318,717.029541 
	C602.586914,716.857056 607.585144,717.043457 612.577820,717.086975 
	C615.143738,717.109375 617.155212,717.637512 617.159851,720.926941 
	C617.164795,724.480408 614.807800,724.357483 612.402161,724.374939 
	C607.576660,724.409973 602.750366,724.412476 597.925842,724.505249 
	C592.042053,724.618347 593.591858,729.046875 593.298767,732.481995 
	C592.965454,736.388794 595.283142,736.748169 598.309692,736.698730 
	C604.299500,736.600830 610.292603,736.729004 616.283508,736.669922 
	C618.839355,736.644714 620.373352,737.331543 620.360962,740.295166 
	C620.349304,743.086426 619.131714,744.198975 616.451477,744.187073 
	C607.630981,744.147949 598.809875,744.122681 589.989563,744.178284 
	C586.679321,744.199158 585.711304,742.488525 585.739746,739.468079 
	C585.815125,731.480225 585.745544,723.491028 585.735352,715.003174 
z"/>
<path fill="#000000" opacity="1.000000" stroke="none" 
	d="
M683.982117,664.999634 
	C686.473877,664.994568 688.493286,665.176758 690.465149,664.948425 
	C695.214539,664.398376 696.646057,666.583923 696.330933,671.045166 
	C696.131042,673.874512 695.363098,675.357910 692.277710,675.335327 
	C682.122864,675.261047 671.966614,675.268982 661.811768,675.352661 
	C658.847839,675.377136 657.640198,674.190369 657.654236,671.206543 
	C657.725647,656.056824 657.781555,640.905762 657.640930,625.757080 
	C657.599121,621.251953 660.472839,621.772034 663.322083,621.673401 
	C666.320801,621.569580 668.445312,621.958984 668.388794,625.872192 
	C668.225342,637.190674 668.466125,648.515381 668.273315,659.832947 
	C668.205994,663.781494 669.639893,665.261902 673.501648,665.027893 
	C676.818909,664.826904 680.158447,664.995239 683.982117,664.999634 
z"/>
<path fill="#000000" opacity="1.000000" stroke="none" 
	d="
M553.731201,702.587769 
	C557.021484,698.232666 561.023071,698.059875 566.631531,699.519653 
	C562.120483,704.193970 558.175903,708.325256 554.182373,712.408691 
	C548.558716,718.158936 548.594055,718.104126 553.501831,724.405762 
	C558.085999,730.291809 562.546509,736.274231 567.591919,742.912231 
	C563.000854,744.473755 559.636963,744.914307 556.737549,741.235291 
	C552.319275,735.629089 547.832703,730.076660 543.236206,724.327515 
	C537.287048,727.448364 534.373352,731.758667 535.269653,738.440918 
	C535.619751,741.051453 535.822632,744.052124 531.641907,744.004639 
	C529.296204,743.977966 527.774414,743.212708 527.775513,740.582703 
	C527.780762,727.752563 527.779480,714.922485 527.760864,702.092346 
	C527.757019,699.444397 529.255127,698.720581 531.617432,698.712891 
	C534.052429,698.704956 535.346680,699.578796 535.317322,702.195435 
	C535.252625,707.964355 535.297180,713.734497 535.297180,721.061951 
	C542.080261,714.266418 547.776611,708.559631 553.731201,702.587769 
z"/>
<path fill="#000000" opacity="1.000000" stroke="none" 
	d="
M476.245056,719.335571 
	C475.768890,726.675598 478.180817,732.150208 484.373505,735.626160 
	C490.533173,739.083679 496.320007,737.738770 501.577057,733.718750 
	C504.169525,731.736328 505.680908,732.684265 507.425568,734.662964 
	C509.735474,737.282776 507.466675,738.568787 505.910095,739.889465 
	C498.649963,746.049927 486.455902,746.488586 477.880829,740.993164 
	C469.762512,735.790405 465.908142,725.432068 468.437347,715.614441 
	C471.113953,705.224609 479.150696,698.320496 489.194122,697.717712 
	C494.855072,697.377991 500.126129,698.539856 504.825989,701.765442 
	C506.822083,703.135437 509.386627,704.366516 507.113251,707.620850 
	C505.101624,710.500488 503.367706,710.227600 500.583618,708.347412 
	C490.082336,701.255981 478.637573,706.341919 476.245056,719.335571 
z"/>
<path fill="#000000" opacity="1.000000" stroke="none" 
	d="
M415.773010,668.880005 
	C415.781647,654.617188 415.959473,640.835449 415.704773,627.061584 
	C415.618317,622.385193 417.626160,621.602112 421.661346,621.580261 
	C425.776337,621.557983 427.197357,622.962769 427.136139,627.079773 
	C426.926361,641.187683 426.908539,655.300720 427.032227,669.409912 
	C427.067474,673.432800 426.208893,675.434082 421.555664,675.473755 
	C416.837555,675.513916 415.193207,673.782593 415.773010,668.880005 
z"/>
<path fill="#000000" opacity="1.000000" stroke="none" 
	d="
M524.117615,661.986694 
	C524.117126,664.643555 524.126648,666.802856 524.115295,668.962097 
	C524.084717,674.785645 520.162476,677.309937 514.693909,675.113831 
	C512.639465,674.288818 512.818237,672.577087 512.816895,670.956177 
	C512.804810,656.007263 512.910461,641.057678 512.784119,626.109985 
	C512.749512,622.015930 514.946716,621.601135 518.168091,621.641541 
	C521.379700,621.681885 524.183350,621.613403 524.142822,626.110596 
	C524.036499,637.902588 524.113953,649.696167 524.117615,661.986694 
z"/>
<path fill="#000000" opacity="1.000000" stroke="none" 
	d="
M387.600525,736.948120 
	C390.322998,742.625183 389.455750,744.134216 383.821869,744.172485 
	C376.337738,744.223206 368.851898,744.105896 361.369019,744.215332 
	C358.043823,744.263916 356.577545,743.103821 356.618500,739.572571 
	C356.759186,727.432556 356.704193,715.289795 356.655334,703.148376 
	C356.644623,700.487732 357.110779,698.730347 360.405487,698.653625 
	C364.088684,698.567871 364.352295,700.652588 364.334595,703.438171 
	C364.275330,712.751953 364.494141,722.071472 364.230103,731.378113 
	C364.110138,735.606750 365.655273,736.890564 369.710999,736.725342 
	C375.518311,736.488892 381.345551,736.742432 387.600525,736.948120 
z"/>
<path fill="#000000" opacity="1.000000" stroke="none" 
	d="
M589.898682,503.961060 
	C583.207947,502.458893 581.755249,500.703278 581.692444,494.436584 
	C581.665771,491.771606 581.617188,489.100433 581.759033,486.441681 
	C581.991150,482.091125 584.517761,479.731689 588.725708,479.379181 
	C592.912781,479.028412 595.992554,480.883118 596.837097,485.121185 
	C597.684998,489.375946 597.606995,493.759064 596.894592,498.042511 
	C596.299316,501.621643 593.707703,503.327209 589.898682,503.961060 
M588.742493,498.963196 
	C589.610229,499.179901 590.650696,499.121216 590.951782,498.327515 
	C592.527527,494.172882 591.946533,489.896393 591.280640,485.668121 
	C591.159119,484.896606 590.208862,484.429565 589.279175,484.550018 
	C588.149963,484.696259 587.371399,485.458527 587.320435,486.489563 
	C587.119812,490.548431 585.857910,494.697083 588.742493,498.963196 
z"/>
<path fill="#000000" opacity="1.000000" stroke="none" 
	d="
M570.148499,445.620605 
	C567.713257,439.973480 568.464600,434.448364 569.178711,429.082489 
	C569.686951,425.263824 572.926697,423.725922 576.616882,423.854095 
	C580.573303,423.991608 583.465820,426.122498 583.942017,430.047455 
	C584.438416,434.139130 584.543823,438.402374 583.970886,442.471069 
	C583.072937,448.847778 576.454590,450.410126 570.148499,445.620605 
M575.201904,429.353088 
	C573.291504,432.485168 573.515381,435.975311 573.714355,439.390442 
	C573.812744,441.079803 573.753723,443.488312 576.237732,443.552490 
	C579.028259,443.624573 578.850952,441.127380 579.157593,439.219147 
	C579.554932,436.746826 579.418213,434.288452 578.962158,431.835693 
	C578.633484,430.067749 578.080566,428.581757 575.201904,429.353088 
z"/>
<path fill="#000000" opacity="1.000000" stroke="none" 
	d="
M590.374695,469.977478 
	C589.273193,474.695221 586.285828,476.447113 582.170349,475.999786 
	C578.230713,475.571533 576.047913,473.026581 575.440247,469.084106 
	C574.903625,465.602478 574.976929,462.142609 575.336853,458.650696 
	C575.800415,454.153687 577.990356,451.657501 582.699829,451.622742 
	C587.607178,451.586517 589.821045,453.465271 590.601807,458.635834 
	C591.152161,462.279694 591.011475,465.929169 590.374695,469.977478 
M582.665588,471.146179 
	C585.729553,469.485596 587.242798,458.848389 584.606995,456.942963 
	C582.928650,455.729767 580.880005,456.242676 580.729370,458.152130 
	C580.393799,462.408447 578.669617,466.949646 582.665588,471.146179 
z"/>
<path fill="#000000" opacity="1.000000" stroke="none" 
	d="
M614.455627,480.191620 
	C613.695374,476.614044 614.230530,473.482574 614.618774,470.340210 
	C615.151550,466.028381 617.520447,463.826385 621.893616,463.692780 
	C626.224670,463.560547 628.830933,465.562988 629.734802,469.775269 
	C630.442200,473.072296 630.245056,476.418854 630.011658,479.732910 
	C629.701111,484.142273 627.872437,487.471924 622.954346,487.968323 
	C618.725647,488.395172 615.832336,485.810486 614.455627,480.191620 
M623.108948,483.000977 
	C626.328918,479.064575 624.631714,474.523193 624.412598,470.270813 
	C624.308960,468.259979 622.319885,467.870117 620.701599,469.338501 
	C618.023010,471.768860 619.237122,481.086151 623.108948,483.000977 
z"/>
<path fill="#000000" opacity="1.000000" stroke="none" 
	d="
M614.015625,518.131165 
	C613.807556,520.699341 613.809753,522.883362 613.334229,524.958008 
	C612.454102,528.797852 609.640442,530.394409 605.933411,530.054932 
	C602.431580,529.734192 600.058594,527.726562 599.779663,524.038330 
	C599.567932,521.239258 599.615479,518.408203 599.734497,515.599243 
	C599.936890,510.824402 602.321472,508.114868 606.571228,508.076111 
	C610.906860,508.036530 613.240417,510.493866 613.760254,514.731567 
	C613.880981,515.715698 613.928894,516.708740 614.015625,518.131165 
M604.760803,518.816650 
	C604.924011,521.141663 604.125549,523.815063 606.916016,525.318604 
	C609.976318,521.262878 609.632935,515.264221 606.317871,513.078247 
	C604.501465,514.341858 605.151794,516.358887 604.760803,518.816650 
z"/>
<path fill="#000000" opacity="1.000000" stroke="none" 
	d="
M549.518555,419.802307 
	C550.166138,423.195618 550.167847,426.166779 549.307068,429.097229 
	C548.436707,432.060211 546.350586,433.363922 543.333984,433.341003 
	C540.277893,433.317810 538.348633,431.919373 537.591797,428.878784 
	C536.896423,426.085052 536.928955,423.290070 537.217346,420.462585 
	C537.575806,416.947693 539.060181,414.243286 542.887390,414.052246 
	C546.442505,413.874817 548.961243,415.525909 549.518555,419.802307 
M544.269470,419.203766 
	C540.535645,421.053955 540.236938,425.286224 543.881409,429.701263 
	C546.464233,426.415314 544.948120,423.011353 544.269470,419.203766 
z"/>
<path fill="#000000" opacity="1.000000" stroke="none" 
	d="
M567.459473,416.900574 
	C565.361511,419.652893 562.903015,420.296387 560.153442,419.178528 
	C557.283081,418.011505 556.555725,415.524933 556.673889,412.641174 
	C556.755310,410.651459 556.677429,408.655304 556.755249,406.665314 
	C556.896790,403.044495 558.981567,401.056122 562.442383,401.078979 
	C565.869873,401.101562 568.054993,403.129028 568.226196,406.668213 
	C568.385498,409.960724 568.821045,413.305603 567.459473,416.900574 
M563.957214,408.057770 
	C563.588928,406.281891 562.588135,404.134155 561.165588,406.733307 
	C559.773376,409.276978 559.135681,412.765472 562.160095,415.410004 
	C564.711609,413.458557 563.724792,410.995758 563.957214,408.057770 
z"/>
<path fill="#000000" opacity="1.000000" stroke="none" 
	d="
M592.145264,430.070923 
	C594.064880,429.097778 595.434753,427.117554 597.375549,428.097626 
	C599.550903,429.196167 598.882019,431.601318 598.865967,433.500885 
	C598.828064,437.980988 598.599487,442.459900 598.419067,446.938110 
	C598.365173,448.275024 598.345215,449.774536 596.508484,449.888031 
	C594.555115,450.008759 593.915527,448.656494 593.860352,447.008057 
	C593.777039,444.518402 593.882385,442.022034 593.782898,439.533478 
	C593.697266,437.389465 594.473572,435.233643 591.025269,434.163971 
	C588.380371,433.343475 590.084167,431.341705 592.145264,430.070923 
z"/>
<path fill="#000000" opacity="1.000000" stroke="none" 
	d="
M562.486206,426.149933 
	C562.436218,431.841675 562.428345,437.129944 562.344910,442.416992 
	C562.322144,443.856262 562.514587,445.719116 560.459595,445.887939 
	C558.200867,446.073486 557.853027,444.291077 557.809753,442.536377 
	C557.752808,440.224060 557.804810,437.909149 557.752625,435.596619 
	C557.698608,433.202515 558.360107,430.502502 554.789551,429.754700 
	C553.507263,429.486176 552.823608,427.849670 553.683838,427.005432 
	C555.662842,425.063385 558.107666,423.508087 560.920593,423.161163 
	C562.427124,422.975342 562.392822,424.605286 562.486206,426.149933 
z"/>
<path fill="#000000" opacity="1.000000" stroke="none" 
	d="
M600.010986,462.119904 
	C602.534973,461.425323 604.123840,458.060364 606.417114,459.515320 
	C608.993652,461.149994 607.639038,464.352386 607.593323,466.930389 
	C607.531616,470.412415 607.537964,473.897552 607.378357,477.375061 
	C607.301270,479.054138 608.000671,481.599060 605.318054,481.650360 
	C602.380615,481.706512 602.922913,479.047791 602.821899,477.158264 
	C602.724609,475.338196 602.884399,473.503571 602.770447,471.685425 
	C602.621338,469.305573 603.995972,466.305481 599.771362,465.615356 
	C598.330872,465.380066 598.683594,463.484985 600.010986,462.119904 
z"/>
<path fill="#000000" opacity="1.000000" stroke="none" 
	d="
M565.249084,451.317596 
	C567.776062,450.195831 569.185669,450.776337 569.218689,453.316254 
	C569.291748,458.937439 569.280945,464.560181 569.249756,470.181976 
	C569.242188,471.543030 568.976807,472.927246 567.208618,473.035095 
	C565.144592,473.160980 564.773682,471.694519 564.735718,470.097382 
	C564.672668,467.452789 564.681763,464.806396 564.666382,462.160736 
	C564.653015,459.868866 565.046326,457.615173 561.714478,456.863708 
	C559.783875,456.428253 560.040833,454.591125 561.490540,453.443176 
	C562.510986,452.635162 563.778870,452.139618 565.249084,451.317596 
z"/>
<path fill="#000000" opacity="1.000000" stroke="none" 
	d="
M571.832275,479.575714 
	C575.014099,478.641937 575.248901,480.507812 575.261353,482.489166 
	C575.293640,487.640045 575.299194,492.791351 575.269897,497.942230 
	C575.261292,499.456116 575.216309,501.123657 573.119690,501.225952 
	C570.596985,501.349060 570.735413,499.404663 570.713379,497.762573 
	C570.662476,493.962555 570.697205,490.161407 570.697205,486.893707 
	C569.247925,484.931427 565.947998,486.479370 566.228455,483.725037 
	C566.513306,480.928314 569.733093,481.114563 571.832275,479.575714 
z"/>
<path fill="#000000" opacity="1.000000" stroke="none" 
	d="
M591.870056,508.004639 
	C594.246765,507.273438 595.019836,508.400909 595.038330,510.165527 
	C595.088806,514.978760 595.079712,519.793762 595.004089,524.606628 
	C594.979370,526.179932 594.497437,527.784058 592.494812,527.578308 
	C590.785889,527.402710 590.746582,525.838745 590.708801,524.489380 
	C590.671631,523.161926 590.635803,521.831360 590.684692,520.505249 
	C590.810059,517.104858 591.344788,513.544800 586.855896,512.549500 
	C587.235474,509.403625 590.040405,509.530792 591.870056,508.004639 
z"/>
<path fill="#000000" opacity="1.000000" stroke="none" 
	d="
M575.682861,514.420776 
	C576.426697,510.950684 573.345947,510.502747 571.867432,508.793335 
	C573.544495,506.133514 575.971680,505.115326 579.243225,504.264648 
	C580.796143,510.105255 580.216492,515.765137 579.689514,521.401978 
	C579.589661,522.470642 578.620361,523.092468 577.503662,522.932434 
	C576.351746,522.767334 575.888733,521.825928 575.832642,520.784241 
	C575.726440,518.809204 575.728760,516.828369 575.682861,514.420776 
z"/>
<path fill="#000000" opacity="1.000000" stroke="none" 
	d="
M605.645142,494.080017 
	C605.716980,491.202454 602.434082,492.154327 601.929443,489.918335 
	C603.354492,487.504303 605.843628,486.955383 609.178223,486.261017 
	C609.194214,492.378967 610.028381,498.090485 608.256470,504.682190 
	C604.305908,501.249725 606.333923,497.542023 605.645142,494.080017 
z"/>
<path fill="#000000" opacity="1.000000" stroke="none" 
	d="
M562.201416,478.614258 
	C561.996704,483.844330 563.074646,488.778900 561.235413,494.110657 
	C556.026428,490.531616 562.145630,482.877777 554.584717,481.109589 
	C557.093750,478.683502 558.653809,476.048645 562.201416,478.614258 
z"/>
<path fill="#000000" opacity="1.000000" stroke="none" 
	d="
M527.827881,464.754395 
	C525.750732,460.103851 526.835449,455.595642 526.838257,451.169067 
	C526.839539,449.183685 528.063477,447.651855 530.271301,447.622314 
	C532.407227,447.593689 533.874573,448.971985 534.010559,450.932739 
	C534.273804,454.728455 534.525696,458.614105 533.988342,462.348236 
	C533.550171,465.392700 531.345215,466.914459 527.827881,464.754395 
z"/>
<path fill="#000000" opacity="1.000000" stroke="none" 
	d="
M541.349121,534.971069 
	C541.041504,538.871277 542.387329,544.028809 537.004211,543.747925 
	C532.156128,543.494812 533.642090,538.576233 533.520691,535.281128 
	C533.453552,533.459900 533.540955,531.623535 533.696411,529.805786 
	C533.900391,527.421448 534.983826,525.422241 537.596497,525.511841 
	C540.174316,525.600342 541.164001,527.647583 541.308472,530.025208 
	C541.399048,531.515198 541.340332,533.014343 541.349121,534.971069 
z"/>
</svg>