<svg version="1.1" id="Layer_1" xmlns="http://www.w3.org/2000/svg" xmlns:xlink="http://www.w3.org/1999/xlink" x="0px" y="0px"
	 width="100%" viewBox="0 0 270 148" enable-background="new 0 0 270 148" xml:space="preserve">
<path fill="#0B2F21" opacity="1.000000" stroke="none" 
	d="
M271.000000,97.000000 
	C271.000000,114.312981 271.000000,131.625961 271.000000,148.939133 
	C180.999985,148.939316 90.999977,148.939316 1.000000,148.939316 
	C1.000000,132.231522 1.000000,115.584419 1.385023,98.384811 
	C14.312600,103.879532 26.941261,102.676773 39.779991,98.523788 
	C39.779991,95.463379 39.770866,92.643883 39.781448,89.824463 
	C39.858788,69.215698 39.940083,48.606949 40.179455,27.897572 
	C40.207081,27.527891 40.075378,27.258835 39.615131,26.738365 
	C34.221233,26.486956 29.155882,26.486956 23.602840,26.486956 
	C23.602840,34.472546 23.602840,42.148972 23.602840,50.097809 
	C15.309175,47.925983 8.101188,50.093464 1.000000,53.000000 
	C1.000000,35.686909 1.000000,18.373814 1.000007,1.061214 
	C91.000015,1.061706 181.000031,1.061706 271.000000,1.061706 
	C271.000000,18.436502 271.000000,35.749592 270.641418,53.509430 
	C259.952698,47.567772 249.294525,46.939865 238.791901,53.088959 
	C229.362213,58.609879 227.025284,67.881035 227.432602,78.043190 
	C227.965347,91.334908 238.750931,102.760834 251.361801,102.659088 
	C256.799896,102.615204 262.567322,101.940567 267.330811,98.335938 
	C268.322815,97.585274 269.765167,97.429787 271.000000,97.000000 
M65.964851,92.745583 
	C66.269318,92.375298 66.837547,92.006805 66.840080,91.634468 
	C66.927956,78.691017 66.973190,65.747169 66.934090,52.803654 
	C66.933243,52.521851 65.879898,52.243233 64.910957,51.248669 
	C59.449570,51.178875 53.988186,51.109081 47.835892,51.347637 
	C47.557411,52.245277 47.040241,53.141884 47.036358,54.040710 
	C46.980480,66.969223 46.970757,79.898140 47.032890,92.826569 
	C47.037979,93.885490 47.645512,94.941521 48.096485,96.778564 
	C47.068386,105.678322 42.032478,111.577934 32.939301,115.028084 
	C35.826965,116.421944 37.625412,117.180862 39.319847,118.126205 
	C48.261425,123.114777 53.542919,122.240616 59.134464,113.686348 
	C61.595608,109.921143 62.769665,105.244301 64.131775,100.858292 
	C64.906578,98.363388 64.881355,95.620033 65.964851,92.745583 
M112.966972,62.239956 
	C112.341820,54.745075 109.570724,51.111397 102.285088,50.157276 
	C97.104446,49.478825 91.698639,49.553623 86.499611,50.177704 
	C74.738579,51.589481 73.436180,53.459003 74.282646,65.207909 
	C74.293793,65.362633 74.389221,65.511299 74.153687,64.875114 
	C80.543449,64.140785 86.702957,63.409668 92.868263,62.731201 
	C98.536369,62.107449 98.797661,62.425259 97.894203,67.563194 
	C91.101425,69.591331 84.387299,70.972878 78.213341,73.616127 
	C72.144554,76.214340 69.980659,82.383369 71.115715,89.853378 
	C71.952316,95.359177 76.019890,99.346703 82.351288,100.482361 
	C86.218338,101.175987 90.200737,102.113670 94.048584,101.827843 
	C100.471191,101.350746 106.827484,99.980949 113.961113,98.745728 
	C114.290504,98.218208 114.903801,97.692589 114.907333,97.162888 
	C114.977776,86.618576 115.018425,76.073410 114.914886,65.529877 
	C114.906593,64.685654 113.805702,63.852169 112.966972,62.239956 
M120.935257,100.005180 
	C126.230072,99.985641 131.524887,99.966110 137.177628,99.806686 
	C137.268585,99.719368 137.448227,99.570244 137.436981,99.554115 
	C137.298828,99.355820 137.132751,99.176979 136.737961,98.082428 
	C136.813614,87.058823 136.889252,76.035217 137.609283,64.749390 
	C139.067581,64.203888 140.525879,63.658394 142.732727,62.939316 
	C143.494186,62.998356 144.255630,63.057392 145.396286,63.578770 
	C146.259964,63.419891 147.123627,63.261013 148.655060,63.162895 
	C149.398514,64.449638 150.141968,65.736382 150.328705,67.636917 
	C150.226288,77.724731 150.101715,87.812477 150.070374,97.900513 
	C150.068253,98.587662 150.766159,99.276985 152.036835,100.178642 
	C156.999634,100.178642 161.962448,100.178642 167.277893,100.178642 
	C167.277893,88.489113 167.475037,77.043350 167.215576,65.607941 
	C167.007706,56.446163 162.182449,51.529633 152.968140,49.975880 
	C141.883499,48.106739 131.200790,50.112675 119.808571,53.458778 
	C119.551338,54.046192 119.071693,54.632763 119.069466,55.221142 
	C119.016563,69.171814 118.986168,83.122856 119.067894,97.073151 
	C119.073433,98.019646 119.992722,98.960800 120.935257,100.005180 
M192.957840,51.238823 
	C190.086746,52.495193 187.047302,53.468330 184.373993,55.057423 
	C173.362167,61.603149 169.191299,75.458885 174.004364,87.757568 
	C177.332565,96.261993 188.571472,105.011131 202.209824,100.011284 
	C203.001495,99.721054 204.040787,100.106262 204.958298,100.176628 
	C204.563904,108.528137 200.879364,112.831497 193.062683,112.658798 
	C186.555313,112.515030 180.077179,111.048607 173.318909,110.131767 
	C173.318909,111.322662 173.318970,113.269020 173.318909,115.215378 
	C173.318634,123.467865 173.440796,123.117897 181.118988,125.798317 
	C187.678833,128.088318 194.441986,128.002075 200.441803,126.009834 
	C214.973053,121.184738 220.220764,114.258759 220.688385,98.490211 
	C220.989319,88.341820 220.672043,78.176109 220.756622,68.019188 
	C220.769104,66.521004 221.123383,64.801399 221.921051,63.575710 
	C224.391342,59.779850 227.152008,56.172962 230.287064,51.815681 
	C217.098862,49.325638 205.473618,48.131958 192.957840,51.238823 
M52.002869,42.667744 
	C56.259991,42.667744 60.517109,42.667744 64.672783,42.667744 
	C64.672783,36.764919 64.672783,31.695370 64.672783,26.572887 
	C59.247040,26.572887 54.182354,26.572887 48.699188,26.572887 
	C48.699188,31.364162 48.578308,35.842049 48.808262,40.301846 
	C48.850712,41.125164 50.311779,41.875340 52.002869,42.667744 
z"/>
<path fill="#FAFAFA" opacity="1.000000" stroke="none" 
	d="
M40.020126,27.998198 
	C39.940083,48.606949 39.858788,69.215698 39.781448,89.824463 
	C39.770866,92.643883 39.779991,95.463379 39.779991,98.523788 
	C26.941261,102.676773 14.312600,103.879532 1.385023,97.916153 
	C1.000000,83.312439 1.000000,68.624878 1.000000,53.468658 
	C8.101188,50.093464 15.309175,47.925983 23.602840,50.097809 
	C23.602840,42.148972 23.602840,34.472546 23.602840,26.486956 
	C29.155882,26.486956 34.221233,26.486956 39.569664,26.995369 
	C39.908539,27.668587 39.964333,27.833391 40.020126,27.998198 
M11.864653,63.659538 
	C11.432964,64.037300 11.001276,64.415054 9.874822,64.906662 
	C5.064144,70.139656 4.645856,76.251396 7.422254,82.298859 
	C10.269156,88.499886 16.194855,88.432526 22.829258,87.913094 
	C23.166721,86.758369 23.777224,85.608040 23.795925,84.448174 
	C23.893887,78.372765 23.673349,72.288315 23.911587,66.220673 
	C24.034576,63.088272 22.774784,62.103317 19.241671,62.126816 
	C18.510616,62.201847 17.779562,62.276878 16.398865,62.200085 
	C15.158362,62.591496 13.917860,62.982906 12.570298,63.461468 
	C12.570298,63.461468 12.459243,63.543465 11.864653,63.659538 
z"/>
<path fill="#F9FAFA" opacity="1.000000" stroke="none" 
	d="
M271.000000,96.531342 
	C269.765167,97.429787 268.322815,97.585274 267.330811,98.335938 
	C262.567322,101.940567 256.799896,102.615204 251.361801,102.659088 
	C238.750931,102.760834 227.965347,91.334908 227.432602,78.043190 
	C227.025284,67.881035 229.362213,58.609879 238.791901,53.088959 
	C249.294525,46.939865 259.952698,47.567772 270.641418,53.978088 
	C271.000000,68.020897 271.000000,82.041786 271.000000,96.531342 
M244.562637,69.484550 
	C244.681122,73.761795 244.283600,78.137733 245.076935,82.285912 
	C245.744247,85.775047 247.998459,88.217049 252.484421,88.213089 
	C257.204041,88.208931 260.899994,87.315987 261.767822,82.233635 
	C262.432251,78.342430 262.753906,74.297295 262.497253,70.368362 
	C262.176514,65.458092 258.157532,62.922112 254.115753,62.123322 
	C249.518967,61.214844 246.316025,64.201271 244.562637,69.484550 
z"/>
<path fill="#F8F8F8" opacity="1.000000" stroke="none" 
	d="
M193.362091,51.163841 
	C205.473618,48.131958 217.098862,49.325638 230.287064,51.815681 
	C227.152008,56.172962 224.391342,59.779850 221.921051,63.575710 
	C221.123383,64.801399 220.769104,66.521004 220.756622,68.019188 
	C220.672043,78.176109 220.989319,88.341820 220.688385,98.490211 
	C220.220764,114.258759 214.973053,121.184738 200.441803,126.009834 
	C194.441986,128.002075 187.678833,128.088318 181.118988,125.798317 
	C173.440796,123.117897 173.318634,123.467865 173.318909,115.215378 
	C173.318970,113.269020 173.318909,111.322662 173.318909,110.131767 
	C180.077179,111.048607 186.555313,112.515030 193.062683,112.658798 
	C200.879364,112.831497 204.563904,108.528137 204.958298,100.176628 
	C204.040787,100.106262 203.001495,99.721054 202.209824,100.011284 
	C188.571472,105.011131 177.332565,96.261993 174.004364,87.757568 
	C169.191299,75.458885 173.362167,61.603149 184.373993,55.057423 
	C187.047302,53.468330 190.086746,52.495193 193.362091,51.163841 
M205.295349,83.276360 
	C205.295349,76.344246 205.295349,69.412132 205.295349,62.060234 
	C201.391098,62.787579 197.952164,62.598156 195.460709,64.042786 
	C186.824478,69.050369 186.457413,80.588531 193.289108,86.089951 
	C197.380386,89.384583 204.183487,88.407761 205.295349,83.276360 
z"/>
<path fill="#FAFAFA" opacity="1.000000" stroke="none" 
	d="
M150.885437,67.023117 
	C150.141968,65.736382 149.398514,64.449638 147.968079,62.983032 
	C146.526443,62.907593 145.771759,63.012012 145.017090,63.116428 
	C144.255630,63.057392 143.494186,62.998356 141.941101,62.953377 
	C139.754608,63.648830 138.359756,64.330215 136.964890,65.011612 
	C136.889252,76.035217 136.813614,87.058823 136.761902,98.767181 
	C136.785828,99.451935 136.819702,99.946579 136.819702,99.946579 
	C131.524887,99.966110 126.230072,99.985641 120.745804,99.492928 
	C120.569839,83.682297 120.583328,68.383919 120.596817,53.085537 
	C131.200790,50.112675 141.883499,48.106739 152.968140,49.975880 
	C162.182449,51.529633 167.007706,56.446163 167.215576,65.607941 
	C167.475037,77.043350 167.277893,88.489113 167.277893,100.178642 
	C161.962448,100.178642 156.999634,100.178642 151.606903,99.605934 
	C151.079773,88.363190 150.982605,77.693153 150.885437,67.023117 
z"/>
<path fill="#F8F9F8" opacity="1.000000" stroke="none" 
	d="
M113.211700,98.986977 
	C106.827484,99.980949 100.471191,101.350746 94.048584,101.827843 
	C90.200737,102.113670 86.218338,101.175987 82.351288,100.482361 
	C76.019890,99.346703 71.952316,95.359177 71.115715,89.853378 
	C69.980659,82.383369 72.144554,76.214340 78.213341,73.616127 
	C84.387299,70.972878 91.101425,69.591331 97.894203,67.563194 
	C98.797661,62.425259 98.536369,62.107449 92.868263,62.731201 
	C86.702957,63.409668 80.543449,64.140785 74.153687,64.875114 
	C74.389221,65.511299 74.293793,65.362633 74.282646,65.207909 
	C73.436180,53.459003 74.738579,51.589481 86.499611,50.177704 
	C91.698639,49.553623 97.104446,49.478825 102.285088,50.157276 
	C109.570724,51.111397 112.341820,54.745075 113.032394,63.091446 
	C113.135780,75.624283 113.173737,87.305634 113.211700,98.986977 
M85.709366,84.185555 
	C85.656853,88.935028 87.569771,90.398071 93.404785,90.071182 
	C98.990059,89.758293 99.767448,88.286469 98.580566,79.872314 
	C93.951965,79.567558 89.436539,79.558228 85.709366,84.185555 
z"/>
<path fill="#F7F8F8" opacity="1.000000" stroke="none" 
	d="
M48.526798,51.039291 
	C53.988186,51.109081 59.449570,51.178875 64.997948,52.064674 
	C65.128761,66.249969 65.172585,79.619270 65.216408,92.988564 
	C64.881355,95.620033 64.906578,98.363388 64.131775,100.858292 
	C62.769665,105.244301 61.595608,109.921143 59.134464,113.686348 
	C53.542919,122.240616 48.261425,123.114777 39.319847,118.126205 
	C37.625412,117.180862 35.826965,116.421944 32.939301,115.028084 
	C42.032478,111.577934 47.068386,105.678322 48.155342,95.943832 
	C48.318401,80.419167 48.422600,65.729225 48.526798,51.039291 
z"/>
<path fill="#EFF1F0" opacity="1.000000" stroke="none" 
	d="
M51.560471,42.663509 
	C50.311779,41.875340 48.850712,41.125164 48.808262,40.301846 
	C48.578308,35.842049 48.699188,31.364162 48.699188,26.572887 
	C54.182354,26.572887 59.247040,26.572887 64.672783,26.572887 
	C64.672783,31.695370 64.672783,36.764919 64.672783,42.667744 
	C60.517109,42.667744 56.259991,42.667744 51.560471,42.663509 
z"/>
<path fill="#002412" opacity="1.000000" stroke="none" 
	d="
M65.590630,92.867073 
	C65.172585,79.619270 65.128761,66.249969 65.201233,52.421906 
	C65.879898,52.243233 66.933243,52.521851 66.934090,52.803654 
	C66.973190,65.747169 66.927956,78.691017 66.840080,91.634468 
	C66.837547,92.006805 66.269318,92.375298 65.590630,92.867073 
z"/>
<path fill="#001800" opacity="1.000000" stroke="none" 
	d="
M48.181343,51.193466 
	C48.422600,65.729225 48.318401,80.419167 48.093658,95.554001 
	C47.645512,94.941521 47.037979,93.885490 47.032890,92.826569 
	C46.970757,79.898140 46.980480,66.969223 47.036358,54.040710 
	C47.040241,53.141884 47.557411,52.245277 48.181343,51.193466 
z"/>
<path fill="#002311" opacity="1.000000" stroke="none" 
	d="
M113.586403,98.866348 
	C113.173737,87.305634 113.135780,75.624283 113.155182,63.478317 
	C113.805702,63.852169 114.906593,64.685654 114.914886,65.529877 
	C115.018425,76.073410 114.977776,86.618576 114.907333,97.162888 
	C114.903801,97.692589 114.290504,98.218208 113.586403,98.866348 
z"/>
<path fill="#001D04" opacity="1.000000" stroke="none" 
	d="
M120.202698,53.272156 
	C120.583328,68.383919 120.569839,83.682297 120.521683,99.442551 
	C119.992722,98.960800 119.073433,98.019646 119.067894,97.073151 
	C118.986168,83.122856 119.016563,69.171814 119.069466,55.221142 
	C119.071693,54.632763 119.551338,54.046192 120.202698,53.272156 
z"/>
<path fill="#000000" opacity="1.000000" stroke="none" 
	d="
M150.607071,67.330017 
	C150.982605,77.693153 151.079773,88.363190 151.157730,99.499268 
	C150.766159,99.276985 150.068253,98.587662 150.070374,97.900513 
	C150.101715,87.812477 150.226288,77.724731 150.607071,67.330017 
z"/>
<path fill="#00200F" opacity="1.000000" stroke="none" 
	d="
M137.287079,64.880501 
	C138.359756,64.330215 139.754608,63.648830 141.566833,63.040169 
	C140.525879,63.658394 139.067581,64.203888 137.287079,64.880501 
z"/>
<path fill="#00200F" opacity="1.000000" stroke="none" 
	d="
M145.206696,63.347599 
	C145.771759,63.012012 146.526443,62.907593 147.634216,62.952652 
	C147.123627,63.261013 146.259964,63.419891 145.206696,63.347599 
z"/>
<path fill="#002311" opacity="1.000000" stroke="none" 
	d="
M40.179459,27.897572 
	C39.964333,27.833391 39.908539,27.668587 39.898209,27.246780 
	C40.075378,27.258835 40.207081,27.527891 40.179459,27.897572 
z"/>
<path fill="#00200F" opacity="1.000000" stroke="none" 
	d="
M136.998657,99.876633 
	C136.819702,99.946579 136.785828,99.451935 136.879852,99.222519 
	C137.132751,99.176979 137.298828,99.355820 137.436981,99.554115 
	C137.448227,99.570244 137.268585,99.719368 136.998657,99.876633 
z"/>
<path fill="#0A2E20" opacity="1.000000" stroke="none" 
	d="
M21.988724,87.889526 
	C16.194855,88.432526 10.269156,88.499886 7.422254,82.298859 
	C4.645856,76.251396 5.064144,70.139656 10.560588,64.855103 
	C11.650650,64.383514 12.054946,63.963490 12.459242,63.543465 
	C12.459243,63.543465 12.570298,63.461468 12.980879,63.550392 
	C14.610476,63.210182 15.829493,62.781048 17.048508,62.351910 
	C17.779562,62.276878 18.510616,62.201847 19.717381,62.586929 
	C20.820566,64.664986 21.944448,66.269516 21.988577,67.903214 
	C22.168402,74.560463 22.017654,81.226639 21.988724,87.889526 
z"/>
<path fill="#2D3D33" opacity="1.000000" stroke="none" 
	d="
M22.408991,87.901306 
	C22.017654,81.226639 22.168402,74.560463 21.988577,67.903214 
	C21.944448,66.269516 20.820566,64.664986 20.071768,62.699413 
	C22.774784,62.103317 24.034576,63.088272 23.911587,66.220673 
	C23.673349,72.288315 23.893887,78.372765 23.795925,84.448174 
	C23.777224,85.608040 23.166721,86.758369 22.408991,87.901306 
z"/>
<path fill="#2D3D33" opacity="1.000000" stroke="none" 
	d="
M16.723686,62.275997 
	C15.829493,62.781048 14.610476,63.210182 13.034409,63.506821 
	C13.917860,62.982906 15.158362,62.591496 16.723686,62.275997 
z"/>
<path fill="#2D3D33" opacity="1.000000" stroke="none" 
	d="
M12.161947,63.601501 
	C12.054946,63.963490 11.650650,64.383514 10.907970,64.798180 
	C11.001276,64.415054 11.432964,64.037300 12.161947,63.601501 
z"/>
<path fill="#0F3124" opacity="1.000000" stroke="none" 
	d="
M244.720886,69.105568 
	C246.316025,64.201271 249.518967,61.214844 254.115753,62.123322 
	C258.157532,62.922112 262.176514,65.458092 262.497253,70.368362 
	C262.753906,74.297295 262.432251,78.342430 261.767822,82.233635 
	C260.899994,87.315987 257.204041,88.208931 252.484421,88.213089 
	C247.998459,88.217049 245.744247,85.775047 245.076935,82.285912 
	C244.283600,78.137733 244.681122,73.761795 244.720886,69.105568 
z"/>
<path fill="#0F3124" opacity="1.000000" stroke="none" 
	d="
M205.296021,83.749336 
	C204.183487,88.407761 197.380386,89.384583 193.289108,86.089951 
	C186.457413,80.588531 186.824478,69.050369 195.460709,64.042786 
	C197.952164,62.598156 201.391098,62.787579 205.295349,62.060234 
	C205.295349,69.412132 205.295349,76.344246 205.296021,83.749336 
z"/>
<path fill="#123124" opacity="1.000000" stroke="none" 
	d="
M85.820602,83.824936 
	C89.436539,79.558228 93.951965,79.567558 98.580566,79.872314 
	C99.767448,88.286469 98.990059,89.758293 93.404785,90.071182 
	C87.569771,90.398071 85.656853,88.935028 85.820602,83.824936 
z"/>
</svg>