<svg version="1.1" id="Layer_1" xmlns="http://www.w3.org/2000/svg" xmlns:xlink="http://www.w3.org/1999/xlink" x="0px" y="0px"
	 width="100%" viewBox="0 0 223 148" enable-background="new 0 0 223 148" xml:space="preserve">
<path fill="#FEFEFF" opacity="1.000000" stroke="none" 
	d="
M214.070953,149.000000 
	C142.729889,149.000000 71.898376,149.000000 1.033430,149.000000 
	C1.033430,99.690239 1.033430,50.380451 1.033430,1.035331 
	C75.307854,1.035331 149.615738,1.035331 223.961807,1.035331 
	C223.961807,50.306576 223.961807,99.613190 223.961807,149.000000 
	C220.860382,149.000000 217.720444,149.000000 214.070953,149.000000 
M91.503174,70.006416 
	C91.351753,70.083702 91.200325,70.160988 90.352783,70.260063 
	C85.433571,72.109177 83.514206,75.798904 84.327988,80.799881 
	C85.010162,84.992142 87.766678,87.651863 91.926590,88.164322 
	C96.663857,88.747910 100.269714,86.882240 102.112572,81.236748 
	C102.112572,74.807785 102.112572,68.378822 102.112572,61.949863 
	C101.361847,61.877438 100.611130,61.805012 99.860405,61.732590 
	C99.582001,63.514992 99.472809,65.346825 98.971176,67.064018 
	C98.576271,68.415878 97.697479,69.626389 96.594452,70.470551 
	C95.066956,70.327614 93.539459,70.184677 91.503174,70.006416 
M44.197479,67.586266 
	C45.603329,67.698524 47.009178,67.810783 48.587006,67.936775 
	C48.587006,66.059036 48.587006,64.682053 48.587006,62.892548 
	C46.324364,63.349369 43.250061,61.562809 43.260418,66.492500 
	C41.901814,64.372276 41.085545,61.137611 37.116631,63.891159 
	C37.235233,65.073349 37.371742,66.433968 37.548019,68.191032 
	C39.607044,67.855896 41.188278,67.598526 42.201084,67.985840 
	C40.669292,68.440460 39.137501,68.895088 37.585575,69.355690 
	C37.455265,70.894554 37.319603,72.496597 37.183941,74.098648 
	C36.922802,74.094551 36.661663,74.090462 36.400520,74.086365 
	C36.141022,72.467323 35.881523,70.848282 35.637718,69.327164 
	C29.550430,68.667488 28.792435,69.861595 30.673496,76.808029 
	C30.658424,83.716942 33.224792,89.353928 39.877781,91.867088 
	C50.854469,96.013527 61.117130,92.084579 66.938034,81.791519 
	C68.534782,78.968002 69.989410,76.709648 73.537415,76.040657 
	C74.922844,75.779427 75.963120,73.687706 76.652275,72.963722 
	C72.817116,70.373474 69.575226,68.183914 65.903694,65.704185 
	C65.532066,67.404854 65.123169,69.072128 64.812904,70.757561 
	C64.542961,72.223999 64.384460,73.710945 63.550652,74.973747 
	C63.078129,73.471382 62.605606,71.969025 61.877995,69.655632 
	C59.843426,71.387901 58.136375,72.841316 56.102180,74.573273 
	C55.554409,72.762123 55.019688,70.994102 54.507965,69.302132 
	C49.437023,67.588593 49.959972,71.227768 49.808899,75.187347 
	C47.092899,72.128906 44.966164,69.734032 43.585087,67.263474 
	C43.707478,67.045677 43.829865,66.827873 44.197479,67.586266 
M179.280670,77.702187 
	C178.670639,76.735703 178.015091,75.794632 177.458511,74.798294 
	C175.179108,70.717873 169.185959,68.827087 165.217133,70.962997 
	C160.997131,73.234070 159.344040,79.229485 161.737274,83.583763 
	C164.065292,87.819443 169.664673,89.600555 173.807175,87.222847 
	C174.748276,86.682671 175.232025,85.345703 175.926285,84.375481 
	C174.805573,84.303032 173.549652,83.866737 172.588577,84.223862 
	C169.210876,85.478966 166.641296,85.086098 164.958740,81.772980 
	C170.149063,80.861702 175.053680,80.000587 180.332886,79.859238 
	C180.761398,82.611221 181.189896,85.363205 181.618408,88.115181 
	C182.247131,88.143623 182.875854,88.172058 183.504578,88.200493 
	C183.735641,85.602592 184.047928,83.008850 184.180832,80.405937 
	C184.455704,75.022041 186.691345,72.998665 191.929565,73.373711 
	C192.856781,73.440086 193.819229,73.014336 195.325836,72.698273 
	C190.922684,66.863197 185.635361,72.795723 181.671921,69.938698 
	C181.039139,72.863342 180.498657,75.361412 179.280670,77.702187 
M158.458450,85.288063 
	C156.246246,82.698799 154.034058,80.109528 151.697540,77.374741 
	C153.802933,75.921410 155.559174,74.925430 157.028610,73.609253 
	C157.839828,72.882629 158.169937,71.618874 158.716919,70.597252 
	C157.542618,70.709457 156.175995,70.474426 155.229843,70.998520 
	C152.310440,72.615646 149.551514,74.522491 145.770370,76.927299 
	C145.770370,70.986107 145.770370,66.474968 145.770370,61.636612 
	C143.053864,63.687614 141.629181,77.574875 143.051147,85.501450 
	C143.240417,86.556633 144.380432,87.441261 145.080154,88.404877 
	C146.031143,86.409126 145.892975,84.933548 146.074203,83.498291 
	C146.223419,82.316475 146.751282,81.182465 147.111328,80.027267 
	C148.357468,80.555687 149.852707,80.810707 150.796692,81.670769 
	C152.631256,83.342209 154.039398,85.476791 155.844650,87.186768 
	C157.454834,88.711975 158.845444,88.716942 158.458450,85.288063 
M105.713608,83.629509 
	C106.343239,84.397423 106.881401,85.269699 107.618080,85.915497 
	C111.126495,88.991104 115.927177,89.105461 119.490349,86.272026 
	C122.912537,83.550728 123.934479,78.432426 121.833717,74.535561 
	C119.857925,70.870491 115.276428,68.986839 111.138275,70.138199 
	C105.817078,71.618729 103.768532,76.169586 105.713608,83.629509 
M129.091690,76.226624 
	C131.166672,73.127899 133.785248,72.355858 137.218781,74.056763 
	C138.013580,74.450485 139.191299,74.071243 140.192810,74.047676 
	C139.639877,73.018509 139.345886,71.604996 138.488663,71.027435 
	C134.980713,68.663948 129.677963,69.813728 126.876549,73.309387 
	C124.109695,76.761909 124.257927,81.805016 127.225571,85.183777 
	C130.004898,88.348145 135.274963,89.336166 138.520645,87.056053 
	C139.366898,86.461548 139.633774,85.042313 140.166733,84.001862 
	C139.154541,83.993912 138.058563,83.725685 137.143738,84.020187 
	C131.133102,85.955116 128.013550,83.383018 129.091690,76.226624 
M52.589600,57.935749 
	C52.473461,58.919983 52.357319,59.904217 52.241180,60.888451 
	C52.794743,60.879234 53.348305,60.870022 53.901871,60.860809 
	C53.751896,59.888069 53.601921,58.915333 52.589600,57.935749 
z"/>
<path fill="#2065ED" opacity="1.000000" stroke="none" 
	d="
M64.176712,75.188828 
	C64.384460,73.710945 64.542961,72.223999 64.812904,70.757561 
	C65.123169,69.072128 65.532066,67.404854 65.903694,65.704185 
	C69.575226,68.183914 72.817116,70.373474 76.652275,72.963722 
	C75.963120,73.687706 74.922844,75.779427 73.537415,76.040657 
	C69.989410,76.709648 68.534782,78.968002 66.938034,81.791519 
	C61.117130,92.084579 50.854469,96.013527 39.877781,91.867088 
	C33.224792,89.353928 30.658424,83.716942 31.306438,76.446358 
	C37.427990,76.097763 42.920048,76.237267 48.404213,76.087593 
	C53.665970,75.943993 58.919544,75.500526 64.176712,75.188828 
z"/>
<path fill="#1963ED" opacity="1.000000" stroke="none" 
	d="
M179.958313,79.139465 
	C175.053680,80.000587 170.149063,80.861702 164.958740,81.772980 
	C166.641296,85.086098 169.210876,85.478966 172.588577,84.223862 
	C173.549652,83.866737 174.805573,84.303032 175.926285,84.375481 
	C175.232025,85.345703 174.748276,86.682671 173.807175,87.222847 
	C169.664673,89.600555 164.065292,87.819443 161.737274,83.583763 
	C159.344040,79.229485 160.997131,73.234070 165.217133,70.962997 
	C169.185959,68.827087 175.179108,70.717873 177.458511,74.798294 
	C178.015091,75.794632 178.670639,76.735703 179.625031,78.100830 
	C179.965698,78.712799 179.962006,78.926132 179.958313,79.139465 
M166.964310,78.000282 
	C169.606934,78.000282 172.249557,78.000282 175.643509,78.000282 
	C171.481201,72.586716 168.869141,72.009315 165.515472,74.808807 
	C163.704208,76.320763 163.499359,77.393967 166.964310,78.000282 
z"/>
<path fill="#1462ED" opacity="1.000000" stroke="none" 
	d="
M158.652374,85.605377 
	C158.845444,88.716942 157.454834,88.711975 155.844650,87.186768 
	C154.039398,85.476791 152.631256,83.342209 150.796692,81.670769 
	C149.852707,80.810707 148.357468,80.555687 147.111328,80.027267 
	C146.751282,81.182465 146.223419,82.316475 146.074203,83.498291 
	C145.892975,84.933548 146.031143,86.409126 145.080154,88.404877 
	C144.380432,87.441261 143.240417,86.556633 143.051147,85.501450 
	C141.629181,77.574875 143.053864,63.687614 145.770370,61.636612 
	C145.770370,66.474968 145.770370,70.986107 145.770370,76.927299 
	C149.551514,74.522491 152.310440,72.615646 155.229843,70.998520 
	C156.175995,70.474426 157.542618,70.709457 158.716919,70.597252 
	C158.169937,71.618874 157.839828,72.882629 157.028610,73.609253 
	C155.559174,74.925430 153.802933,75.921410 151.697540,77.374741 
	C154.034058,80.109528 156.246246,82.698799 158.652374,85.605377 
z"/>
<path fill="#B3C5F8" opacity="1.000000" stroke="none" 
	d="
M63.863682,75.081284 
	C58.919544,75.500526 53.665970,75.943993 48.404213,76.087593 
	C42.920048,76.237267 37.427990,76.097763 31.472580,76.043167 
	C28.792435,69.861595 29.550430,68.667488 35.637718,69.327164 
	C35.881523,70.848282 36.141022,72.467323 36.400520,74.086365 
	C36.661663,74.090462 36.922802,74.094551 37.183941,74.098648 
	C37.319603,72.496597 37.455265,70.894554 37.585575,69.355690 
	C39.137501,68.895088 40.669292,68.440460 42.492970,67.687805 
	C42.784855,67.389763 42.839428,67.339157 42.839428,67.339157 
	C44.966164,69.734032 47.092899,72.128906 49.808899,75.187347 
	C49.959972,71.227768 49.437023,67.588593 54.507965,69.302132 
	C55.019688,70.994102 55.554409,72.762123 56.102180,74.573273 
	C58.136375,72.841316 59.843426,71.387901 61.877995,69.655632 
	C62.605606,71.969025 63.078129,73.471382 63.863682,75.081284 
z"/>
<path fill="#2369EE" opacity="1.000000" stroke="none" 
	d="
M105.535530,83.304932 
	C103.768532,76.169586 105.817078,71.618729 111.138275,70.138199 
	C115.276428,68.986839 119.857925,70.870491 121.833717,74.535561 
	C123.934479,78.432426 122.912537,83.550728 119.490349,86.272026 
	C115.927177,89.105461 111.126495,88.991104 107.618080,85.915497 
	C106.881401,85.269699 106.343239,84.397423 105.535530,83.304932 
M119.425842,78.586868 
	C118.904022,75.183022 116.847954,72.685318 113.536217,73.348770 
	C111.479172,73.760864 108.984749,76.096321 108.263397,78.128258 
	C107.117432,81.356293 109.225403,84.033646 112.569435,84.686371 
	C116.503342,85.454254 118.805283,83.344894 119.425842,78.586868 
z"/>
<path fill="#1D64ED" opacity="1.000000" stroke="none" 
	d="
M128.918976,76.607086 
	C128.013550,83.383018 131.133102,85.955116 137.143738,84.020187 
	C138.058563,83.725685 139.154541,83.993912 140.166733,84.001862 
	C139.633774,85.042313 139.366898,86.461548 138.520645,87.056053 
	C135.274963,89.336166 130.004898,88.348145 127.225571,85.183777 
	C124.257927,81.805016 124.109695,76.761909 126.876549,73.309387 
	C129.677963,69.813728 134.980713,68.663948 138.488663,71.027435 
	C139.345886,71.604996 139.639877,73.018509 140.192810,74.047676 
	C139.191299,74.071243 138.013580,74.450485 137.218781,74.056763 
	C133.785248,72.355858 131.166672,73.127899 128.918976,76.607086 
z"/>
<path fill="#296CEE" opacity="1.000000" stroke="none" 
	d="
M101.769371,81.986496 
	C100.269714,86.882240 96.663857,88.747910 91.926590,88.164322 
	C87.766678,87.651863 85.010162,84.992142 84.327988,80.799881 
	C83.514206,75.798904 85.433571,72.109177 90.817047,70.421600 
	C91.475700,70.794296 91.713104,70.930481 91.996765,70.995842 
	C92.000000,71.000000 92.007599,71.007202 92.083649,71.492386 
	C92.256645,72.290359 92.353600,72.603149 92.154427,73.070114 
	C90.484978,75.429710 88.293320,77.545227 88.037506,79.873444 
	C87.877594,81.328857 90.717796,84.507217 92.065147,84.427719 
	C94.437401,84.287727 96.697395,82.245491 99.276756,81.119217 
	C100.289200,81.487946 101.029289,81.737221 101.769371,81.986496 
z"/>
<path fill="#2066ED" opacity="1.000000" stroke="none" 
	d="
M180.145599,79.499352 
	C179.962006,78.926132 179.965698,78.712799 179.963776,78.179474 
	C180.498657,75.361412 181.039139,72.863342 181.671921,69.938698 
	C185.635361,72.795723 190.922684,66.863197 195.325836,72.698273 
	C193.819229,73.014336 192.856781,73.440086 191.929565,73.373711 
	C186.691345,72.998665 184.455704,75.022041 184.180832,80.405937 
	C184.047928,83.008850 183.735641,85.602592 183.504578,88.200493 
	C182.875854,88.172058 182.247131,88.143623 181.618408,88.115181 
	C181.189896,85.363205 180.761398,82.611221 180.145599,79.499352 
z"/>
<path fill="#2064ED" opacity="1.000000" stroke="none" 
	d="
M101.940971,81.611618 
	C101.029289,81.737221 100.289200,81.487946 99.271606,80.733475 
	C97.915062,78.002777 96.836037,75.777267 95.890091,73.208153 
	C96.359993,72.209587 96.696808,71.554642 97.033630,70.899689 
	C97.697479,69.626389 98.576271,68.415878 98.971176,67.064018 
	C99.472809,65.346825 99.582001,63.514992 99.860405,61.732590 
	C100.611130,61.805012 101.361847,61.877438 102.112572,61.949863 
	C102.112572,68.378822 102.112572,74.807785 101.940971,81.611618 
z"/>
<path fill="#2F6EEE" opacity="1.000000" stroke="none" 
	d="
M43.212257,67.301315 
	C42.839428,67.339157 42.784855,67.389763 42.777184,67.365463 
	C41.188278,67.598526 39.607044,67.855896 37.548019,68.191032 
	C37.371742,66.433968 37.235233,65.073349 37.116631,63.891159 
	C41.085545,61.137611 41.901814,64.372276 43.635181,66.337746 
	C44.009945,66.182991 43.952248,66.610077 43.952248,66.610077 
	C43.829865,66.827873 43.707478,67.045677 43.212257,67.301315 
z"/>
<path fill="#2868EE" opacity="1.000000" stroke="none" 
	d="
M44.074863,67.098175 
	C43.952248,66.610077 44.009945,66.182991 43.994465,66.067230 
	C43.250061,61.562809 46.324364,63.349369 48.587006,62.892548 
	C48.587006,64.682053 48.587006,66.059036 48.587006,67.936775 
	C47.009178,67.810783 45.603329,67.698524 44.074863,67.098175 
z"/>
<path fill="#296CEE" opacity="1.000000" stroke="none" 
	d="
M96.814041,70.685120 
	C96.696808,71.554642 96.359993,72.209587 95.660141,73.148819 
	C94.885429,73.201279 94.473755,72.969460 93.981094,72.360123 
	C93.269279,71.657478 92.638435,71.332336 92.007599,71.007202 
	C92.007599,71.007202 92.000000,71.000000 92.004082,70.758461 
	C92.008163,70.516922 92.011963,70.041748 92.011963,70.041748 
	C93.539459,70.184677 95.066956,70.327614 96.814041,70.685120 
z"/>
<path fill="#1962ED" opacity="1.000000" stroke="none" 
	d="
M53.020775,57.939171 
	C53.601921,58.915333 53.751896,59.888069 53.901871,60.860809 
	C53.348305,60.870022 52.794743,60.879234 52.241180,60.888451 
	C52.357319,59.904217 52.473461,58.919983 53.020775,57.939171 
z"/>
<path fill="#2064ED" opacity="1.000000" stroke="none" 
	d="
M91.757568,70.024078 
	C92.011963,70.041748 92.008163,70.516922 92.000839,70.754303 
	C91.713104,70.930481 91.475700,70.794296 91.165115,70.410698 
	C91.200325,70.160988 91.351753,70.083702 91.757568,70.024078 
z"/>
<path fill="#F2F4FE" opacity="1.000000" stroke="none" 
	d="
M166.545349,77.995300 
	C163.499359,77.393967 163.704208,76.320763 165.515472,74.808807 
	C168.869141,72.009315 171.481201,72.586716 175.643509,78.000282 
	C172.249557,78.000282 169.606934,78.000282 166.545349,77.995300 
z"/>
<path fill="#F4F7FE" opacity="1.000000" stroke="none" 
	d="
M119.426407,79.001778 
	C118.805283,83.344894 116.503342,85.454254 112.569435,84.686371 
	C109.225403,84.033646 107.117432,81.356293 108.263397,78.128258 
	C108.984749,76.096321 111.479172,73.760864 113.536217,73.348770 
	C116.847954,72.685318 118.904022,75.183022 119.426407,79.001778 
z"/>
<path fill="#F6F9FE" opacity="1.000000" stroke="none" 
	d="
M94.062073,72.737640 
	C94.473755,72.969460 94.885429,73.201279 95.527061,73.492432 
	C96.836037,75.777267 97.915062,78.002777 98.999237,80.614021 
	C96.697395,82.245491 94.437401,84.287727 92.065147,84.427719 
	C90.717796,84.507217 87.877594,81.328857 88.037506,79.873444 
	C88.293320,77.545227 90.484978,75.429710 92.427704,73.105782 
	C93.352089,72.904068 93.707085,72.820854 94.062073,72.737640 
z"/>
<path fill="#2064ED" opacity="1.000000" stroke="none" 
	d="
M93.981094,72.360123 
	C93.707085,72.820854 93.352089,72.904068 92.723824,72.951614 
	C92.353600,72.603149 92.256645,72.290359 92.083649,71.492386 
	C92.638435,71.332336 93.269279,71.657478 93.981094,72.360123 
z"/>
</svg>