<svg version="1.1" id="Layer_1" xmlns="http://www.w3.org/2000/svg" xmlns:xlink="http://www.w3.org/1999/xlink" x="0px" y="0px"
	 width="100%" viewBox="0 0 1024 1024" enable-background="new 0 0 1024 1024" xml:space="preserve">
<path fill="#000000" opacity="1.000000" stroke="none" 
	d="
M476.540894,372.457764 
	C461.813660,357.189697 445.214539,345.265442 425.563873,337.656891 
	C451.188812,355.628387 472.468994,377.522430 488.358856,405.060760 
	C485.221069,406.810577 482.350769,406.927338 479.667023,407.060272 
	C432.523621,409.395782 397.121674,393.687958 373.133148,348.851532 
	C366.088501,335.684570 361.132782,321.802612 357.560150,307.346741 
	C356.605621,303.484497 357.464478,302.093628 361.583221,301.572021 
	C385.380432,298.558319 408.970551,298.079132 432.405029,304.566895 
	C468.326385,314.511627 490.457031,338.201324 501.608765,373.026764 
	C502.846802,376.892975 504.489044,380.324249 506.960358,383.588837 
	C512.680359,391.144958 517.427185,399.356476 522.129211,408.658508 
	C523.987427,405.478912 525.343445,402.909729 526.928223,400.490356 
	C533.602966,390.300354 538.524353,379.430145 542.568176,367.843872 
	C555.144043,331.812134 581.356934,310.769775 617.989441,301.769226 
	C633.034485,298.072693 648.252197,295.387604 663.505737,292.820129 
	C665.108887,292.550293 666.892029,292.789490 668.432800,290.735443 
	C664.182434,285.070740 657.444336,281.769745 652.769348,276.526611 
	C653.788330,274.947662 655.039673,275.035248 656.163269,275.085052 
	C675.122498,275.925720 694.092896,276.561493 712.991333,278.472321 
	C716.019043,278.778473 717.070068,279.812683 716.436401,282.914886 
	C712.506897,302.154999 708.488525,321.371429 703.022156,340.250122 
	C702.849854,340.844971 702.403015,341.360291 701.552124,342.834351 
	C697.794128,335.192322 696.342529,327.323059 692.267090,320.261322 
	C687.763367,323.035095 684.736084,326.824310 681.251831,330.031708 
	C656.773010,352.565186 629.275635,371.110870 602.299011,390.377136 
	C584.079224,403.389374 567.236633,418.010071 553.768127,436.159454 
	C550.324036,440.800629 547.891296,446.060608 544.596985,451.277771 
	C541.922058,442.821869 554.156189,405.965210 569.501648,384.263702 
	C583.495056,364.474243 600.515564,347.824860 619.549988,332.993439 
	C609.501465,337.505737 600.491577,343.606476 591.880249,350.353149 
	C563.483337,372.601257 543.018433,400.471344 533.966492,435.610687 
	C523.799622,475.077576 528.355469,512.906372 549.813477,548.102966 
	C552.459778,552.443481 555.667114,556.442078 559.165649,561.376526 
	C554.946411,560.713318 552.708130,558.393677 550.378662,556.555054 
	C523.805786,535.581726 511.175873,507.646912 509.710114,474.260895 
	C509.211395,462.901215 510.127319,451.602814 512.717102,440.535736 
	C514.402527,433.333466 510.695312,427.538147 508.361816,421.497162 
	C501.248352,403.081848 490.331055,387.019135 476.540894,372.457764 
z"/>
<path fill="#000000" opacity="1.000000" stroke="none" 
	d="
M642.605713,507.718323 
	C643.170288,505.733185 643.685913,504.148193 644.102844,502.537598 
	C645.320251,497.834381 642.617981,493.752472 637.754761,493.347168 
	C634.277710,493.057373 630.761353,493.212830 627.262573,493.212891 
	C601.101257,493.213165 574.938538,493.087250 548.779785,493.349792 
	C543.667725,493.401093 542.143616,491.458771 541.800110,486.810974 
	C540.828918,473.670715 540.711975,473.686035 553.653137,473.688629 
	C585.813293,473.695007 617.973389,473.687317 650.133545,473.700562 
	C663.920105,473.706268 671.002319,482.461304 666.948792,495.683777 
	C657.681641,525.912659 647.953369,556.001099 638.275940,586.102722 
	C635.757690,593.935608 630.310425,598.399231 621.900024,599.431946 
	C587.399170,603.668030 552.910400,608.004578 518.432434,612.423462 
	C496.823181,615.193115 475.230591,618.099365 453.652893,621.104736 
	C446.502411,622.100647 442.789886,626.804077 443.389587,633.319763 
	C443.954041,639.452393 448.943207,643.684448 455.834747,643.688843 
	C509.157257,643.722961 562.479736,643.725647 615.802246,643.748779 
	C617.799622,643.749634 619.824585,643.670105 621.789001,643.955872 
	C627.017029,644.716370 630.549194,648.367798 630.892944,653.114014 
	C631.221985,657.657715 627.933350,661.764404 622.849854,663.131897 
	C621.916199,663.383057 620.964111,663.565857 620.060608,663.771179 
	C621.640015,686.355347 612.242126,699.635620 594.402527,699.689758 
	C585.448059,699.716919 577.837219,696.273376 572.720032,688.469849 
	C567.764709,680.913208 567.098083,672.674133 569.468384,663.667236 
	C545.688721,663.667236 522.483459,663.667236 498.716492,663.667236 
	C500.618011,674.635498 499.419830,684.647217 491.053040,692.450378 
	C485.722534,697.421753 479.257751,700.013855 471.916687,699.634399 
	C453.829407,698.699402 445.738281,686.398438 447.940155,663.407471 
	C447.023651,661.972900 445.321106,662.121216 443.981476,661.606812 
	C425.067535,654.344055 417.499298,631.999695 428.429657,614.886169 
	C430.187622,612.133789 430.373383,609.977783 429.250610,607.084595 
	C411.058289,560.206238 392.890656,513.318115 374.845398,466.382996 
	C370.848938,455.988373 362.181030,454.213440 352.723938,453.342834 
	C345.936615,452.718048 339.152557,452.001892 332.397491,451.098602 
	C325.626495,450.193207 322.295074,446.246918 322.707550,440.075928 
	C323.060791,434.791138 327.016907,430.882446 332.319122,431.422485 
	C343.394714,432.550568 354.479736,433.770874 365.466125,435.541504 
	C378.465729,437.636597 387.669647,444.863220 392.349701,457.426514 
	C393.686066,461.014008 395.311737,464.509460 396.410675,468.165527 
	C397.649261,472.286224 399.920258,473.795929 404.369324,473.766571 
	C433.195496,473.576263 462.024506,473.797302 490.850220,473.575195 
	C495.884033,473.536407 497.904816,474.929718 497.375946,480.021576 
	C497.157623,482.123505 497.646179,484.322845 497.974487,486.453033 
	C498.902557,492.474548 498.355743,493.221100 492.381866,493.224884 
	C466.053894,493.241577 439.725922,493.212860 413.398041,493.257843 
	C411.309418,493.261414 409.088898,492.708984 406.854309,494.148468 
	C407.627716,499.098419 410.097107,503.489624 411.851013,508.087555 
	C422.947662,537.177307 434.235352,566.194275 445.306732,595.293579 
	C446.966919,599.657104 448.605957,601.722656 454.149231,600.937561 
	C477.842468,597.581848 501.638977,594.958435 525.391907,592.020142 
	C550.298828,588.938965 575.198669,585.800781 600.102478,582.694031 
	C603.401428,582.282410 606.705872,581.915405 610.006409,581.516113 
	C616.512268,580.729004 620.281128,577.186951 622.270203,570.828857 
	C628.829346,549.862671 635.737549,529.005676 642.605713,507.718323 
M464.003693,668.766357 
	C462.175171,676.287231 464.804230,681.648132 470.875702,682.778870 
	C475.918701,683.718140 480.477020,681.013123 482.212585,676.051331 
	C483.783112,671.561401 481.766357,666.266541 477.643341,664.055725 
	C473.044037,661.589355 468.225616,663.039490 464.003693,668.766357 
M603.491577,676.591736 
	C603.638000,675.278503 603.935913,673.961670 603.904175,672.652771 
	C603.781128,667.581543 600.256287,663.716980 595.447815,663.244812 
	C590.126892,662.722290 585.934998,665.598694 584.621643,670.673401 
	C583.462036,675.154175 586.020142,680.544189 590.139709,682.300293 
	C594.941650,684.347290 599.705200,682.527344 603.491577,676.591736 
z"/>
<path fill="#000000" opacity="1.000000" stroke="none" 
	d="
M562.316650,267.071045 
	C566.291382,299.438995 554.112671,325.722839 533.722778,349.100830 
	C530.553467,352.734650 527.168213,356.181610 523.846008,359.680023 
	C522.101318,361.517273 520.323853,361.920624 518.276794,359.914001 
	C499.842010,341.843384 485.703339,321.280029 480.635651,295.414429 
	C475.504272,269.223785 482.842957,245.727707 496.239777,223.575195 
	C502.295807,213.561203 509.824646,204.669098 517.636292,196.001801 
	C519.519226,193.912628 521.164856,192.544113 523.720276,195.267227 
	C541.176819,213.869492 555.092163,234.497391 560.955017,259.777924 
	C561.480225,262.042389 561.842590,264.344604 562.316650,267.071045 
z"/>
<path fill="#000000" opacity="1.000000" stroke="none" 
	d="
M436.826630,805.793518 
	C436.836487,786.500916 436.976959,767.684021 436.785065,748.870483 
	C436.736938,744.151306 438.204956,742.790710 442.999512,742.472290 
	C450.280396,741.988770 454.393402,744.114685 457.246887,751.266296 
	C461.669617,762.351074 467.421173,772.905701 472.626526,783.720825 
	C474.629791,783.137878 474.733276,781.403625 475.331757,780.171570 
	C480.640381,769.242249 486.002350,758.334106 491.015259,747.268738 
	C492.541626,743.899475 494.370972,742.481506 498.120697,742.595886 
	C511.263245,742.996338 509.233521,741.059875 509.321991,753.667419 
	C509.437683,770.151123 509.339569,786.636169 509.370117,803.120667 
	C509.377258,806.972351 510.186554,810.921387 503.889618,810.465027 
	C497.712921,810.017395 497.669647,810.400391 497.663666,803.353821 
	C497.652222,789.879761 497.660339,776.405640 496.872559,762.626526 
	C494.707489,766.916443 492.506927,771.188965 490.385345,775.500244 
	C486.784851,782.816956 483.144379,790.116516 479.707031,797.509888 
	C478.346863,800.435364 476.952148,802.376099 473.176758,802.433472 
	C469.244812,802.493225 468.087036,800.148315 466.745361,797.381897 
	C462.097168,787.797546 457.387909,778.242798 452.678040,768.688538 
	C451.957336,767.226562 451.110870,765.826599 449.209229,764.503296 
	C449.209229,766.557922 449.210846,768.612488 449.208984,770.667114 
	C449.198517,782.156250 449.202667,793.645386 449.164062,805.134399 
	C449.155609,807.650146 449.306000,810.740967 445.561340,810.244507 
	C442.381775,809.823059 437.240448,812.971619 436.826630,805.793518 
z"/>
<path fill="#000000" opacity="1.000000" stroke="none" 
	d="
M811.466553,807.037537 
	C809.359070,811.709778 801.316711,811.804443 797.900574,807.454712 
	C789.667114,796.970947 781.559448,786.388489 773.384460,775.858765 
	C770.531738,772.184265 767.630432,768.547485 764.055908,764.010986 
	C764.055908,773.095459 764.060303,781.116211 764.054443,789.136902 
	C764.050232,794.969666 764.027832,800.802368 764.022278,806.635132 
	C764.017944,811.160095 760.656555,810.471619 757.960266,810.318787 
	C755.479736,810.178162 751.705505,811.757202 751.696289,806.992371 
	C751.655396,785.854858 751.678589,764.717163 751.678589,743.671997 
	C759.328308,741.324402 762.129272,742.119934 766.518921,747.685547 
	C777.246460,761.287048 787.978638,774.884949 799.458191,789.433899 
	C799.458191,782.168823 799.504639,775.855286 799.446045,769.542725 
	C799.377991,762.213745 799.355652,754.879944 799.056641,747.558716 
	C798.784668,740.898438 803.609436,743.100403 807.011230,742.652588 
	C811.022034,742.124634 811.446777,744.150818 811.537537,747.642639 
	C812.048950,767.302612 811.566345,786.955200 811.466553,807.037537 
z"/>
<path fill="#000000" opacity="1.000000" stroke="none" 
	d="
M416.326904,765.932861 
	C416.132599,775.953003 410.797729,782.056458 401.775482,786.512817 
	C407.319885,794.248779 412.578186,801.585510 417.870361,808.969482 
	C410.985718,812.249329 404.254303,810.784668 400.282684,805.336365 
	C397.440186,801.437012 394.432892,797.625610 391.958557,793.499390 
	C389.646942,789.644592 386.805695,788.087097 382.213531,788.234619 
	C371.082489,788.592285 372.537811,787.368652 372.407806,798.311035 
	C372.376190,800.973877 372.235565,803.645203 372.390533,806.298279 
	C372.651001,810.757751 369.634796,810.468506 366.743896,810.366211 
	C363.748505,810.260254 359.969421,811.359192 360.084442,806.191528 
	C360.147400,803.363647 360.071716,800.532837 360.072388,797.703369 
	C360.076233,781.225464 360.185913,764.746521 360.022003,748.270325 
	C359.979004,743.949158 361.418640,742.440979 365.804016,742.578430 
	C375.115967,742.870361 384.445740,742.538513 393.763214,742.720215 
	C407.354248,742.985168 416.040802,751.858154 416.326904,765.932861 
M384.420380,777.665527 
	C387.906769,777.670288 391.382172,777.753967 394.813110,776.828674 
	C401.359314,775.063293 404.538177,770.319092 403.707001,763.333618 
	C403.070221,757.981689 398.714142,754.455200 392.431854,754.267334 
	C390.107391,754.197815 387.779510,754.236877 385.453186,754.236328 
	C372.287079,754.233215 372.287079,754.234253 372.842804,767.360291 
	C373.277008,777.614685 373.277008,777.614685 384.420380,777.665527 
z"/>
<path fill="#000000" opacity="1.000000" stroke="none" 
	d="
M720.520203,804.451172 
	C719.042297,797.481812 714.936340,795.605286 708.473877,796.157837 
	C701.858643,796.723450 695.152039,796.452271 688.496582,796.223694 
	C684.936035,796.101379 682.770630,797.357117 681.779175,800.734741 
	C681.639648,801.210327 681.389526,801.653687 681.188904,802.111267 
	C677.014893,811.626709 677.014893,811.626709 666.201904,809.874878 
	C665.019592,808.167419 666.240112,806.702332 666.863281,805.274475 
	C675.320068,785.895325 684.069763,766.638794 692.170959,747.112976 
	C694.595642,741.269043 698.892273,743.141296 702.863525,742.529907 
	C706.852661,741.915894 707.428711,744.851135 708.560791,747.425659 
	C716.669800,765.865662 724.826965,784.284546 732.925293,802.729187 
	C733.846741,804.827759 735.130554,806.838074 735.160645,809.238098 
	C727.885010,812.205383 723.337891,810.797668 720.520203,804.451172 
M707.246338,773.180969 
	C705.046875,768.158691 702.847351,763.136414 700.204468,757.101562 
	C696.164429,766.785828 692.640137,775.233887 688.715515,784.641663 
	C696.962952,784.991394 704.008118,785.199036 711.666016,784.488098 
	C710.054688,780.327759 708.805664,777.102783 707.246338,773.180969 
z"/>
<path fill="#000000" opacity="1.000000" stroke="none" 
	d="
M597.127319,799.601562 
	C601.277222,798.200867 603.982483,796.084106 603.822083,791.623718 
	C603.659424,787.100342 600.444458,785.343750 596.869141,784.168274 
	C591.348328,782.353027 585.680481,780.979919 580.177734,779.115845 
	C571.666199,776.232544 567.414368,770.586304 567.072571,762.249268 
	C566.772522,754.932495 571.602783,746.930603 578.845520,744.023499 
	C590.959717,739.161011 602.472107,741.776794 613.112427,748.368713 
	C617.685486,751.201782 612.622864,754.089050 611.958618,756.892883 
	C611.374573,759.358032 609.460327,759.561096 607.239136,758.392517 
	C602.063843,755.670044 596.746704,753.327576 590.726807,753.284851 
	C584.776367,753.242737 581.420166,755.214600 580.547485,759.299927 
	C579.714417,763.199890 582.161194,766.345886 587.994385,768.392395 
	C592.854126,770.097473 597.891785,771.311890 602.705566,773.128174 
	C613.173340,777.077820 618.272522,784.372864 617.126648,793.257324 
	C615.888367,802.858154 608.534851,809.817688 597.805664,811.107544 
	C587.388672,812.359802 577.601074,810.138428 568.601807,804.751221 
	C563.003052,801.399780 562.943359,800.829834 566.525330,795.115967 
	C567.396118,793.726990 567.973877,792.093506 570.101440,790.872131 
	C577.605469,797.212036 586.228088,801.449036 597.127319,799.601562 
z"/>
<path fill="#000000" opacity="1.000000" stroke="none" 
	d="
M310.988434,778.935669 
	C309.894379,775.736938 308.931946,772.910156 307.969482,770.083313 
	C309.513458,781.447083 314.232025,792.726807 309.037933,804.415466 
	C298.310486,799.699951 289.114807,783.447205 290.137878,771.634644 
	C291.600983,754.741882 302.856873,737.559998 314.783447,734.849365 
	C312.398438,744.246094 317.214050,751.289673 321.854065,758.488037 
	C330.875854,772.484192 330.396271,786.575684 320.633759,798.831787 
	C319.133972,800.714722 317.681213,802.825317 314.027313,803.373596 
	C315.618744,794.773499 314.050934,786.932190 310.988434,778.935669 
z"/>
<path fill="#000000" opacity="1.000000" stroke="none" 
	d="
M270.270050,750.802002 
	C269.863312,754.797607 267.100616,754.132874 264.909302,754.148682 
	C255.423218,754.217163 245.933105,754.320435 236.451309,754.106995 
	C232.562729,754.019531 231.247559,755.275513 231.255890,759.241638 
	C231.281998,771.668396 231.134949,771.670044 243.535202,771.678467 
	C249.859589,771.682739 256.188324,771.821899 262.506622,771.626099 
	C265.998444,771.517944 267.029694,773.099243 266.428192,776.151855 
	C265.884247,778.912415 268.457214,783.373779 262.473297,783.295349 
	C253.820450,783.181885 245.161591,783.420288 236.511963,783.219971 
	C232.700562,783.131775 231.078552,784.247803 231.262192,788.298889 
	C231.533249,794.277710 231.175201,800.282776 231.353348,806.268677 
	C231.485764,810.718689 228.568909,810.506653 225.683487,810.344238 
	C222.797394,810.181702 218.854691,811.641602 218.861649,806.378174 
	C218.888062,786.406677 218.911133,766.435120 218.902084,746.463623 
	C218.900833,743.713379 220.160187,742.645203 222.876785,742.653320 
	C237.356079,742.696716 251.835648,742.630371 266.315094,742.645203 
	C272.486328,742.651550 269.593964,747.445618 270.270050,750.802002 
z"/>
<path fill="#000000" opacity="1.000000" stroke="none" 
	d="
M545.315796,757.006775 
	C545.311462,773.330322 545.154236,789.157898 545.394348,804.979431 
	C545.465210,809.649536 543.527466,810.556885 539.438477,810.451233 
	C535.542236,810.350586 532.768982,810.237122 532.831970,805.011169 
	C533.060730,786.023560 533.066711,767.029968 532.845093,748.042297 
	C532.784363,742.842651 535.493103,742.639404 539.425476,742.583496 
	C543.428406,742.526489 545.882629,743.268616 545.372681,748.018677 
	C545.072144,750.818420 545.315796,753.676575 545.315796,757.006775 
z"/>
<path fill="#000000" opacity="1.000000" stroke="none" 
	d="
M636.633911,784.999878 
	C636.628662,772.193909 636.811768,759.883362 636.516052,747.584412 
	C636.415588,743.406616 637.967285,742.312134 641.691406,742.646484 
	C644.832153,742.928528 648.477356,741.642761 648.424866,747.215515 
	C648.241455,766.670471 648.257935,786.129517 648.463257,805.584229 
	C648.513733,810.367493 645.927124,810.406616 642.457581,810.422485 
	C638.894226,810.438843 636.340210,810.169617 636.567688,805.451721 
	C636.887634,798.815491 636.639954,792.151855 636.633911,784.999878 
z"/>
<path fill="#000000" opacity="1.000000" stroke="none" 
	d="
M276.981110,802.102234 
	C280.235443,795.258911 283.336670,788.762573 286.906036,781.285583 
	C289.226044,786.209717 290.322479,790.216675 292.711853,793.586304 
	C293.586487,794.819824 293.079620,796.130676 292.491730,797.372192 
	C291.495667,799.475586 290.516846,801.587219 289.539459,803.699402 
	C285.928314,811.503174 282.845886,812.748230 274.253326,809.771057 
	C274.034485,806.973938 276.090393,804.930481 276.981110,802.102234 
z"/>
<path fill="#000000" opacity="1.000000" stroke="none" 
	d="
M330.224426,788.206299 
	C331.030396,786.204163 330.278900,784.128357 332.560852,782.165466 
	C338.181580,790.869934 341.866241,800.344971 346.821075,809.133667 
	C339.680481,812.993774 334.529327,811.564392 331.307556,805.254944 
	C331.231903,805.106873 331.166321,804.949951 331.068787,804.817139 
	C327.246216,799.611755 325.881714,794.259277 330.224426,788.206299 
z"/>
</svg>