<svg version="1.1" id="Layer_1" xmlns="http://www.w3.org/2000/svg" xmlns:xlink="http://www.w3.org/1999/xlink" x="0px" y="0px"
	 width="100%" viewBox="0 0 1024 1024" enable-background="new 0 0 1024 1024" xml:space="preserve">
<path fill="#000000" opacity="1.000000" stroke="none" 
	d="
M561.298340,438.350067 
	C518.236877,467.357849 473.783997,493.186676 427.015900,514.988647 
	C423.125885,516.802063 421.327972,515.519409 419.198792,512.652893 
	C402.095184,489.625641 391.716492,463.657349 385.877045,435.799774 
	C379.723389,406.443359 378.410187,376.757019 380.686554,346.872040 
	C380.938629,343.562805 382.463531,342.841064 385.415741,342.584778 
	C414.261292,340.080933 442.366211,334.402985 469.002258,322.615906 
	C482.151794,316.796967 494.624298,309.759674 506.205536,301.252502 
	C509.545807,298.798828 511.987671,298.518494 515.463135,301.025879 
	C540.412354,319.025543 568.141357,330.762421 598.225525,336.949707 
	C609.462830,339.260803 620.795898,341.045044 632.269104,341.772064 
	C640.145325,342.271149 640.892151,343.019958 641.245667,350.883911 
	C641.544617,357.536652 641.692444,364.197540 642.084473,370.844330 
	C642.351440,375.371429 640.716492,378.623596 637.197083,381.608429 
	C613.148071,402.004761 587.734253,420.556305 561.298340,438.350067 
z"/>
<path fill="#000000" opacity="1.000000" stroke="none" 
	d="
M521.068176,581.189697 
	C514.451782,585.678162 508.547150,585.069946 501.721069,581.655579 
	C482.835114,572.209106 465.139008,561.075806 449.360352,547.057617 
	C445.929291,544.009277 443.258026,543.720520 439.239441,545.647705 
	C414.599365,557.464355 389.507660,568.209290 363.276428,576.055237 
	C346.492737,581.075378 329.554474,585.209473 311.797546,584.396851 
	C307.772400,584.212646 303.862915,583.668335 299.997986,582.599731 
	C282.908813,577.874756 275.797302,565.447937 280.282501,548.268311 
	C282.585114,539.448486 286.842072,531.594055 291.632324,523.925537 
	C293.413940,521.073425 294.893127,521.559204 297.259308,522.950867 
	C299.720612,524.398499 300.705566,525.655701 298.871521,528.395142 
	C295.062469,534.084595 291.924377,540.130737 290.041412,546.777954 
	C285.560944,562.595276 293.104828,572.849915 309.621246,573.742432 
	C326.370880,574.647522 342.325348,570.898804 358.168213,566.159912 
	C399.405518,553.825134 437.811340,534.985229 475.556488,514.733826 
	C519.344910,491.240051 561.344482,464.808594 601.809814,435.976196 
	C625.149841,419.345917 647.748962,401.738068 669.392822,382.929108 
	C671.766479,380.866333 673.987000,378.586975 677.333130,376.959747 
	C679.538025,378.932465 681.829956,380.983124 683.881226,382.818451 
	C684.012756,384.662231 682.964722,385.313934 682.127991,386.089996 
	C669.299438,397.987976 655.960815,409.289185 642.113647,419.979218 
	C639.706238,421.837708 638.434570,423.916870 637.939392,426.941498 
	C634.615356,447.243073 629.142944,466.950897 619.931458,485.401337 
	C598.287964,528.753174 564.667542,559.886902 521.068176,581.189697 
z"/>
<path fill="#000000" opacity="1.000000" stroke="none" 
	d="
M361.957031,325.312378 
	C363.061768,321.615570 365.855682,322.126556 368.266571,322.109711 
	C389.509155,321.961426 410.496521,319.622650 430.970917,313.914429 
	C459.389587,305.991425 485.498322,293.460815 507.649261,273.578217 
	C510.141968,271.340759 511.731781,271.160828 514.337646,273.404633 
	C545.597229,300.320587 582.134827,314.911163 622.851562,319.883575 
	C633.457825,321.178833 644.054443,321.917755 654.717957,321.896851 
	C657.718567,321.890961 659.945618,322.497711 660.189880,326.118652 
	C660.817139,335.414612 661.511169,344.706940 662.297058,353.990723 
	C662.561646,357.115723 661.462097,359.436859 659.153992,361.441193 
	C655.051392,365.003937 651.039429,368.670990 647.053040,372.237640 
	C644.501587,370.484833 645.153259,368.313446 645.086182,366.447937 
	C644.828613,359.289368 644.729126,352.125275 644.507812,344.965179 
	C644.390625,341.172974 642.993164,339.128021 638.561096,338.860718 
	C617.751221,337.605804 597.228699,334.505463 577.283264,328.156525 
	C554.890808,321.028625 533.952393,310.976318 515.012024,297.009338 
	C511.962952,294.760895 509.990570,294.514282 506.871155,296.946259 
	C486.054413,313.175568 462.305023,323.248047 436.981354,330.152039 
	C419.241272,334.988525 401.335449,338.452698 382.948120,339.209930 
	C379.353851,339.357910 377.457642,340.869995 377.280151,344.648499 
	C375.593872,380.543549 376.464783,416.208923 386.283722,451.134552 
	C392.604584,473.617859 402.065613,494.607056 415.658936,513.666687 
	C416.516357,514.868958 417.268768,516.146118 418.365509,517.846558 
	C413.913696,520.949768 409.115753,522.768799 404.408051,524.622803 
	C401.952972,525.589600 401.069366,522.938965 399.988007,521.406067 
	C387.397064,503.557007 378.031555,484.108826 371.767090,463.211945 
	C359.702759,422.967865 356.609375,381.874329 360.537903,340.154938 
	C360.990509,335.348633 361.428284,330.540955 361.957031,325.312378 
z"/>
<path fill="#000000" opacity="1.000000" stroke="none" 
	d="
M450.898590,553.039246 
	C467.664673,567.014404 485.925385,577.903503 505.369354,586.886658 
	C508.809052,588.475708 512.062683,589.032410 515.847412,587.308655 
	C563.062256,565.804932 600.048340,533.471619 623.131226,486.364594 
	C631.764343,468.746246 637.307495,450.118622 640.560486,430.813354 
	C641.043884,427.944763 642.135193,425.844849 644.375061,424.150452 
	C649.243774,420.467285 654.076782,416.737091 659.755493,412.389984 
	C660.626221,419.389618 659.065430,425.158539 658.083740,430.850128 
	C651.006409,471.883636 635.317932,509.047913 607.654663,540.616089 
	C582.310913,569.537231 551.953430,591.513000 516.182068,605.871338 
	C512.949829,607.168640 509.949097,607.462341 506.560211,606.107544 
	C479.499146,595.289551 455.137390,580.249756 433.973236,560.143250 
	C432.798615,559.027283 431.277039,558.128723 431.066162,555.832458 
	C434.928925,552.950623 439.520721,550.974304 444.056488,549.131104 
	C447.027283,547.923889 448.457062,551.470886 450.898590,553.039246 
z"/>
<path fill="#000000" opacity="1.000000" stroke="none" 
	d="
M701.063782,334.775635 
	C714.555664,335.807343 723.033325,343.638672 724.176697,355.713593 
	C725.212708,366.654358 717.731873,376.652557 706.365112,379.518982 
	C695.183655,382.338715 682.739990,375.105011 679.766968,364.057007 
	C676.386597,351.495178 683.258484,338.877747 695.235168,335.747284 
	C696.995728,335.287109 698.827332,335.098541 701.063782,334.775635 
z"/>
<path fill="#000000" opacity="1.000000" stroke="none" 
	d="
M334.532104,503.966797 
	C329.848267,515.157227 321.328064,520.398560 310.102112,519.307617 
	C300.802032,518.403748 292.859955,511.017853 291.003357,501.546173 
	C289.067261,491.669189 293.557129,481.660217 302.485474,477.163147 
	C310.861450,472.944275 319.323822,473.336853 326.956238,478.971405 
	C335.365936,485.179840 336.521454,493.981384 334.532104,503.966797 
z"/>
<path fill="#000000" opacity="1.000000" stroke="none" 
	d="
M523.189453,726.495911 
	C526.313293,726.468018 526.308594,728.370972 526.308533,730.283325 
	C526.307800,748.935852 526.319946,767.588440 526.293945,786.240967 
	C526.291687,787.857910 526.510315,790.121582 524.230896,790.117920 
	C520.714417,790.112244 516.489929,792.218506 514.109863,787.418640 
	C507.262909,792.798767 499.755707,793.327698 492.672913,788.994629 
	C484.755585,784.151001 483.063782,775.765747 483.156372,767.150696 
	C483.195129,763.542603 483.854126,759.882629 485.087189,756.384277 
	C488.784576,745.894165 498.716461,741.146606 509.137604,744.957397 
	C510.355286,745.402649 511.576111,745.839233 513.075623,746.381165 
	C515.241943,740.045288 514.117615,733.667786 514.866577,727.484985 
	C517.469971,725.991333 520.212036,726.926147 523.189453,726.495911 
M496.928528,759.750977 
	C495.626190,765.017517 495.545624,770.298035 497.116760,775.500732 
	C498.381195,779.687744 501.331818,781.841858 505.754974,781.484070 
	C510.299774,781.116577 513.360596,777.979858 513.679504,773.302795 
	C513.905579,769.986267 513.753784,766.645020 513.803345,763.315247 
	C513.870300,758.814636 512.159851,755.412354 507.557861,754.339355 
	C503.079956,753.295288 499.257416,754.317261 496.928528,759.750977 
z"/>
<path fill="#000000" opacity="1.000000" stroke="none" 
	d="
M566.980408,729.670044 
	C578.563721,731.482544 584.776733,737.486267 587.433716,748.348450 
	C589.506226,756.821045 589.320740,765.170837 586.862427,773.431824 
	C583.810669,783.687317 575.918640,789.521484 565.216858,790.420654 
	C558.730164,790.965759 552.255127,790.556458 545.784058,790.862061 
	C542.144653,791.033875 540.473267,790.003357 540.537659,785.788452 
	C540.796814,768.826538 540.806458,751.856323 540.565796,734.894104 
	C540.499207,730.200867 542.174316,728.730164 546.623474,728.919373 
	C553.260925,729.201599 559.928711,728.687012 566.980408,729.670044 
M563.117737,782.793152 
	C572.440491,781.952942 577.235046,778.130432 579.157837,769.167786 
	C580.526062,762.789612 580.545715,756.202698 579.146484,749.825745 
	C577.352539,741.650085 571.893433,737.467651 563.451599,737.166687 
	C560.292175,737.054016 557.117432,737.271790 553.965210,737.081604 
	C550.204651,736.854858 549.063538,738.553162 549.132019,742.136169 
	C549.310059,751.456665 549.223022,760.782410 549.224609,770.106018 
	C549.226807,783.116943 549.220154,783.116943 563.117737,782.793152 
z"/>
<path fill="#000000" opacity="1.000000" stroke="none" 
	d="
M465.911591,777.160217 
	C469.539368,776.553894 472.807739,776.259338 476.008759,777.278198 
	C475.358856,784.198669 469.944916,789.569580 462.247406,791.131836 
	C451.289642,793.355835 441.688232,789.800293 437.348511,781.911377 
	C432.073975,772.323120 433.419098,757.029846 440.162537,749.917847 
	C446.355133,743.386719 457.370178,741.647461 466.092865,745.823486 
	C473.234680,749.242676 478.460754,759.906799 477.304199,768.213745 
	C476.918640,770.982849 475.279663,771.288757 473.120270,771.284912 
	C466.459290,771.273132 459.798096,771.246826 453.137451,771.293518 
	C451.172028,771.307312 449.145477,770.938416 447.017578,771.945374 
	C446.770203,776.191528 448.521851,779.222168 452.550537,780.795166 
	C457.674530,782.795898 461.992493,781.451477 465.911591,777.160217 
M447.493805,759.874573 
	C450.020569,762.527771 459.547882,762.954834 464.463593,760.539856 
	C463.785034,756.416077 461.178345,754.049133 457.219360,753.547729 
	C452.791565,752.986816 449.554962,755.104614 447.493805,759.874573 
z"/>
<path fill="#000000" opacity="1.000000" stroke="none" 
	d="
M407.395752,739.329773 
	C404.888519,739.312744 403.586639,739.920227 403.171295,742.309204 
	C401.490234,751.978149 402.849792,753.735229 412.446686,753.724121 
	C415.610260,753.720459 418.790619,753.916870 421.933289,753.657776 
	C426.179291,753.307800 427.363953,755.190308 427.349274,759.195496 
	C427.335236,763.041016 426.126953,764.662659 422.155670,764.440979 
	C417.673462,764.190735 413.148743,764.618103 408.677216,764.284668 
	C404.152222,763.947266 402.823273,765.865540 403.026672,770.094360 
	C403.274323,775.243530 402.892029,780.421936 403.107300,785.574036 
	C403.325897,790.805054 399.935333,790.309998 396.484467,790.391541 
	C392.876404,790.476807 390.535889,790.061218 390.593201,785.403687 
	C390.806274,768.089905 390.732147,750.771545 390.628662,733.455750 
	C390.608551,730.086365 391.693359,728.662781 395.216187,728.709045 
	C405.704010,728.846802 416.196259,728.838928 426.683929,728.688782 
	C430.176117,728.638855 431.464203,729.969177 431.286194,733.395447 
	C431.124939,736.498657 431.486908,739.497192 426.825928,739.350342 
	C420.505280,739.151062 414.173279,739.312805 407.395752,739.329773 
z"/>
<path fill="#000000" opacity="1.000000" stroke="none" 
	d="
M367.023376,639.181885 
	C374.955963,630.713867 383.957062,628.760193 392.321777,633.440491 
	C400.536621,638.036926 404.557709,647.896545 401.944275,657.034729 
	C398.829803,667.924805 387.582733,673.808289 376.636780,670.273499 
	C366.201050,666.903503 360.548920,655.053833 364.362549,644.375732 
	C364.971588,642.670471 365.980774,641.108093 367.023376,639.181885 
z"/>
<path fill="#000000" opacity="1.000000" stroke="none" 
	d="
M642.954346,200.528198 
	C646.012512,211.595200 642.310120,220.683136 633.112000,225.419312 
	C625.184631,229.501129 614.702454,227.282852 609.100708,220.337952 
	C603.084839,212.879593 603.112061,201.919586 609.164978,194.441223 
	C618.336060,183.110489 635.875671,186.088364 642.954346,200.528198 
z"/>
<path fill="#000000" opacity="1.000000" stroke="none" 
	d="
M412.864258,535.145935 
	C392.606476,544.261963 372.152100,551.658386 350.619812,555.782227 
	C340.241699,557.769653 329.749268,558.404907 319.396912,556.174500 
	C307.240326,553.555359 301.850494,543.144043 305.728302,531.298401 
	C306.727997,528.244568 308.519958,527.400696 311.370941,528.009338 
	C315.005951,528.785278 313.287140,531.132446 312.787720,533.069763 
	C310.352661,542.515808 314.784180,548.663696 325.159241,549.723999 
	C335.525055,550.783264 345.743744,549.504456 355.862701,547.168823 
	C372.454285,543.339294 388.349487,537.403198 404.223297,531.381042 
	C406.546448,530.499634 408.972687,529.807312 411.411041,529.338928 
	C413.304077,528.975281 415.264587,529.523987 415.955017,531.542236 
	C416.724731,533.792358 414.480530,534.130615 412.864258,535.145935 
z"/>
<path fill="#000000" opacity="1.000000" stroke="none" 
	d="
M714.134277,635.726807 
	C709.448425,628.302673 709.334167,622.935364 713.599670,619.675720 
	C715.544800,620.827820 714.240173,622.680298 714.564209,624.170898 
	C714.905151,625.739319 715.342957,627.286682 715.950806,629.679199 
	C721.359924,624.152100 723.496643,616.937012 729.912903,613.437927 
	C728.129395,610.371582 724.146545,612.741150 722.408691,609.698730 
	C724.379456,607.074585 727.137573,606.930481 729.916443,607.235535 
	C737.451111,608.062683 743.009338,612.841125 744.900208,619.938232 
	C746.777588,626.984863 744.025085,634.321411 737.820618,638.808228 
	C731.761353,643.190247 724.207581,643.271606 717.761230,638.935486 
	C716.533325,638.109619 715.498962,636.995850 714.134277,635.726807 
z"/>
<path fill="#000000" opacity="1.000000" stroke="none" 
	d="
M460.558594,297.767212 
	C458.301117,299.202911 456.646454,298.778076 454.782410,297.469757 
	C430.014923,280.086823 403.670532,265.644257 375.300873,254.982910 
	C371.281219,253.472336 371.268311,252.792770 374.633240,246.653397 
	C407.041687,257.999512 436.591095,274.748383 464.499237,294.422607 
	C463.807495,296.807281 462.044678,296.812592 460.558594,297.767212 
z"/>
<path fill="#000000" opacity="1.000000" stroke="none" 
	d="
M610.113708,753.902344 
	C611.453918,755.842529 612.576721,757.496155 613.748169,759.114502 
	C614.029114,759.502563 614.471802,759.773560 615.121948,760.347107 
	C618.500610,757.776062 620.372070,754.021240 622.384155,750.536499 
	C624.959717,746.075989 628.283508,744.558594 633.577148,746.394714 
	C632.783691,750.463928 629.892517,753.324890 627.720032,756.472900 
	C620.213135,767.350891 620.147827,767.298035 627.586548,778.184387 
	C630.097168,781.858643 632.570801,785.558105 635.357239,789.684204 
	C630.183960,791.044983 626.297852,791.383423 623.505493,786.206787 
	C621.255493,782.035583 618.188538,778.304932 614.923828,773.565613 
	C611.386780,778.595520 608.220886,782.804321 605.380920,787.222717 
	C602.804016,791.231995 599.573486,791.543579 594.717041,789.589966 
	C598.631287,783.991333 601.962524,778.463867 606.066101,773.586182 
	C609.685303,769.284180 610.002319,765.903809 606.329041,761.461731 
	C602.583984,756.932800 599.603149,751.771729 596.174988,746.721313 
	C604.427612,743.169922 606.790344,749.074524 610.113708,753.902344 
z"/>
<path fill="#000000" opacity="1.000000" stroke="none" 
	d="
M714.027710,282.643005 
	C729.609680,288.808990 735.198425,299.673370 731.416565,315.775208 
	C729.806091,322.632172 726.803711,328.831665 723.219666,334.527283 
	C720.349548,334.501556 719.377930,332.338318 717.621765,331.503113 
	C714.641663,330.085907 714.637756,328.180084 716.090393,325.445618 
	C718.985413,319.995911 721.393311,314.334961 721.824585,308.029205 
	C722.356445,300.252991 719.379639,294.410339 712.460815,290.714081 
	C700.204041,284.166138 686.992859,283.670593 673.567322,284.742737 
	C671.142029,284.936462 671.155701,285.107880 668.385742,283.916901 
	C683.363342,280.888031 698.346436,277.990051 714.027710,282.643005 
z"/>
<path fill="#000000" opacity="1.000000" stroke="none" 
	d="
M603.990417,223.968048 
	C599.651062,229.263733 593.706116,232.086609 588.551086,235.939514 
	C570.768677,249.230148 554.635925,264.273407 539.705261,280.652222 
	C536.738586,283.906586 536.403809,283.883698 530.611511,279.021759 
	C551.194336,255.847794 573.997131,235.404877 599.846863,218.735291 
	C602.360718,219.939941 603.099487,221.821548 603.990417,223.968048 
z"/>
<path fill="#000000" opacity="1.000000" stroke="none" 
	d="
M650.455688,610.374084 
	C654.431458,612.609436 654.431458,612.609436 651.160828,618.893982 
	C623.430054,610.023499 597.785217,596.923218 573.614624,580.482239 
	C578.487915,574.297241 578.834290,574.228638 584.430237,577.848206 
	C605.062927,591.193848 626.976013,601.942749 650.455688,610.374084 
z"/>
<path fill="#000000" opacity="1.000000" stroke="none" 
	d="
M313.965240,234.820709 
	C313.444305,237.936401 312.372467,239.677765 309.050934,239.670166 
	C304.852264,239.660553 304.164612,243.695084 303.612946,246.424896 
	C302.611084,251.382248 299.734344,252.401688 295.421265,252.378601 
	C286.463165,252.330658 278.991211,245.216263 278.925385,236.365219 
	C278.910797,234.405518 278.936768,232.297638 281.428070,231.441376 
	C284.737823,233.060440 281.929413,237.436066 285.259766,239.304077 
	C289.485565,238.201462 289.274048,232.920212 292.676331,230.714035 
	C295.959259,228.585251 299.938049,228.459839 303.132935,226.517044 
	C303.300446,223.852432 301.187988,223.454193 299.743530,222.512863 
	C298.523895,221.718018 296.631378,221.240341 297.615997,219.273178 
	C298.459625,217.587662 300.168915,218.010361 301.616791,218.483414 
	C307.801636,220.504181 311.795654,224.610016 313.317078,230.998550 
	C313.586548,232.130035 313.763672,233.283493 313.965240,234.820709 
z"/>
<path fill="#000000" opacity="1.000000" stroke="none" 
	d="
M671.240234,498.702637 
	C665.981018,491.180542 661.229675,483.716309 655.765137,476.816956 
	C652.326904,472.475952 653.378113,469.116638 656.427979,464.461670 
	C673.588562,486.933044 689.236023,509.622223 701.612244,534.384033 
	C699.857605,536.573914 697.718872,536.995422 695.250244,538.058105 
	C687.580017,524.850525 680.126526,511.540100 671.240234,498.702637 
z"/>
<path fill="#000000" opacity="1.000000" stroke="none" 
	d="
M315.093506,321.342804 
	C317.664948,320.052490 318.583954,321.194489 319.503967,323.193542 
	C328.979492,343.782471 339.871887,363.577576 352.806915,382.221466 
	C354.650604,384.878906 354.859070,390.936981 353.446381,396.584076 
	C350.622223,394.875702 349.658203,391.906097 348.056671,389.590118 
	C334.401245,369.842834 322.619904,349.023224 312.650024,327.175568 
	C311.380524,324.393616 310.568695,322.080109 315.093506,321.342804 
z"/>
<path fill="#000000" opacity="1.000000" stroke="none" 
	d="
M609.060547,284.921875 
	C606.132019,291.689575 603.472229,298.156281 600.527527,304.490479 
	C597.866516,310.214447 596.951233,310.370331 590.836548,307.025330 
	C594.481689,298.544891 598.303772,290.096771 601.763550,281.502777 
	C607.361816,267.596710 611.851440,253.318893 615.343262,238.734604 
	C616.901245,232.227524 616.892456,232.225418 624.015198,234.656281 
	C621.226074,251.890167 615.167480,268.212860 609.060547,284.921875 
z"/>
<path fill="#000000" opacity="1.000000" stroke="none" 
	d="
M697.908813,316.046051 
	C696.882263,307.608215 690.491699,304.562531 684.128784,302.351807 
	C674.456482,298.991272 664.366272,299.944183 654.519348,301.909576 
	C642.466980,304.315247 630.263428,306.210907 618.723572,310.746094 
	C618.352112,310.892090 617.805725,310.592834 616.730774,310.380798 
	C618.577087,307.030029 619.589783,303.531036 624.312439,303.783325 
	C627.784729,303.968842 631.078857,302.357697 633.586365,300.614716 
	C642.896240,294.143494 653.648865,293.917938 664.135803,292.871582 
	C671.203430,292.166382 678.429321,292.049713 685.445862,294.189148 
	C694.327637,296.897339 700.603333,304.999725 700.022461,313.347137 
	C699.926575,314.724915 700.269897,316.382660 698.506958,317.122620 
	C698.442871,317.149506 698.246399,316.937439 698.157043,316.805939 
	C698.065918,316.671875 698.030701,316.499756 697.908813,316.046051 
z"/>
<path fill="#000000" opacity="1.000000" stroke="none" 
	d="
M411.701691,628.668457 
	C427.939087,617.784546 442.920746,605.891907 456.420929,592.254150 
	C460.314056,588.321411 463.254517,588.377686 466.645569,592.372070 
	C466.903870,593.962952 465.610260,594.679321 464.709717,595.579529 
	C448.887115,611.395935 431.621002,625.434448 412.864319,637.636169 
	C406.961945,641.475891 406.971039,641.489868 403.591736,634.555481 
	C405.492828,631.813538 408.790100,630.783813 411.701691,628.668457 
z"/>
<path fill="#000000" opacity="1.000000" stroke="none" 
	d="
M405.117920,579.000671 
	C399.488098,593.307861 394.781982,607.512390 391.621826,622.165100 
	C390.779053,626.072571 388.754303,625.761292 385.897430,625.320984 
	C382.117188,624.738342 383.109375,622.356873 383.672272,620.094421 
	C387.733002,603.772583 393.047943,587.877747 399.317017,572.260742 
	C401.364166,567.161133 404.988617,566.008118 409.967957,565.238098 
	C409.282593,570.361938 406.463257,574.229065 405.117920,579.000671 
z"/>
<path fill="#000000" opacity="1.000000" stroke="none" 
	d="
M560.781860,834.531250 
	C560.665161,831.280945 560.399048,828.457397 561.540466,825.735474 
	C563.303162,821.531860 567.318787,818.995178 571.494873,820.256897 
	C573.948975,820.998352 576.285706,820.871033 579.333740,820.671082 
	C579.202393,828.962524 581.026978,836.957275 579.254578,844.996094 
	C578.504944,848.396118 576.137329,850.520935 572.728027,851.091309 
	C569.175171,851.685730 565.672913,851.452026 563.174988,848.313477 
	C562.394165,847.332520 561.207947,846.078247 562.482178,844.811340 
	C563.724304,843.576233 564.771606,844.632263 565.894897,845.494690 
	C570.763733,849.232361 574.089172,848.041504 575.217346,842.263306 
	C565.067566,843.531250 563.401184,842.685181 560.781860,834.531250 
M568.822510,838.836243 
	C571.832397,839.338684 574.237732,838.322754 575.098816,835.374390 
	C576.074768,832.032532 576.540283,828.446350 574.049744,825.476379 
	C571.807556,822.802856 567.853638,823.221680 566.008667,826.093872 
	C563.859863,829.439087 564.894836,835.744507 568.822510,838.836243 
z"/>
<path fill="#000000" opacity="1.000000" stroke="none" 
	d="
M506.178040,812.811890 
	C507.640656,812.828613 508.639557,812.842957 509.638275,812.865784 
	C522.729065,813.164734 529.302612,824.061951 523.638428,836.083496 
	C521.541077,840.534912 517.758423,842.284180 513.109131,842.306213 
	C500.256561,842.367126 501.977783,843.417297 501.834625,831.719604 
	C501.775543,826.891907 501.886047,822.061707 501.794586,817.234985 
	C501.741760,814.447876 502.599609,812.687012 506.178040,812.811890 
M518.364868,819.209229 
	C515.911255,816.656433 512.745911,816.777771 509.561981,816.750122 
	C507.270874,816.730225 506.217010,817.566589 506.252655,819.947388 
	C506.329681,825.094788 506.262207,830.244263 506.272766,835.392883 
	C506.275604,836.769409 506.502777,837.963745 508.074951,838.566162 
	C513.211914,840.534302 519.758057,837.224854 520.483459,831.875671 
	C521.036865,827.794495 521.351868,823.556458 518.364868,819.209229 
z"/>
<path fill="#000000" opacity="1.000000" stroke="none" 
	d="
M359.285339,458.336365 
	C352.847809,464.156006 346.597046,469.659515 340.552521,475.380951 
	C338.401276,477.417236 336.959778,477.625427 334.772247,475.427032 
	C332.598389,473.242432 332.692017,471.733215 334.817108,469.645203 
	C343.098785,461.507843 351.684601,453.735352 360.804199,446.426666 
	C364.491455,452.665588 364.354553,453.678101 359.285339,458.336365 
z"/>
<path fill="#000000" opacity="1.000000" stroke="none" 
	d="
M468.916992,825.372070 
	C472.044220,819.552368 476.576904,819.052490 481.815186,821.209534 
	C483.190491,819.125977 481.743774,817.129700 482.198975,815.233582 
	C482.502228,813.970398 482.411987,812.339783 484.192871,812.263550 
	C486.019714,812.185364 486.233643,813.715881 486.239075,815.066528 
	C486.274536,823.850708 486.257294,832.635071 486.257294,841.786194 
	C480.680267,841.424866 475.172028,845.749756 470.650757,840.364197 
	C467.013123,836.031189 467.008270,830.929688 468.916992,825.372070 
M476.096710,823.760864 
	C472.135437,826.710754 470.706909,832.972900 473.200745,836.880676 
	C474.909729,839.558533 477.291138,840.388977 479.894653,838.277649 
	C482.986420,835.770386 482.927856,832.217285 482.335083,828.683777 
	C481.817291,825.597290 480.316772,823.438660 476.096710,823.760864 
z"/>
<path fill="#000000" opacity="1.000000" stroke="none" 
	d="
M350.694061,831.974121 
	C351.450562,821.773987 354.516998,819.476807 365.091858,820.794312 
	C366.092896,819.104614 365.449921,817.226624 365.658600,815.446411 
	C365.808289,814.169312 365.521576,812.475342 367.372284,812.355103 
	C369.293091,812.230286 369.272614,813.907166 369.278168,815.204712 
	C369.315704,824.005859 369.297791,832.807190 369.297791,842.173523 
	C364.076019,840.600830 359.179596,845.786072 354.426605,841.337280 
	C351.829071,838.906067 350.668274,835.915344 350.694061,831.974121 
M355.091553,831.549011 
	C355.508270,837.481201 357.584534,840.333557 360.965820,839.261475 
	C365.569794,837.801697 365.903320,833.903137 365.594696,829.911682 
	C365.342651,826.652039 363.888306,823.672424 360.395355,823.668579 
	C356.179932,823.663940 355.205536,827.095947 355.091553,831.549011 
z"/>
<path fill="#000000" opacity="1.000000" stroke="none" 
	d="
M410.216003,833.674500 
	C413.297058,828.331726 418.943207,829.818115 423.193207,828.096313 
	C422.022003,823.270569 419.044830,822.186157 415.541840,825.274902 
	C414.178711,826.476746 412.759003,828.728882 411.165985,826.747925 
	C409.385315,824.533752 411.627686,822.824158 413.465485,821.638245 
	C419.919220,817.473877 427.429474,821.026001 427.944122,828.606995 
	C428.234344,832.881897 427.996429,837.192688 427.996429,841.983398 
	C424.701324,841.136902 422.135010,842.167297 419.415863,842.945190 
	C413.432800,844.656921 409.507996,840.731201 410.216003,833.674500 
M423.569519,834.410095 
	C421.047424,830.189270 417.937195,832.605469 415.276672,833.972839 
	C413.420563,834.926819 413.171143,837.074707 414.936005,838.511230 
	C417.725037,840.781555 420.174927,839.192505 422.350922,837.242981 
	C422.918671,836.734253 423.140228,835.839111 423.569519,834.410095 
z"/>
<path fill="#000000" opacity="1.000000" stroke="none" 
	d="
M538.779053,837.708923 
	C538.574646,827.860657 546.928040,830.197754 551.942627,828.039429 
	C550.563599,823.160095 547.835754,822.281677 544.175781,825.478455 
	C542.930603,826.566040 541.700623,828.563232 540.166077,826.905884 
	C538.400208,824.998535 540.128052,823.095032 541.746155,821.942261 
	C544.743713,819.806946 548.128235,819.228882 551.674561,820.544128 
	C554.862854,821.726501 556.034302,824.237305 556.512939,827.456238 
	C557.226318,832.254456 556.345886,836.964539 556.737915,842.264587 
	C553.654175,841.414795 551.381653,841.616394 548.895020,842.734924 
	C544.823975,844.566162 541.403748,842.691650 538.779053,837.708923 
M552.468933,833.692383 
	C549.142212,831.874451 544.147705,832.613586 543.014160,835.124084 
	C542.125916,837.091309 543.151489,838.550476 544.817261,839.079407 
	C548.663330,840.300598 551.123840,838.475952 552.471924,834.879944 
	C552.528442,834.729187 552.519348,834.553833 552.468933,833.692383 
z"/>
<path fill="#000000" opacity="1.000000" stroke="none" 
	d="
M378.816711,834.132080 
	C380.255859,840.011536 383.041565,841.034058 387.564270,837.605957 
	C388.900665,836.593079 389.967133,835.104004 391.945831,836.960876 
	C391.386597,841.061523 388.438477,842.700928 384.799194,843.123779 
	C380.180023,843.660461 376.551117,841.673828 374.740173,837.362549 
	C372.991791,833.200317 373.194733,828.845886 375.218536,824.769043 
	C377.211029,820.755371 381.975952,818.958801 386.308685,820.347961 
	C390.292877,821.625244 393.443909,826.531372 392.945435,830.493958 
	C392.660919,832.755615 391.089783,832.897644 389.353912,833.073547 
	C385.911774,833.422424 382.366791,832.343506 378.816711,834.132080 
M387.526154,825.751526 
	C382.757050,822.090210 380.399353,822.787354 378.799316,828.525696 
	C381.309479,830.261292 384.190399,829.587646 386.877289,829.379089 
	C388.728760,829.235413 388.520355,827.680603 387.526154,825.751526 
z"/>
<path fill="#000000" opacity="1.000000" stroke="none" 
	d="
M445.701050,832.808228 
	C445.819794,824.103699 449.677155,819.355347 455.868591,819.983032 
	C459.895569,820.391235 462.624390,822.538147 463.853668,826.478821 
	C465.352783,831.284363 464.238129,832.869141 459.151367,833.062866 
	C457.987671,833.107239 456.804535,832.953369 455.659607,833.107727 
	C453.842102,833.352783 451.397125,832.169922 450.534058,834.852539 
	C450.082367,836.256531 451.036316,837.429260 452.132477,838.265503 
	C454.029175,839.712585 456.092438,840.029602 458.146088,838.625671 
	C459.094208,837.977600 459.834503,837.031738 460.758148,836.339844 
	C461.672028,835.655212 462.616638,835.938416 463.490631,836.450195 
	C462.771057,841.064758 460.080841,843.277649 455.420807,843.212830 
	C449.983276,843.137207 446.762878,839.831543 445.701050,832.808228 
M455.346832,829.180847 
	C456.743347,828.985413 458.377716,829.824707 459.713043,827.910278 
	C459.547485,825.482483 458.038940,823.691772 455.502502,823.589966 
	C452.521545,823.470276 450.691528,825.281860 450.364990,828.237000 
	C451.655090,830.059082 453.232361,829.190674 455.346832,829.180847 
z"/>
<path fill="#000000" opacity="1.000000" stroke="none" 
	d="
M339.605774,820.076111 
	C342.363586,820.659119 344.341003,821.755615 345.656799,823.871155 
	C347.118103,826.220581 348.125763,828.936157 347.127808,831.444275 
	C346.046356,834.162170 343.060669,832.892395 340.880035,833.056946 
	C338.435059,833.241333 335.965454,833.099304 333.584473,833.099304 
	C332.615112,836.201538 334.039124,837.671448 336.008636,838.830566 
	C338.193817,840.116516 340.170410,839.532410 341.939545,837.961975 
	C343.266937,836.783630 344.354370,835.005310 346.783447,836.583557 
	C346.830109,840.109253 344.369934,841.629700 341.526825,842.653076 
	C337.947144,843.941589 334.554047,843.326904 331.842163,840.628967 
	C327.809662,836.617188 327.931549,831.549561 329.326172,826.650269 
	C330.660767,821.961914 334.268127,819.773254 339.605774,820.076111 
M340.708679,829.502869 
	C343.029480,828.949158 343.155273,827.468933 342.016571,825.826843 
	C340.707764,823.939575 338.917603,822.826599 336.519165,823.928528 
	C334.814056,824.711914 333.154175,825.836243 333.464539,827.923645 
	C333.814392,830.276550 335.967590,829.447815 337.481384,829.588928 
	C338.294281,829.664673 339.122345,829.578125 340.708679,829.502869 
z"/>
<path fill="#000000" opacity="1.000000" stroke="none" 
	d="
M315.576050,825.593079 
	C318.326111,825.700684 320.652252,825.713928 322.972046,825.842346 
	C324.016174,825.900085 324.983826,826.354370 324.951813,827.610840 
	C324.919525,828.881348 323.890961,829.089233 322.872131,829.273254 
	C319.830383,829.822693 316.042633,827.891052 313.835754,830.484070 
	C311.914368,832.741577 313.419006,836.281982 312.987274,839.221069 
	C312.792542,840.547058 312.642212,842.030823 310.818359,841.997742 
	C308.983643,841.964539 308.816742,840.472595 308.808716,839.143494 
	C308.762573,831.503479 308.784576,823.863037 308.774323,816.222778 
	C308.771301,813.966553 309.918579,812.852966 312.132477,812.838684 
	C316.284332,812.811951 320.436676,812.791077 324.588287,812.826294 
	C325.974915,812.838013 327.394958,813.118103 327.336304,814.938354 
	C327.277618,816.758606 325.767578,816.869751 324.437805,816.930847 
	C322.282013,817.030029 320.117889,816.952271 317.962799,817.059814 
	C316.211487,817.147217 313.819672,816.648499 313.458496,819.054749 
	C313.124939,821.277161 311.866272,824.116943 315.576050,825.593079 
z"/>
<path fill="#000000" opacity="1.000000" stroke="none" 
	d="
M621.524170,841.875732 
	C616.550049,844.232483 612.386169,843.693726 609.100220,839.619934 
	C605.773132,835.495178 605.780029,827.095215 609.148743,823.217285 
	C612.063232,819.862305 615.798523,818.982056 619.999023,820.563416 
	C625.750122,822.728638 628.174438,831.769958 624.661621,838.208679 
	C623.963806,839.487854 622.807739,840.517090 621.524170,841.875732 
M621.448914,827.490662 
	C620.223877,824.864563 618.465210,822.896545 615.280518,823.775513 
	C612.276855,824.604492 611.284424,827.069336 611.212585,829.952759 
	C611.175415,831.445312 611.158752,832.958618 611.357056,834.432434 
	C611.761108,837.435730 613.519531,839.517395 616.572937,839.455444 
	C619.616150,839.393799 621.337891,837.236572 621.625305,834.245605 
	C621.814880,832.273743 621.632507,830.266235 621.448914,827.490662 
z"/>
<path fill="#000000" opacity="1.000000" stroke="none" 
	d="
M704.859741,843.233154 
	C700.099426,843.085144 696.731873,841.681519 695.952209,836.861816 
	C697.866699,835.125549 699.124207,836.125916 700.323181,837.433228 
	C701.491699,838.707397 702.875549,839.642029 704.653931,839.528625 
	C706.376953,839.418701 708.046631,838.842102 708.460083,836.930237 
	C708.871033,835.029785 707.318604,834.309692 705.904053,833.794922 
	C704.193420,833.172424 702.372620,832.850525 700.667542,832.215698 
	C697.819580,831.155334 695.655518,829.345581 695.955750,825.995117 
	C696.265808,822.535828 698.559387,820.766785 701.835510,820.187256 
	C705.303833,819.573730 708.465271,820.238953 710.999023,822.816040 
	C711.952393,823.785583 712.695557,825.109070 711.622864,826.365234 
	C710.500122,827.679810 709.288513,827.053894 708.183655,826.061646 
	C707.330200,825.295105 706.476135,824.429993 705.459290,823.965820 
	C703.527466,823.084106 701.683899,823.674438 700.809814,825.538208 
	C699.790100,827.712524 701.678345,828.425232 703.257935,828.996155 
	C704.656189,829.501526 706.146667,829.751160 707.546570,830.252747 
	C710.476624,831.302673 713.224365,832.746277 713.138977,836.384033 
	C713.058655,839.807922 710.831360,841.739441 707.701721,842.700378 
	C706.913940,842.942261 706.084656,843.049133 704.859741,843.233154 
z"/>
<path fill="#000000" opacity="1.000000" stroke="none" 
	d="
M644.847717,826.854126 
	C642.651062,827.242737 641.983276,825.630676 640.865356,824.725708 
	C639.455261,823.584351 637.931885,823.243347 636.242249,824.145569 
	C635.315613,824.640381 634.474976,825.270996 634.540588,826.386414 
	C634.666199,828.521240 636.553589,828.822876 638.056580,829.385193 
	C639.913757,830.080200 641.973389,830.342590 643.699829,831.256165 
	C647.348633,833.187134 648.117798,837.002991 645.734070,840.073853 
	C642.581787,844.135132 634.259094,844.372131 630.973511,840.454529 
	C630.014648,839.311218 628.820801,837.865601 630.084412,836.491333 
	C631.430420,835.027283 632.774780,836.058411 633.787903,837.351196 
	C634.630981,838.427124 635.630676,839.339661 637.022522,839.511414 
	C639.290894,839.791260 641.691162,839.562866 642.338989,837.026306 
	C642.959656,834.596436 640.526428,834.216125 638.891663,833.589478 
	C636.889771,832.822144 634.609619,832.573853 632.830566,831.481201 
	C630.227356,829.882324 628.895203,827.421753 630.393799,824.240234 
	C632.112000,820.592468 637.202942,818.844910 641.680176,820.656860 
	C644.223816,821.686340 647.152710,822.899719 644.847717,826.854126 
z"/>
<path fill="#000000" opacity="1.000000" stroke="none" 
	d="
M599.981934,841.851929 
	C597.821716,837.875732 598.935303,833.850220 598.725403,829.932312 
	C598.550598,826.667908 597.979675,823.529663 594.054565,823.674194 
	C590.545532,823.803406 589.058960,826.435364 589.141052,829.941101 
	C589.210938,832.925232 589.162598,835.915100 589.063171,838.898987 
	C589.013306,840.395569 588.886658,842.122620 586.761841,842.013794 
	C584.991821,841.923035 584.833740,840.392090 584.828308,839.060425 
	C584.807495,833.917175 584.855957,828.773621 584.897583,823.630310 
	C584.915466,821.424377 585.674866,819.979858 588.222168,820.842590 
	C589.243042,821.188416 590.129517,820.982239 591.119446,820.769409 
	C598.998901,819.075378 601.917969,821.109985 602.687622,829.042053 
	C602.990906,832.167969 602.927795,835.339722 602.861328,838.486938 
	C602.827515,840.091492 602.831848,841.981995 599.981934,841.851929 
z"/>
<path fill="#000000" opacity="1.000000" stroke="none" 
	d="
M691.931152,835.639526 
	C692.615967,840.469299 689.365540,842.087585 685.940063,842.940125 
	C681.745667,843.984070 677.806091,842.857483 675.610168,838.854431 
	C672.964539,834.031738 672.925354,828.865173 675.720337,824.087036 
	C677.880798,820.393616 681.588440,819.275818 685.675781,820.081604 
	C689.562256,820.847839 692.381348,822.865051 692.429565,827.339111 
	C690.300415,829.063354 689.089172,827.893799 687.937927,826.212036 
	C686.742859,824.466370 685.182190,823.224182 682.915527,823.821289 
	C680.428467,824.476440 678.853638,826.257324 678.516907,828.726990 
	C678.229492,830.834778 678.136292,833.099487 678.595520,835.151917 
	C679.600098,839.641846 683.928284,840.802185 687.330994,837.643616 
	C688.604126,836.461792 689.312683,834.337524 691.931152,835.639526 
z"/>
<path fill="#000000" opacity="1.000000" stroke="none" 
	d="
M445.422363,513.368713 
	C450.193756,512.075439 453.523315,508.727814 457.797577,507.265320 
	C460.514191,506.335754 463.175629,505.347961 465.662476,507.646210 
	C466.025116,509.477356 464.697235,510.195129 463.601196,510.753937 
	C456.357758,514.446960 449.493866,518.890381 441.780121,521.667053 
	C439.697601,522.416687 437.768738,522.955688 436.608337,520.667236 
	C435.316254,518.119080 437.266327,517.179871 439.235382,516.331116 
	C441.217468,515.476685 443.131592,514.464539 445.422363,513.368713 
z"/>
<path fill="#000000" opacity="1.000000" stroke="none" 
	d="
M442.303772,823.482056 
	C438.859711,824.080078 437.861084,825.976196 438.128021,828.910461 
	C438.521027,833.230774 436.293579,838.564026 442.802155,840.137756 
	C442.578613,842.763367 440.956665,843.093384 439.220459,842.876221 
	C436.920654,842.588440 435.237000,841.346497 434.431000,839.057007 
	C433.462280,836.305359 433.917450,833.458069 433.800812,830.649963 
	C433.672546,827.562256 434.617767,824.078308 430.219940,822.999695 
	C431.437225,820.181641 434.255005,819.151489 434.205719,816.288818 
	C434.188324,815.278137 436.264404,814.606628 436.425262,815.123962 
	C437.518524,818.640076 442.097046,819.405334 442.303772,823.482056 
z"/>
<path fill="#000000" opacity="1.000000" stroke="none" 
	d="
M652.653564,832.959839 
	C652.564819,828.686951 653.663513,824.458191 648.344666,822.453186 
	C650.471985,820.421570 653.020813,819.360779 652.835876,816.393433 
	C652.783203,815.548584 653.677612,814.906494 654.592651,815.094971 
	C655.140259,815.207825 656.035156,815.814331 656.016968,816.158997 
	C655.828735,819.729309 658.431458,820.689026 661.027832,821.351868 
	C661.027832,822.045654 661.119385,822.619995 661.014709,822.658325 
	C655.016174,824.853577 656.291992,829.878052 656.393860,834.445374 
	C656.441467,836.578796 656.896851,838.403259 659.410217,838.890381 
	C660.898254,839.178772 661.958435,840.003662 661.322998,841.648071 
	C660.751648,843.126587 659.304810,843.262085 657.944336,843.046021 
	C655.249451,842.617859 653.298889,841.203247 652.860962,838.376831 
	C652.609558,836.753723 652.712585,835.075684 652.653564,832.959839 
z"/>
<path fill="#000000" opacity="1.000000" stroke="none" 
	d="
M405.441650,820.203369 
	C408.941833,820.949280 409.066284,823.143555 406.405914,823.832825 
	C401.295410,825.156860 401.150269,828.568970 401.243622,832.561646 
	C401.297729,834.876892 401.233917,837.196838 401.153503,839.512329 
	C401.111603,840.717834 400.799408,841.900818 399.318054,842.024048 
	C397.792908,842.150940 397.222534,840.966370 397.202057,839.799988 
	C397.103333,834.176208 397.091492,828.549438 397.156555,822.925049 
	C397.174652,821.362366 398.257294,820.272217 399.787231,820.804565 
	C401.746613,821.486328 403.345825,820.618530 405.441650,820.203369 
z"/>
<path fill="#000000" opacity="1.000000" stroke="none" 
	d="
M713.933411,553.286743 
	C709.987854,559.192688 706.903259,560.223572 701.581543,557.370789 
	C704.811584,555.352539 709.128540,554.891907 710.270508,550.716125 
	C711.525269,546.127808 706.931213,544.804260 704.984497,541.928772 
	C711.359253,540.216125 714.760803,544.458557 713.933411,553.286743 
z"/>
<path fill="#000000" opacity="1.000000" stroke="none" 
	d="
M530.746582,841.104370 
	C529.591125,835.145142 530.179688,829.525574 530.190857,823.921936 
	C530.193787,822.485413 530.257568,820.646057 532.366699,820.697571 
	C534.150574,820.741150 534.216675,822.341370 534.227478,823.659973 
	C534.269470,828.783875 534.303040,833.909180 534.218872,839.031982 
	C534.185852,841.039978 533.721680,842.891235 530.746582,841.104370 
z"/>
<path fill="#000000" opacity="1.000000" stroke="none" 
	d="
M668.306763,842.031128 
	C666.453552,842.149780 665.804321,841.266968 665.790588,839.962952 
	C665.731506,834.349792 665.716309,828.735962 665.727905,823.122437 
	C665.730408,821.902771 666.067078,820.768677 667.592285,820.695557 
	C669.088806,820.623840 669.744019,821.687439 669.717102,822.896973 
	C669.575623,829.247253 670.911499,835.683594 668.306763,842.031128 
z"/>
<path fill="#000000" opacity="1.000000" stroke="none" 
	d="
M663.784424,365.848175 
	C665.751160,364.056915 667.535217,361.700348 669.844849,364.302734 
	C671.947815,366.672302 670.112671,368.714020 668.237122,370.188110 
	C665.278870,372.513123 662.767944,375.494659 657.931335,377.506683 
	C660.131836,373.031372 661.831238,369.575378 663.784424,365.848175 
z"/>
<path fill="#000000" opacity="1.000000" stroke="none" 
	d="
M697.799377,621.739502 
	C699.553101,623.431152 700.127625,625.047241 698.562927,626.737976 
	C697.138306,628.277344 695.293762,628.344971 693.561035,627.441650 
	C691.804688,626.526062 690.065735,625.314453 689.809998,623.155945 
	C689.642944,621.745789 690.930908,621.250000 692.132324,621.095825 
	C693.934387,620.864380 695.752502,620.718750 697.799377,621.739502 
z"/>
<path fill="#000000" opacity="1.000000" stroke="none" 
	d="
M692.387756,326.960693 
	C688.744934,324.696716 691.904480,323.835236 693.081543,322.858673 
	C694.084045,322.026917 695.900452,321.683472 696.275818,323.394684 
	C696.833923,325.939056 694.792480,326.635590 692.387756,326.960693 
z"/>
<path fill="#000000" opacity="1.000000" stroke="none" 
	d="
M667.196777,816.609253 
	C664.974487,815.556702 664.629822,814.167236 666.187744,812.716187 
	C667.326355,811.655701 668.756592,811.939636 669.492859,813.259216 
	C670.601868,815.246765 669.422241,816.229614 667.196777,816.609253 
z"/>
<path fill="#000000" opacity="1.000000" stroke="none" 
	d="
M531.829468,812.233582 
	C534.243225,812.628052 534.990112,813.947815 534.010742,815.744812 
	C533.292297,817.063110 531.818604,817.295715 530.702698,816.148010 
	C529.227905,814.631287 529.585571,813.244507 531.829468,812.233582 
z"/>
</svg>