<svg version="1.1" id="Layer_1" xmlns="http://www.w3.org/2000/svg" xmlns:xlink="http://www.w3.org/1999/xlink" x="0px" y="0px"
	 width="100%" viewBox="0 0 1024 1024" enable-background="new 0 0 1024 1024" xml:space="preserve">
<path fill="#000000" opacity="1.000000" stroke="none" 
	d="
M510.954834,543.017395 
	C525.943604,550.586060 541.252869,554.839172 557.896057,553.914978 
	C567.277405,553.394043 575.866333,550.965698 583.878540,546.144958 
	C585.352539,545.258057 586.646790,543.666260 589.071167,544.142395 
	C589.080750,548.868469 587.418030,553.194336 585.763794,557.441528 
	C572.739990,590.881592 541.548645,612.453125 505.804535,612.855652 
	C462.161072,613.347046 423.801514,578.632019 419.550171,534.913025 
	C419.114258,530.430359 418.925079,525.965576 418.773407,521.474304 
	C418.617096,516.844360 420.399292,514.547119 425.067963,513.633606 
	C439.982758,510.715332 453.794830,514.578369 467.326874,520.104736 
	C481.549377,525.913025 494.245117,534.673340 507.937927,541.519226 
	C508.830750,541.965637 509.724243,542.410706 510.954834,543.017395 
M460.247314,562.382080 
	C467.194122,562.884033 472.580261,558.671997 472.648987,552.683716 
	C472.710999,547.282776 467.420197,542.175842 461.989288,542.394409 
	C456.388245,542.619873 451.864960,547.786194 452.308990,553.492615 
	C452.665314,558.071899 455.694427,560.439697 460.247314,562.382080 
M486.587738,566.058838 
	C485.669281,564.166931 484.256439,563.302307 482.210510,564.190918 
	C480.642548,564.871948 480.132446,566.224792 480.479614,567.846924 
	C480.781982,569.259705 481.743378,570.300415 483.136688,570.383850 
	C485.559418,570.528870 486.673645,569.081909 486.587738,566.058838 
z"/>
<path fill="#000000" opacity="1.000000" stroke="none" 
	d="
M554.063110,607.052246 
	C563.541077,601.194153 571.404968,594.071899 577.988586,585.551941 
	C579.751892,583.270020 581.828674,581.507751 584.346924,580.068054 
	C591.574829,575.935852 598.780579,571.754761 605.440186,566.709839 
	C606.574158,565.850769 607.608826,564.557556 610.308899,565.029968 
	C607.951904,570.270752 606.118835,575.558472 603.352783,580.302063 
	C584.077759,613.357544 555.789124,632.877808 517.427246,637.465454 
	C459.588928,644.382141 405.119995,602.624268 394.927673,545.799927 
	C385.567627,493.615784 413.900970,440.864716 463.135742,420.349396 
	C466.754974,418.841309 468.149567,416.938873 468.130829,412.955902 
	C467.980347,380.971313 468.048950,348.985718 468.044067,317.000427 
	C468.042969,309.743317 468.031433,309.708771 475.097534,309.741211 
	C487.163635,309.796570 485.318939,308.579590 485.348724,320.180023 
	C485.438995,355.330322 485.312042,390.481354 485.509705,425.630798 
	C485.534576,430.051178 484.249237,431.833282 479.962677,433.236847 
	C441.250946,445.912170 417.441620,472.446960 411.773865,512.684692 
	C406.694824,548.742920 419.820862,578.959595 448.724396,601.417786 
	C479.396576,625.250244 520.362976,627.203064 554.063110,607.052246 
z"/>
<path fill="#000000" opacity="1.000000" stroke="none" 
	d="
M542.231812,344.000000 
	C542.236084,367.156158 542.331726,389.813049 542.158081,412.467865 
	C542.126648,416.568573 543.409546,418.605591 547.290222,420.229858 
	C592.914246,439.326355 621.324768,486.175995 617.103027,535.269287 
	C616.649597,540.542175 615.222290,545.731750 614.236328,550.958008 
	C613.947693,552.487549 613.080872,553.672729 612.023499,554.787170 
	C608.687073,558.303650 595.399719,567.269897 590.208435,569.435852 
	C589.072021,568.272461 590.082336,567.316772 590.529541,566.325378 
	C614.884705,512.334473 588.458984,452.130798 532.191223,433.425842 
	C524.601257,430.902740 524.606323,430.902710 524.608521,422.651398 
	C524.619812,379.504761 524.625122,336.358124 524.640930,293.211487 
	C524.643616,285.823059 524.662292,285.821472 532.087891,285.805023 
	C536.085999,285.796173 540.086609,285.703033 544.081726,285.809662 
	C550.145447,285.971466 553.846436,288.990845 554.289551,293.947510 
	C554.755737,299.162262 552.027405,302.911987 546.045166,303.943115 
	C542.628479,304.532135 542.176086,306.205597 542.193787,309.016754 
	C542.266052,320.510803 542.228271,332.005524 542.231812,344.000000 
z"/>
<path fill="#000000" opacity="1.000000" stroke="none" 
	d="
M453.121582,496.737030 
	C473.304352,495.819550 490.708282,503.251221 507.808044,511.719879 
	C519.875793,517.696350 531.434326,524.690430 544.208740,529.243469 
	C558.753479,534.427429 573.407166,537.173889 588.671875,532.742371 
	C589.331482,532.550842 589.976318,532.615540 590.689575,533.729553 
	C589.164368,536.147705 586.682922,537.699585 584.123352,539.135254 
	C567.098572,548.684265 549.357117,547.839844 531.348389,542.685120 
	C517.106506,538.608643 504.573242,530.939453 491.853302,523.693298 
	C477.620667,515.585327 463.097778,508.301788 446.620148,505.863312 
	C440.264221,504.922699 434.026428,505.140991 427.816223,506.710754 
	C426.421387,507.063324 425.067780,508.000092 422.870453,506.613586 
	C432.019501,500.068573 441.980743,497.418274 453.121582,496.737030 
z"/>
<path fill="#000000" opacity="1.000000" stroke="none" 
	d="
M554.808777,508.773743 
	C544.974487,517.441223 534.928040,518.726685 525.373413,512.780762 
	C517.174255,507.678345 512.720825,496.559296 515.158081,487.089752 
	C517.531921,477.866699 523.253418,471.757477 532.676025,470.005341 
	C542.235962,468.227661 550.730591,470.832123 556.502869,478.986145 
	C562.020569,486.780487 562.791443,495.303284 558.075745,503.930420 
	C557.202393,505.528229 556.065491,506.981964 554.808777,508.773743 
M551.790894,482.848755 
	C547.032959,477.195801 543.756531,475.700073 538.189636,477.061279 
	C547.187988,480.716125 551.802917,487.474915 553.534363,496.559784 
	C555.423096,491.692078 554.335205,487.516266 551.790894,482.848755 
z"/>
<path fill="#000000" opacity="1.000000" stroke="none" 
	d="
M624.509460,707.047363 
	C626.807251,707.959778 627.442566,705.968079 628.487427,704.897522 
	C634.067688,699.179993 639.668945,693.474182 645.025452,687.549683 
	C649.475769,682.627441 654.803101,685.320679 659.910461,684.730896 
	C660.048340,687.741821 657.949829,688.645203 656.653748,689.992554 
	C651.921997,694.911865 647.173645,699.823730 642.230286,704.526917 
	C639.993774,706.654846 639.691162,708.238708 641.653809,710.815063 
	C647.402527,718.361206 652.893494,726.104309 658.451111,733.795044 
	C659.501282,735.248474 660.962830,736.479797 661.241699,738.408752 
	C654.207458,741.009644 649.544800,739.820984 645.405823,734.270447 
	C641.039673,728.415283 636.747742,722.504883 632.090210,716.165039 
	C627.755798,719.514709 623.542236,722.337402 624.236267,728.532532 
	C624.383667,729.848145 624.262390,731.194153 624.260254,732.526184 
	C624.249023,739.485718 623.953369,739.658813 616.892883,739.584534 
	C614.118835,739.555298 612.919556,738.523621 612.923401,735.796692 
	C612.945435,720.145935 612.982727,704.494934 612.906311,688.844543 
	C612.883179,684.104736 616.119263,684.751526 619.100098,684.656250 
	C622.050598,684.561951 624.357849,684.857605 624.271667,688.790710 
	C624.140381,694.778259 624.335449,700.773010 624.509460,707.047363 
z"/>
<path fill="#000000" opacity="1.000000" stroke="none" 
	d="
M516.761108,709.362488 
	C521.082642,719.263977 525.241272,728.822205 529.398254,738.376770 
	C521.740417,741.634033 518.326782,740.607178 515.800842,733.770325 
	C513.991394,728.872925 511.416565,726.546631 505.965759,727.212585 
	C501.866028,727.713440 497.640564,727.526306 493.498718,727.242065 
	C489.618164,726.975769 487.509796,728.280151 486.025818,732.056519 
	C482.531555,740.948730 481.859772,741.089233 471.699341,738.647949 
	C474.495026,732.051025 477.211670,725.514954 480.028656,719.022461 
	C484.464752,708.798340 489.111572,698.662537 493.362671,688.362915 
	C494.776337,684.937866 496.981659,684.067871 500.294220,684.058960 
	C503.723022,684.049744 506.238068,684.654419 507.686035,688.411438 
	C510.375305,695.389221 513.597656,702.161438 516.761108,709.362488 
M505.320892,709.121582 
	C503.861542,705.871521 502.402222,702.621399 500.813873,699.084045 
	C497.000092,704.964844 494.275818,711.597656 493.741699,716.454529 
	C498.371063,717.010803 502.914490,717.513611 507.489319,716.039978 
	C507.385132,714.958374 507.433105,714.434021 507.272980,713.983704 
	C506.772522,712.576172 506.193420,711.196594 505.320892,709.121582 
z"/>
<path fill="#000000" opacity="1.000000" stroke="none" 
	d="
M568.896057,694.125061 
	C567.146912,694.177490 565.785339,694.100830 564.503601,694.384644 
	C562.202576,694.894287 560.661316,696.321289 560.307678,698.755859 
	C559.979370,701.016296 560.975464,702.760376 562.924866,703.692749 
	C565.310730,704.833679 567.832092,705.707458 570.333496,706.586792 
	C573.467590,707.688477 576.743408,708.443359 579.776550,709.764526 
	C586.502686,712.694336 589.656372,717.842896 589.286499,724.669617 
	C588.925598,731.328308 584.555420,737.055542 577.957397,739.007751 
	C567.713501,742.038696 558.221375,739.974792 549.370300,734.295654 
	C546.800049,732.646484 545.954224,730.632935 548.351868,728.211060 
	C550.309509,726.233521 551.329041,721.871643 555.587524,725.392517 
	C559.148621,728.336731 563.396545,729.820801 567.992798,730.106812 
	C569.622742,730.208252 571.328125,730.049255 572.915588,729.664673 
	C575.492188,729.040466 577.516907,727.647278 577.723267,724.668701 
	C577.917053,721.872009 576.152222,720.232361 573.886292,719.427429 
	C569.194885,717.760986 564.343384,716.547607 559.640686,714.909729 
	C551.577087,712.101257 548.269653,707.474304 548.515320,699.769958 
	C548.794312,691.019653 553.697021,685.419617 562.872925,683.972595 
	C570.697144,682.738770 578.057861,684.435608 584.984558,688.309814 
	C587.856201,689.915955 587.735413,691.766724 585.970276,693.939270 
	C584.344788,695.940002 584.156494,700.459534 579.615234,697.643188 
	C576.474487,695.695496 573.083130,694.338928 568.896057,694.125061 
z"/>
<path fill="#000000" opacity="1.000000" stroke="none" 
	d="
M350.696045,735.739441 
	C350.684845,720.291687 350.815948,705.311218 350.596039,690.335815 
	C350.532715,686.024475 351.802704,684.435425 356.242157,684.545044 
	C366.887238,684.808105 377.545563,684.784241 388.192871,684.579834 
	C392.166412,684.503601 393.424744,685.931519 393.376892,689.804016 
	C393.331848,693.453064 392.514496,695.397888 388.377502,695.269470 
	C381.227783,695.047546 374.058838,695.401367 366.912445,695.130737 
	C360.278473,694.879456 362.409698,699.642212 361.885437,703.048340 
	C361.287109,706.935974 363.041382,707.950562 366.649384,707.824097 
	C372.799530,707.608643 378.968842,707.937134 385.118683,707.717529 
	C389.260376,707.569519 390.133270,709.640991 390.220459,713.218750 
	C390.310364,716.907654 388.848572,718.316162 385.234833,718.240601 
	C379.079865,718.111877 372.911530,718.420654 366.765015,718.161072 
	C362.542267,717.982727 361.109161,719.681946 361.346313,723.718079 
	C361.570496,727.532410 361.316345,731.372498 361.412384,735.197754 
	C361.478638,737.835815 361.024109,740.025818 357.787689,739.819885 
	C354.981995,739.641357 350.959564,741.506958 350.696045,735.739441 
z"/>
<path fill="#000000" opacity="1.000000" stroke="none" 
	d="
M504.630066,285.834198 
	C512.092957,286.920471 517.009766,294.563354 515.162354,301.283081 
	C514.624878,303.238190 513.344971,303.398712 511.784760,303.397400 
	C495.836945,303.384033 479.888855,303.414429 463.941437,303.325531 
	C459.140472,303.298767 456.784790,300.203705 455.983795,295.872406 
	C455.251740,291.913879 458.174194,287.543640 462.387390,286.387604 
	C464.422211,285.829315 466.649078,285.829651 468.789856,285.822388 
	C480.584534,285.782227 492.379517,285.817902 504.630066,285.834198 
z"/>
<path fill="#000000" opacity="1.000000" stroke="none" 
	d="
M427.321045,719.933411 
	C427.441772,730.742981 426.016571,729.574219 436.760376,729.663147 
	C441.925537,729.705933 447.095642,729.796021 452.255463,729.623596 
	C455.808441,729.504944 456.394684,731.439331 456.322510,734.334534 
	C456.254333,737.068970 456.602478,739.920898 452.553802,739.908508 
	C441.557281,739.874878 430.560760,739.857788 419.564301,739.813354 
	C417.304810,739.804260 416.370667,738.678467 416.387329,736.352234 
	C416.502075,720.358032 416.619446,704.362732 416.522308,688.369019 
	C416.498444,684.439758 418.854401,684.593018 421.425964,684.661987 
	C424.122742,684.734192 427.375031,683.808289 427.332855,688.453369 
	C427.238983,698.783447 427.314514,709.115051 427.321045,719.933411 
z"/>
<path fill="#000000" opacity="1.000000" stroke="none" 
	d="
M492.702332,403.954590 
	C492.691803,374.316711 492.673218,345.169922 492.674103,316.023163 
	C492.674255,310.145294 495.857208,308.012390 501.574310,309.826141 
	C504.236755,310.670868 503.408478,312.748688 503.278778,314.371216 
	C502.192352,327.961670 500.993530,341.543182 499.815521,355.126251 
	C498.307068,372.519531 496.763184,389.909760 495.297424,407.306610 
	C495.090454,409.763123 495.080292,412.213196 493.453278,415.303589 
	C492.175842,411.167664 492.912933,407.761200 492.702332,403.954590 
z"/>
<path fill="#000000" opacity="1.000000" stroke="none" 
	d="
M525.165527,455.883423 
	C523.232361,463.124451 518.407410,466.342560 512.882202,464.473663 
	C507.296600,462.584351 504.640411,456.249725 507.174927,450.635223 
	C509.039368,446.505066 512.388550,444.721436 516.827332,445.267212 
	C521.660339,445.861450 524.197510,449.083588 525.165527,455.883423 
z"/>
</svg>