<svg version="1.1" id="Layer_1" xmlns="http://www.w3.org/2000/svg" xmlns:xlink="http://www.w3.org/1999/xlink" x="0px" y="0px"
	 width="100%" viewBox="0 0 268 148" enable-background="new 0 0 268 148" xml:space="preserve">
<path fill="#FEFEFE" opacity="1.000000" stroke="none" 
	d="
M97.000000,149.000000 
	C65.016899,149.000000 33.033794,149.000000 1.025346,149.000000 
	C1.025346,99.709625 1.025346,50.419231 1.025346,1.064421 
	C90.243172,1.064421 179.486404,1.064421 268.864807,1.064421 
	C268.864807,50.216831 268.864807,99.434158 268.864807,149.000000 
	C212.979584,149.000000 156.958450,149.000000 100.373955,148.649689 
	C101.626617,145.499847 104.814125,142.792068 105.008644,139.884094 
	C105.665062,130.070679 105.258659,120.186165 105.258659,108.827171 
	C103.183144,110.166924 101.945618,110.965744 100.625595,112.218002 
	C100.564873,121.077202 100.586632,129.482986 100.423111,138.241791 
	C99.375229,140.614944 98.385330,142.592789 97.695084,144.670197 
	C97.240181,146.039307 97.216667,147.551743 97.000000,149.000000 
M145.895676,102.145348 
	C152.923279,101.100449 159.950897,100.055542 166.978500,99.010635 
	C166.887695,98.360130 166.796890,97.709625 166.706100,97.059120 
	C159.442230,98.254532 152.178360,99.449944 143.988068,100.600914 
	C136.536118,100.600914 129.084167,100.600914 121.632210,100.600914 
	C121.639618,101.061073 121.647018,101.521233 121.654427,101.981392 
	C129.432922,101.981392 137.211426,101.981392 145.895676,102.145348 
M124.338081,140.208450 
	C128.132401,137.504242 128.274551,120.927406 124.523628,118.571991 
	C121.791481,116.856323 112.815895,117.948402 108.994820,121.295609 
	C112.438210,120.937500 114.743668,120.497299 117.046211,120.512115 
	C119.576881,120.528389 122.553604,121.023087 122.195053,124.284508 
	C122.048935,125.613640 119.561600,126.889381 117.914719,127.768318 
	C117.015190,128.248413 115.282394,127.377113 114.558159,127.935699 
	C112.523758,129.504776 109.845657,131.244415 109.278763,133.404282 
	C108.794357,135.249863 110.330826,138.412170 111.975853,139.824249 
	C113.879845,141.458649 117.000092,142.689499 119.569321,139.111237 
	C120.859581,139.466248 122.149841,139.821274 124.338081,140.208450 
M154.015549,139.592102 
	C159.238220,139.886002 164.460892,140.179916 170.078354,140.496048 
	C170.078354,134.396820 170.271225,128.462906 169.944641,122.557709 
	C169.861526,121.055122 168.277039,118.540207 167.127625,118.385689 
	C162.669662,117.786400 157.918030,116.589539 153.900513,120.375061 
	C156.036499,120.768799 158.147079,120.318222 160.212921,120.471367 
	C162.619324,120.649765 165.801849,120.922485 165.269104,124.316757 
	C165.053894,125.688026 162.482971,126.725792 160.917953,127.820839 
	C160.572266,128.062698 159.945602,127.891685 159.450089,127.932404 
	C152.444672,128.508179 150.284042,132.499512 154.015549,139.592102 
M149.511292,118.848366 
	C146.281509,116.612473 145.810776,116.698631 144.779236,120.268059 
	C143.459366,124.835167 142.305756,129.450333 141.080490,134.044785 
	C138.683334,129.396225 137.373947,124.948730 136.013855,120.516808 
	C135.149902,117.701576 133.585587,116.404938 130.231155,118.323318 
	C132.250443,125.072899 134.115448,131.760483 136.347931,138.323090 
	C136.720734,139.419006 138.735199,140.671875 139.909973,140.596039 
	C141.335007,140.504028 143.502884,139.364212 143.910950,138.181488 
	C146.017166,132.076828 147.662994,125.813324 149.511292,118.848366 
M123.164597,43.355534 
	C126.130020,47.065563 129.095444,50.775589 132.060852,54.485619 
	C132.058960,52.311508 131.315414,50.672630 130.221512,49.316357 
	C125.790260,43.822323 125.572144,37.636440 130.193695,32.373360 
	C132.700394,29.518686 135.963654,27.335960 138.538193,24.531195 
	C141.354279,21.463272 143.769470,18.027365 146.359390,14.751838 
	C144.899429,14.132762 144.152649,14.138604 143.731461,14.511856 
	C137.054214,20.429188 130.255463,26.224852 123.847397,32.423519 
	C120.948608,35.227589 121.150482,39.059429 123.164597,43.355534 
M142.704041,42.526794 
	C139.521515,38.241596 140.531372,34.459732 144.199936,31.116989 
	C146.495544,29.025255 148.938263,27.094954 151.314987,25.092215 
	C150.998886,24.656607 150.682800,24.220999 150.366699,23.785391 
	C146.827545,26.032928 142.977432,27.915428 139.816971,30.607553 
	C134.065201,35.506992 133.787704,40.924873 137.799072,47.329311 
	C139.674026,50.322800 140.846893,53.756012 142.203079,56.697334 
	C147.765518,51.167061 147.887802,50.114689 142.704041,42.526794 
M105.540436,92.180252 
	C105.415619,90.949501 105.290802,89.718758 105.082825,87.668037 
	C102.353630,89.239365 99.827850,90.693581 97.302078,92.147789 
	C97.439682,92.890137 97.577278,93.632484 97.714882,94.374840 
	C115.075493,98.183479 132.604416,98.510384 150.258606,95.910652 
	C135.594635,94.784698 120.930672,93.658745 105.540436,92.180252 
M141.082047,72.167252 
	C134.613815,72.185013 128.139923,72.353951 121.681435,72.111847 
	C120.111153,72.052986 118.591553,70.641853 116.444168,69.543259 
	C115.813393,70.073814 114.670151,71.035423 112.516235,72.847122 
	C126.292297,78.698441 138.753799,76.802872 151.233124,73.924171 
	C151.236176,73.316872 151.239243,72.709572 151.242310,72.102272 
	C148.156799,72.102272 145.071274,72.102272 141.082047,72.167252 
M149.445007,83.904373 
	C146.615936,83.363800 143.768112,82.289192 140.961502,82.387802 
	C133.949905,82.634178 126.888672,84.552849 120.186996,80.644257 
	C119.622360,80.314957 117.838737,81.126602 117.376205,81.874786 
	C117.012917,82.462440 117.509377,84.231178 118.162575,84.665962 
	C119.642288,85.650925 121.396637,86.410736 123.141281,86.778839 
	C132.278229,88.706642 141.263138,88.342697 149.445007,83.904373 
M146.987091,64.049408 
	C147.890625,63.752930 148.794159,63.456444 150.252808,62.977810 
	C143.503220,62.977810 137.389435,62.864395 131.282272,63.016720 
	C127.039795,63.122532 122.780121,63.996265 118.580780,63.721684 
	C116.655746,63.595814 114.857300,61.533867 113.001450,60.349922 
	C113.156517,59.707561 113.311577,59.065201 113.466644,58.422840 
	C110.894356,59.504986 108.322067,60.587128 105.749771,61.669273 
	C105.850029,62.150646 105.950287,62.632023 106.050545,63.113396 
	C119.273720,67.660179 132.748062,66.145378 146.987091,64.049408 
M171.959412,63.427334 
	C170.779175,57.023022 168.201859,55.418331 160.465988,56.271271 
	C169.343491,59.749496 169.868790,61.783710 163.973724,71.135719 
	C168.899231,71.079063 170.741119,68.054985 171.959412,63.427334 
z"/>
<path fill="#E4373A" opacity="1.000000" stroke="none" 
	d="
M100.708084,111.764572 
	C101.945618,110.965744 103.183144,110.166924 105.258659,108.827171 
	C105.258659,120.186165 105.665062,130.070679 105.008644,139.884094 
	C104.814125,142.792068 101.626617,145.499847 99.905296,148.649689 
	C99.250000,149.000000 98.500000,149.000000 97.375000,149.000000 
	C97.216667,147.551743 97.240181,146.039307 97.695084,144.670197 
	C98.385330,142.592789 99.375229,140.614944 100.771774,138.110870 
	C101.443504,129.352524 101.593605,121.078224 101.675606,112.803253 
	C101.679008,112.460258 101.045097,112.110947 100.708084,111.764572 
z"/>
<path fill="#E11B1F" opacity="1.000000" stroke="none" 
	d="
M153.729614,139.307526 
	C150.284042,132.499512 152.444672,128.508179 159.450089,127.932404 
	C159.945602,127.891685 160.572266,128.062698 160.917953,127.820839 
	C162.482971,126.725792 165.053894,125.688026 165.269104,124.316757 
	C165.801849,120.922485 162.619324,120.649765 160.212921,120.471367 
	C158.147079,120.318222 156.036499,120.768799 153.900513,120.375061 
	C157.918030,116.589539 162.669662,117.786400 167.127625,118.385689 
	C168.277039,118.540207 169.861526,121.055122 169.944641,122.557709 
	C170.271225,128.462906 170.078354,134.396820 170.078354,140.496048 
	C164.460892,140.179916 159.238220,139.886002 153.729614,139.307526 
M165.660660,132.349808 
	C164.190857,129.595215 159.792572,128.917206 157.608170,131.325577 
	C156.755402,132.265778 155.854706,134.177353 156.265686,135.009216 
	C156.870575,136.233505 158.681091,137.693359 159.888702,137.618134 
	C162.518997,137.454315 165.700577,137.141464 165.660660,132.349808 
z"/>
<path fill="#E22A2D" opacity="1.000000" stroke="none" 
	d="
M149.490356,119.226807 
	C147.662994,125.813324 146.017166,132.076828 143.910950,138.181488 
	C143.502884,139.364212 141.335007,140.504028 139.909973,140.596039 
	C138.735199,140.671875 136.720734,139.419006 136.347931,138.323090 
	C134.115448,131.760483 132.250443,125.072899 130.231155,118.323318 
	C133.585587,116.404938 135.149902,117.701576 136.013855,120.516808 
	C137.373947,124.948730 138.683334,129.396225 141.080490,134.044785 
	C142.305756,129.450333 143.459366,124.835167 144.779236,120.268059 
	C145.810776,116.698631 146.281509,116.612473 149.490356,119.226807 
z"/>
<path fill="#E22428" opacity="1.000000" stroke="none" 
	d="
M123.008789,43.019745 
	C121.150482,39.059429 120.948608,35.227589 123.847397,32.423519 
	C130.255463,26.224852 137.054214,20.429188 143.731461,14.511856 
	C144.152649,14.138604 144.899429,14.132762 146.359390,14.751838 
	C143.769470,18.027365 141.354279,21.463272 138.538193,24.531195 
	C135.963654,27.335960 132.700394,29.518686 130.193695,32.373360 
	C125.572144,37.636440 125.790260,43.822323 130.221512,49.316357 
	C131.315414,50.672630 132.058960,52.311508 132.060852,54.485619 
	C129.095444,50.775589 126.130020,47.065563 123.008789,43.019745 
z"/>
<path fill="#E11A1D" opacity="1.000000" stroke="none" 
	d="
M118.895309,139.022034 
	C117.000092,142.689499 113.879845,141.458649 111.975853,139.824249 
	C110.330826,138.412170 108.794357,135.249863 109.278763,133.404282 
	C109.845657,131.244415 112.523758,129.504776 114.558159,127.935699 
	C115.282394,127.377113 117.015190,128.248413 117.914719,127.768318 
	C119.561600,126.889381 122.048935,125.613640 122.195053,124.284508 
	C122.553604,121.023087 119.576881,120.528389 117.046211,120.512115 
	C114.743668,120.497299 112.438210,120.937500 108.994820,121.295609 
	C112.815895,117.948402 121.791481,116.856323 124.523628,118.571991 
	C128.274551,120.927406 128.132401,137.504242 123.962410,139.828491 
	C123.030731,136.434479 122.474716,133.420410 121.848305,130.024750 
	C120.503349,130.024750 118.675453,129.559814 117.298592,130.148972 
	C115.768990,130.803497 113.841019,132.277893 113.599792,133.659546 
	C113.392632,134.846085 115.202782,136.510315 116.346695,137.755920 
	C116.945633,138.408096 118.030106,138.614380 118.895309,139.022034 
z"/>
<path fill="#E22629" opacity="1.000000" stroke="none" 
	d="
M142.913239,42.842930 
	C147.887802,50.114689 147.765518,51.167061 142.203079,56.697334 
	C140.846893,53.756012 139.674026,50.322800 137.799072,47.329311 
	C133.787704,40.924873 134.065201,35.506992 139.816971,30.607553 
	C142.977432,27.915428 146.827545,26.032928 150.366699,23.785391 
	C150.682800,24.220999 150.998886,24.656607 151.314987,25.092215 
	C148.938263,27.094954 146.495544,29.025255 144.199936,31.116989 
	C140.531372,34.459732 139.521515,38.241596 142.913239,42.842930 
z"/>
<path fill="#2073B8" opacity="1.000000" stroke="none" 
	d="
M105.903572,92.356522 
	C120.930672,93.658745 135.594635,94.784698 150.258606,95.910652 
	C132.604416,98.510384 115.075493,98.183479 97.714882,94.374840 
	C97.577278,93.632484 97.439682,92.890137 97.302078,92.147789 
	C99.827850,90.693581 102.353630,89.239365 105.082825,87.668037 
	C105.290802,89.718758 105.415619,90.949501 105.903572,92.356522 
z"/>
<path fill="#1F75B9" opacity="1.000000" stroke="none" 
	d="
M141.533905,72.134766 
	C145.071274,72.102272 148.156799,72.102272 151.242310,72.102272 
	C151.239243,72.709572 151.236176,73.316872 151.233124,73.924171 
	C138.753799,76.802872 126.292297,78.698441 112.516235,72.847122 
	C114.670151,71.035423 115.813393,70.073814 116.444168,69.543259 
	C118.591553,70.641853 120.111153,72.052986 121.681435,72.111847 
	C128.139923,72.353951 134.613815,72.185013 141.533905,72.134766 
z"/>
<path fill="#2076BA" opacity="1.000000" stroke="none" 
	d="
M149.690338,84.213577 
	C141.263138,88.342697 132.278229,88.706642 123.141281,86.778839 
	C121.396637,86.410736 119.642288,85.650925 118.162575,84.665962 
	C117.509377,84.231178 117.012917,82.462440 117.376205,81.874786 
	C117.838737,81.126602 119.622360,80.314957 120.186996,80.644257 
	C126.888672,84.552849 133.949905,82.634178 140.961502,82.387802 
	C143.768112,82.289192 146.615936,83.363800 149.690338,84.213577 
z"/>
<path fill="#0C68B3" opacity="1.000000" stroke="none" 
	d="
M146.615540,64.079529 
	C132.748062,66.145378 119.273720,67.660179 106.050545,63.113396 
	C105.950287,62.632023 105.850029,62.150646 105.749771,61.669273 
	C108.322067,60.587128 110.894356,59.504986 113.466644,58.422840 
	C113.311577,59.065201 113.156517,59.707561 113.001450,60.349922 
	C114.857300,61.533867 116.655746,63.595814 118.580780,63.721684 
	C122.780121,63.996265 127.039795,63.122532 131.282272,63.016720 
	C137.389435,62.864395 143.503220,62.977810 150.252808,62.977810 
	C148.794159,63.456444 147.890625,63.752930 146.615540,64.079529 
z"/>
<path fill="#FAE2E3" opacity="1.000000" stroke="none" 
	d="
M119.232315,139.066635 
	C118.030106,138.614380 116.945633,138.408096 116.346695,137.755920 
	C115.202782,136.510315 113.392632,134.846085 113.599792,133.659546 
	C113.841019,132.277893 115.768990,130.803497 117.298592,130.148972 
	C118.675453,129.559814 120.503349,130.024750 121.848305,130.024750 
	C122.474716,133.420410 123.030731,136.434479 123.513420,139.812408 
	C122.149841,139.821274 120.859581,139.466248 119.232315,139.066635 
z"/>
<path fill="#1E73B8" opacity="1.000000" stroke="none" 
	d="
M171.922668,63.820557 
	C170.741119,68.054985 168.899231,71.079063 163.973724,71.135719 
	C169.868790,61.783710 169.343491,59.749496 160.465988,56.271271 
	C168.201859,55.418331 170.779175,57.023022 171.922668,63.820557 
z"/>
<path fill="#3F7FBE" opacity="1.000000" stroke="none" 
	d="
M144.914490,100.645348 
	C152.178360,99.449944 159.442230,98.254532 166.706100,97.059120 
	C166.796890,97.709625 166.887695,98.360130 166.978500,99.010635 
	C159.950897,100.055542 152.923279,101.100449 145.441711,101.728355 
	C144.963318,101.089355 144.938904,100.867355 144.914490,100.645348 
z"/>
<path fill="#E0060D" opacity="1.000000" stroke="none" 
	d="
M100.625603,112.218002 
	C101.045097,112.110947 101.679008,112.460258 101.675606,112.803253 
	C101.593605,121.078224 101.443504,129.352524 100.957054,137.757858 
	C100.586632,129.482986 100.564873,121.077202 100.625603,112.218002 
z"/>
<path fill="#0162B1" opacity="1.000000" stroke="none" 
	d="
M144.451279,100.623131 
	C144.938904,100.867355 144.963318,101.089355 144.988831,101.646378 
	C137.211426,101.981392 129.432922,101.981392 121.654427,101.981392 
	C121.647018,101.521233 121.639618,101.061073 121.632210,100.600914 
	C129.084167,100.600914 136.536118,100.600914 144.451279,100.623131 
z"/>
<path fill="#FBE9E9" opacity="1.000000" stroke="none" 
	d="
M165.660599,132.753723 
	C165.700577,137.141464 162.518997,137.454315 159.888702,137.618134 
	C158.681091,137.693359 156.870575,136.233505 156.265686,135.009216 
	C155.854706,134.177353 156.755402,132.265778 157.608170,131.325577 
	C159.792572,128.917206 164.190857,129.595215 165.660599,132.753723 
z"/>
</svg>