<svg version="1.1" id="Layer_1" xmlns="http://www.w3.org/2000/svg" xmlns:xlink="http://www.w3.org/1999/xlink" x="0px" y="0px"
	 width="100%" viewBox="0 0 178 148" enable-background="new 0 0 178 148" xml:space="preserve">
<path fill="#EE6D3F" opacity="1.000000" stroke="none" 
	d="
M1.000000,84.000000 
	C1.000000,78.311958 1.000000,72.623917 1.368188,66.352310 
	C2.062189,64.667061 2.532026,63.585903 2.692400,62.460644 
	C5.489814,42.832687 14.148493,26.177956 28.363482,12.465873 
	C32.627800,8.352417 37.439220,4.806124 42.000000,1.000000 
	C73.687561,1.000000 105.375122,1.000000 137.644974,1.319070 
	C160.221054,16.649246 173.787354,36.995678 177.543625,63.593784 
	C177.710312,64.774208 178.500320,65.866600 179.000000,67.000000 
	C179.000000,72.354927 179.000000,77.709862 178.633972,83.653488 
	C177.917450,85.507652 177.429199,86.752602 177.237122,88.041679 
	C174.343475,107.462318 165.746506,123.967285 151.634598,137.532104 
	C147.362534,141.638550 142.559708,145.192810 138.000000,149.000000 
	C106.312439,149.000000 74.624878,149.000000 42.354954,148.680969 
	C20.063665,133.561890 6.558762,113.507729 2.572769,87.312927 
	C2.396668,86.155640 1.539778,85.101944 1.000000,84.000000 
M114.467201,40.623550 
	C114.081436,40.439972 113.695679,40.256393 112.743126,40.301922 
	C111.740311,40.249046 110.737488,40.196171 109.137047,40.392460 
	C108.759598,40.599903 108.382149,40.807343 107.490685,41.462925 
	C94.527817,48.877769 84.447472,59.599712 73.191650,70.510269 
	C76.238457,72.546135 78.564842,74.100616 80.774353,76.382637 
	C79.858116,78.090103 79.358818,80.432884 77.935173,81.367180 
	C75.313988,83.087357 76.208458,84.780991 76.234200,86.964653 
	C74.513565,87.483795 72.316231,87.498528 71.148216,88.602394 
	C62.347965,96.919380 53.750195,105.450600 45.612446,113.403458 
	C48.678185,116.941086 51.077404,119.709602 53.941544,123.014610 
	C53.232773,114.637878 53.419590,114.948082 60.236305,110.842781 
	C69.490364,105.269608 78.470139,99.232895 87.437561,93.201714 
	C88.604172,92.417091 88.998314,90.483910 90.391212,88.866348 
	C90.956787,88.503998 91.522362,88.141647 92.787460,87.968025 
	C93.258751,87.902802 93.899658,88.013733 94.176796,87.746880 
	C103.702141,78.574951 113.753639,69.857147 120.787682,57.638348 
	C120.788567,55.567802 120.789452,53.497261 121.015968,50.749386 
	C121.271553,49.833614 121.527138,48.917839 122.358963,47.716331 
	C123.779770,47.087963 125.200569,46.459591 127.090904,45.729881 
	C127.420906,45.734352 127.723969,45.826954 128.227646,46.528938 
	C129.151672,46.358803 130.075714,46.188667 131.505051,45.815792 
	C131.863861,45.835289 132.222687,45.854786 133.369949,45.901688 
	C134.924438,44.972351 136.478928,44.043015 138.373886,42.606171 
	C139.214569,41.726898 140.055267,40.847630 141.278992,39.538624 
	C141.516953,39.019627 141.754929,38.500629 142.045044,37.207268 
	C142.343704,35.145493 142.642365,33.083717 143.218384,30.568478 
	C142.770309,29.704725 142.322250,28.840973 141.749756,27.754362 
	C141.749756,27.754362 141.971558,27.628067 141.623169,27.083309 
	C141.362762,26.738831 141.102356,26.394350 140.435959,25.859476 
	C140.180450,25.675772 140.020004,25.430010 139.864548,24.414406 
	C138.854111,23.630430 137.843658,22.846455 136.216721,21.935892 
	C135.477936,21.542204 134.739151,21.148516 133.812225,20.340366 
	C133.196869,20.259142 132.581512,20.177917 131.165543,20.202263 
	C128.240479,20.840300 125.315399,21.478334 121.906876,22.415487 
	C121.622253,22.664650 121.337631,22.913813 120.730400,23.736488 
	C119.448738,25.824484 118.167084,27.912477 116.304649,30.343235 
	C114.443260,32.439671 114.480904,34.341114 117.108765,36.429764 
	C117.229156,36.742111 117.248940,37.060711 117.057510,38.126125 
	C116.393944,39.072807 115.730385,40.019489 115.030418,41.008514 
	C115.030418,41.008514 115.015930,40.954594 114.467201,40.623550 
M45.175343,118.198456 
	C40.130005,115.157013 40.284149,121.059601 37.795174,122.917854 
	C41.863426,123.300842 45.931679,123.683830 49.999931,124.066818 
	C50.092907,123.724190 50.185886,123.381569 50.278862,123.038940 
	C48.749870,121.588715 47.220875,120.138496 45.175343,118.198456 
M74.539879,77.552589 
	C75.218575,77.275078 75.897263,76.997574 76.392960,76.794884 
	C74.843597,75.074974 73.458237,73.537125 72.268944,72.216927 
	C69.915382,74.522835 67.742775,76.651451 64.918785,79.418259 
	C68.412636,78.762367 71.115372,78.254990 74.539879,77.552589 
z"/>
<path fill="#FFFDFD" opacity="1.000000" stroke="none" 
	d="
M41.531342,1.000000 
	C37.439220,4.806124 32.627800,8.352417 28.363482,12.465873 
	C14.148493,26.177956 5.489814,42.832687 2.692400,62.460644 
	C2.532026,63.585903 2.062189,64.667061 1.368188,65.884369 
	C1.000000,44.423141 1.000000,22.846285 1.000000,1.000000 
	C14.353021,1.000000 27.707851,1.000000 41.531342,1.000000 
z"/>
<path fill="#FFFDFD" opacity="1.000000" stroke="none" 
	d="
M179.000000,66.531342 
	C178.500320,65.866600 177.710312,64.774208 177.543625,63.593784 
	C173.787354,36.995678 160.221054,16.649246 138.113632,1.319070 
	C151.610550,1.000000 165.221085,1.000000 179.000000,1.000000 
	C179.000000,22.687271 179.000000,44.374977 179.000000,66.531342 
z"/>
<path fill="#FFFDFD" opacity="1.000000" stroke="none" 
	d="
M138.468658,149.000000 
	C142.559708,145.192810 147.362534,141.638550 151.634598,137.532104 
	C165.746506,123.967285 174.343475,107.462318 177.237122,88.041679 
	C177.429199,86.752602 177.917450,85.507652 178.633972,84.121094 
	C179.000000,105.576851 179.000000,127.153709 179.000000,149.000000 
	C165.646973,149.000000 152.292145,149.000000 138.468658,149.000000 
z"/>
<path fill="#FFFDFD" opacity="1.000000" stroke="none" 
	d="
M1.000000,84.468658 
	C1.539778,85.101944 2.396668,86.155640 2.572769,87.312927 
	C6.558762,113.507729 20.063665,133.561890 41.886295,148.680969 
	C28.389986,149.000000 14.779970,149.000000 1.000000,149.000000 
	C1.000000,127.646072 1.000000,106.291695 1.000000,84.468658 
z"/>
<path fill="#FEF8F6" opacity="1.000000" stroke="none" 
	d="
M80.891228,75.655098 
	C78.564842,74.100616 76.238457,72.546135 73.191650,70.510269 
	C84.447472,59.599712 94.527817,48.877769 108.093285,41.214443 
	C109.042145,40.691738 109.388412,40.417519 109.734673,40.143295 
	C110.737488,40.196171 111.740311,40.249046 113.212769,40.481079 
	C114.126915,40.758358 114.571419,40.856476 115.015930,40.954594 
	C115.015930,40.954594 115.030418,41.008514 115.215424,41.300034 
	C115.256424,42.035103 115.112427,42.478657 114.626999,42.967690 
	C104.143387,52.739010 94.001205,62.464855 83.859016,72.190704 
	C84.391045,72.751259 84.923073,73.311821 85.455101,73.872375 
	C95.830505,64.685875 105.453209,54.671997 115.680534,44.926857 
	C117.943886,45.940052 119.863312,46.971058 121.782730,48.002068 
	C121.527138,48.917839 121.271553,49.833614 120.588058,51.243099 
	C108.718483,61.553844 97.276825,71.370872 85.778290,81.236710 
	C84.359810,79.971863 83.288742,79.016792 82.374763,78.201805 
	C83.092003,76.676666 83.644829,75.501129 84.197655,74.325592 
	C83.888885,74.103439 83.580116,73.881294 83.271355,73.659149 
	C82.477974,74.324463 81.684601,74.989777 80.891228,75.655098 
z"/>
<path fill="#FEFAF8" opacity="1.000000" stroke="none" 
	d="
M89.750259,89.082741 
	C88.998314,90.483910 88.604172,92.417091 87.437561,93.201714 
	C78.470139,99.232895 69.490364,105.269608 60.236305,110.842781 
	C53.419590,114.948082 53.232773,114.637878 53.941544,123.014610 
	C51.077404,119.709602 48.678185,116.941086 45.612446,113.403458 
	C53.750195,105.450600 62.347965,96.919380 71.148216,88.602394 
	C72.316231,87.498528 74.513565,87.483795 77.017593,86.853821 
	C82.069504,86.065224 86.498451,84.568108 89.750259,89.082741 
z"/>
<path fill="#FEF8F6" opacity="1.000000" stroke="none" 
	d="
M134.000366,20.754826 
	C134.739151,21.148516 135.477936,21.542204 136.572296,22.343641 
	C133.208481,26.842258 129.489090,30.933126 124.892311,35.989014 
	C127.577850,38.257030 130.201767,40.257000 132.506577,42.574337 
	C133.068970,43.139790 132.584579,44.746387 132.581497,45.874283 
	C132.222687,45.854786 131.863861,45.835289 130.880264,45.853031 
	C129.503693,45.929409 128.751892,45.968548 128.000107,46.007687 
	C127.723969,45.826954 127.420906,45.734352 126.577896,45.537224 
	C123.099304,42.691559 120.133705,40.038559 117.168114,37.385555 
	C117.248940,37.060711 117.229156,36.742111 117.018822,35.786308 
	C116.914398,33.428722 116.899918,31.714598 116.885429,30.000473 
	C118.167084,27.912477 119.448738,25.824484 121.177094,23.367771 
	C121.879303,22.704826 122.134819,22.410597 122.390327,22.116371 
	C125.315399,21.478334 128.240479,20.840300 131.796463,20.293240 
	C132.951706,20.507753 133.476044,20.631289 134.000366,20.754826 
z"/>
<path fill="#FEF6F4" opacity="1.000000" stroke="none" 
	d="
M120.215698,58.003433 
	C113.753639,69.857147 103.702141,78.574951 94.176796,87.746880 
	C93.899658,88.013733 93.258751,87.902802 92.286232,87.559601 
	C90.402870,86.205582 89.020737,85.259979 87.202698,84.016151 
	C97.972763,74.665520 107.691597,66.189186 117.503242,57.821705 
	C117.996796,57.400810 119.293144,57.921284 120.215698,58.003433 
z"/>
<path fill="#EF7144" opacity="1.000000" stroke="none" 
	d="
M120.501694,57.820892 
	C119.293144,57.921284 117.996796,57.400810 117.503242,57.821705 
	C107.691597,66.189186 97.972763,74.665520 87.202698,84.016151 
	C89.020737,85.259979 90.402870,86.205582 91.936470,87.465240 
	C91.522362,88.141647 90.956787,88.503998 90.070740,88.974548 
	C86.498451,84.568108 82.069504,86.065224 77.395264,86.747787 
	C76.208458,84.780991 75.313988,83.087357 77.935173,81.367180 
	C79.358818,80.432884 79.858116,78.090103 80.832794,76.018867 
	C81.684601,74.989777 82.477974,74.324463 83.271355,73.659149 
	C83.580116,73.881294 83.888885,74.103439 84.197655,74.325592 
	C83.644829,75.501129 83.092003,76.676666 82.374763,78.201805 
	C83.288742,79.016792 84.359810,79.971863 85.778290,81.236710 
	C97.276825,71.370872 108.718483,61.553844 120.475235,51.581764 
	C120.789452,53.497261 120.788567,55.567802 120.501694,57.820892 
z"/>
<path fill="#FEF5F2" opacity="1.000000" stroke="none" 
	d="
M139.954620,25.122189 
	C140.020004,25.430010 140.180450,25.675772 140.722183,26.288446 
	C141.329453,27.020967 141.650497,27.324520 141.971558,27.628071 
	C141.971558,27.628067 141.749756,27.754362 141.835876,28.192955 
	C142.261673,29.428345 142.601349,30.225142 142.941025,31.021938 
	C142.642365,33.083717 142.343704,35.145493 141.789886,37.779625 
	C141.321793,38.890770 141.108871,39.429565 140.895950,39.968357 
	C140.055267,40.847630 139.214569,41.726898 137.841827,42.832314 
	C134.607590,40.572636 131.905426,38.086823 128.715225,35.152061 
	C132.788971,31.516716 136.371796,28.319450 139.954620,25.122189 
z"/>
<path fill="#EE6F40" opacity="1.000000" stroke="none" 
	d="
M139.909576,24.768295 
	C136.371796,28.319450 132.788971,31.516716 128.715225,35.152061 
	C131.905426,38.086823 134.607590,40.572636 137.671600,43.086063 
	C136.478928,44.043015 134.924438,44.972351 132.975723,45.887985 
	C132.584579,44.746387 133.068970,43.139790 132.506577,42.574337 
	C130.201767,40.257000 127.577850,38.257030 124.892311,35.989014 
	C129.489090,30.933126 133.208481,26.842258 136.880554,22.406935 
	C137.843658,22.846455 138.854111,23.630430 139.909576,24.768295 
z"/>
<path fill="#FDF2EF" opacity="1.000000" stroke="none" 
	d="
M45.433613,118.443367 
	C47.220875,120.138496 48.749870,121.588715 50.278862,123.038940 
	C50.185886,123.381569 50.092907,123.724190 49.999931,124.066818 
	C45.931679,123.683830 41.863426,123.300842 37.795174,122.917854 
	C40.284149,121.059601 40.130005,115.157013 45.433613,118.443367 
z"/>
<path fill="#FDEFEC" opacity="1.000000" stroke="none" 
	d="
M74.178993,77.650101 
	C71.115372,78.254990 68.412636,78.762367 64.918785,79.418259 
	C67.742775,76.651451 69.915382,74.522835 72.268944,72.216927 
	C73.458237,73.537125 74.843597,75.074974 76.392960,76.794884 
	C75.897263,76.997574 75.218575,77.275078 74.178993,77.650101 
z"/>
<path fill="#EE6F40" opacity="1.000000" stroke="none" 
	d="
M117.112808,37.755840 
	C120.133705,40.038559 123.099304,42.691559 126.343140,45.587891 
	C125.200569,46.459591 123.779770,47.087963 122.070847,47.859200 
	C119.863312,46.971058 117.943886,45.940052 115.586563,44.421593 
	C115.088577,43.596828 115.028503,43.259521 114.968430,42.922211 
	C115.112427,42.478657 115.256424,42.035103 115.233620,41.278862 
	C115.730385,40.019489 116.393944,39.072807 117.112808,37.755840 
z"/>
<path fill="#EE6F40" opacity="1.000000" stroke="none" 
	d="
M116.595039,30.171854 
	C116.899918,31.714598 116.914398,33.428722 116.907158,35.571190 
	C114.480904,34.341114 114.443260,32.439671 116.595039,30.171854 
z"/>
<path fill="#EE6F40" opacity="1.000000" stroke="none" 
	d="
M128.113876,46.268311 
	C128.751892,45.968548 129.503693,45.929409 130.627609,45.954399 
	C130.075714,46.188667 129.151672,46.358803 128.113876,46.268311 
z"/>
<path fill="#EE6F40" opacity="1.000000" stroke="none" 
	d="
M143.079712,30.795208 
	C142.601349,30.225142 142.261673,29.428345 141.898087,28.304384 
	C142.322250,28.840973 142.770309,29.704725 143.079712,30.795208 
z"/>
<path fill="#EE6F40" opacity="1.000000" stroke="none" 
	d="
M133.906296,20.547596 
	C133.476044,20.631289 132.951706,20.507753 132.196777,20.240456 
	C132.581512,20.177917 133.196869,20.259142 133.906296,20.547596 
z"/>
<path fill="#EE6F40" opacity="1.000000" stroke="none" 
	d="
M141.087463,39.753490 
	C141.108871,39.429565 141.321793,38.890770 141.763809,38.166801 
	C141.754929,38.500629 141.516953,39.019627 141.087463,39.753490 
z"/>
<path fill="#EE6F40" opacity="1.000000" stroke="none" 
	d="
M114.741562,40.789070 
	C114.571419,40.856476 114.126915,40.758358 113.496155,40.366524 
	C113.695679,40.256393 114.081436,40.439972 114.741562,40.789070 
z"/>
<path fill="#EF7548" opacity="1.000000" stroke="none" 
	d="
M109.435860,40.267876 
	C109.388412,40.417519 109.042145,40.691738 108.350296,40.990372 
	C108.382149,40.807343 108.759598,40.599903 109.435860,40.267876 
z"/>
<path fill="#EE6F40" opacity="1.000000" stroke="none" 
	d="
M141.797363,27.355690 
	C141.650497,27.324520 141.329453,27.020967 140.925171,26.383644 
	C141.102356,26.394350 141.362762,26.738831 141.797363,27.355690 
z"/>
<path fill="#EE6F40" opacity="1.000000" stroke="none" 
	d="
M122.148605,22.265928 
	C122.134819,22.410597 121.879303,22.704826 121.338402,23.081017 
	C121.337631,22.913813 121.622253,22.664650 122.148605,22.265928 
z"/>
<path fill="#EF7548" opacity="1.000000" stroke="none" 
	d="
M114.626999,42.967690 
	C115.028503,43.259521 115.088577,43.596828 115.242630,44.439407 
	C105.453209,54.671997 95.830505,64.685875 85.455101,73.872375 
	C84.923073,73.311821 84.391045,72.751259 83.859016,72.190704 
	C94.001205,62.464855 104.143387,52.739010 114.626999,42.967690 
z"/>
</svg>