<svg version="1.1" id="Layer_1" xmlns="http://www.w3.org/2000/svg" xmlns:xlink="http://www.w3.org/1999/xlink" x="0px" y="0px"
	 width="100%" viewBox="0 0 170 148" enable-background="new 0 0 170 148" xml:space="preserve">
<path fill="#FEFEFC" opacity="1.000000" stroke="none" 
	d="
M100.000000,1.000000 
	C123.630035,1.000000 147.260071,1.000000 170.945053,1.000000 
	C170.945053,50.220291 170.945053,99.440659 170.945053,149.000000 
	C149.980316,149.000000 128.958817,149.000000 107.511871,148.655243 
	C116.332199,141.166199 114.073677,131.022202 113.923561,121.485619 
	C113.916077,121.010117 112.021385,120.564316 110.570526,120.034645 
	C105.758171,120.353111 101.380714,120.741608 96.564735,121.063644 
	C93.767456,120.947334 91.408691,120.897491 88.782310,120.529457 
	C85.082016,120.108864 81.649345,120.006462 78.152016,119.519302 
	C78.733536,117.743454 79.379707,116.352379 80.393661,115.016861 
	C81.502899,115.016922 82.244354,114.961433 83.399246,114.978241 
	C85.208702,115.015854 86.604721,114.981171 88.461319,115.000725 
	C92.949135,115.018410 96.976395,114.981850 101.445389,114.999115 
	C104.260048,115.011993 106.632950,114.971039 109.405052,114.988831 
	C110.874062,114.988899 111.943871,114.930214 113.336853,114.920319 
	C114.092865,114.933235 114.525719,114.897354 115.280029,114.938370 
	C116.039429,115.063744 116.477379,115.112221 117.092110,115.428802 
	C118.215263,115.529053 119.161629,115.361191 120.551086,115.148361 
	C123.678856,115.028633 126.363525,114.953873 129.485565,114.938217 
	C132.272491,114.893051 134.622055,114.788788 137.335052,114.691795 
	C143.088531,113.543991 146.803024,110.605339 148.009796,105.001549 
	C148.002304,104.997833 148.006760,105.010727 148.343323,104.920746 
	C149.435776,102.888184 150.191681,100.945602 151.003067,98.596985 
	C152.037048,94.460823 153.015518,90.730690 154.092651,86.632286 
	C154.327728,84.518372 154.464157,82.772736 154.741241,80.675964 
	C154.819336,79.583008 154.756790,78.841194 154.770020,77.715012 
	C154.759369,76.558418 154.672928,75.786186 154.674911,74.619156 
	C153.585861,68.431168 152.408371,62.637978 151.201553,56.483749 
	C150.690262,54.762005 150.208313,53.401295 149.671875,51.706982 
	C147.700089,49.254387 145.782806,47.135399 143.854095,44.739105 
	C140.874863,40.880573 136.833221,40.121349 132.490433,40.113304 
	C128.663116,40.106213 124.835869,40.058895 120.866211,39.806343 
	C120.335068,39.543137 119.946320,39.502918 119.557564,39.462704 
	C119.635429,39.943928 119.713287,40.425152 119.798042,41.355659 
	C119.853378,44.193172 119.901817,46.581394 119.901474,49.413986 
	C119.752838,52.236088 119.652992,54.613815 119.177322,56.970276 
	C118.198235,55.632561 117.591240,54.317802 116.992722,52.999199 
	C116.386078,51.662704 115.787788,50.322414 115.118973,48.544044 
	C115.094086,45.733070 115.136078,43.361839 115.320404,40.895569 
	C115.360947,40.536812 115.259148,40.273090 115.087379,39.573547 
	C115.067383,37.081509 115.117363,35.025284 115.421806,32.668198 
	C115.501122,29.255619 115.325981,26.143908 115.084549,22.655382 
	C115.050728,21.516195 115.083199,20.753820 115.267578,19.891109 
	C115.284645,19.527346 115.149803,19.263920 114.911255,18.662352 
	C114.214943,16.544918 113.622337,14.765626 113.288261,12.762062 
	C112.644188,11.715813 111.741577,10.893835 110.553497,9.906308 
	C108.516457,8.481677 106.764877,7.222595 104.830032,5.663583 
	C103.097839,3.909103 101.548920,2.454551 100.000000,1.000000 
z"/>
<path fill="#FDFEFE" opacity="1.000000" stroke="none" 
	d="
M1.000000,65.000000 
	C1.000000,43.750340 1.000000,22.500677 1.000000,1.000000 
	C16.686668,1.000000 32.374676,1.000000 48.677902,1.224037 
	C49.862080,1.298717 50.431038,1.149358 51.000000,1.000000 
	C51.750000,1.000000 52.500000,1.000000 53.643562,1.401452 
	C54.157246,2.322683 54.277363,2.842462 54.343666,3.347077 
	C54.289845,3.331914 54.216763,3.247276 53.976547,3.230352 
	C53.406307,3.303386 53.165394,3.501608 52.656910,3.925042 
	C44.710598,6.154598 41.328987,11.682302 40.084614,19.449368 
	C40.055298,22.600489 40.099033,25.306051 40.080437,28.436699 
	C40.060860,30.578419 40.103607,32.295055 40.110710,34.279030 
	C40.156487,34.706673 40.237911,34.866982 40.325306,35.198067 
	C40.331272,35.368843 40.609722,35.564991 40.609722,35.564991 
	C40.609722,35.564991 40.889709,35.371006 41.320389,35.495796 
	C43.235340,35.542816 44.719612,35.465038 46.634926,35.529625 
	C52.982063,35.595108 58.898167,35.518227 65.258591,35.550835 
	C68.122589,35.595272 70.542259,35.530220 73.195297,35.558937 
	C73.587036,35.598347 73.745407,35.543987 74.299454,35.587570 
	C75.489693,35.568722 76.284248,35.451927 77.149597,35.655754 
	C77.481461,36.317913 77.742538,36.659451 78.001495,37.319687 
	C77.966835,38.061516 77.934303,38.484650 77.590439,39.085808 
	C76.160873,39.628960 75.042648,39.994080 73.462769,40.322556 
	C66.677483,40.373367 60.353836,40.460823 53.611599,40.426327 
	C51.461006,40.378204 49.729012,40.452034 47.576004,40.412556 
	C45.120144,40.315975 43.085289,40.332699 40.595680,40.222130 
	C34.992455,40.283955 29.843994,40.473076 24.320400,40.672699 
	C22.301115,41.133793 20.656963,41.584377 18.644817,41.989159 
	C14.965714,44.319481 10.738273,46.062859 8.558182,49.219990 
	C5.285287,53.959682 3.447830,59.690578 1.000000,65.000000 
z"/>
<path fill="#FEFEFE" opacity="1.000000" stroke="none" 
	d="
M49.000000,149.000000 
	C33.074837,149.000000 17.149670,149.000000 1.000000,149.000000 
	C1.000000,133.979858 1.000000,118.958588 1.299216,103.427689 
	C1.919595,102.513824 2.240758,102.109589 2.561920,101.705345 
	C2.041280,101.470230 1.520641,101.235115 1.000000,101.000000 
	C1.000000,99.933327 1.000000,98.866661 1.310959,97.417389 
	C2.378260,97.361595 3.134602,97.688400 4.005796,98.337387 
	C4.429217,99.742455 4.737786,100.825333 4.972921,102.263123 
	C4.270750,103.779770 3.642011,104.941513 2.746573,106.596046 
	C4.897806,106.809135 6.322262,106.950233 8.024677,107.225945 
	C8.887469,107.901367 9.472302,108.442184 10.158488,109.240372 
	C10.695246,109.796570 11.130650,110.095398 11.583590,110.342865 
	C11.601126,110.291504 11.644020,110.391205 11.765614,110.692276 
	C12.941938,111.796097 13.996671,112.598846 15.188433,113.557663 
	C15.556034,113.889389 15.816187,113.972481 16.371033,113.985199 
	C16.777765,114.114182 16.919386,114.220947 17.209110,114.491608 
	C17.357210,114.655510 17.769234,114.820473 17.769234,114.820473 
	C17.769234,114.820473 18.210522,114.772072 18.200329,114.739273 
	C18.190138,114.706482 18.258011,114.695961 18.166830,115.033669 
	C18.145754,116.186523 18.215858,117.001678 18.285959,117.816826 
	C18.857115,116.906578 19.428272,115.996330 20.381969,115.045708 
	C21.528788,115.080368 22.293064,115.155411 23.318245,115.487015 
	C25.979454,116.156006 28.687057,117.476524 30.715511,116.790100 
	C34.823017,115.400108 37.869827,116.333954 40.833824,119.259537 
	C40.863155,119.502991 40.771255,119.984718 40.399750,120.103271 
	C39.686916,123.514076 39.100780,126.806847 39.107819,130.098343 
	C39.111324,131.737808 40.201385,133.374954 40.860291,135.396393 
	C42.933880,139.207092 44.947117,142.634552 47.153431,146.317596 
	C47.897671,147.382126 48.448837,148.191055 49.000000,149.000000 
z"/>
<path fill="#437DAC" opacity="1.000000" stroke="none" 
	d="
M78.003624,37.000988 
	C77.742538,36.659451 77.481461,36.317913 76.987518,35.377419 
	C75.501274,34.517963 74.247894,34.257454 72.531654,33.997906 
	C68.044594,33.997894 64.020393,33.996929 60.193413,33.747395 
	C61.303616,33.199413 62.216591,32.900002 62.914646,32.671070 
	C62.427731,31.961451 61.928642,31.234091 61.429554,30.506733 
	C62.078060,30.161947 62.691406,29.683428 63.382774,29.501690 
	C64.620445,29.176346 66.336464,29.473082 67.096924,28.733175 
	C70.782089,25.147629 74.283417,21.364265 77.717155,17.532066 
	C80.348389,14.595491 82.296082,10.707868 85.471413,8.714521 
	C87.646576,7.349041 88.812904,6.351828 89.338455,4.000394 
	C90.452850,3.896340 91.230133,3.793262 92.007416,3.690183 
	C91.922218,3.414554 91.837013,3.138926 91.751816,2.863297 
	C90.834282,3.241793 89.916748,3.620289 88.599937,3.999531 
	C85.918877,3.950479 83.315849,4.457532 83.000000,1.000000 
	C88.354927,1.000000 93.709862,1.000000 99.532394,1.000000 
	C101.548920,2.454551 103.097839,3.909103 104.825195,6.065066 
	C105.001404,7.837161 104.999176,8.907842 104.627251,9.990177 
	C101.847542,12.465163 99.434776,14.925809 97.028313,17.392597 
	C94.741859,19.736364 92.538300,22.167236 90.161522,24.415207 
	C86.498619,27.879606 80.097664,29.328884 81.764885,36.610443 
	C82.040588,37.814583 80.882141,39.347092 80.141174,41.411125 
	C79.106331,39.276058 78.554977,38.138523 78.003624,37.000988 
M97.076965,3.518129 
	C97.222527,3.761669 97.368095,4.005208 97.513657,4.248750 
	C97.648575,3.997722 97.947227,3.677383 97.877617,3.512931 
	C97.787315,3.299602 97.403778,3.210399 97.076965,3.518129 
z"/>
<path fill="#4581B1" opacity="1.000000" stroke="none" 
	d="
M89.001350,4.001369 
	C88.812904,6.351828 87.646576,7.349041 85.471413,8.714521 
	C82.296082,10.707868 80.348389,14.595491 77.717155,17.532066 
	C74.283417,21.364265 70.782089,25.147629 67.096924,28.733175 
	C66.336464,29.473082 64.620445,29.176346 63.382774,29.501690 
	C62.691406,29.683428 62.078060,30.161947 61.429554,30.506733 
	C61.928642,31.234091 62.427731,31.961451 62.914646,32.671070 
	C62.216591,32.900002 61.303616,33.199413 59.860977,33.748627 
	C58.887962,33.997940 58.444611,33.997459 57.739052,33.715004 
	C55.652313,33.289116 53.827782,33.145206 51.796478,32.739532 
	C50.726368,32.318615 49.863033,32.159458 48.999489,31.650982 
	C50.479343,29.452730 51.959412,27.603802 53.831047,25.825434 
	C57.636223,26.469791 60.911640,26.397984 62.878490,22.963984 
	C64.868881,19.488876 64.128662,16.390808 61.241604,13.639473 
	C60.780972,13.200488 60.951271,12.099441 60.875431,10.902122 
	C63.201839,8.989384 65.482704,7.478992 67.775070,5.960988 
	C67.067917,5.715143 66.035263,5.356138 64.940430,4.645626 
	C63.875141,3.848625 62.872028,3.403133 61.998093,2.698962 
	C62.418182,1.960189 62.709091,1.480094 63.000000,1.000000 
	C69.354401,1.000000 75.708794,1.000000 82.531601,1.000000 
	C83.315849,4.457532 85.918877,3.950479 88.600327,4.000138 
	C89.000000,4.000000 89.001350,4.001369 89.001350,4.001369 
M56.241909,28.030348 
	C55.807301,28.153986 55.372696,28.277626 54.938087,28.401266 
	C55.027328,28.632637 55.116566,28.864006 55.205807,29.095375 
	C55.725437,28.768276 56.245068,28.441175 56.241909,28.030348 
z"/>
<path fill="#4482B3" opacity="1.000000" stroke="none" 
	d="
M41.050438,40.349426 
	C43.085289,40.332699 45.120144,40.315975 47.577808,40.757744 
	C46.719109,43.228447 45.424053,45.232189 44.159687,47.255112 
	C42.751102,49.508793 41.404545,51.801880 39.966248,54.036133 
	C38.916916,55.666161 38.111515,57.814823 36.593784,58.717999 
	C30.599476,62.285122 27.810143,68.275520 23.941927,73.598068 
	C19.971786,79.060867 14.587117,83.495628 9.578663,88.629219 
	C8.203446,86.426331 7.438876,85.201607 6.768070,84.127075 
	C5.110592,86.050262 3.767279,87.608917 2.305501,89.138367 
	C2.187035,89.109169 1.963386,89.011551 1.988203,88.614365 
	C2.000163,87.159943 1.987307,86.102692 2.008837,84.697861 
	C2.062660,83.885002 2.082095,83.419716 2.249845,82.868286 
	C2.285578,82.530640 2.172997,82.279160 2.042398,81.687393 
	C1.682920,80.564751 1.341460,79.782372 1.000000,79.000000 
	C1.000000,76.958336 1.000000,74.916664 1.341307,72.474709 
	C3.121335,73.049042 4.560058,74.023659 6.264072,75.212860 
	C7.538570,76.158569 9.150375,77.718384 9.462753,77.491234 
	C12.253222,75.462074 15.834453,73.618675 17.236094,70.764534 
	C20.386061,64.350296 25.373272,59.952595 30.631586,55.600410 
	C31.495296,54.885536 32.301109,53.971119 32.810642,52.982445 
	C34.285679,50.120338 35.596100,47.173397 37.270424,43.625576 
	C37.135773,43.357380 36.571171,42.232830 36.382671,41.075645 
	C38.189327,40.811817 39.619884,40.580620 41.050438,40.349426 
M4.483116,81.587372 
	C4.483116,81.587372 4.417833,81.477448 4.483116,81.587372 
z"/>
<path fill="#FEDC51" opacity="1.000000" stroke="none" 
	d="
M49.428463,149.000000 
	C48.448837,148.191055 47.897671,147.382126 47.306931,145.975922 
	C47.055058,142.793350 46.842762,140.208038 46.605179,137.314804 
	C50.802151,138.430298 53.948326,137.647064 55.369774,132.835724 
	C55.737598,131.590698 58.076054,130.208572 59.551994,130.158951 
	C62.692986,130.053360 64.617088,129.026321 66.510635,126.392006 
	C69.260475,122.566414 72.464577,118.695442 78.216675,119.904060 
	C81.649345,120.006462 85.082016,120.108864 88.762100,120.908951 
	C84.792534,125.190369 80.738792,128.992966 76.311562,132.294769 
	C72.093262,135.440765 66.055313,136.538177 65.000305,143.000305 
	C65.000000,143.000000 65.000305,143.000610 64.613190,143.046021 
	C62.625786,143.421097 60.722801,143.320694 59.497456,144.183105 
	C57.739189,145.420578 56.475071,147.360153 55.000000,149.000000 
	C53.285641,149.000000 51.571285,149.000000 49.428463,149.000000 
z"/>
<path fill="#FCD53B" opacity="1.000000" stroke="none" 
	d="
M111.005432,120.104683 
	C112.021385,120.564316 113.916077,121.010117 113.923561,121.485619 
	C114.073677,131.022202 116.332199,141.166199 107.043213,148.655243 
	C97.312439,149.000000 87.624878,149.000000 77.469124,148.613464 
	C77.631607,146.844986 77.937004,145.122711 78.956871,144.148010 
	C81.525093,141.693527 84.364716,139.509293 87.200500,137.354858 
	C88.432404,136.418930 89.922112,135.822342 91.277557,135.432373 
	C93.351593,143.301422 98.240807,145.299789 103.913521,140.964798 
	C107.188637,138.462006 106.742043,134.434204 102.745407,129.223083 
	C104.111015,127.556259 105.432678,126.340599 106.654213,125.031509 
	C108.148468,123.430153 109.558807,121.750488 111.005432,120.104683 
z"/>
<path fill="#4D8BBD" opacity="1.000000" stroke="none" 
	d="
M5.998780,74.998283 
	C4.560058,74.023659 3.121335,73.049042 1.341307,72.037209 
	C1.000000,69.958336 1.000000,67.916664 1.000000,65.437500 
	C3.447830,59.690578 5.285287,53.959682 8.558182,49.219990 
	C10.738273,46.062859 14.965714,44.319481 18.869799,42.251598 
	C20.563442,42.441570 21.744625,42.017406 22.744869,42.280678 
	C24.062740,42.627552 25.633089,43.242245 26.337769,44.263973 
	C26.814186,44.954746 26.391035,46.945831 25.676088,47.669693 
	C20.450994,52.959957 15.325967,58.415215 9.580514,63.095551 
	C6.975301,65.217796 6.052710,67.187569 6.175924,70.200111 
	C6.241132,71.794418 6.065619,73.398575 5.998780,74.998283 
z"/>
<path fill="#FED643" opacity="1.000000" stroke="none" 
	d="
M110.570526,120.034645 
	C109.558807,121.750488 108.148468,123.430153 106.654213,125.031509 
	C105.432678,126.340599 104.111015,127.556259 102.356094,129.100311 
	C96.437469,127.720100 93.409119,130.545013 91.294731,135.071640 
	C89.922112,135.822342 88.432404,136.418930 87.200500,137.354858 
	C84.364716,139.509293 81.525093,141.693527 78.956871,144.148010 
	C77.937004,145.122711 77.631607,146.844986 77.000465,148.613464 
	C71.311958,149.000000 65.623917,149.000000 59.538574,148.634628 
	C60.625900,145.992172 65.923576,147.955414 65.000305,143.000610 
	C65.000305,143.000610 65.000000,143.000000 65.389664,142.993591 
	C68.794395,142.076645 72.544769,142.348145 73.406639,138.006256 
	C73.495033,137.560974 74.711632,137.262985 75.447525,137.034592 
	C84.480446,134.231049 91.522102,128.741013 97.003258,121.130104 
	C101.380714,120.741608 105.758171,120.353111 110.570526,120.034645 
M89.474625,133.368958 
	C89.528755,133.158386 89.582893,132.947815 89.637032,132.737244 
	C89.504105,132.872513 89.371178,133.007782 89.474625,133.368958 
z"/>
<path fill="#FED848" opacity="1.000000" stroke="none" 
	d="
M64.613190,143.046021 
	C65.923576,147.955414 60.625900,145.992172 59.070633,148.634628 
	C58.555553,149.000000 58.111111,149.000000 57.244530,148.833344 
	C56.548267,148.777802 56.274132,148.888901 56.000000,149.000000 
	C56.000000,149.000000 55.500000,149.000000 55.250000,149.000000 
	C56.475071,147.360153 57.739189,145.420578 59.497456,144.183105 
	C60.722801,143.320694 62.625786,143.421097 64.613190,143.046021 
z"/>
<path fill="#E8F2F5" opacity="1.000000" stroke="none" 
	d="
M1.963386,89.011551 
	C1.963386,89.011551 2.187035,89.109169 2.356426,89.544861 
	C2.980860,92.658760 3.435903,95.336983 3.890945,98.015198 
	C3.134602,97.688400 2.378260,97.361595 1.310959,97.017395 
	C1.000000,94.629440 1.000000,92.258888 1.240886,89.443733 
	C1.481773,88.999138 1.963386,89.011551 1.963386,89.011551 
z"/>
<path fill="#EBF6F7" opacity="1.000000" stroke="none" 
	d="
M62.550404,1.000000 
	C62.709091,1.480094 62.418182,1.960189 61.771683,2.725160 
	C61.416092,3.010037 60.981518,3.147779 60.656837,3.074487 
	C59.894192,3.001319 59.456226,3.001444 58.630062,2.950495 
	C56.960407,3.053694 55.678944,3.207967 54.397484,3.362240 
	C54.277363,2.842462 54.157246,2.322683 54.018562,1.401452 
	C56.700268,1.000000 59.400539,1.000000 62.550404,1.000000 
z"/>
<path fill="#5E95C3" opacity="1.000000" stroke="none" 
	d="
M1.000000,79.428467 
	C1.341460,79.782372 1.682920,80.564751 2.038749,81.919495 
	C2.053119,82.491875 2.101532,82.954437 2.101532,82.954437 
	C2.082095,83.419716 2.062660,83.885002 1.767293,84.644081 
	C1.491363,84.937881 1.000000,85.000000 1.000000,85.000000 
	C1.000000,83.285645 1.000000,81.571281 1.000000,79.428467 
z"/>
<path fill="#CCEBFD" opacity="1.000000" stroke="none" 
	d="
M1.000000,85.400146 
	C1.000000,85.000000 1.491363,84.937881 1.732907,84.991669 
	C1.987307,86.102692 2.000163,87.159943 1.988203,88.614365 
	C1.963386,89.011551 1.481773,88.999138 1.240886,88.999573 
	C1.000000,87.933434 1.000000,86.866859 1.000000,85.400146 
z"/>
<path fill="#E8F2F5" opacity="1.000000" stroke="none" 
	d="
M1.000000,101.333328 
	C1.520641,101.235115 2.041280,101.470230 2.561920,101.705345 
	C2.240758,102.109589 1.919595,102.513824 1.299216,102.959030 
	C1.000000,102.555557 1.000000,102.111107 1.000000,101.333328 
z"/>
<path fill="#EBF6F7" opacity="1.000000" stroke="none" 
	d="
M50.666668,1.000000 
	C50.431038,1.149358 49.862080,1.298717 49.146561,1.224037 
	C49.444447,1.000000 49.888889,1.000000 50.666668,1.000000 
z"/>
<path fill="#FED643" opacity="1.000000" stroke="none" 
	d="
M56.250000,149.000000 
	C56.274132,148.888901 56.548267,148.777802 56.911201,148.833344 
	C57.000000,149.000000 56.500000,149.000000 56.250000,149.000000 
z"/>
<path fill="#FEE263" opacity="1.000000" stroke="none" 
	d="
M149.726349,52.040585 
	C150.208313,53.401295 150.690262,54.762005 150.880737,56.744568 
	C150.058884,59.910942 149.528519,62.455471 148.998154,64.589958 
	C148.831757,62.625492 148.665359,61.071068 148.498978,59.516640 
	C147.998505,59.570892 147.498032,59.625145 146.997559,59.679394 
	C146.997559,61.452015 146.997559,63.224632 146.998779,64.998627 
	C147.000000,65.000000 146.997559,64.997398 146.666443,64.948975 
	C142.981323,61.902695 140.755722,64.603752 138.315033,66.446243 
	C136.143402,68.085632 133.958130,69.719818 131.675522,71.196533 
	C127.310974,74.020126 121.961517,75.826584 120.567795,81.998856 
	C117.710396,82.353325 115.282066,82.696762 112.857246,83.063370 
	C102.973923,84.557617 99.181595,95.822525 89.496437,97.663292 
	C89.297813,97.701042 89.266930,98.341408 89.027679,98.487320 
	C85.422676,100.686127 81.803406,102.861931 78.169525,105.012787 
	C77.071587,105.662659 75.767036,106.041809 74.817589,106.850693 
	C70.663414,110.389877 66.837540,114.358780 62.453022,117.572037 
	C56.929417,121.620094 50.977833,125.084167 45.275196,128.758759 
	C43.795750,128.135239 42.456207,127.570694 41.058708,126.580231 
	C41.036240,124.438042 41.071720,122.721779 41.448112,121.069817 
	C42.076008,121.294785 42.366207,121.449989 42.649437,121.617012 
	C44.215164,122.540314 56.634144,119.369606 56.698521,117.794189 
	C56.884735,113.237221 60.656715,112.295547 63.129658,109.730965 
	C68.560036,104.099350 75.379211,101.411819 81.942421,98.229820 
	C86.088440,96.219749 89.669701,94.587578 89.495857,90.652283 
	C93.933418,88.697060 97.490089,86.808914 101.256882,85.548920 
	C106.334236,83.850540 105.346626,82.005508 102.099243,79.493996 
	C112.796234,75.943733 118.186195,68.453804 120.252541,58.242607 
	C121.895691,67.455078 122.618065,67.694771 130.306610,62.433815 
	C134.577194,59.511623 138.955856,56.724937 143.445145,54.155548 
	C145.326187,53.078949 147.620132,52.723759 149.726349,52.040585 
M145.586197,56.516171 
	C145.586197,56.516171 145.476105,56.581745 145.586197,56.516171 
z"/>
<path fill="#FDE05D" opacity="1.000000" stroke="none" 
	d="
M41.116669,127.006134 
	C42.456207,127.570694 43.795750,128.135239 45.275196,128.758759 
	C50.977833,125.084167 56.929417,121.620094 62.453022,117.572037 
	C66.837540,114.358780 70.663414,110.389877 74.817589,106.850693 
	C75.767036,106.041809 77.071587,105.662659 78.169525,105.012787 
	C81.803406,102.861931 85.422676,100.686127 89.027679,98.487320 
	C89.266930,98.341408 89.297813,97.701042 89.496437,97.663292 
	C99.181595,95.822525 102.973923,84.557617 112.857246,83.063370 
	C115.282066,82.696762 117.710396,82.353325 120.568398,82.332657 
	C121.000198,83.111122 121.000710,83.556175 121.000969,84.250916 
	C121.000717,84.500610 121.000000,85.000000 120.606964,85.047363 
	C117.695526,85.743042 114.663620,85.718628 112.759697,87.171928 
	C107.977348,90.822403 104.809677,96.689644 97.930611,97.423706 
	C97.533379,97.466095 97.306473,99.104607 97.000153,100.375298 
	C97.000206,101.500298 97.000412,102.250298 97.000443,103.250229 
	C97.000267,103.500153 97.000305,103.999992 96.779480,104.287598 
	C95.177666,105.051414 93.713203,105.367218 92.431458,106.034172 
	C88.708931,107.971176 83.760086,108.515717 82.667252,113.989929 
	C81.563744,114.318336 80.794815,114.639824 80.025879,114.961304 
	C79.379707,116.352379 78.733536,117.743454 78.152016,119.519302 
	C72.464577,118.695442 69.260475,122.566414 66.510635,126.392006 
	C64.617088,129.026321 62.692986,130.053360 59.551994,130.158951 
	C58.076054,130.208572 55.737598,131.590698 55.369774,132.835724 
	C53.948326,137.647064 50.802151,138.430298 46.605179,137.314804 
	C46.842762,140.208038 47.055058,142.793350 47.113853,145.720337 
	C44.947117,142.634552 42.933880,139.207092 40.932388,134.956146 
	C41.001648,131.757156 41.059158,129.381638 41.116669,127.006134 
z"/>
<path fill="#FEDC53" opacity="1.000000" stroke="none" 
	d="
M97.000305,103.999992 
	C97.000305,103.999992 97.000267,103.500153 97.383247,103.205498 
	C101.008270,101.294334 104.242737,99.662315 107.497482,98.071785 
	C108.354340,97.653061 109.262535,97.096680 110.166588,97.058029 
	C114.795822,96.860092 116.592369,94.448807 116.251465,89.722176 
	C118.994484,88.967056 121.810707,88.818253 121.000000,85.000000 
	C121.000000,85.000000 121.000717,84.500610 121.401131,84.249786 
	C124.132469,83.064072 126.596733,82.361969 128.754990,81.125656 
	C130.721222,79.999329 132.161072,77.890312 134.173187,76.920067 
	C139.727951,74.241547 144.636414,71.037170 146.997559,64.997398 
	C146.997559,64.997398 147.000000,65.000000 147.332260,64.999664 
	C148.109070,64.999542 148.553619,64.999771 148.998169,65.000000 
	C149.528519,62.455471 150.058884,59.910942 150.910065,57.105602 
	C152.408371,62.637978 153.585861,68.431168 154.337128,74.626999 
	C153.125107,75.267227 152.208115,75.320160 151.573822,75.770927 
	C145.142166,80.341553 138.299026,84.476418 132.513168,89.764084 
	C128.403625,93.519737 119.905266,91.392189 119.378143,99.714203 
	C119.350822,100.145508 117.945168,100.417885 117.270256,100.891220 
	C112.150826,104.481491 107.003685,108.036957 102.005348,111.789963 
	C101.286804,112.329468 101.318916,113.868713 101.003647,114.945297 
	C96.976395,114.981850 92.949135,115.018410 88.461533,114.609024 
	C87.899254,109.485016 91.224174,109.313759 94.616814,108.951530 
	C98.523277,108.534431 99.234947,106.891319 97.000305,103.999992 
z"/>
<path fill="#F0F4F2" opacity="1.000000" stroke="none" 
	d="
M119.961723,57.980942 
	C118.186195,68.453804 112.796234,75.943733 101.649109,79.533936 
	C95.287094,79.960167 89.655586,80.137695 83.562012,80.215340 
	C75.611610,80.100510 68.122002,79.991417 60.635258,80.093330 
	C50.179165,80.235657 42.536488,86.460403 40.681831,96.123413 
	C40.360336,96.515305 40.435215,96.762817 40.833214,97.411301 
	C40.953091,101.585663 41.015022,105.299789 41.033451,109.409225 
	C40.925755,110.861771 40.861565,111.919014 40.423145,112.870697 
	C39.700714,111.254883 39.130474,109.756340 39.050076,108.231964 
	C38.877392,104.958054 39.106052,101.658310 38.831841,98.397614 
	C38.760944,97.554573 38.828396,94.147697 36.158821,96.594254 
	C36.103790,95.479706 36.091728,94.735931 36.126984,93.656174 
	C36.084793,92.877113 35.995296,92.434021 36.096214,91.688477 
	C36.905254,89.909592 37.523884,88.433174 38.410942,86.762863 
	C42.726604,83.142227 44.447746,76.941391 51.273891,76.391281 
	C53.449139,75.989540 55.220482,75.543587 57.459991,75.132759 
	C68.289970,75.105583 78.651779,75.043289 89.466301,75.072723 
	C92.237778,75.161041 94.560043,75.239464 96.874695,75.140190 
	C107.288803,74.693481 114.163139,67.667770 114.769135,56.592308 
	C114.981049,53.766041 115.083443,51.374912 115.185844,48.983788 
	C115.787788,50.322414 116.386078,51.662704 116.992722,52.999199 
	C117.591240,54.317802 118.198235,55.632561 119.302231,57.208534 
	C119.855881,57.639019 119.908798,57.809978 119.961723,57.980942 
M38.547161,90.181969 
	C38.594795,90.613686 38.642429,91.045403 38.690063,91.477119 
	C39.060226,91.298698 39.430389,91.120285 39.800556,90.941872 
	C39.513607,90.559166 39.226662,90.176460 38.547161,90.181969 
z"/>
<path fill="#FED540" opacity="1.000000" stroke="none" 
	d="
M129.048203,114.879120 
	C126.363525,114.953873 123.678856,115.028633 120.364365,114.864487 
	C118.794800,114.803955 117.855057,114.982323 116.915321,115.160690 
	C116.477379,115.112221 116.039429,115.063744 115.166580,114.707840 
	C114.159004,114.557449 113.586349,114.714485 113.013687,114.871529 
	C111.943871,114.930214 110.874062,114.988899 109.440956,114.644714 
	C110.702827,112.670204 112.100983,110.707710 113.998756,109.605438 
	C118.429771,107.031769 123.134811,104.933708 127.639076,102.478294 
	C128.335953,102.098396 128.558228,100.847885 129.359741,99.960297 
	C135.508545,96.972885 141.297623,94.025177 147.857239,90.685112 
	C148.079224,88.377655 150.139603,86.572250 153.993988,87.000565 
	C153.015518,90.730690 152.037048,94.460823 150.633667,98.646431 
	C149.474762,101.071510 148.740768,103.041122 148.006775,105.010727 
	C148.006760,105.010727 148.002304,104.997833 147.698639,105.139740 
	C143.921539,108.194420 140.448105,111.107201 136.550995,114.012604 
	C133.767624,114.296524 131.407913,114.587822 129.048203,114.879120 
z"/>
<path fill="#FED94A" opacity="1.000000" stroke="none" 
	d="
M129.000000,100.000000 
	C128.558228,100.847885 128.335953,102.098396 127.639076,102.478294 
	C123.134811,104.933708 118.429771,107.031769 113.998756,109.605438 
	C112.100983,110.707710 110.702827,112.670204 109.041763,114.585960 
	C106.632950,114.971039 104.260048,115.011993 101.445389,114.999123 
	C101.318916,113.868713 101.286804,112.329468 102.005348,111.789963 
	C107.003685,108.036957 112.150826,104.481491 117.270256,100.891220 
	C117.945168,100.417885 119.350822,100.145508 119.378143,99.714203 
	C119.905266,91.392189 128.403625,93.519737 132.513168,89.764084 
	C138.299026,84.476418 145.142166,80.341553 151.573822,75.770927 
	C152.208115,75.320160 153.125107,75.267227 154.248688,75.021797 
	C154.672928,75.786186 154.759369,76.558418 154.568146,77.940811 
	C154.182098,79.358681 154.073715,80.166382 153.586090,80.987930 
	C149.310455,82.662766 145.053299,83.791260 141.611481,86.123169 
	C137.555206,88.871391 134.113144,92.569611 130.610367,96.062141 
	C129.684875,96.984924 129.516190,98.666725 129.000000,100.000000 
z"/>
<path fill="#FEE56B" opacity="1.000000" stroke="none" 
	d="
M120.252541,58.242607 
	C119.908798,57.809978 119.855881,57.639019 119.678055,57.229801 
	C119.652992,54.613815 119.752838,52.236088 120.194260,49.678070 
	C120.877357,51.229198 121.218872,52.960613 121.840881,56.114059 
	C124.683464,54.434357 126.792572,52.922825 129.110779,51.873043 
	C134.052170,49.635368 137.361420,43.862892 143.865509,45.016411 
	C145.782806,47.135399 147.700089,49.254387 149.671875,51.706982 
	C147.620132,52.723759 145.326187,53.078949 143.445145,54.155548 
	C138.955856,56.724937 134.577194,59.511623 130.306610,62.433815 
	C122.618065,67.694771 121.895691,67.455078 120.252541,58.242607 
z"/>
<path fill="#FDE977" opacity="1.000000" stroke="none" 
	d="
M143.854095,44.739105 
	C137.361420,43.862892 134.052170,49.635368 129.110779,51.873043 
	C126.792572,52.922825 124.683464,54.434357 121.840881,56.114059 
	C121.218872,52.960613 120.877357,51.229198 120.243057,49.233704 
	C119.901817,46.581394 119.853378,44.193172 120.058685,41.299297 
	C120.544487,40.538879 120.776543,40.284111 121.008598,40.029343 
	C124.835869,40.058895 128.663116,40.106213 132.490433,40.113304 
	C136.833221,40.121349 140.874863,40.880573 143.854095,44.739105 
z"/>
<path fill="#FED848" opacity="1.000000" stroke="none" 
	d="
M96.564735,121.063644 
	C91.522102,128.741013 84.480446,134.231049 75.447525,137.034592 
	C74.711632,137.262985 73.495033,137.560974 73.406639,138.006256 
	C72.544769,142.348145 68.794395,142.076645 65.389969,142.993896 
	C66.055313,136.538177 72.093262,135.440765 76.311562,132.294769 
	C80.738792,128.992966 84.792534,125.190369 89.029724,121.227142 
	C91.408691,120.897491 93.767456,120.947334 96.564735,121.063644 
z"/>
<path fill="#FDD848" opacity="1.000000" stroke="none" 
	d="
M129.359741,99.960297 
	C129.516190,98.666725 129.684875,96.984924 130.610367,96.062141 
	C134.113144,92.569611 137.555206,88.871391 141.611481,86.123169 
	C145.053299,83.791260 149.310455,82.662766 153.744659,81.006561 
	C154.282516,81.011353 154.600601,81.027100 154.600586,81.027100 
	C154.464157,82.772736 154.327728,84.518372 154.092651,86.632286 
	C150.139603,86.572250 148.079224,88.377655 147.857239,90.685112 
	C141.297623,94.025177 135.508545,96.972885 129.359741,99.960297 
z"/>
<path fill="#447BA7" opacity="1.000000" stroke="none" 
	d="
M115.118973,48.544044 
	C115.083443,51.374912 114.981049,53.766041 114.408073,56.456268 
	C113.635391,55.221275 113.101822,53.691586 113.072464,52.152283 
	C112.963356,46.432281 113.020134,40.709122 113.016968,34.521782 
	C113.015472,29.032322 113.011627,24.008223 112.923187,18.600899 
	C110.335365,17.529902 107.832138,16.842131 105.692825,16.254345 
	C105.441643,13.989005 105.219299,11.983764 104.996956,9.978523 
	C104.999176,8.907842 105.001404,7.837161 105.008469,6.364996 
	C106.764877,7.222595 108.516457,8.481677 110.643448,10.208462 
	C111.689148,11.446220 112.359444,12.216275 113.029724,12.986332 
	C113.622337,14.765626 114.214943,16.544918 114.865265,18.917320 
	C114.987206,19.670769 115.051430,19.831108 115.115662,19.991446 
	C115.083199,20.753820 115.050728,21.516195 114.980850,23.096344 
	C115.018074,26.932434 115.092712,29.950748 115.167343,32.969063 
	C115.117363,35.025284 115.067383,37.081509 115.024025,39.820290 
	C115.079781,40.665432 115.128922,40.828018 115.178070,40.990608 
	C115.136078,43.361839 115.094086,45.733070 115.118973,48.544044 
z"/>
<path fill="#FEDD56" opacity="1.000000" stroke="none" 
	d="
M96.779480,104.287598 
	C99.234947,106.891319 98.523277,108.534431 94.616814,108.951530 
	C91.224174,109.313759 87.899254,109.485016 88.000969,114.554794 
	C86.604721,114.981171 85.208702,115.015854 83.405411,114.747604 
	C82.998146,114.444672 83.001831,113.983002 83.001831,113.983002 
	C83.760086,108.515717 88.708931,107.971176 92.431458,106.034172 
	C93.713203,105.367218 95.177666,105.051414 96.779480,104.287598 
z"/>
<path fill="#F6D845" opacity="1.000000" stroke="none" 
	d="
M136.974670,114.019974 
	C140.448105,111.107201 143.921539,108.194420 147.706146,105.143448 
	C146.803024,110.605339 143.088531,113.543991 137.332703,114.525757 
	C136.966919,114.352463 136.974670,114.019974 136.974670,114.019974 
z"/>
<path fill="#F6D845" opacity="1.000000" stroke="none" 
	d="
M148.343323,104.920746 
	C148.740768,103.041122 149.474762,101.071510 150.578156,99.052460 
	C150.191681,100.945602 149.435776,102.888184 148.343323,104.920746 
z"/>
<path fill="#F0F4F2" opacity="1.000000" stroke="none" 
	d="
M115.421814,32.668198 
	C115.092712,29.950748 115.018074,26.932434 115.047142,23.473156 
	C115.325981,26.143908 115.501122,29.255619 115.421814,32.668198 
z"/>
<path fill="#F0F4F2" opacity="1.000000" stroke="none" 
	d="
M113.288269,12.762061 
	C112.359444,12.216275 111.689148,11.446220 110.928909,10.374010 
	C111.741577,10.893835 112.644188,11.715813 113.288269,12.762061 
z"/>
<path fill="#FBD631" opacity="1.000000" stroke="none" 
	d="
M136.550995,114.012604 
	C136.974670,114.019974 136.966919,114.352463 136.969269,114.518494 
	C134.622055,114.788788 132.272491,114.893051 129.485565,114.938217 
	C131.407913,114.587822 133.767624,114.296524 136.550995,114.012604 
z"/>
<path fill="#FBD631" opacity="1.000000" stroke="none" 
	d="
M117.092110,115.428802 
	C117.855057,114.982323 118.794800,114.803955 119.921265,114.909462 
	C119.161629,115.361191 118.215263,115.529053 117.092110,115.428802 
z"/>
<path fill="#F0F4F2" opacity="1.000000" stroke="none" 
	d="
M120.866211,39.806351 
	C120.776543,40.284111 120.544487,40.538879 120.051788,40.850014 
	C119.713287,40.425152 119.635429,39.943928 119.557564,39.462704 
	C119.946320,39.502918 120.335068,39.543137 120.866211,39.806351 
z"/>
<path fill="#FBD631" opacity="1.000000" stroke="none" 
	d="
M113.336853,114.920319 
	C113.586349,114.714485 114.159004,114.557449 114.845116,114.630936 
	C114.525719,114.897354 114.092865,114.933235 113.336853,114.920319 
z"/>
<path fill="#FED540" opacity="1.000000" stroke="none" 
	d="
M82.667252,113.989929 
	C83.001831,113.983002 82.998146,114.444672 82.991974,114.675308 
	C82.244354,114.961433 81.502899,115.016922 80.393661,115.016861 
	C80.794815,114.639824 81.563744,114.318336 82.667252,113.989929 
z"/>
<path fill="#FEDC53" opacity="1.000000" stroke="none" 
	d="
M154.741241,80.675964 
	C154.600601,81.027100 154.282516,81.011353 154.123932,80.992722 
	C154.073715,80.166382 154.182098,79.358681 154.492340,78.325180 
	C154.756790,78.841194 154.819336,79.583008 154.741241,80.675964 
z"/>
<path fill="#F0F4F2" opacity="1.000000" stroke="none" 
	d="
M115.320404,40.895569 
	C115.128922,40.828018 115.079781,40.665432 115.094002,40.256111 
	C115.259148,40.273090 115.360947,40.536812 115.320404,40.895569 
z"/>
<path fill="#F0F4F2" opacity="1.000000" stroke="none" 
	d="
M115.267578,19.891109 
	C115.051430,19.831108 114.987206,19.670769 114.968964,19.255463 
	C115.149803,19.263920 115.284645,19.527346 115.267578,19.891109 
z"/>
<path fill="#3D79AB" opacity="1.000000" stroke="none" 
	d="
M50.869987,76.347076 
	C44.447746,76.941391 42.726604,83.142227 38.103378,86.881752 
	C36.112888,87.069084 34.698399,86.943634 31.623018,86.670883 
	C33.570061,89.089485 34.737926,90.540207 35.905800,91.990929 
	C35.995296,92.434021 36.084793,92.877113 35.746674,93.664619 
	C32.341408,95.500389 27.563513,96.324043 26.717188,98.605896 
	C23.966856,106.021317 17.106499,107.100807 11.644020,110.391205 
	C11.644020,110.391205 11.601126,110.291504 11.727708,109.997528 
	C11.899477,109.460228 11.944664,109.216911 11.992391,108.535095 
	C12.928187,103.669952 12.382121,97.493416 15.108855,95.188301 
	C20.453983,90.669678 22.073959,82.567093 29.657265,80.439667 
	C30.395611,80.232529 31.200632,78.994354 31.343096,78.130592 
	C32.594757,70.541824 38.689381,65.932007 43.889496,62.319439 
	C50.828960,57.498516 53.330494,50.746143 56.727276,44.517708 
	C55.712261,43.023861 54.871227,41.786068 54.030193,40.548279 
	C60.353836,40.460823 66.677483,40.373367 73.676453,40.503933 
	C74.900337,40.840988 75.448906,40.960018 75.991745,41.448341 
	C75.078918,43.495029 74.557678,46.157185 73.201523,46.688568 
	C64.949898,49.921803 62.933704,58.736168 57.091522,64.085464 
	C54.684086,66.289795 53.162018,69.461067 51.108063,72.375854 
	C52.398380,72.806732 53.276264,73.099884 54.211075,73.412041 
	C53.037071,74.443367 51.953529,75.395218 50.869987,76.347076 
z"/>
<path fill="#3975A4" opacity="1.000000" stroke="none" 
	d="
M51.273895,76.391281 
	C51.953529,75.395218 53.037071,74.443367 54.211075,73.412041 
	C53.276264,73.099884 52.398380,72.806732 51.108063,72.375854 
	C53.162018,69.461067 54.684086,66.289795 57.091522,64.085464 
	C62.933704,58.736168 64.949898,49.921803 73.201523,46.688568 
	C74.557678,46.157185 75.078918,43.495029 76.327759,41.384087 
	C77.080261,40.269623 77.491013,39.588699 77.901772,38.907780 
	C77.934303,38.484650 77.966835,38.061516 78.001495,37.319687 
	C78.554977,38.138523 79.106331,39.276058 80.141174,41.411125 
	C80.882141,39.347092 82.040588,37.814583 81.764885,36.610443 
	C80.097664,29.328884 86.498619,27.879606 90.161522,24.415207 
	C92.538300,22.167236 94.741859,19.736364 97.028313,17.392597 
	C99.434776,14.925809 101.847542,12.465163 104.627258,9.990177 
	C105.219299,11.983764 105.441643,13.989005 105.692825,16.254345 
	C107.832138,16.842131 110.335365,17.529902 112.512207,18.606768 
	C110.863274,19.398323 109.001808,19.379232 108.304428,20.270739 
	C103.267387,26.709930 98.452591,33.323559 93.595779,39.902882 
	C91.470093,42.782471 89.724884,46.018833 87.248367,48.545807 
	C83.500496,52.370045 78.923042,55.404839 75.329056,59.349895 
	C71.503265,63.549412 68.412148,68.418221 64.564804,72.995850 
	C61.746178,73.683578 58.450687,71.270546 56.991821,75.097641 
	C55.220482,75.543587 53.449139,75.989540 51.273895,76.391281 
z"/>
<path fill="#417FAF" opacity="1.000000" stroke="none" 
	d="
M53.611599,40.426323 
	C54.871227,41.786068 55.712261,43.023861 56.727276,44.517708 
	C53.330494,50.746143 50.828960,57.498516 43.889496,62.319439 
	C38.689381,65.932007 32.594757,70.541824 31.343096,78.130592 
	C31.200632,78.994354 30.395611,80.232529 29.657265,80.439667 
	C22.073959,82.567093 20.453983,90.669678 15.108855,95.188301 
	C12.382121,97.493416 12.928187,103.669952 11.670374,108.542938 
	C10.916256,108.987198 10.486696,108.985100 10.057136,108.983002 
	C9.472302,108.442184 8.887469,107.901367 8.012195,106.894043 
	C6.829953,104.921097 5.938154,103.414650 5.046355,101.908211 
	C4.737786,100.825333 4.429217,99.742455 4.005796,98.337387 
	C3.435903,95.336983 2.980860,92.658760 2.474892,89.574059 
	C3.767279,87.608917 5.110592,86.050262 6.768070,84.127075 
	C7.438876,85.201607 8.203446,86.426331 9.578663,88.629219 
	C14.587117,83.495628 19.971786,79.060867 23.941927,73.598068 
	C27.810143,68.275520 30.599476,62.285122 36.593784,58.717999 
	C38.111515,57.814823 38.916916,55.666161 39.966248,54.036133 
	C41.404545,51.801880 42.751102,49.508793 44.159687,47.255112 
	C45.424053,45.232189 46.719109,43.228447 47.998817,40.871056 
	C49.729012,40.452034 51.461006,40.378204 53.611599,40.426323 
M6.106409,92.351166 
	C6.375086,92.643715 6.643764,92.936272 6.912439,93.228821 
	C7.105160,92.697372 7.297881,92.165932 7.490602,91.634483 
	C7.078866,91.693077 6.667130,91.751671 6.106409,92.351166 
z"/>
<path fill="#4785B8" opacity="1.000000" stroke="none" 
	d="
M6.264072,75.212860 
	C6.065619,73.398575 6.241132,71.794418 6.175924,70.200111 
	C6.052710,67.187569 6.975301,65.217796 9.580514,63.095551 
	C15.325967,58.415215 20.450994,52.959957 25.676088,47.669693 
	C26.391035,46.945831 26.814186,44.954746 26.337769,44.263973 
	C25.633089,43.242245 24.062740,42.627552 22.744869,42.280678 
	C21.744625,42.017406 20.563442,42.441570 19.237791,42.297405 
	C20.656963,41.584377 22.301115,41.133793 24.792725,40.788193 
	C29.095644,40.964878 32.551105,41.036579 36.006569,41.108276 
	C36.571171,42.232830 37.135773,43.357380 37.270424,43.625576 
	C35.596100,47.173397 34.285679,50.120338 32.810642,52.982445 
	C32.301109,53.971119 31.495296,54.885536 30.631586,55.600410 
	C25.373272,59.952595 20.386061,64.350296 17.236094,70.764534 
	C15.834453,73.618675 12.253222,75.462074 9.462753,77.491234 
	C9.150375,77.718384 7.538570,76.158569 6.264072,75.212860 
z"/>
<path fill="#4E8DBE" opacity="1.000000" stroke="none" 
	d="
M54.343666,3.347077 
	C55.678944,3.207967 56.960407,3.053694 58.473293,3.194636 
	C60.106136,6.886965 62.401245,6.567271 64.997757,5.001312 
	C64.999786,5.000122 65.002609,4.997134 65.002609,4.997134 
	C66.035263,5.356138 67.067917,5.715143 67.775070,5.960988 
	C65.482704,7.478992 63.201839,8.989384 60.474361,10.855324 
	C52.523495,11.249911 49.865086,14.153755 49.913292,21.760708 
	C47.494091,19.772949 45.379200,17.951223 43.466938,16.304037 
	C41.999073,17.501553 41.078369,18.252684 40.157665,19.003813 
	C41.328987,11.682302 44.710598,6.154598 52.903122,3.943839 
	C53.885330,3.815310 54.122246,3.615839 54.216763,3.247276 
	C54.216763,3.247276 54.289845,3.331914 54.343666,3.347077 
z"/>
<path fill="#4888B9" opacity="1.000000" stroke="none" 
	d="
M40.084614,19.449368 
	C41.078369,18.252684 41.999073,17.501553 43.466938,16.304037 
	C45.379200,17.951223 47.494091,19.772949 50.134239,21.979092 
	C51.586151,23.493961 52.512814,24.624416 53.439476,25.754871 
	C51.959412,27.603802 50.479343,29.452730 48.999641,31.650829 
	C49.000000,32.000000 49.000214,31.999695 48.680080,32.041397 
	C47.906635,32.720177 47.453323,33.357254 46.600094,33.996185 
	C45.133717,33.996822 44.067257,33.995605 42.853180,33.655952 
	C41.851303,31.548880 40.997036,29.780247 40.142769,28.011616 
	C40.099033,25.306051 40.055298,22.600489 40.084614,19.449368 
z"/>
<path fill="#347CB4" opacity="1.000000" stroke="none" 
	d="
M43.000797,33.994389 
	C44.067257,33.995605 45.133717,33.996822 46.975426,33.998631 
	C48.501465,33.998615 49.252258,33.998009 50.447056,33.998642 
	C53.261124,33.998909 55.631191,33.997940 58.001255,33.996975 
	C58.444611,33.997459 58.887962,33.997940 59.663750,33.997192 
	C64.020393,33.996929 68.044594,33.997894 72.545593,34.234955 
	C73.022385,34.471043 73.064545,34.944000 73.030151,35.072571 
	C72.995750,35.201138 72.961929,35.465164 72.961929,35.465164 
	C70.542259,35.530220 68.122589,35.595272 64.905838,35.386116 
	C58.140461,35.203690 52.172176,35.295475 46.203888,35.387260 
	C44.719612,35.465038 43.235340,35.542816 41.238426,35.419403 
	C40.725788,35.218216 40.319340,35.027290 40.319340,35.027290 
	C40.237911,34.866982 40.156487,34.706673 40.467476,34.274368 
	C41.573521,33.999706 42.287159,33.997047 43.000797,33.994389 
z"/>
<path fill="#437DAC" opacity="1.000000" stroke="none" 
	d="
M46.634926,35.529625 
	C52.172176,35.295475 58.140461,35.203690 64.461510,35.276627 
	C58.898167,35.518227 52.982063,35.595108 46.634926,35.529625 
z"/>
<path fill="#8AABC6" opacity="1.000000" stroke="none" 
	d="
M36.382671,41.075645 
	C32.551105,41.036579 29.095644,40.964878 25.167856,40.777687 
	C29.843994,40.473076 34.992455,40.283955 40.595680,40.222130 
	C39.619884,40.580620 38.189327,40.811817 36.382671,41.075645 
z"/>
<path fill="#4581B1" opacity="1.000000" stroke="none" 
	d="
M42.853180,33.655952 
	C42.287159,33.997047 41.573521,33.999706 40.503120,34.007030 
	C40.103607,32.295055 40.060860,30.578419 40.080437,28.436699 
	C40.997036,29.780247 41.851303,31.548880 42.853180,33.655952 
z"/>
<path fill="#3975A4" opacity="1.000000" stroke="none" 
	d="
M73.064545,34.944000 
	C73.064545,34.944000 73.022385,34.471043 73.008446,34.233994 
	C74.247894,34.257454 75.501274,34.517963 76.916733,35.056801 
	C76.284248,35.451927 75.489693,35.568722 74.187256,35.459866 
	C73.492401,35.099400 73.287460,35.002663 73.064545,34.944000 
z"/>
<path fill="#8AABC6" opacity="1.000000" stroke="none" 
	d="
M77.590439,39.085808 
	C77.491013,39.588699 77.080261,40.269623 76.333481,41.014793 
	C75.448906,40.960018 74.900337,40.840988 74.138092,40.540581 
	C75.042648,39.994080 76.160873,39.628960 77.590439,39.085808 
z"/>
<path fill="#437DAC" opacity="1.000000" stroke="none" 
	d="
M73.030151,35.072571 
	C73.287460,35.002663 73.492401,35.099400 73.791565,35.361923 
	C73.745407,35.543987 73.587036,35.598347 73.195297,35.558937 
	C72.961929,35.465164 72.995750,35.201138 73.030151,35.072571 
z"/>
<path fill="#437DAC" opacity="1.000000" stroke="none" 
	d="
M40.325306,35.198067 
	C40.319340,35.027290 40.725788,35.218216 40.807747,35.294609 
	C40.889709,35.371006 40.609722,35.564991 40.609722,35.564991 
	C40.609722,35.564991 40.331272,35.368843 40.325306,35.198067 
z"/>
<path fill="#EBF6F7" opacity="1.000000" stroke="none" 
	d="
M53.976547,3.230352 
	C54.122246,3.615839 53.885330,3.815310 53.259811,3.826892 
	C53.165394,3.501608 53.406307,3.303386 53.976547,3.230352 
z"/>
<path fill="#FEE56A" opacity="1.000000" stroke="none" 
	d="
M84.024071,80.315224 
	C89.655586,80.137695 95.287094,79.960167 101.368736,79.742699 
	C105.346626,82.005508 106.334236,83.850540 101.256882,85.548920 
	C97.490089,86.808914 93.933418,88.697060 89.495857,90.652283 
	C89.669701,94.587578 86.088440,96.219749 81.942421,98.229820 
	C75.379211,101.411819 68.560036,104.099350 63.129658,109.730965 
	C60.656715,112.295547 56.884735,113.237221 56.698521,117.794189 
	C56.634144,119.369606 44.215164,122.540314 42.649437,121.617012 
	C42.366207,121.449989 42.076008,121.294785 41.362892,120.814957 
	C40.881592,120.325424 40.826424,120.155075 40.771255,119.984718 
	C40.771255,119.984718 40.863155,119.502991 40.902237,118.832352 
	C40.893337,116.433228 40.845352,114.704735 40.797371,112.976250 
	C40.861565,111.919014 40.925755,110.861771 41.371620,109.462936 
	C42.956032,110.131294 44.158779,111.141243 45.361523,112.151192 
	C45.291828,111.588020 45.222137,111.024857 45.152443,110.461685 
	C50.568138,108.637634 56.043385,106.966072 61.360531,104.889656 
	C62.814476,104.321869 64.051041,102.692047 64.903122,101.261230 
	C65.498360,100.261711 65.269417,98.771370 65.438072,97.231125 
	C69.426521,97.239265 73.417328,97.479004 74.236214,92.366882 
	C74.321014,91.837502 75.175766,91.463882 75.587181,90.949181 
	C78.412308,87.414787 81.214493,83.862053 84.024071,80.315224 
z"/>
<path fill="#3975A4" opacity="1.000000" stroke="none" 
	d="
M11.765614,110.692276 
	C17.106499,107.100807 23.966856,106.021317 26.717188,98.605896 
	C27.563513,96.324043 32.341408,95.500389 35.699364,94.000595 
	C36.091728,94.735931 36.103790,95.479706 36.072006,97.057663 
	C36.014542,99.039940 36.024082,100.188858 35.983158,101.335991 
	C35.832249,105.565994 37.221615,111.179306 35.050186,113.622314 
	C33.019688,115.906784 27.205992,114.828644 23.057343,115.230453 
	C22.293064,115.155411 21.528788,115.080368 20.116182,114.886940 
	C19.064573,114.744354 18.661291,114.720161 18.258011,114.695961 
	C18.258011,114.695961 18.190138,114.706482 18.072334,114.550583 
	C17.665663,114.252739 17.367823,114.230415 17.061008,114.327713 
	C16.919386,114.220947 16.777765,114.114182 16.266119,113.788612 
	C15.643864,113.366455 15.362299,113.310379 15.051402,113.401588 
	C13.996671,112.598846 12.941938,111.796097 11.765614,110.692276 
z"/>
<path fill="#F7F8F0" opacity="1.000000" stroke="none" 
	d="
M23.318245,115.487015 
	C27.205992,114.828644 33.019688,115.906784 35.050186,113.622314 
	C37.221615,111.179306 35.832249,105.565994 35.983158,101.335991 
	C36.024082,100.188858 36.014542,99.039940 36.114975,97.428429 
	C38.828396,94.147697 38.760944,97.554573 38.831841,98.397614 
	C39.106052,101.658310 38.877392,104.958054 39.050076,108.231964 
	C39.130474,109.756340 39.700714,111.254883 40.423145,112.870697 
	C40.845352,114.704735 40.893337,116.433228 40.872906,118.588898 
	C37.869827,116.333954 34.823017,115.400108 30.715511,116.790100 
	C28.687057,117.476524 25.979454,116.156006 23.318245,115.487015 
z"/>
<path fill="#F7F8F0" opacity="1.000000" stroke="none" 
	d="
M40.399750,120.103271 
	C40.826424,120.155075 40.881592,120.325424 41.021980,120.750641 
	C41.071720,122.721779 41.036240,124.438042 41.058712,126.580223 
	C41.059158,129.381638 41.001648,131.757156 40.872040,134.572906 
	C40.201385,133.374954 39.111324,131.737808 39.107819,130.098343 
	C39.100780,126.806847 39.686916,123.514076 40.399750,120.103271 
z"/>
<path fill="#E8F2F5" opacity="1.000000" stroke="none" 
	d="
M4.972921,102.263123 
	C5.938154,103.414650 6.829953,104.921097 7.734235,106.759438 
	C6.322262,106.950233 4.897806,106.809135 2.746573,106.596046 
	C3.642011,104.941513 4.270750,103.779770 4.972921,102.263123 
z"/>
<path fill="#F7F8F0" opacity="1.000000" stroke="none" 
	d="
M18.166830,115.033669 
	C18.661291,114.720161 19.064573,114.744354 19.733641,114.927315 
	C19.428272,115.996330 18.857115,116.906578 18.285959,117.816826 
	C18.215858,117.001678 18.145754,116.186523 18.166830,115.033669 
z"/>
<path fill="#3975A4" opacity="1.000000" stroke="none" 
	d="
M10.158489,109.240372 
	C10.486696,108.985100 10.916256,108.987198 11.667833,108.981445 
	C11.944664,109.216911 11.899477,109.460228 11.710172,110.048889 
	C11.130650,110.095398 10.695246,109.796570 10.158489,109.240372 
z"/>
<path fill="#F7F8F0" opacity="1.000000" stroke="none" 
	d="
M17.209110,114.491608 
	C17.367823,114.230415 17.665663,114.252739 18.082527,114.583382 
	C18.210522,114.772072 17.769234,114.820473 17.769234,114.820473 
	C17.769234,114.820473 17.357210,114.655510 17.209110,114.491608 
z"/>
<path fill="#F7F8F0" opacity="1.000000" stroke="none" 
	d="
M15.188433,113.557663 
	C15.362299,113.310379 15.643864,113.366455 16.001009,113.766403 
	C15.816187,113.972481 15.556034,113.889389 15.188433,113.557663 
z"/>
<path fill="#4581B1" opacity="1.000000" stroke="none" 
	d="
M88.999603,3.999393 
	C89.916748,3.620289 90.834282,3.241793 91.751816,2.863297 
	C91.837013,3.138926 91.922218,3.414554 92.007416,3.690183 
	C91.230133,3.793262 90.452850,3.896340 89.338455,4.000394 
	C89.001350,4.001369 89.000000,4.000000 88.999603,3.999393 
z"/>
<path fill="#4581B1" opacity="1.000000" stroke="none" 
	d="
M97.111717,3.292947 
	C97.403778,3.210399 97.787315,3.299602 97.877617,3.512931 
	C97.947227,3.677383 97.648575,3.997722 97.513657,4.248749 
	C97.368095,4.005208 97.222527,3.761669 97.111717,3.292947 
z"/>
<path fill="#EBF3F6" opacity="1.000000" stroke="none" 
	d="
M53.831047,25.825432 
	C52.512814,24.624416 51.586151,23.493961 50.438545,22.145123 
	C49.865086,14.153755 52.523495,11.249911 60.428818,11.257671 
	C60.951271,12.099441 60.780972,13.200488 61.241604,13.639473 
	C64.128662,16.390808 64.868881,19.488876 62.878490,22.963984 
	C60.911640,26.397984 57.636223,26.469791 53.831047,25.825432 
z"/>
<path fill="#437DAC" opacity="1.000000" stroke="none" 
	d="
M57.739052,33.715004 
	C55.631191,33.997940 53.261124,33.998909 50.446793,33.751122 
	C50.002525,33.502365 50.003265,33.007263 50.336571,33.005646 
	C51.114330,33.003117 51.558792,33.002205 52.003250,33.001297 
	C53.827782,33.145206 55.652313,33.289116 57.739052,33.715004 
z"/>
<path fill="#4E8DBE" opacity="1.000000" stroke="none" 
	d="
M60.981518,3.147779 
	C60.981518,3.147779 61.416092,3.010037 61.642502,2.983839 
	C62.872028,3.403133 63.875141,3.848625 64.940430,4.645626 
	C65.002609,4.997134 64.999786,5.000122 64.631020,4.996380 
	C63.168674,4.377685 62.075096,3.762732 60.981518,3.147779 
z"/>
<path fill="#4888B9" opacity="1.000000" stroke="none" 
	d="
M56.503304,28.072212 
	C56.245068,28.441175 55.725437,28.768276 55.205807,29.095375 
	C55.116566,28.864006 55.027328,28.632637 54.938087,28.401266 
	C55.372696,28.277626 55.807301,28.153986 56.503304,28.072212 
z"/>
<path fill="#4888B9" opacity="1.000000" stroke="none" 
	d="
M51.796478,32.739532 
	C51.558792,33.002205 51.114330,33.003117 50.117119,32.895393 
	C49.289867,32.586376 49.101818,32.324020 49.000214,31.999695 
	C49.000214,31.999695 49.000000,32.000000 48.999847,32.000153 
	C49.863033,32.159458 50.726368,32.318615 51.796478,32.739532 
z"/>
<path fill="#417FAF" opacity="1.000000" stroke="none" 
	d="
M2.249845,82.868286 
	C2.101532,82.954437 2.053119,82.491875 2.056768,82.259773 
	C2.172997,82.279160 2.285578,82.530640 2.249845,82.868286 
z"/>
<path fill="#417FAF" opacity="1.000000" stroke="none" 
	d="
M4.450475,81.532410 
	C4.417833,81.477448 4.483116,81.587372 4.450475,81.532410 
z"/>
<path fill="#FCF9EC" opacity="1.000000" stroke="none" 
	d="
M91.277557,135.432373 
	C93.409119,130.545013 96.437469,127.720100 102.267761,129.510071 
	C106.742043,134.434204 107.188637,138.462006 103.913521,140.964798 
	C98.240807,145.299789 93.351593,143.301422 91.277557,135.432373 
z"/>
<path fill="#FED848" opacity="1.000000" stroke="none" 
	d="
M89.356445,133.255997 
	C89.371178,133.007782 89.504105,132.872513 89.637032,132.737244 
	C89.582893,132.947815 89.528755,133.158386 89.356445,133.255997 
z"/>
<path fill="#4581B1" opacity="1.000000" stroke="none" 
	d="
M60.656837,3.074487 
	C62.075096,3.762732 63.168674,4.377685 64.628990,4.997571 
	C62.401245,6.567271 60.106136,6.886965 58.861488,3.245710 
	C59.456226,3.001444 59.894192,3.001319 60.656837,3.074487 
z"/>
<path fill="#FEDF59" opacity="1.000000" stroke="none" 
	d="
M146.666443,64.948975 
	C144.636414,71.037170 139.727951,74.241547 134.173187,76.920067 
	C132.161072,77.890312 130.721222,79.999329 128.754990,81.125656 
	C126.596733,82.361969 124.132469,83.064072 121.401382,84.000092 
	C121.000710,83.556175 121.000198,83.111122 120.999084,82.332275 
	C121.961517,75.826584 127.310974,74.020126 131.675522,71.196533 
	C133.958130,69.719818 136.143402,68.085632 138.315033,66.446243 
	C140.755722,64.603752 142.981323,61.902695 146.666443,64.948975 
z"/>
<path fill="#FEDF59" opacity="1.000000" stroke="none" 
	d="
M148.998154,64.589958 
	C148.553619,64.999771 148.109070,64.999542 147.331039,64.998291 
	C146.997559,63.224632 146.997559,61.452015 146.997559,59.679394 
	C147.498032,59.625145 147.998505,59.570892 148.498978,59.516640 
	C148.665359,61.071068 148.831757,62.625492 148.998154,64.589958 
z"/>
<path fill="#FEE56B" opacity="1.000000" stroke="none" 
	d="
M145.531158,56.548958 
	C145.476105,56.581745 145.586197,56.516171 145.531158,56.548958 
z"/>
<path fill="#FEDF59" opacity="1.000000" stroke="none" 
	d="
M120.606964,85.047363 
	C121.810707,88.818253 118.994484,88.967056 115.911133,89.773117 
	C109.902885,94.678253 104.434944,99.159073 97.000305,100.000305 
	C97.306473,99.104607 97.533379,97.466095 97.930611,97.423706 
	C104.809677,96.689644 107.977348,90.822403 112.759697,87.171928 
	C114.663620,85.718628 117.695526,85.743042 120.606964,85.047363 
z"/>
<path fill="#FEDD56" opacity="1.000000" stroke="none" 
	d="
M97.000153,100.375298 
	C104.434944,99.159073 109.902885,94.678253 115.659363,90.050636 
	C116.592369,94.448807 114.795822,96.860092 110.166588,97.058029 
	C109.262535,97.096680 108.354340,97.653061 107.497482,98.071785 
	C104.242737,99.662315 101.008270,101.294334 97.383423,102.955574 
	C97.000412,102.250298 97.000206,101.500298 97.000153,100.375298 
z"/>
<path fill="#FEE975" opacity="1.000000" stroke="none" 
	d="
M83.562012,80.215340 
	C81.214493,83.862053 78.412308,87.414787 75.587181,90.949181 
	C75.175766,91.463882 74.321014,91.837502 74.236214,92.366882 
	C73.417328,97.479004 69.426521,97.239265 65.438072,97.231125 
	C65.269417,98.771370 65.498360,100.261711 64.903122,101.261230 
	C64.051041,102.692047 62.814476,104.321869 61.360531,104.889656 
	C56.043385,106.966072 50.568138,108.637634 45.152443,110.461685 
	C45.222137,111.024857 45.291828,111.588020 45.361523,112.151192 
	C44.158779,111.141243 42.956032,110.131294 41.415123,109.067627 
	C41.015022,105.299789 40.953091,101.585663 40.883156,97.184921 
	C40.875145,96.498299 40.813034,96.038292 40.813034,96.038292 
	C42.536488,86.460403 50.179165,80.235657 60.635258,80.093330 
	C68.122002,79.991417 75.611610,80.100510 83.562012,80.215340 
z"/>
<path fill="#326999" opacity="1.000000" stroke="none" 
	d="
M113.014618,34.987152 
	C113.020134,40.709122 112.963356,46.432281 113.072464,52.152283 
	C113.101822,53.691586 113.635391,55.221275 114.298553,56.891415 
	C114.163139,67.667770 107.288803,74.693481 96.874695,75.140190 
	C94.560043,75.239464 92.237778,75.161041 89.371315,74.683067 
	C85.214943,73.799599 81.606270,73.397514 78.012451,72.595215 
	C79.409714,71.461838 80.899963,70.874733 82.144966,69.955475 
	C83.453812,68.989075 84.838974,67.883881 85.627296,66.514862 
	C86.654022,64.731812 86.697601,62.299313 87.912323,60.722618 
	C92.554916,54.696579 100.456253,51.110142 101.475632,42.357658 
	C101.538887,41.814590 102.202675,41.196388 102.743057,40.877621 
	C106.142326,38.872440 109.585770,36.942177 113.014618,34.987152 
z"/>
<path fill="#2A70A4" opacity="1.000000" stroke="none" 
	d="
M77.997597,72.995422 
	C81.606270,73.397514 85.214943,73.799599 88.918602,74.591339 
	C78.651779,75.043289 68.289970,75.105583 57.459991,75.132759 
	C58.450687,71.270546 61.746178,73.683578 65.027939,72.997406 
	C69.950218,72.997078 73.973907,72.996246 77.997597,72.995422 
z"/>
<path fill="#3975A4" opacity="1.000000" stroke="none" 
	d="
M36.096214,91.688477 
	C34.737926,90.540207 33.570061,89.089485 31.623018,86.670883 
	C34.698399,86.943634 36.112888,87.069084 37.834946,87.075638 
	C37.523884,88.433174 36.905254,89.909592 36.096214,91.688477 
z"/>
<path fill="#F7F8F0" opacity="1.000000" stroke="none" 
	d="
M38.743439,89.987862 
	C39.226662,90.176460 39.513607,90.559166 39.800556,90.941872 
	C39.430389,91.120285 39.060226,91.298698 38.690063,91.477119 
	C38.642429,91.045403 38.594795,90.613686 38.743439,89.987862 
z"/>
<path fill="#F7F8F0" opacity="1.000000" stroke="none" 
	d="
M40.681831,96.123413 
	C40.813034,96.038292 40.875145,96.498299 40.825203,96.724686 
	C40.435215,96.762817 40.360336,96.515305 40.681831,96.123413 
z"/>
<path fill="#366E9F" opacity="1.000000" stroke="none" 
	d="
M78.012451,72.595207 
	C73.973907,72.996246 69.950218,72.997078 65.463394,72.996361 
	C68.412148,68.418221 71.503265,63.549412 75.329056,59.349895 
	C78.923042,55.404839 83.500496,52.370045 87.248367,48.545807 
	C89.724884,46.018833 91.470093,42.782471 93.595779,39.902882 
	C98.452591,33.323559 103.267387,26.709930 108.304428,20.270739 
	C109.001808,19.379232 110.863274,19.398323 112.596802,18.989994 
	C113.011627,24.008223 113.015472,29.032322 113.016968,34.521786 
	C109.585770,36.942177 106.142326,38.872440 102.743057,40.877621 
	C102.202675,41.196388 101.538887,41.814590 101.475632,42.357658 
	C100.456253,51.110142 92.554916,54.696579 87.912323,60.722618 
	C86.697601,62.299313 86.654022,64.731812 85.627296,66.514862 
	C84.838974,67.883881 83.453812,68.989075 82.144966,69.955475 
	C80.899963,70.874733 79.409714,71.461838 78.012451,72.595207 
z"/>
<path fill="#4482B3" opacity="1.000000" stroke="none" 
	d="
M6.180902,92.080719 
	C6.667130,91.751671 7.078866,91.693077 7.490602,91.634483 
	C7.297881,92.165932 7.105160,92.697372 6.912439,93.228821 
	C6.643764,92.936272 6.375086,92.643715 6.180902,92.080719 
z"/>
<path fill="#4581B1" opacity="1.000000" stroke="none" 
	d="
M48.680080,32.041397 
	C49.101818,32.324020 49.289867,32.586376 49.783813,32.897011 
	C50.003265,33.007263 50.002525,33.502365 50.002789,33.749886 
	C49.252258,33.998009 48.501465,33.998615 47.375343,33.996777 
	C47.453323,33.357254 47.906635,32.720177 48.680080,32.041397 
z"/>
</svg>