<svg version="1.1" id="Layer_1" xmlns="http://www.w3.org/2000/svg" xmlns:xlink="http://www.w3.org/1999/xlink" x="0px" y="0px"
	 width="100%" viewBox="0 0 1024 1024" enable-background="new 0 0 1024 1024" xml:space="preserve">
<path fill="#000000" opacity="1.000000" stroke="none" 
	d="
M549.751953,238.509003 
	C553.751892,236.901535 556.374634,238.288284 557.950012,241.539474 
	C559.161255,244.039093 558.667419,246.571732 556.301514,248.216232 
	C553.247009,250.339417 550.272400,249.926834 547.910400,247.007523 
	C546.545105,245.320038 544.804810,245.313171 542.954834,245.313812 
	C525.289612,245.320023 507.624054,245.381104 489.959473,245.276337 
	C485.327148,245.248871 482.292725,247.973267 478.015167,251.169983 
	C483.648010,253.218689 487.467255,256.842072 491.801117,259.747681 
	C492.950134,260.518036 494.311432,260.487091 495.667297,260.459991 
	C502.661438,260.320312 509.657776,260.274628 516.650818,260.097198 
	C520.260376,260.005615 523.875916,260.720734 527.482117,259.245605 
	C529.261719,258.517700 531.483398,259.064636 532.940857,260.793549 
	C533.929932,261.966888 533.823853,263.260132 533.050110,264.503876 
	C531.966309,266.246033 530.122620,266.285614 528.577698,265.841492 
	C517.934021,262.781738 507.071503,264.779999 496.323303,264.392548 
	C492.303070,264.247589 488.915833,263.710419 485.961517,260.690796 
	C477.902252,252.453186 468.025299,255.598404 458.586365,256.815308 
	C455.191437,257.252991 451.914062,258.602325 448.348724,259.601227 
	C449.210693,261.523315 450.654663,261.393250 451.815369,261.751587 
	C457.559296,263.524780 462.306000,266.777313 466.029419,271.477936 
	C467.872986,273.805359 469.387482,276.269653 472.178131,277.855835 
	C474.636719,279.253296 474.939972,281.940094 473.404327,284.435760 
	C472.120361,286.522491 470.124451,287.290558 467.797058,286.429657 
	C465.103241,285.433228 463.456757,283.206116 464.592133,280.574066 
	C465.984467,277.346283 464.329742,275.542114 462.604828,273.524170 
	C451.548950,260.590088 432.746826,262.412109 424.992249,277.596710 
	C439.589600,282.180786 452.765839,288.941925 462.508759,302.557922 
	C458.984253,302.446014 457.843018,300.380981 456.322632,299.095795 
	C447.261627,291.436462 437.063263,286.117249 425.494934,283.291656 
	C421.525543,282.322052 419.132416,283.284119 416.681427,286.615601 
	C407.700745,298.822723 402.490021,312.542297 399.396301,327.207550 
	C399.196930,328.152496 399.422638,329.249207 397.702972,330.386719 
	C396.185455,325.774414 397.760376,321.563080 398.436096,317.493408 
	C399.196136,312.916107 400.515869,308.410278 401.876587,303.960388 
	C403.169373,299.732758 404.829559,295.617462 406.709442,290.393280 
	C396.965485,298.993744 394.518097,310.106354 390.744476,320.611481 
	C388.697327,313.512665 391.254364,307.299377 393.688324,301.041748 
	C396.200287,294.583649 400.608948,289.417511 405.441559,284.369690 
	C394.204102,280.223846 378.380859,283.613617 371.322296,291.328461 
	C367.919220,295.047974 365.945862,299.203156 366.199738,304.415802 
	C366.442719,309.404236 366.341949,314.413574 366.265625,319.411804 
	C366.224060,322.134369 366.583374,324.589783 368.167572,326.971130 
	C369.430878,328.870117 368.625397,330.864258 366.852905,332.252747 
	C365.209564,333.540192 363.430573,333.531036 361.808350,332.207886 
	C360.239227,330.928009 359.426331,329.146423 360.547241,327.342957 
	C364.816193,320.474670 361.932129,313.161652 362.634735,305.831482 
	C358.742584,305.468048 356.518250,307.667480 354.315704,309.490997 
	C348.612152,314.213013 344.049683,319.984863 340.409424,326.388580 
	C338.171326,330.325714 338.100189,334.742401 339.997406,338.881439 
	C341.140289,341.374695 341.198792,343.314240 338.939453,345.033875 
	C337.391388,346.212158 335.744049,346.123230 334.344421,344.933197 
	C332.232391,343.137390 332.323242,340.945221 333.549866,338.615387 
	C334.081116,337.606354 334.662659,336.492767 334.737000,335.393890 
	C335.852570,318.900787 346.205231,309.228973 359.523773,301.781311 
	C360.874847,301.025787 362.249451,300.491791 362.664459,298.864319 
	C363.661224,294.955719 365.615967,291.506042 368.660706,287.512085 
	C361.022949,288.837494 355.282928,291.929443 349.737061,295.452301 
	C348.305786,296.361481 348.125519,297.990784 348.312195,299.496613 
	C348.820679,303.597900 346.881470,306.442963 343.986176,309.025055 
	C337.711914,314.620667 333.134644,321.622681 328.251190,328.368286 
	C326.615051,330.628235 325.901581,333.117493 325.909363,335.857727 
	C325.933960,344.509003 326.046661,353.161163 325.956787,361.811188 
	C325.915985,365.737335 328.039429,368.525848 330.598785,370.864563 
	C335.753265,375.574738 338.313049,381.069366 337.291412,388.107391 
	C336.845612,391.178314 338.273621,393.513275 340.446808,395.601807 
	C351.408661,406.136536 363.040161,415.810272 376.020935,423.798584 
	C380.781616,426.728241 385.928619,428.411224 391.421875,429.342072 
	C394.988861,429.946533 396.706818,429.127502 396.827087,425.160889 
	C397.060852,417.450500 397.073547,417.089478 389.422455,417.377838 
	C384.789429,417.552429 381.062958,416.405609 377.657928,413.204010 
	C371.834473,407.728577 365.718964,402.565063 359.801025,397.188110 
	C358.028687,395.577759 356.434937,394.435547 353.715637,394.570221 
	C349.891296,394.759552 347.944946,392.041138 347.947876,388.458191 
	C347.950500,385.269684 349.852417,383.011169 353.193634,382.889313 
	C356.575409,382.765991 359.128265,384.414429 359.370819,388.027191 
	C359.544769,390.617859 360.713470,392.313873 362.519318,393.941528 
	C368.334900,399.183380 374.212891,404.368988 379.792603,409.855164 
	C383.861420,413.855743 388.737640,413.772736 393.767792,413.615997 
	C395.539429,413.560760 396.763123,412.611389 396.641327,410.858490 
	C396.423889,407.730133 398.606720,403.487427 394.746490,401.760742 
	C378.918732,394.680939 367.010315,382.943207 355.944672,370.124207 
	C354.389252,368.322327 352.603760,368.429657 350.543518,368.467773 
	C344.780457,368.574524 341.399292,365.086182 341.618591,359.526276 
	C341.813843,354.575806 345.097504,351.506012 350.027924,351.664673 
	C355.297668,351.834229 359.248291,355.961487 358.183838,361.345490 
	C357.445862,365.078064 358.753967,367.187561 360.965179,369.665863 
	C368.061768,377.619843 375.274902,385.405701 384.895538,391.547485 
	C385.852295,387.181000 386.551483,383.436676 384.380219,379.726593 
	C383.239441,377.777283 383.135071,375.874908 385.072815,374.393463 
	C386.371429,373.400604 387.951233,373.384247 389.285553,374.317596 
	C391.238647,375.683685 391.354523,377.483490 390.325378,379.588531 
	C388.317596,383.695251 389.301971,388.098602 389.414612,392.368042 
	C389.496887,395.487305 392.471924,396.343475 394.714172,396.949341 
	C400.343353,398.470306 401.657135,401.978027 401.291840,407.390472 
	C400.835693,414.149963 401.182251,420.963623 401.182251,427.143646 
	C403.423920,429.349945 405.343536,427.270050 407.857574,428.590576 
	C407.331757,445.990417 404.894043,463.711304 405.042908,481.729034 
	C408.063416,482.004242 408.824615,480.274933 408.825317,477.854279 
	C408.830505,459.522705 408.813629,441.191162 408.830597,422.859589 
	C408.832092,421.266937 407.970856,420.028809 407.441864,418.641327 
	C406.761444,416.856598 407.409790,415.324890 408.842834,414.228668 
	C410.149200,413.229279 411.686859,413.292725 413.096893,414.048157 
	C414.753601,414.935730 415.773865,416.652344 415.000061,418.225525 
	C411.229797,425.890533 413.482971,433.968323 413.199646,441.834167 
	C412.833893,451.986847 413.091156,462.162720 413.130035,472.328461 
	C413.136932,474.128784 412.805695,475.997131 413.697601,477.697998 
	C421.120392,478.223999 422.739227,476.830902 422.736450,469.870728 
	C422.729156,451.705383 422.668213,433.539978 422.721924,415.374847 
	C422.730286,412.543304 422.197937,410.475433 419.671844,408.583496 
	C415.614319,405.544647 415.364166,399.092163 418.641693,395.697266 
	C421.659088,392.571808 427.300079,392.605499 430.362335,395.767273 
	C434.144562,399.672394 433.902222,405.532715 429.352142,408.857452 
	C426.975494,410.594025 426.334076,412.489960 426.343170,415.167877 
	C426.404816,433.332825 426.358276,451.498169 426.425842,469.663086 
	C426.433777,471.794373 425.610992,474.603973 429.464478,474.684357 
	C434.851624,474.796753 437.859253,473.157471 437.699890,469.316833 
	C437.406921,462.256897 439.433472,455.023529 436.157074,448.143280 
	C435.444122,446.646088 436.371155,445.192444 437.682007,444.253387 
	C439.012512,443.300262 440.543915,443.254456 441.934875,444.052216 
	C443.522858,444.962952 444.600006,446.650330 443.794434,448.254242 
	C440.433929,454.945282 442.722473,462.062683 441.891235,468.922333 
	C441.550568,471.733765 442.607697,473.043121 445.487122,472.734406 
	C445.816742,472.699097 446.153290,472.724152 446.486542,472.728455 
	C454.791718,472.835602 454.839355,472.835785 454.839874,464.666870 
	C454.841888,432.669373 454.787659,400.671814 454.828094,368.674377 
	C454.832275,365.369781 454.345581,362.723541 451.569977,360.308228 
	C447.719147,356.957214 447.914917,351.688538 451.341919,348.366425 
	C454.491730,345.313019 459.934113,345.493958 463.056946,348.755890 
	C466.304291,352.147949 466.107086,357.217560 462.083740,360.626068 
	C459.766022,362.589600 459.091217,364.665863 459.098724,367.525299 
	C459.186310,400.855835 459.178406,434.186615 459.215485,467.517334 
	C459.220673,472.189148 466.127014,476.437195 470.364319,474.453979 
	C471.925568,473.723297 471.772461,472.312744 471.778992,471.021576 
	C471.848206,457.357422 471.860077,443.692932 471.950928,430.028931 
	C471.965881,427.778717 470.811981,426.451599 469.250580,425.019318 
	C465.363190,421.453461 465.119934,416.298218 468.434906,413.093414 
	C471.442413,410.185852 476.748016,410.340149 479.721436,413.421631 
	C482.894318,416.709839 482.674500,421.247864 478.704803,424.849213 
	C476.742584,426.629395 476.081543,428.500031 476.132202,430.963348 
	C476.207550,434.628082 476.008453,438.302277 476.188416,441.959534 
	C476.295685,444.138916 474.983063,447.217224 477.730377,448.226685 
	C480.634369,449.293732 484.393463,449.812775 486.844208,447.623566 
	C492.795837,442.306946 498.315521,436.503296 503.942566,430.829742 
	C505.091248,429.671631 504.508453,427.955048 504.786896,426.508179 
	C505.498505,422.810333 507.988281,420.892822 511.528107,421.234619 
	C515.280945,421.596954 517.648926,423.936646 517.263245,428.021729 
	C516.914246,431.718262 514.547607,434.210358 510.991821,433.665192 
	C507.684906,433.158173 506.021240,434.707428 504.130432,436.585022 
	C501.292664,439.403015 498.288055,442.074951 495.658264,445.075378 
	C491.445221,449.882233 487.065979,453.762238 479.908661,452.433289 
	C476.757721,451.848297 476.127777,454.333099 476.140045,456.957672 
	C476.168884,463.123749 476.035950,469.292664 476.184082,475.455261 
	C476.282043,479.530243 474.904999,480.655945 470.770660,479.718231 
	C449.554840,474.906250 429.101044,477.669800 409.412384,486.628967 
	C407.501801,487.498444 404.741577,487.773743 404.465057,491.771606 
	C410.938812,489.665222 417.235260,488.689026 422.807098,485.506744 
	C424.460266,484.562531 425.753296,483.131317 427.588013,484.844788 
	C428.603210,485.792816 429.228973,486.966949 428.622620,488.429840 
	C427.781311,490.459625 426.289124,490.656281 424.188995,490.624664 
	C416.684814,490.511658 410.358734,493.987396 403.772797,497.301544 
	C405.275177,499.519501 406.503448,498.424622 407.613190,497.978271 
	C416.617249,494.356537 425.902161,491.836609 435.534607,490.559509 
	C437.822662,490.256134 440.219208,489.878296 442.265930,488.904388 
	C444.227295,487.971069 445.857178,486.209747 448.104858,487.940704 
	C450.492645,489.779510 449.516174,492.048462 448.270782,495.002502 
	C456.305389,493.808350 464.096741,496.514709 471.543762,492.897614 
	C473.184357,492.100739 474.789368,492.411926 476.073181,493.850464 
	C478.123383,496.147766 476.056976,498.132904 474.972046,500.800568 
	C487.225220,500.434967 498.819092,501.119141 510.417389,501.703278 
	C511.772736,501.771545 513.024902,501.598877 513.865967,500.223969 
	C515.703186,497.220703 514.466858,488.291626 511.807648,485.921265 
	C507.953705,482.486053 507.324158,476.852448 510.421814,473.519775 
	C513.325073,470.396210 518.569397,470.407745 521.607971,473.544342 
	C524.847473,476.888336 524.522217,481.928375 520.831360,485.579285 
	C518.566284,487.819855 516.801331,499.198730 518.698181,501.455475 
	C520.548889,503.657257 523.556213,503.551270 526.122620,503.552307 
	C530.518738,503.554077 531.569397,505.006561 530.298218,509.324768 
	C527.816406,517.755676 528.035400,517.859924 519.444397,517.334290 
	C516.128540,517.131348 512.826477,516.704346 509.517792,516.382935 
	C506.638824,516.103333 505.180969,517.178284 505.239502,520.305786 
	C505.364288,526.969604 505.350739,533.637817 505.277069,540.302917 
	C505.243561,543.333435 506.774414,544.623596 509.563385,544.485535 
	C512.223755,544.353821 515.280396,544.311768 515.513550,540.626831 
	C515.720642,537.352051 516.349121,533.967712 514.538635,530.849243 
	C513.506287,529.071106 513.482666,527.324097 515.181763,525.911316 
	C516.458130,524.850037 517.878479,524.631165 519.295288,525.704041 
	C521.193542,527.141602 521.389465,528.891174 520.414368,531.006531 
	C519.870300,532.186890 519.453064,533.502625 519.335022,534.790039 
	C518.452209,544.421814 518.673462,544.636230 528.274414,544.619141 
	C532.546204,544.611511 532.546204,544.611511 534.732422,546.814941 
	C533.484985,549.129456 531.245300,548.287781 529.434143,548.297180 
	C515.435669,548.369873 501.436584,548.325989 487.437683,548.338867 
	C485.087769,548.341064 482.691162,548.133362 482.354492,551.594482 
	C481.964600,555.602234 484.388824,555.835876 487.329163,555.872437 
	C503.156616,556.069275 518.994751,556.346191 534.747986,554.511963 
	C538.112061,554.120239 539.944092,555.167419 541.792969,557.748230 
	C544.073975,560.932312 546.846863,563.764038 549.812561,567.220459 
	C543.177002,569.833923 536.651428,569.489685 530.371826,570.121765 
	C513.774536,571.792542 497.072510,571.948059 480.445251,571.139893 
	C455.658020,569.935181 430.920258,567.853455 407.514587,558.454346 
	C401.439697,556.014771 395.748352,552.971436 391.150208,548.152344 
	C386.952454,543.752930 385.519257,538.491455 385.906189,532.560791 
	C387.195099,512.804504 388.449371,493.045990 389.729309,473.289124 
	C390.181000,466.316742 390.531677,459.334015 391.178802,452.379303 
	C391.792755,445.781250 391.475464,445.284119 384.695587,445.245178 
	C349.681396,445.044006 318.494446,424.033295 305.381683,391.811218 
	C285.609619,343.225067 312.038696,288.710632 363.145569,272.876465 
	C377.930084,268.295807 393.118683,266.689484 408.533203,268.243286 
	C411.820801,268.574677 413.313934,267.130188 415.036896,264.868896 
	C430.225342,244.934189 448.872437,228.984375 472.878632,221.333633 
	C520.504211,206.155441 563.611816,214.063507 600.257996,249.590775 
	C604.694397,253.891724 608.472839,258.828949 611.676514,264.095947 
	C613.809326,267.602478 616.347046,267.992767 620.071655,267.275757 
	C648.250305,261.850983 674.269714,266.662781 696.439941,285.546967 
	C740.616272,323.175568 735.018921,392.999573 683.566162,419.247742 
	C670.577454,425.873840 656.668213,429.060547 642.042725,428.150391 
	C637.049622,427.839661 635.512024,429.565460 635.096008,434.521362 
	C633.802490,449.934204 631.712708,465.279205 631.170349,480.760376 
	C631.143188,481.535553 630.817566,482.300262 630.339722,484.270508 
	C625.332031,480.014801 620.716187,476.396393 616.502075,472.358704 
	C614.852722,470.778381 616.070496,468.234924 616.283752,466.102478 
	C616.563843,463.301788 617.987793,460.091492 613.556580,458.863312 
	C612.268311,458.506226 612.159912,456.876862 612.268677,455.407043 
	C613.179138,443.096863 612.456726,430.766174 612.646179,418.445618 
	C612.685181,415.909332 612.212402,413.790588 609.228149,413.132904 
	C607.305542,414.693359 608.068909,416.842346 608.063171,418.697693 
	C608.023804,431.362518 608.134155,444.027802 608.091309,456.692627 
	C608.084473,458.706512 608.858887,461.123474 606.187500,462.600555 
	C603.263855,461.519409 603.982727,458.871948 603.966675,456.750305 
	C603.859436,442.585785 603.751709,428.419281 603.906128,414.256256 
	C603.944153,410.774353 602.783875,408.748901 599.749817,407.141266 
	C578.480042,395.871002 556.080383,390.288086 531.905579,393.172791 
	C530.297119,393.364777 528.617493,393.766693 526.536316,392.842957 
	C529.249817,390.140991 532.724487,390.426636 535.704224,389.912445 
	C549.058350,387.608124 562.347595,387.828308 575.924805,389.241699 
	C590.061890,390.713348 603.251648,386.029785 614.040955,376.165680 
	C617.169006,373.305847 617.730469,367.300018 615.614502,363.191071 
	C615.158508,362.305603 614.453064,361.522003 614.133911,360.597748 
	C613.218628,357.947388 613.749756,355.566498 616.202820,354.042084 
	C618.452698,352.643982 620.764404,353.038330 622.599182,354.890564 
	C624.606262,356.916748 625.122192,359.607941 623.128601,361.631958 
	C620.620544,364.178284 619.936829,367.002502 620.315002,370.252533 
	C620.787842,374.315460 619.043030,377.186584 616.131897,379.835205 
	C608.538513,386.743988 599.438721,390.464508 589.425537,392.733124 
	C603.634888,402.144257 618.570557,395.460724 628.883179,387.042816 
	C633.135925,383.571381 637.688293,380.201935 637.138062,373.252563 
	C636.809448,369.102264 640.824646,366.426453 645.010254,366.675995 
	C649.008728,366.914429 651.559265,368.991150 652.233887,372.989532 
	C652.907776,376.982635 650.336670,381.798309 646.418884,381.425049 
	C637.763855,380.600433 635.614990,388.339142 629.659607,391.738708 
	C644.135193,394.936554 658.303101,389.025482 664.540527,377.590088 
	C666.149902,374.639557 667.549255,371.766937 665.449707,368.237335 
	C663.970520,365.750610 665.053040,363.339996 667.497131,361.826660 
	C669.639709,360.499969 671.744995,360.900116 673.326172,362.797302 
	C675.333374,365.205536 675.284363,367.716095 672.888672,369.871918 
	C671.465454,371.152557 670.698853,372.643585 670.121094,374.465759 
	C666.163330,386.948822 655.548096,395.303131 642.390503,396.215576 
	C637.919312,396.525635 633.372253,396.782990 628.936707,396.323120 
	C622.156311,395.620117 616.909851,399.726349 609.460876,401.436035 
	C618.966858,407.051392 627.573853,411.558228 637.806396,411.780579 
	C640.328369,411.835388 641.245117,409.703461 641.480286,407.725037 
	C641.863464,404.501770 643.680786,403.878723 646.540039,403.543243 
	C653.976990,402.670715 661.363342,401.412781 668.293884,398.315094 
	C674.903076,395.361084 676.364136,392.431671 674.231079,385.346405 
	C673.616882,383.306274 672.867737,381.495148 674.937500,379.992432 
	C676.286377,379.013153 677.850159,378.980225 679.118958,380.053558 
	C681.280884,381.882568 680.437317,383.842194 679.145142,385.806183 
	C677.975037,387.584595 677.997986,389.511627 678.901855,392.074615 
	C690.825806,382.914459 698.047729,371.545074 698.462158,356.572937 
	C698.584167,352.166260 700.290894,349.566254 703.793640,347.278412 
	C710.195312,343.097137 710.363525,342.084412 708.817383,334.400299 
	C707.537476,328.039917 705.499573,322.003815 702.018494,316.425995 
	C702.706299,321.534302 703.784302,326.521667 700.463745,331.231415 
	C699.147644,333.098114 700.146851,335.402100 700.675293,337.516968 
	C701.343506,340.191315 700.745605,342.626648 698.133850,343.897247 
	C696.235779,344.820648 694.440735,343.998169 693.496155,342.141235 
	C692.279358,339.749115 692.024780,337.050171 694.300232,335.278046 
	C700.937988,330.108582 700.572449,323.560699 697.892273,316.861786 
	C694.336426,307.974182 687.366150,302.708862 677.184998,299.296387 
	C678.661316,308.351196 675.018066,316.766724 679.453369,324.813904 
	C680.581604,326.860931 680.056641,328.751862 678.344604,330.188538 
	C676.609070,331.644897 674.633728,331.694122 672.850037,330.262787 
	C671.112366,328.868317 670.210144,326.829620 671.689148,325.004089 
	C674.058105,322.080078 673.727173,318.802551 673.736511,315.504456 
	C673.750732,310.504944 673.624329,305.502838 673.745605,300.506348 
	C673.887024,294.680878 671.574280,290.012787 666.912476,286.799194 
	C659.582520,281.746338 651.222656,280.758728 642.348511,281.466431 
	C651.578735,285.894226 655.284790,295.781342 663.185425,301.320190 
	C665.301025,302.803345 665.769287,305.157440 664.476807,307.571198 
	C663.318848,309.733521 661.432556,310.730194 659.056885,310.137848 
	C656.251343,309.438324 654.434814,307.146881 655.204712,304.586151 
	C656.396606,300.621704 654.496277,298.140442 652.289062,295.653015 
	C643.429321,285.668732 632.900452,280.083435 619.070374,283.201752 
	C615.543152,283.997040 613.943115,285.379181 614.888611,289.414093 
	C616.763550,297.415222 616.523071,305.617920 616.214050,313.780609 
	C616.140076,315.735168 616.255188,317.803619 614.467834,319.579620 
	C612.062622,317.453217 613.135193,314.596008 612.932312,312.212402 
	C610.341553,281.766388 576.499329,261.223969 548.713806,273.780090 
	C531.954834,281.353394 522.769226,295.310638 525.080017,315.782043 
	C525.316467,317.876984 526.584106,318.950104 527.867737,320.262329 
	C529.777100,322.214081 529.790649,324.459747 528.108887,326.568115 
	C526.248352,328.900635 523.722107,329.019318 521.358337,327.711853 
	C519.080139,326.451752 517.993652,324.089813 519.415344,321.751404 
	C521.330078,318.602020 520.992126,315.307922 520.750793,312.041504 
	C518.581482,282.677795 547.832825,259.593811 577.822571,267.299957 
	C585.597473,269.297821 592.334778,273.009369 598.568542,277.875458 
	C599.593262,278.675354 600.688477,279.384949 602.999023,281.018707 
	C600.525635,274.179657 597.178772,269.518982 593.546387,265.153442 
	C575.170593,243.068802 551.646912,231.215118 522.832520,230.440582 
	C514.372559,230.213165 508.978363,233.919846 507.316467,240.125031 
	C508.618652,241.572601 510.412262,241.048340 511.972443,241.056030 
	C521.970947,241.105270 531.970093,241.002884 541.968750,241.036392 
	C544.734436,241.045685 547.255066,240.564392 549.751953,238.509003 
M462.855194,526.648743 
	C462.083313,530.203613 463.754242,532.654907 466.399994,534.744751 
	C470.172302,537.724426 472.873108,542.184265 478.123871,543.782532 
	C479.357269,540.185791 474.053375,533.743469 481.348724,534.390320 
	C487.813873,534.963562 482.404449,540.460449 483.018951,543.549133 
	C496.866180,548.535950 503.207123,544.031311 501.432648,530.638550 
	C501.367035,530.143433 501.331818,529.643982 501.253876,529.151001 
	C501.113220,528.261841 500.640472,527.358093 499.766602,527.382202 
	C493.588562,527.552612 490.938934,522.589966 487.575867,518.880615 
	C485.226715,516.289612 482.712952,515.115540 479.271606,515.375916 
	C469.318665,516.128967 459.347504,516.655457 449.402954,517.499817 
	C443.923889,517.965088 441.871582,521.540710 443.984039,526.948364 
	C444.960144,529.447083 446.874084,531.675964 444.164734,534.097412 
	C442.917389,535.212219 441.409790,535.269104 440.009613,534.303528 
	C436.659851,531.993469 438.887909,529.482788 439.526398,526.806396 
	C440.094940,524.423157 441.244751,521.189941 438.182434,519.650574 
	C434.806122,517.953430 429.306091,521.650452 429.247162,525.411194 
	C429.142761,532.075073 429.322021,538.744995 429.130707,545.405151 
	C429.039978,548.564087 430.474335,549.981628 433.322845,550.493591 
	C438.886902,551.493774 444.441071,552.551575 450.014740,553.494324 
	C451.845093,553.803955 453.679016,553.669922 455.073212,552.197205 
	C455.132568,551.818298 455.290405,551.469482 455.216034,551.180359 
	C454.660492,549.020447 454.144501,546.856384 456.428619,545.331970 
	C457.658966,544.510925 458.984772,544.624084 460.153198,545.518372 
	C462.349243,547.199280 461.953064,549.139099 460.772614,551.265381 
	C459.861084,552.907227 460.312836,554.359680 462.298920,554.571350 
	C466.764496,555.047180 471.251495,555.335449 475.734558,555.626343 
	C477.180908,555.720215 478.486664,555.213196 478.626129,553.545471 
	C478.772583,551.794250 479.561035,549.426880 477.433014,548.625000 
	C471.517761,546.396240 467.993744,541.357849 463.604156,537.368652 
	C461.382080,535.349243 459.419464,533.909424 456.154694,534.527649 
	C453.234924,535.080566 451.061768,533.422241 449.741821,530.772949 
	C448.377319,528.034302 449.086365,525.526001 450.865692,523.327942 
	C454.380341,518.986328 459.615112,520.184143 462.855194,526.648743 
M333.575897,383.117920 
	C333.793854,380.503296 332.298645,378.756561 330.575409,377.096680 
	C324.978485,371.705658 321.102539,365.642029 321.778625,357.339203 
	C322.143188,352.862244 318.631775,351.837158 315.100708,350.952515 
	C308.883850,389.513885 340.288300,425.636414 374.484009,428.315582 
	C369.775757,424.984955 365.294525,421.859070 360.866119,418.660034 
	C359.156433,417.424988 357.866302,417.585846 355.955902,418.683167 
	C351.843781,421.045197 347.034912,418.165009 348.079254,413.654266 
	C349.133301,409.101746 346.704651,407.189972 344.097748,404.920746 
	C337.719482,399.368561 331.505951,393.766815 333.575897,383.117920 
M662.029419,404.739777 
	C657.961365,405.545959 653.908264,406.441650 649.819275,407.122009 
	C647.647217,407.483459 645.043640,407.359955 645.409790,410.486115 
	C645.799438,413.812500 648.731750,412.672455 650.615479,412.595306 
	C676.366028,411.540680 700.682800,392.821930 708.214233,368.132721 
	C710.172668,361.712494 711.664734,355.110413 710.267029,347.577454 
	C706.729736,350.484497 702.160645,351.427765 702.215027,356.740082 
	C702.457642,380.419586 681.444214,399.946533 662.029419,404.739777 
M452.531006,249.030334 
	C449.753601,251.129166 446.940521,253.189453 444.311676,256.314392 
	C452.468689,253.431259 460.200867,251.626648 468.275085,251.618195 
	C470.175751,251.616196 472.010834,251.202118 473.305695,249.800461 
	C480.039215,242.511276 488.371429,239.927200 498.077179,241.019424 
	C499.680847,241.199890 501.813782,241.346344 502.424652,239.431076 
	C503.549347,235.904968 505.817963,233.084641 508.519257,229.364883 
	C487.439636,230.393509 469.445312,237.090332 452.531006,249.030334 
M467.177490,500.869659 
	C468.440125,500.515839 470.265564,501.535767 470.911469,499.239380 
	C469.437927,497.690735 467.522644,498.227051 465.776917,498.161743 
	C458.937439,497.905792 452.150787,498.652100 445.363525,499.321960 
	C432.239044,500.617340 419.312134,502.849243 407.020905,507.858185 
	C404.913971,508.716827 402.143433,509.289459 402.648438,513.003784 
	C408.680237,511.165619 414.342010,509.341492 420.060425,507.716644 
	C435.184631,503.419281 450.751740,502.056854 467.177490,500.869659 
M419.828430,523.494629 
	C413.352081,525.767517 410.654205,532.674133 413.475464,542.354309 
	C414.920197,547.311340 420.227142,546.256592 424.887970,547.953613 
	C424.887970,539.692566 424.953888,532.443909 424.859283,525.197327 
	C424.814087,521.737488 422.430969,522.965820 419.828430,523.494629 
M321.824310,333.949615 
	C321.982788,331.037018 323.153290,328.531555 324.743744,326.125641 
	C329.613373,318.759277 335.011200,311.831543 341.265839,305.580261 
	C342.660309,304.186523 344.578430,302.880676 343.192169,299.838226 
	C329.146057,310.894867 320.313080,324.597015 316.212921,341.549347 
	C314.985962,346.622284 317.281433,347.582947 321.422302,348.023926 
	C322.265747,343.460236 321.809753,339.148804 321.824310,333.949615 
M616.255066,450.722809 
	C616.255066,451.728729 616.255066,452.734680 616.255066,453.740601 
	C618.343811,443.271210 619.601074,432.795349 620.785461,422.311249 
	C621.100403,419.523682 619.863342,417.983032 616.263550,417.983643 
	C616.263550,428.777527 616.263550,439.343353 616.255066,450.722809 
M429.558502,497.768341 
	C434.310333,496.870880 439.230042,496.711761 443.593231,494.145599 
	C429.949768,494.700012 416.824524,497.406982 404.635864,503.972748 
	C412.627380,501.830811 420.538086,499.362061 429.558502,497.768341 
M404.717896,539.675842 
	C405.987549,540.334839 406.948853,541.752625 408.939972,541.257141 
	C409.508789,537.117188 410.248352,532.949768 408.973236,528.683838 
	C401.390045,531.205261 399.878784,534.720215 404.717896,539.675842 
M496.380524,522.461609 
	C498.168091,523.092957 500.044495,523.513428 501.119995,521.473328 
	C501.898712,519.996094 502.191589,517.812012 500.590179,517.020752 
	C497.859711,515.671692 494.794067,515.316833 491.820953,516.909790 
	C492.369354,519.463440 494.278412,520.593628 496.380524,522.461609 
M681.967346,293.541229 
	C680.298767,292.661804 679.073608,290.753723 676.208801,291.344482 
	C677.731934,297.133514 683.365295,295.847321 686.590210,298.226227 
	C685.900696,296.008362 683.939026,295.270294 681.967346,293.541229 
z"/>
<path fill="#000000" opacity="1.000000" stroke="none" 
	d="
M438.785583,678.003052 
	C438.776215,673.338196 438.873047,669.169189 438.736053,665.007874 
	C438.505157,657.993225 433.450378,653.555847 425.743896,653.432983 
	C417.973663,653.309082 413.089874,657.492920 412.979340,664.938538 
	C412.801270,676.932678 412.972992,688.931641 412.945374,700.928467 
	C412.928192,708.390625 411.998566,709.287476 404.657623,709.303894 
	C403.158020,709.307251 401.653259,709.213379 400.159729,709.306396 
	C395.785431,709.578735 394.186646,707.270935 394.237213,703.221863 
	C394.390991,690.906494 394.876221,678.580811 394.548584,666.277283 
	C394.004822,645.858032 407.266602,638.363281 422.233276,636.829529 
	C430.847839,635.946716 439.247162,637.205139 446.571747,642.322205 
	C448.711151,643.816711 450.129547,643.076172 451.919708,641.889587 
	C459.860535,636.626099 468.768677,635.595642 477.834015,637.136902 
	C493.836884,639.857849 501.341064,648.942505 501.991150,666.479187 
	C502.447632,678.793945 502.137726,691.136536 502.210907,703.466492 
	C502.233948,707.352112 500.571777,709.157593 496.514496,709.299866 
	C483.957794,709.740417 483.701294,709.587463 483.693176,696.954773 
	C483.686768,686.957214 483.783722,676.958069 483.641174,666.962463 
	C483.482635,655.845703 472.924530,649.787048 463.183167,655.164490 
	C458.995270,657.476318 457.271942,661.195007 457.303558,665.956116 
	C457.384247,678.119263 457.356781,690.283447 457.325165,702.447083 
	C457.310303,708.165710 456.312103,709.137756 450.679230,709.267090 
	C438.905090,709.537537 438.760834,709.392090 438.777618,697.497925 
	C438.786591,691.166016 438.783997,684.834167 438.785583,678.003052 
z"/>
<path fill="#000000" opacity="1.000000" stroke="none" 
	d="
M353.047729,710.331299 
	C338.028809,712.562012 324.806000,709.255249 313.168610,700.215454 
	C305.472656,694.237305 306.668976,687.095703 315.768127,683.142578 
	C318.819702,681.816895 320.878784,683.614075 322.897522,685.362244 
	C330.347595,691.813477 338.977966,694.553528 348.764404,693.744629 
	C349.921387,693.648987 351.093567,693.546448 352.217834,693.276733 
	C358.289612,691.820251 362.135559,688.227356 362.516541,683.736572 
	C362.890106,679.333313 359.671021,675.278625 353.368408,673.286255 
	C346.079987,670.982239 338.588837,669.327209 331.262421,667.134216 
	C315.862335,662.524597 310.429657,655.451538 310.639435,640.687256 
	C310.828522,627.381653 318.323364,617.881836 332.220276,614.328979 
	C346.681732,610.631836 360.299469,613.234253 372.758087,621.409973 
	C375.156738,622.984070 378.558594,624.847046 377.286346,628.356445 
	C375.711151,632.701477 373.248657,636.873840 368.670105,638.862000 
	C366.535431,639.788940 364.928589,637.918213 363.374695,636.741882 
	C356.544891,631.571472 348.881195,629.449036 340.385193,630.311401 
	C336.615143,630.694153 333.224304,631.965942 330.849884,635.096680 
	C327.387817,639.661438 328.766205,645.854553 333.914581,648.733032 
	C338.782410,651.454590 344.270264,652.312256 349.587463,653.628113 
	C355.252289,655.029968 360.870239,656.545410 366.175293,659.017761 
	C376.163208,663.672485 380.942139,671.912170 380.945465,682.558899 
	C380.948639,692.740112 376.580353,700.871582 367.148315,705.739380 
	C362.821045,707.972656 358.302979,709.574402 353.047729,710.331299 
z"/>
<path fill="#000000" opacity="1.000000" stroke="none" 
	d="
M613.033325,554.073120 
	C623.662842,546.516235 629.925781,536.854126 630.841431,523.926270 
	C631.736145,511.294067 627.265686,500.565979 619.140137,491.055298 
	C630.392029,486.408234 640.758240,490.928253 644.445557,501.560333 
	C657.881165,540.300720 629.412354,579.478516 588.666138,578.322021 
	C548.601135,577.184875 521.765930,534.149841 538.326050,497.704041 
	C540.817993,492.219788 544.651611,489.271973 550.758423,489.644867 
	C554.178040,489.853729 557.710022,489.043091 561.588562,490.768677 
	C546.192200,512.958374 545.018005,534.171448 566.827820,552.696289 
	C579.282898,563.275391 596.659607,563.385315 613.033325,554.073120 
z"/>
<path fill="#000000" opacity="1.000000" stroke="none" 
	d="
M546.163574,653.134399 
	C540.788208,653.318604 536.147583,654.600952 531.901733,657.035889 
	C529.292847,658.532043 527.371399,657.904541 525.995728,655.577148 
	C524.649170,653.299011 523.623962,650.829041 522.489624,648.428162 
	C521.343201,646.001709 522.381287,644.367615 524.361206,642.908264 
	C535.300720,634.845520 559.402893,634.488281 570.608337,642.276184 
	C578.496338,647.758545 582.037048,655.607239 582.252014,664.911194 
	C582.528992,676.901245 582.394714,688.901245 582.401367,700.896912 
	C582.403137,704.031555 582.973633,707.818054 578.978088,708.837524 
	C575.135376,709.817993 570.969299,710.205872 567.914429,706.514771 
	C567.491638,706.003845 567.210388,705.375793 566.758606,704.628357 
	C555.484436,711.872742 543.861328,712.664551 531.798340,709.174988 
	C522.455383,706.472351 516.113342,698.702881 515.695007,689.697876 
	C515.185730,678.734009 519.781433,671.476440 529.715210,667.341736 
	C538.358215,663.744141 547.310974,664.289124 556.287231,665.241577 
	C558.705200,665.498169 561.081177,666.150452 563.504639,666.626648 
	C564.248169,659.244263 560.649475,654.505127 553.598999,653.426453 
	C551.309875,653.076233 548.947632,653.203674 546.163574,653.134399 
M562.354614,690.651550 
	C564.082031,688.409058 564.067993,685.671143 564.471069,683.063843 
	C564.690308,681.646118 564.357849,680.144165 562.845825,679.796753 
	C554.865723,677.962769 546.807251,676.554504 538.881287,679.853821 
	C535.250671,681.365112 533.883301,684.489502 534.153503,688.390930 
	C534.427429,692.346069 536.978577,694.375916 540.359253,695.320129 
	C548.146667,697.494995 555.505554,696.838562 562.354614,690.651550 
z"/>
<path fill="#000000" opacity="1.000000" stroke="none" 
	d="
M566.144836,492.103210 
	C578.268799,481.975250 591.557312,479.612152 605.526978,486.041565 
	C619.746460,492.585968 627.102112,504.491333 627.876099,520.076172 
	C628.804626,538.770752 611.932678,556.286316 593.478760,557.468628 
	C570.444702,558.944397 554.380554,540.397034 553.609863,522.679871 
	C553.086609,510.649048 556.835022,500.450348 566.144836,492.103210 
M617.254883,529.949707 
	C621.197266,525.848083 621.642761,517.994385 618.005310,511.976166 
	C615.620056,515.327148 613.351501,518.541260 611.053833,521.734436 
	C608.802917,524.862732 606.522400,527.969727 603.940735,531.517761 
	C608.745300,531.910400 612.615540,530.971619 617.254883,529.949707 
M605.394836,494.840424 
	C603.192078,494.579041 603.956543,496.111084 604.123596,497.094727 
	C605.298462,504.012909 606.530701,510.921356 607.804871,518.176086 
	C618.106873,506.169098 619.069946,505.948395 607.632324,496.154083 
	C607.136414,495.729431 606.518005,495.447815 605.394836,494.840424 
M608.563354,535.353455 
	C603.225037,536.738342 597.436218,535.409363 591.917358,537.639587 
	C602.055298,548.382568 610.058228,547.616821 614.641907,535.844421 
	C613.013977,534.541138 611.144165,535.529724 608.563354,535.353455 
M564.146851,510.522461 
	C560.719360,514.076050 560.068115,520.824341 562.860840,526.919739 
	C567.719849,520.894104 572.411987,515.075378 577.599182,508.642792 
	C572.552856,508.347107 568.784424,509.685242 564.146851,510.522461 
M577.186829,494.557983 
	C571.104187,495.586304 568.661926,500.401917 564.850891,505.794189 
	C573.608887,504.773590 580.995361,503.912811 588.381836,503.052032 
	C588.434631,502.668884 588.487427,502.285736 588.540161,501.902618 
	C584.968872,499.546143 581.397644,497.189697 577.186829,494.557983 
M584.158936,493.663757 
	C589.612183,497.567383 595.065430,501.471008 601.462952,506.050537 
	C600.733887,501.748810 600.014282,498.694519 599.749207,495.601257 
	C599.487854,492.551514 597.885498,491.016022 595.084534,490.771606 
	C590.994507,490.414734 586.684570,488.960815 583.144958,492.484741 
	C583.102722,492.526794 583.486938,492.997040 584.158936,493.663757 
M569.881409,524.509644 
	C569.315552,525.328369 568.666870,526.102600 568.199829,526.974304 
	C566.943298,529.319641 564.007996,531.315369 566.150635,534.487976 
	C568.280701,537.642090 570.481689,540.917725 575.609070,539.293640 
	C575.115356,533.352966 574.969360,527.316040 573.417725,521.401550 
	C571.595337,521.639526 571.115723,523.008179 569.881409,524.509644 
M579.644836,534.478516 
	C578.995178,538.461792 578.701477,544.079895 581.753113,545.321777 
	C585.903931,547.011108 590.566467,551.730469 596.298828,547.608887 
	C595.638916,546.767944 595.245972,546.011047 594.635620,545.529968 
	C589.847046,541.755493 585.016846,538.033875 579.644836,534.478516 
M586.744995,510.925659 
	C584.683105,510.962006 582.562439,511.124664 582.684021,513.888611 
	C582.728455,514.898376 583.993225,515.477417 585.030823,515.127258 
	C586.857849,514.510681 589.279358,514.037598 586.744995,510.925659 
z"/>
<path fill="#000000" opacity="1.000000" stroke="none" 
	d="
M698.745239,654.979614 
	C683.859253,655.000488 686.628479,653.876343 686.383606,666.872620 
	C686.286499,672.028564 686.275574,677.189453 686.379028,682.345032 
	C686.558655,691.296997 691.214600,695.099304 699.932068,693.552551 
	C706.273132,692.427551 707.441772,693.474854 709.744995,701.246582 
	C711.315857,706.547241 707.897949,708.052490 704.077087,709.347412 
	C687.986633,714.800171 668.288757,706.265015 668.613281,684.576416 
	C668.730225,676.758789 668.574036,668.937378 668.578979,661.117737 
	C668.581421,657.267700 667.510498,654.974792 662.873108,654.968079 
	C657.558411,654.960388 656.534607,652.930115 656.563477,645.979370 
	C656.581787,641.557495 657.665710,638.207031 662.948792,638.699158 
	C667.112244,639.086975 669.071899,637.289795 668.528809,633.304993 
	C667.844421,628.284485 671.195129,626.062927 674.596802,623.975769 
	C677.714783,622.062622 686.477234,627.821838 686.122131,632.009888 
	C685.577454,638.433899 688.827271,639.220886 693.831848,638.690186 
	C695.477051,638.515808 697.156494,638.658997 698.820251,638.665588 
	C706.819946,638.697205 707.429138,639.305054 707.303040,647.114441 
	C707.199341,653.532837 706.160767,654.541809 698.745239,654.979614 
z"/>
<path fill="#000000" opacity="1.000000" stroke="none" 
	d="
M623.271851,637.879333 
	C631.306824,636.172180 638.841980,636.302246 646.414246,638.365234 
	C650.221741,639.402527 651.222900,641.473938 650.159912,644.989136 
	C649.918945,645.786072 649.664307,646.578979 649.427124,647.377014 
	C647.072815,655.297485 647.083069,655.201294 639.047668,654.402344 
	C635.913635,654.090698 632.704468,654.079407 629.566284,654.352783 
	C621.490234,655.056335 617.269897,659.639648 617.214600,667.748352 
	C617.137390,679.079773 617.250244,690.412415 617.226196,701.744446 
	C617.212708,708.116089 616.052185,709.209839 609.560547,709.263000 
	C607.727783,709.277954 605.893982,709.270325 604.061646,709.230652 
	C600.877686,709.161621 598.908508,707.513733 598.905212,704.345337 
	C598.891113,690.685913 598.518311,676.998718 599.253052,663.374268 
	C600.039673,648.787720 609.519714,641.364258 623.271851,637.879333 
z"/>
<path fill="#000000" opacity="1.000000" stroke="none" 
	d="
M386.132751,780.333252 
	C386.054291,784.621338 386.006989,788.452454 385.910156,792.282227 
	C385.822235,795.757996 383.593445,796.807983 380.570068,796.790955 
	C377.596680,796.774292 375.796173,795.313904 375.788757,792.245422 
	C375.746857,774.918152 375.753296,757.590698 375.757721,740.263306 
	C375.758484,737.229614 377.787445,736.115723 380.344543,736.126526 
	C389.496552,736.165100 398.681915,735.310303 407.793671,736.582031 
	C416.334198,737.773987 421.763214,743.050781 423.770477,751.596863 
	C425.572876,759.270691 422.735687,767.489014 416.071625,771.757507 
	C412.196442,774.239624 412.094238,776.265198 414.880005,779.536865 
	C418.115631,783.336853 421.086578,787.371704 424.028046,791.409790 
	C426.479553,794.775269 425.673706,796.414185 421.531281,796.991882 
	C417.928802,797.494202 415.031189,796.482788 412.816833,793.427551 
	C409.297882,788.572388 405.666290,783.797607 402.019989,779.036499 
	C399.896454,776.263611 389.968506,774.723328 387.251312,776.698669 
	C386.190430,777.469910 386.201416,778.706604 386.132751,780.333252 
M409.687775,764.344910 
	C415.804321,757.870544 414.923492,749.247925 407.438416,747.012573 
	C400.910767,745.063110 393.079254,744.171814 387.551941,747.287292 
	C383.552551,749.541626 386.510284,757.153809 386.059753,762.353394 
	C386.031555,762.678833 386.112427,763.013855 386.143219,763.344299 
	C386.327728,765.322205 387.523529,766.445068 389.394928,766.448792 
	C395.986420,766.461731 402.695740,767.659058 409.687775,764.344910 
z"/>
<path fill="#000000" opacity="1.000000" stroke="none" 
	d="
M593.210571,785.925415 
	C585.264587,797.809570 581.200745,798.805603 560.289551,794.189331 
	C558.470642,797.947266 559.469482,801.992188 559.369080,805.879578 
	C559.277710,809.414795 558.238708,811.819397 554.369629,811.851807 
	C550.352173,811.885498 549.578491,809.321045 549.600037,805.836548 
	C549.696655,790.190735 549.620483,774.543884 549.679565,758.897766 
	C549.687927,756.687134 548.888245,753.948669 551.748474,752.787231 
	C554.233765,751.778076 556.691711,752.055969 558.564331,754.253540 
	C559.829285,755.737915 561.055603,755.262268 562.549561,754.597534 
	C573.940125,749.529053 582.200439,750.409851 589.187378,757.337830 
	C596.213013,764.304138 597.901917,775.698853 593.210571,785.925415 
M585.759216,776.142822 
	C585.734375,774.813904 585.822571,773.471436 585.665222,772.158386 
	C584.975525,766.403564 579.951233,761.223450 574.343445,760.395569 
	C568.611877,759.549438 563.377136,762.687500 560.864075,768.476074 
	C557.472717,776.287720 561.272583,785.544800 568.950989,788.176758 
	C576.351501,790.713501 583.241455,786.099121 585.759216,776.142822 
z"/>
<path fill="#000000" opacity="1.000000" stroke="none" 
	d="
M438.847778,755.704956 
	C454.165344,746.368591 470.884735,753.099426 473.979126,769.517212 
	C475.295807,776.503052 473.837555,778.320312 466.856598,778.335754 
	C460.526306,778.349792 454.195770,778.308838 447.865723,778.349792 
	C445.742584,778.363525 443.495148,778.104858 441.861450,779.950439 
	C443.267639,787.302246 451.384338,791.040466 459.029480,787.812012 
	C460.698639,787.107117 462.256012,786.082214 463.758209,785.049561 
	C466.279999,783.315735 468.530975,783.636536 470.331757,785.959290 
	C472.376923,788.597290 470.853577,790.555847 468.780487,792.337952 
	C459.844696,800.019897 444.665497,799.407043 436.361115,791.005737 
	C427.900970,782.446777 427.570221,767.994629 435.654480,758.666931 
	C436.521667,757.666382 437.574463,756.826660 438.847778,755.704956 
M451.669098,760.231750 
	C447.362244,760.489685 444.093262,762.590393 441.917450,766.191406 
	C440.553436,768.448792 440.857300,770.583984 444.050812,770.686584 
	C449.672882,770.867249 455.305786,770.870178 460.930206,770.754761 
	C463.934082,770.693115 464.007019,768.867432 462.864960,766.649780 
	C460.688538,762.423645 457.190887,760.336304 451.669098,760.231750 
z"/>
<path fill="#000000" opacity="1.000000" stroke="none" 
	d="
M630.988953,778.341797 
	C624.756287,778.542419 618.967712,777.885010 613.231140,778.800293 
	C614.294922,786.590332 621.831726,790.588562 629.581665,788.103394 
	C632.017517,787.322266 633.949463,785.729065 636.090637,784.466064 
	C638.448730,783.075195 640.249390,784.207214 641.778992,785.939514 
	C643.526794,787.918884 642.520813,789.531799 641.006775,791.140747 
	C635.405701,797.093201 624.330200,799.430603 615.916870,796.063782 
	C607.255554,792.597717 602.419250,786.079102 601.706970,776.719971 
	C601.001892,767.453613 603.440857,759.382629 611.918701,754.481262 
	C619.852722,749.894348 628.102051,749.555725 635.985535,754.819397 
	C642.606689,759.240173 645.488708,765.644836 645.384949,773.563782 
	C645.339966,776.993347 643.730896,778.370972 640.472107,778.326233 
	C637.477356,778.285156 634.481384,778.332764 630.988953,778.341797 
M622.528870,770.816162 
	C626.684937,770.534790 630.974304,771.543335 635.162903,769.962097 
	C634.163635,764.814148 631.357056,761.791321 626.837280,760.602112 
	C622.363342,759.424927 618.295715,760.589417 614.978760,763.852234 
	C613.444824,765.361023 611.770752,767.223267 612.686340,769.469238 
	C613.524841,771.526123 615.882019,770.585266 617.601501,770.757019 
	C618.911499,770.887817 620.243103,770.801270 622.528870,770.816162 
z"/>
<path fill="#000000" opacity="1.000000" stroke="none" 
	d="
M518.382812,785.375610 
	C522.168274,788.604065 520.048523,790.872131 517.584656,792.911438 
	C504.584991,803.671448 483.396393,796.244080 479.913574,779.739868 
	C477.908386,770.237793 481.503967,760.361816 488.793335,755.350220 
	C497.087769,749.647644 508.450134,749.440918 516.524292,755.122925 
	C518.915527,756.805542 522.712952,758.529358 520.026367,762.518799 
	C517.568481,766.168579 514.638000,765.856384 511.157166,763.166931 
	C505.419830,758.734009 498.208405,759.463806 493.481628,764.396729 
	C488.326080,769.777039 487.961273,777.479248 492.573975,783.557129 
	C496.673615,788.958984 503.685883,790.231445 510.066589,786.700439 
	C512.586365,785.306030 514.832275,782.614990 518.382812,785.375610 
z"/>
<path fill="#000000" opacity="1.000000" stroke="none" 
	d="
M584.340637,465.835754 
	C590.629395,465.572083 596.426025,465.895050 602.203430,466.697113 
	C604.748718,467.050476 607.731018,467.482056 608.402100,470.103241 
	C609.631592,474.906006 613.291565,476.821075 616.935608,479.132294 
	C619.247009,480.598328 621.865723,481.972046 623.095642,485.651276 
	C618.711975,486.491272 614.586365,487.077057 610.610596,484.928650 
	C597.091125,477.622955 583.719971,477.598694 570.258301,485.168640 
	C566.326538,487.379578 562.026733,486.441101 557.287598,485.647400 
	C559.620361,481.719696 563.259460,480.328644 566.238892,478.181183 
	C567.976074,476.929077 570.517273,476.283478 571.133850,474.129089 
	C573.022217,467.529633 578.233215,466.448456 584.340637,465.835754 
z"/>
<path fill="#000000" opacity="1.000000" stroke="none" 
	d="
M681.114624,604.064209 
	C687.658936,601.417419 691.576599,595.417664 698.307983,592.821655 
	C694.075012,598.059509 689.842041,603.297363 685.301147,608.916321 
	C693.631592,611.598389 701.779297,610.191284 709.519043,612.523926 
	C701.900757,614.978088 693.743042,613.801331 685.445068,616.017090 
	C688.163208,622.052612 693.843262,625.832581 696.950195,632.222229 
	C693.692566,631.666382 692.187012,629.562073 690.337646,628.145264 
	C687.830994,626.224854 685.585999,623.956116 683.039429,622.096069 
	C677.889893,618.334839 675.657776,618.408936 670.597839,622.464172 
	C667.032776,625.321350 663.626343,628.376404 659.720642,630.957336 
	C661.710083,625.463806 666.721985,622.039001 669.745239,615.965698 
	C661.485291,615.132080 653.935669,614.370117 646.386047,613.608215 
	C646.383972,613.119446 646.381958,612.630676 646.379944,612.141968 
	C653.911743,611.385193 661.443604,610.628418 669.700317,609.798828 
	C666.130493,602.768311 660.046997,598.573486 656.964111,592.102966 
	C663.178589,595.304260 667.517456,601.137634 673.856995,604.562866 
	C676.783203,596.757141 674.677124,588.697449 677.302002,580.096375 
	C680.233765,588.702209 678.179626,596.644775 681.114624,604.064209 
z"/>
<path fill="#000000" opacity="1.000000" stroke="none" 
	d="
M536.378967,752.734375 
	C538.540466,754.189148 538.309265,756.114014 538.311401,757.910583 
	C538.324646,769.040100 538.237427,780.169983 538.320435,791.298828 
	C538.345703,794.671204 537.296570,796.797668 533.631653,796.884338 
	C529.708435,796.977051 528.523132,794.778809 528.548340,791.176025 
	C528.625183,780.213989 528.486267,769.250427 528.563110,758.288391 
	C528.604187,752.430786 529.619263,751.744873 536.378967,752.734375 
z"/>
<path fill="#000000" opacity="1.000000" stroke="none" 
	d="
M582.119385,379.331512 
	C568.820374,386.088287 555.390442,384.820435 541.921387,381.654083 
	C538.222534,380.784515 534.202087,380.663300 529.713013,377.653259 
	C536.450012,377.011261 541.655579,378.653778 546.941040,379.173065 
	C555.711975,380.034790 564.489929,380.753052 573.182739,378.590576 
	C577.440918,377.531281 581.229553,375.477295 584.532471,372.578888 
	C586.437500,370.907166 587.913696,369.233276 587.474548,366.206696 
	C586.993469,362.890869 588.564209,360.277679 592.230774,359.841797 
	C595.376465,359.467834 597.397095,361.250549 597.966980,364.184357 
	C598.604492,367.466156 596.913269,369.418091 593.705933,370.416473 
	C588.910339,371.909302 586.985046,377.239624 582.119385,379.331512 
z"/>
<path fill="#000000" opacity="1.000000" stroke="none" 
	d="
M563.670166,448.022095 
	C563.637756,443.865814 563.633423,440.204285 563.565979,436.543915 
	C563.522766,434.202881 563.210876,432.069153 561.399475,430.156433 
	C558.879395,427.495422 559.455872,424.593750 562.094116,422.292694 
	C564.392090,420.288330 567.078247,420.236603 569.367004,422.263580 
	C572.016357,424.609894 572.300903,427.899353 570.034241,430.273651 
	C567.372192,433.062134 567.243652,436.077393 567.258179,439.441284 
	C567.299255,448.927216 567.276672,458.413696 567.227783,467.899658 
	C567.217346,469.926025 567.623535,472.256256 563.671448,473.673706 
	C563.671448,464.862335 563.671448,456.689850 563.670166,448.022095 
z"/>
<path fill="#000000" opacity="1.000000" stroke="none" 
	d="
M551.030029,474.879333 
	C547.888245,472.900269 544.088379,474.225891 541.423767,471.639099 
	C537.541321,467.870117 533.882263,464.145386 534.715820,457.980652 
	C535.226868,454.201324 533.360901,451.290924 529.661011,450.468628 
	C525.788086,449.607849 525.601990,446.441498 524.605164,443.772614 
	C523.978088,442.093536 525.105591,440.868652 526.637573,440.285797 
	C529.119019,439.341705 532.138916,439.881256 532.652649,442.173370 
	C533.937500,447.905304 539.026855,452.063141 538.500305,458.585602 
	C538.011292,464.642426 543.094055,469.447845 549.219971,469.833191 
	C555.258667,470.213104 556.918396,473.815582 553.680908,479.590179 
	C551.161438,479.048218 552.147278,476.598450 551.030029,474.879333 
z"/>
<path fill="#000000" opacity="1.000000" stroke="none" 
	d="
M584.752319,458.504822 
	C584.694092,452.893707 584.974121,447.709351 584.596130,442.573425 
	C584.241089,437.750031 586.881287,433.678772 587.264954,429.027832 
	C587.491699,426.280212 590.310303,425.339417 593.106995,425.581848 
	C595.878967,425.822144 597.224670,427.513489 597.631104,430.095398 
	C598.072083,432.896332 597.052551,435.858917 594.465271,436.107147 
	C586.994873,436.823944 588.298401,442.031494 588.255310,446.713104 
	C588.220093,450.543488 588.250916,454.374634 588.191162,458.204468 
	C588.175781,459.189117 588.047546,460.308289 586.835327,460.591431 
	C585.569275,460.887085 585.122375,459.948029 584.752319,458.504822 
z"/>
<path fill="#000000" opacity="1.000000" stroke="none" 
	d="
M533.837097,734.865723 
	C536.113281,735.340149 537.561218,736.330994 538.371155,738.130310 
	C539.910767,741.550720 539.120667,744.313171 535.830017,746.118591 
	C532.878845,747.737793 530.187927,746.976929 528.588135,744.138550 
	C526.892578,741.130371 526.986023,738.025574 530.177795,735.847473 
	C531.076416,735.234253 532.339905,735.155823 533.837097,734.865723 
z"/>
<path fill="#000000" opacity="1.000000" stroke="none" 
	d="
M581.941406,451.158752 
	C581.034302,454.952850 578.544250,457.687622 578.442505,461.494537 
	C577.924744,461.485565 577.407043,461.476624 576.889282,461.467682 
	C575.839050,458.064117 574.578308,454.706116 573.827942,451.237701 
	C573.456055,449.519073 574.709717,448.007660 576.539551,447.582947 
	C579.256042,446.952393 580.987061,448.238831 581.941406,451.158752 
z"/>
</svg>