<svg version="1.1" id="Layer_1" xmlns="http://www.w3.org/2000/svg" xmlns:xlink="http://www.w3.org/1999/xlink" x="0px" y="0px"
	 width="100%" viewBox="0 0 148 148" enable-background="new 0 0 148 148" xml:space="preserve">
<path fill="#6EB340" opacity="1.000000" stroke="none" 
	d="
M1.000000,88.000000 
	C1.000000,79.645767 1.000000,71.291534 1.352483,62.327110 
	C2.025346,60.777069 2.412233,59.854149 2.656454,58.894909 
	C10.240293,29.107555 28.843374,10.336734 58.679024,2.733489 
	C59.856785,2.433352 60.896149,1.590159 62.000000,1.000000 
	C69.687576,1.000000 77.375153,1.000000 85.710907,1.338909 
	C97.428932,4.004849 108.027176,7.441078 117.184647,14.961426 
	C117.928825,15.472781 118.486328,15.727661 119.363533,16.081249 
	C122.639549,18.388405 125.595856,20.596853 129.169510,22.971239 
	C130.197556,23.250891 130.608276,23.364603 130.865417,23.807621 
	C129.121429,26.021034 127.644913,28.016949 125.922531,29.771490 
	C112.614136,43.328293 96.398064,50.251686 77.453270,51.150234 
	C67.178719,51.637550 56.857109,51.881958 47.121414,56.069382 
	C27.374517,64.562729 17.575603,87.047073 25.952459,105.000687 
	C29.537394,112.684059 33.683823,115.128983 41.876858,114.179390 
	C44.193256,113.910912 46.468353,113.270561 48.755871,112.770889 
	C68.865295,108.378235 88.268913,102.339081 104.882545,88.861191 
	C109.520538,89.125999 110.737488,86.505295 110.977417,82.965919 
	C110.993851,82.994339 110.937187,82.961174 111.290649,83.018707 
	C112.447548,84.099892 113.250999,85.123558 113.952660,86.464264 
	C101.793831,102.209564 86.467415,112.763107 67.555550,118.101799 
	C61.055122,119.936836 54.665806,122.165466 48.225727,124.214287 
	C56.109520,125.017380 63.761532,125.015251 71.413544,125.017967 
	C79.240204,125.020744 87.087662,125.380371 94.886772,124.919548 
	C100.857941,124.566742 106.876068,123.614380 112.684479,122.169571 
	C128.454590,118.246872 138.164505,107.814079 142.796524,92.513481 
	C144.039719,88.406883 144.584091,84.088715 145.723923,80.078964 
	C146.999054,81.193497 147.999527,82.096748 149.000000,83.000000 
	C149.000000,83.444443 149.000000,83.888893 148.650513,84.824165 
	C147.920593,86.755409 147.500153,88.186607 147.165649,89.637611 
	C140.415131,118.920288 122.635208,137.847122 93.848167,146.439926 
	C90.906181,147.318085 87.949738,148.147797 85.000000,149.000000 
	C77.979050,149.000000 70.958107,149.000000 63.335915,148.642761 
	C50.275772,145.209564 38.385029,140.927521 28.156559,132.073410 
	C32.689262,132.288315 35.998550,130.971497 36.566566,126.471672 
	C36.986691,123.143440 35.344112,120.571823 31.899345,119.812935 
	C26.163103,118.549225 24.688742,122.842957 23.432007,126.983177 
	C22.789665,126.811501 22.405693,126.816620 22.184748,126.629379 
	C21.552698,126.093719 20.955183,125.508514 20.399670,124.892654 
	C11.887225,115.455490 5.977454,104.635643 2.939241,92.255730 
	C2.574157,90.768105 1.659781,89.415298 1.000000,88.000000 
z"/>
<path fill="#FDFEFD" opacity="1.000000" stroke="none" 
	d="
M1.000000,88.468658 
	C1.659781,89.415298 2.574157,90.768105 2.939241,92.255730 
	C5.977454,104.635643 11.887225,115.455490 20.399670,124.892654 
	C20.955183,125.508514 21.552698,126.093719 22.184748,126.629379 
	C22.405693,126.816620 22.789665,126.811501 23.432007,126.983177 
	C24.688742,122.842957 26.163103,118.549225 31.899345,119.812935 
	C35.344112,120.571823 36.986691,123.143440 36.566566,126.471672 
	C35.998550,130.971497 32.689262,132.288315 28.156559,132.073410 
	C38.385029,140.927521 50.275772,145.209564 62.867332,148.642761 
	C42.407108,149.000000 21.814219,149.000000 1.000000,149.000000 
	C1.000000,128.979645 1.000000,108.958481 1.000000,88.468658 
z"/>
<path fill="#FEFEFD" opacity="1.000000" stroke="none" 
	d="
M85.468658,149.000000 
	C87.949738,148.147797 90.906181,147.318085 93.848167,146.439926 
	C122.635208,137.847122 140.415131,118.920288 147.165649,89.637611 
	C147.500153,88.186607 147.920593,86.755409 148.650513,85.157501 
	C149.000000,106.260162 149.000000,127.520325 149.000000,149.000000 
	C127.979614,149.000000 106.958466,149.000000 85.468658,149.000000 
z"/>
<path fill="#FEFEFD" opacity="1.000000" stroke="none" 
	d="
M61.531342,1.000000 
	C60.896149,1.590159 59.856785,2.433352 58.679024,2.733489 
	C28.843374,10.336734 10.240293,29.107555 2.656454,58.894909 
	C2.412233,59.854149 2.025346,60.777069 1.352483,61.858459 
	C1.000000,41.739853 1.000000,21.479706 1.000000,1.000000 
	C21.020359,1.000000 41.041523,1.000000 61.531342,1.000000 
z"/>
<path fill="#FCFEFC" opacity="1.000000" stroke="none" 
	d="
M116.997971,14.704952 
	C108.027176,7.441078 97.428932,4.004849 86.179535,1.338909 
	C106.923782,1.000000 127.847565,1.000000 149.000000,1.000000 
	C149.000000,20.020285 149.000000,39.041485 148.645111,58.352722 
	C144.505096,42.570160 140.719986,26.497562 136.934860,10.424962 
	C136.463974,10.540107 135.993088,10.655251 135.522202,10.770395 
	C133.198853,14.782031 130.875519,18.793665 128.552170,22.805302 
	C125.595856,20.596853 122.639549,18.388405 119.156364,15.849386 
	C118.085655,15.247527 117.541809,14.976239 116.997971,14.704952 
z"/>
<path fill="#73B646" opacity="1.000000" stroke="none" 
	d="
M129.169510,22.971241 
	C130.875519,18.793665 133.198853,14.782031 135.522202,10.770395 
	C135.993088,10.655251 136.463974,10.540107 136.934860,10.424962 
	C140.719986,26.497562 144.505096,42.570160 148.645111,58.821381 
	C149.000000,59.000000 149.000000,59.500000 148.711380,59.837112 
	C147.399323,60.796734 146.375870,61.419243 145.214890,61.630615 
	C143.832993,46.487862 139.929916,32.389797 135.161530,17.880474 
	C133.506927,20.116344 132.262955,21.797329 131.018982,23.478313 
	C130.608276,23.364603 130.197556,23.250891 129.169510,22.971241 
z"/>
<path fill="#61AE28" opacity="1.000000" stroke="none" 
	d="
M145.352432,62.041748 
	C146.375870,61.419243 147.399323,60.796734 148.711380,60.087112 
	C149.000000,67.354256 149.000000,74.708504 149.000000,82.531380 
	C147.999527,82.096748 146.999054,81.193497 145.726059,79.619904 
	C145.419846,73.313622 145.386139,67.677681 145.352432,62.041748 
z"/>
<path fill="#FEFEFD" opacity="1.000000" stroke="none" 
	d="
M145.214890,61.630615 
	C145.386139,67.677681 145.419846,73.313622 145.451416,79.408615 
	C144.584091,84.088715 144.039719,88.406883 142.796524,92.513481 
	C138.164505,107.814079 128.454590,118.246872 112.684479,122.169571 
	C106.876068,123.614380 100.857941,124.566742 94.886772,124.919548 
	C87.087662,125.380371 79.240204,125.020744 71.413544,125.017967 
	C63.761532,125.015251 56.109520,125.017380 48.225727,124.214287 
	C54.665806,122.165466 61.055122,119.936836 67.555550,118.101799 
	C86.467415,112.763107 101.793831,102.209564 114.229156,86.264450 
	C118.013390,79.101799 121.419342,72.455994 124.877815,65.751686 
	C124.930336,65.693184 125.047676,65.967285 125.047676,65.967285 
	C125.047676,65.967285 124.974617,65.720139 124.794983,66.024551 
	C120.055962,71.873032 115.496574,77.417099 110.937180,82.961166 
	C110.937187,82.961174 110.993851,82.994339 110.673660,83.103615 
	C108.391968,85.089523 106.430450,86.966148 104.468941,88.842781 
	C88.268913,102.339081 68.865295,108.378235 48.755871,112.770889 
	C46.468353,113.270561 44.193256,113.910912 41.876858,114.179390 
	C33.683823,115.128983 29.537394,112.684059 25.952459,105.000687 
	C17.575603,87.047073 27.374517,64.562729 47.121414,56.069382 
	C56.857109,51.881958 67.178719,51.637550 77.453270,51.150234 
	C96.398064,50.251686 112.614136,43.328293 125.922531,29.771490 
	C127.644913,28.016949 129.121429,26.021034 130.865417,23.807621 
	C132.262955,21.797329 133.506927,20.116344 135.161530,17.880474 
	C139.929916,32.389797 143.832993,46.487862 145.214890,61.630615 
z"/>
<path fill="#6DB33D" opacity="1.000000" stroke="none" 
	d="
M111.290642,83.018700 
	C115.496574,77.417099 120.055962,71.873032 124.766876,66.062363 
	C124.918404,65.795761 124.825294,65.810188 124.825294,65.810188 
	C121.419342,72.455994 118.013390,79.101799 114.330940,85.947411 
	C113.250999,85.123558 112.447548,84.099892 111.290642,83.018700 
z"/>
<path fill="#6DB33D" opacity="1.000000" stroke="none" 
	d="
M104.882545,88.861191 
	C106.430450,86.966148 108.391968,85.089523 110.657234,83.075195 
	C110.737488,86.505295 109.520538,89.125999 104.882545,88.861191 
z"/>
<path fill="#73B646" opacity="1.000000" stroke="none" 
	d="
M117.184647,14.961426 
	C117.541809,14.976239 118.085655,15.247527 118.836662,15.750677 
	C118.486328,15.727661 117.928825,15.472781 117.184647,14.961426 
z"/>
<path fill="#6DB33D" opacity="1.000000" stroke="none" 
	d="
M124.946510,65.757950 
	C124.974617,65.720139 125.047676,65.967285 125.047676,65.967285 
	C125.047676,65.967285 124.930336,65.693184 124.877815,65.751686 
	C124.825294,65.810188 124.918404,65.795761 124.946510,65.757950 
z"/>
</svg>