<svg version="1.1" id="Layer_1" xmlns="http://www.w3.org/2000/svg" xmlns:xlink="http://www.w3.org/1999/xlink" x="0px" y="0px"
	 width="100%" viewBox="0 0 1024 1024" enable-background="new 0 0 1024 1024" xml:space="preserve">
<path fill="#000000" opacity="1.000000" stroke="none" 
	d="
M473.918457,583.078857 
	C503.547424,604.627563 543.536377,598.201599 564.135437,568.122925 
	C575.420593,551.644348 585.421936,534.286438 595.996460,517.321350 
	C596.883911,515.897583 597.885803,514.496277 596.312439,512.843750 
	C594.216736,510.642670 592.368530,508.796448 588.638489,509.589996 
	C578.724915,511.699066 569.800964,509.236725 562.334595,502.258209 
	C553.634705,494.126740 550.913330,481.786316 555.206543,470.627014 
	C559.452515,459.590363 570.017883,451.818054 581.706665,451.876862 
	C586.011963,451.898499 588.113342,450.326569 590.255920,446.778900 
	C606.533875,419.826691 623.060364,393.024567 639.509399,366.175659 
	C639.596436,366.033600 639.681213,365.890076 639.770874,365.749634 
	C644.350525,358.579559 650.367371,356.731110 656.576660,360.586243 
	C661.967529,363.933258 662.799011,370.209564 658.510498,377.338196 
	C653.015320,386.472687 647.324341,395.489349 641.727417,404.562683 
	C630.621033,422.567322 619.567078,440.604645 608.375122,458.555939 
	C606.407715,461.711548 606.111145,464.314789 608.044739,467.733185 
	C612.010010,474.743561 612.254456,482.311707 610.003723,490.001251 
	C609.656555,491.187134 608.583435,492.272308 609.599487,494.381866 
	C615.297729,485.311859 620.810669,476.660248 626.202026,467.933502 
	C647.216736,433.917816 668.165710,399.861542 689.235229,365.879883 
	C690.907410,363.183014 691.052307,361.126984 689.701172,358.130951 
	C684.091125,345.690399 691.045166,330.276245 703.911560,325.902954 
	C717.623535,321.242279 732.065491,329.217987 735.790405,343.508545 
	C739.219421,356.663391 730.496826,370.451965 716.672913,372.271301 
	C710.540039,373.078461 708.072449,376.520416 705.283752,381.058685 
	C674.061890,431.868805 642.716309,482.602997 611.353210,533.326233 
	C601.193054,549.758057 591.798462,566.724792 580.094116,582.119263 
	C562.030884,605.877502 537.530396,617.979248 507.853973,616.863464 
	C477.162598,615.709595 453.520081,600.611328 437.950867,574.303162 
	C427.190155,556.120300 417.713898,537.147156 408.270294,518.224426 
	C400.591644,502.838287 401.036377,487.605194 412.328674,473.770630 
	C421.069641,463.061859 421.476013,452.409698 414.981171,440.086426 
	C389.896484,392.491119 365.360413,344.606506 340.677734,296.799835 
	C339.356201,294.240234 337.890137,293.195892 334.820282,293.588287 
	C320.893005,295.368530 309.548126,285.671722 307.981598,270.923065 
	C306.564514,257.581299 317.345551,245.256073 331.361725,244.194229 
	C344.617950,243.189941 356.703064,253.872177 357.334045,267.167175 
	C357.397186,268.497375 357.708527,269.945435 357.315979,271.146393 
	C354.929901,278.446533 358.557220,284.182800 361.683350,290.267670 
	C386.497559,338.567627 412.324249,386.347626 436.285156,435.084442 
	C445.226410,453.271149 442.609741,470.272705 429.928558,485.863098 
	C426.943787,489.532623 424.082825,493.239838 424.403198,498.307526 
	C424.635468,501.981842 425.942261,503.715027 430.420593,503.372223 
	C435.935181,502.950073 439.722809,501.138519 443.426788,496.861359 
	C449.930359,489.351471 462.184387,488.537048 471.506500,493.973480 
	C479.445068,498.603058 484.015747,509.598236 480.972198,518.686768 
	C479.661346,522.601257 480.116119,525.406738 482.003601,528.829468 
	C484.652771,533.633423 486.651672,538.810852 490.123779,543.135254 
	C494.512848,548.601868 500.026520,551.950745 507.290588,551.813232 
	C515.271973,551.662231 522.102051,545.665161 522.680603,538.256653 
	C523.283936,530.529968 517.874146,523.509949 509.749756,522.561890 
	C505.793152,522.100159 503.947815,520.212769 502.312866,517.037354 
	C482.868317,479.272186 463.294037,441.573608 443.934357,403.765137 
	C441.807312,399.611115 439.472412,397.199158 434.538391,396.406708 
	C424.406281,394.779358 417.644257,387.402924 415.904816,377.450104 
	C414.225311,367.840210 419.033997,357.448639 427.367249,352.679657 
	C435.701080,347.910370 446.362213,348.792358 454.121429,354.893066 
	C462.234711,361.272156 465.254486,373.052094 460.898834,382.873962 
	C459.662933,385.660919 459.843597,387.735474 461.172577,390.308929 
	C479.745300,426.273987 498.264404,462.266846 516.693604,498.305573 
	C518.055664,500.969116 520.240662,502.039886 522.651123,503.220093 
	C538.642578,511.049591 547.090820,529.015991 542.737610,545.784973 
	C538.306702,562.853149 523.054504,574.206055 505.127899,573.156860 
	C490.173676,572.281616 478.548645,565.052734 470.245880,552.691772 
	C467.284760,548.283386 464.893768,543.480774 462.399414,538.774963 
	C461.205536,536.522644 459.764893,535.352356 457.044647,535.096558 
	C451.240051,534.550842 446.088654,532.317139 442.312286,527.609436 
	C440.992310,525.963928 439.597565,524.694763 436.571289,526.030090 
	C440.288452,533.244324 443.860199,540.323547 447.564026,547.332947 
	C454.499146,560.457520 461.259552,573.726013 473.918457,583.078857 
M593.700867,481.346558 
	C593.123657,474.977692 590.319702,470.756744 585.401672,469.660309 
	C580.667419,468.604858 576.426758,469.813812 573.510010,473.946350 
	C570.670471,477.969482 570.330994,482.276215 572.926453,486.577789 
	C575.530090,490.892883 579.498901,492.587372 584.393677,491.863617 
	C589.932800,491.044586 592.542114,487.250305 593.700867,481.346558 
M342.386993,267.145874 
	C340.932953,262.403473 338.020447,259.280670 332.827271,259.102142 
	C328.903198,258.967255 325.661407,260.456482 323.759735,264.104797 
	C321.699738,268.056885 322.121552,271.880493 324.896057,275.283813 
	C327.723480,278.752014 331.593445,279.768280 335.693390,278.301880 
	C340.394196,276.620544 342.775208,273.009918 342.386993,267.145874 
M702.514099,348.510193 
	C703.018555,350.069733 703.292419,351.757202 704.072754,353.163635 
	C706.031921,356.694641 709.189392,358.209076 713.202942,357.764221 
	C717.250183,357.315613 719.738098,354.995575 721.031921,351.177582 
	C722.321594,347.371857 720.953857,344.273163 718.348694,341.747650 
	C712.836548,336.403900 705.401550,339.305450 702.514099,348.510193 
M434.132202,380.614716 
	C438.045441,382.739929 441.917572,382.665741 445.253296,379.682404 
	C447.708527,377.486572 448.892548,374.514709 447.974548,371.104279 
	C446.923248,367.198883 444.538269,364.679840 440.349091,364.281860 
	C436.358734,363.902771 432.979675,365.073822 431.203400,368.886780 
	C429.239319,373.102783 429.869415,376.989685 434.132202,380.614716 
M456.645447,505.043976 
	C451.560883,508.396942 450.167694,511.889282 452.247955,516.067444 
	C454.228577,520.045471 458.296173,521.785278 462.157471,520.306030 
	C465.811523,518.906189 468.221710,514.684387 467.351990,511.206787 
	C466.171326,506.485535 462.670319,504.227997 456.645447,505.043976 
z"/>
<path fill="#000000" opacity="1.000000" stroke="none" 
	d="
M650.610718,286.639313 
	C655.285522,278.921631 659.557983,271.383270 665.791748,265.194214 
	C676.264038,254.797089 688.892395,250.516174 703.479309,251.476212 
	C710.453247,251.935211 717.429749,252.424347 724.413147,252.635757 
	C727.354004,252.724792 729.232239,253.382233 730.666931,256.323975 
	C734.091614,263.346191 741.104126,265.801941 747.310974,262.642853 
	C753.546204,259.469330 756.052917,252.367981 753.111389,246.210541 
	C749.919556,239.529114 742.754333,236.705292 735.987488,239.969788 
	C732.833740,241.491287 730.525513,241.079300 727.693420,239.407257 
	C715.532715,232.227722 702.595520,227.797119 688.215393,229.754486 
	C669.320496,232.326416 655.041626,242.639282 644.789490,258.042450 
	C632.243958,276.891418 620.695618,296.404907 608.747559,315.650574 
	C599.083862,331.216675 589.505249,346.835754 579.808472,362.381195 
	C576.270447,368.053162 571.321777,369.944672 565.784485,368.070709 
	C561.137817,366.498169 558.185608,361.663849 558.766724,356.642548 
	C559.024231,354.417725 560.060486,352.513519 561.206665,350.679901 
	C582.574280,316.496399 603.753967,282.192871 625.418274,248.198242 
	C639.456055,226.170792 659.429016,212.422104 685.509094,208.278625 
	C697.644104,206.350647 709.522522,208.277176 720.841248,212.509857 
	C728.495361,215.372147 735.918030,217.436935 744.252319,217.827362 
	C759.532776,218.543182 771.252686,229.212723 774.799072,243.701035 
	C778.077332,257.094025 772.437195,271.688599 761.088318,279.179382 
	C748.511292,287.480804 732.477295,287.229767 720.443542,277.775848 
	C707.964417,267.971985 683.421753,273.987671 676.343079,286.017395 
	C658.185425,316.875183 638.864807,347.048981 619.983826,377.480591 
	C613.309631,388.237793 606.573853,398.956879 599.844055,409.679504 
	C596.219482,415.454559 591.428345,419.988464 585.258667,422.959656 
	C583.040527,424.027893 581.712402,425.348663 581.130981,428.032776 
	C578.199036,441.568695 565.640869,449.212891 551.917297,446.111603 
	C540.176147,443.458252 532.464417,430.783081 534.957764,418.236664 
	C537.568054,405.101624 549.690491,397.010559 562.845337,399.458130 
	C565.677795,399.985168 568.491882,400.590057 570.804749,402.198517 
	C573.719421,404.225494 575.948730,403.512970 578.410339,401.515900 
	C580.807068,399.571320 582.392700,397.070770 583.970276,394.517242 
	C606.122009,358.662537 628.278687,322.810913 650.610718,286.639313 
M549.390259,421.050049 
	C549.368347,422.040741 549.205322,423.052368 549.348999,424.018433 
	C549.946594,428.036804 552.283386,430.706451 556.201660,431.581482 
	C560.041199,432.438934 563.471252,431.461609 565.747253,427.955505 
	C567.921326,424.606476 568.175232,421.157227 565.894348,417.731873 
	C564.011475,414.904236 561.287415,413.241974 557.939636,413.565765 
	C553.849426,413.961334 550.906738,416.260284 549.390259,421.050049 
z"/>
<path fill="#000000" opacity="1.000000" stroke="none" 
	d="
M381.705444,262.253113 
	C368.626831,239.656372 348.433044,229.451401 323.570374,227.465652 
	C314.129791,226.711639 304.610413,226.961136 295.168304,228.316620 
	C292.155823,228.749084 290.119171,229.768188 288.786957,232.896454 
	C284.869324,242.095657 275.258240,246.867462 265.971161,244.680237 
	C255.876114,242.302734 249.542374,234.502289 249.766129,224.722626 
	C249.998428,214.569672 256.655975,207.044708 267.094757,205.195541 
	C271.540466,204.408035 275.725861,205.559219 279.645294,207.460083 
	C282.057190,208.629837 284.273651,208.738922 286.848419,208.231873 
	C306.584869,204.345123 326.236389,205.014435 345.707916,209.931229 
	C369.752228,216.002716 387.753326,230.303085 400.264191,251.425766 
	C411.801117,270.904053 422.854095,290.670013 434.027679,310.361786 
	C437.267242,316.071075 435.759186,322.292419 430.752167,325.229034 
	C425.048157,328.574493 418.749237,327.153595 415.274200,321.143494 
	C405.774872,304.714233 396.528198,288.138885 387.166687,271.629791 
	C385.442413,268.589020 383.648895,265.587524 381.705444,262.253113 
M273.384338,218.944641 
	C270.116425,217.575867 267.184570,217.893188 264.910675,220.824783 
	C263.258972,222.954254 262.735992,225.303833 264.197113,227.775970 
	C265.649567,230.233475 267.723816,231.845978 270.692352,231.555771 
	C273.348602,231.296066 275.491547,229.844727 276.381165,227.313477 
	C277.462555,224.236603 276.852203,221.402496 273.384338,218.944641 
z"/>
<path fill="#000000" opacity="1.000000" stroke="none" 
	d="
M285.376831,310.725464 
	C277.850250,308.348083 274.347046,302.927094 276.162750,296.898529 
	C278.056763,290.609955 284.284790,287.825348 291.568024,290.158783 
	C309.489014,295.900299 322.958191,306.535400 331.674774,323.749298 
	C350.772675,361.464935 370.589874,398.816223 390.078918,436.334198 
	C391.674011,439.404907 393.723389,442.452545 392.920593,446.187988 
	C391.947021,450.718201 389.695862,454.246887 384.750793,455.192352 
	C379.367004,456.221680 375.203613,454.177094 372.433167,448.913361 
	C363.905701,432.711548 355.471375,416.460724 346.992554,400.233307 
	C334.890472,377.071381 322.645538,353.982727 310.735809,330.722351 
	C305.335602,320.175415 296.784485,314.065369 285.376831,310.725464 
z"/>
<path fill="#000000" opacity="1.000000" stroke="none" 
	d="
M357.330841,788.200012 
	C355.559692,793.105408 353.772980,797.595520 352.291931,802.184387 
	C351.312988,805.217529 349.508270,806.215576 346.386536,806.278809 
	C333.118591,806.547363 333.082245,806.644714 328.681274,794.309082 
	C319.679291,769.077393 310.715424,743.832092 301.766541,718.581482 
	C301.282440,717.215515 300.297943,715.903564 301.233643,713.374146 
	C306.568542,713.374146 312.290924,713.267639 318.006409,713.419495 
	C320.830261,713.494507 321.061584,716.108704 321.722168,718.107483 
	C327.881927,736.745911 334.014008,755.393433 340.164154,774.035034 
	C340.669159,775.565735 341.247772,777.072144 342.174011,779.654175 
	C343.509186,775.921509 344.552948,773.202759 345.458771,770.438843 
	C351.158447,753.047485 356.927887,735.677551 362.422272,718.221252 
	C363.529968,714.701843 365.244965,713.372986 368.818237,713.643677 
	C373.421722,713.992371 378.090820,713.273254 383.838867,714.352234 
	C374.931885,739.147339 366.188507,763.487061 357.330841,788.200012 
z"/>
<path fill="#000000" opacity="1.000000" stroke="none" 
	d="
M632.592957,791.578674 
	C639.229370,792.211365 644.974243,790.812439 649.956726,787.047791 
	C652.214294,785.342041 653.794739,785.666992 655.479431,787.620605 
	C656.017639,788.244934 656.713989,788.734375 657.346558,789.275513 
	C664.862732,795.705750 664.776489,796.195557 656.258911,801.738037 
	C640.075073,812.268982 607.133545,809.723450 600.393005,782.635803 
	C593.657043,755.566223 613.184570,731.303589 643.531433,737.980652 
	C653.529846,740.180542 660.322632,746.505798 664.111023,755.939514 
	C666.359741,761.539185 667.272339,767.415955 667.368042,773.489014 
	C667.433105,777.613342 665.812561,779.136536 661.792114,779.103027 
	C649.638123,779.001770 637.482422,779.069580 625.327698,779.128296 
	C623.364441,779.137756 621.336243,778.758484 619.101807,779.787170 
	C620.448242,787.114136 625.787354,789.887146 632.592957,791.578674 
M629.768433,753.239685 
	C622.565674,755.706543 619.606384,759.106384 619.354370,765.243530 
	C628.865967,765.243530 638.370422,765.243530 647.899292,765.243530 
	C647.176636,755.863220 640.271790,751.199463 629.768433,753.239685 
z"/>
<path fill="#000000" opacity="1.000000" stroke="none" 
	d="
M390.098328,760.484070 
	C395.116394,745.954285 405.385864,738.387512 419.928406,737.125793 
	C432.219360,736.059448 443.089478,739.622375 450.263336,750.545715 
	C455.083282,757.884827 456.468658,766.181396 456.294739,774.854614 
	C456.217560,778.704651 453.802338,779.042480 450.934448,779.048035 
	C438.449219,779.072205 425.963989,779.094238 413.478760,779.116150 
	C411.839294,779.119019 410.199860,779.116577 408.539673,779.116577 
	C409.081451,786.018921 414.827423,790.962463 422.546112,791.668457 
	C428.432526,792.206848 433.932465,790.914856 438.582031,787.395508 
	C441.389526,785.270386 443.247833,785.566833 445.297882,788.001282 
	C445.615936,788.378967 446.042999,788.664124 446.415771,788.996460 
	C453.702301,795.490356 453.654083,796.129639 445.286224,801.620667 
	C428.505737,812.632202 395.920319,809.359619 389.426727,782.110352 
	C387.757629,775.106018 388.097809,767.905762 390.098328,760.484070 
M422.672607,752.561279 
	C412.783875,754.400085 408.754272,757.953735 408.303833,765.716980 
	C417.952545,765.439209 427.581909,766.196533 437.264709,765.306946 
	C435.993286,756.755493 432.929199,754.045288 422.672607,752.561279 
z"/>
<path fill="#000000" opacity="1.000000" stroke="none" 
	d="
M551.471619,761.695312 
	C557.482727,763.221130 563.189758,764.421875 568.757629,766.087769 
	C576.910950,768.527344 583.799622,772.432983 585.460083,781.924683 
	C586.814270,789.665405 583.678955,797.546448 577.184509,801.921082 
	C564.578186,810.412415 539.879211,808.593933 528.697693,798.376465 
	C527.536316,797.315308 526.316833,796.268555 527.413635,794.599487 
	C529.423462,791.540955 531.477295,788.502502 533.684937,785.585876 
	C535.384766,783.340149 536.918396,785.188538 538.368958,786.128845 
	C544.707336,790.237610 551.608582,792.257751 559.182373,791.848022 
	C560.844299,791.758118 562.502258,791.695190 564.028564,790.867859 
	C565.865723,789.872009 567.490967,788.620422 567.472473,786.367004 
	C567.455505,784.303284 565.868347,783.143738 564.192871,782.308655 
	C560.883911,780.659302 557.244202,780.084595 553.680481,779.288147 
	C549.293274,778.307556 544.943115,777.218201 540.791870,775.446716 
	C533.906982,772.508728 529.895447,767.619507 529.579407,759.854004 
	C529.237244,751.447571 531.921631,744.448669 539.681641,740.804077 
	C553.701782,734.219421 567.498413,736.131958 580.811462,743.377563 
	C583.681091,744.939453 583.691040,746.731323 581.941895,749.441528 
	C576.533508,757.821655 576.681885,757.780090 567.466858,754.553955 
	C562.599304,752.849792 557.595215,751.530090 552.324463,753.016052 
	C550.140869,753.631714 548.019836,754.362122 547.553711,756.817993 
	C547.048218,759.481079 549.090393,760.602966 551.471619,761.695312 
z"/>
<path fill="#000000" opacity="1.000000" stroke="none" 
	d="
M687.758057,796.892334 
	C684.113708,788.736816 685.511230,780.428955 685.418579,772.361511 
	C685.190735,752.545532 685.508179,732.723267 685.625671,712.903564 
	C685.632507,711.751709 685.810974,710.600830 685.948547,708.993652 
	C691.258240,708.217224 696.551392,708.443787 701.802917,708.807007 
	C705.035400,709.030579 704.259033,711.915955 704.265137,713.907288 
	C704.327820,734.239868 704.308716,754.572754 704.313965,774.905518 
	C704.314697,777.572083 704.237427,780.242310 704.347412,782.904541 
	C704.587646,788.719666 707.355225,791.450562 712.903076,790.424805 
	C716.644226,789.733154 717.716797,791.260620 718.225281,794.304016 
	C718.389526,795.286865 718.605469,796.262695 718.838196,797.231995 
	C720.705322,805.010986 720.083069,806.238647 712.104614,807.101379 
	C702.399841,808.150879 693.297241,807.101868 687.758057,796.892334 
z"/>
<path fill="#000000" opacity="1.000000" stroke="none" 
	d="
M494.046478,796.899658 
	C494.020630,799.046631 494.007446,800.709778 493.977356,802.372559 
	C493.933624,804.789856 492.712952,806.050781 490.278198,806.105225 
	C489.945679,806.112671 489.613464,806.147827 489.281189,806.146118 
	C471.757782,806.055481 475.063202,808.170654 474.881165,792.728638 
	C474.692963,776.761353 474.989136,760.788147 474.782501,744.821289 
	C474.720642,740.041870 476.335480,738.046204 481.122894,738.650146 
	C482.760223,738.856689 484.462799,738.834045 486.106049,738.651001 
	C491.058350,738.099182 494.490509,739.137939 493.602783,745.815979 
	C498.168518,741.167114 503.263000,738.204224 509.455627,737.264221 
	C515.313660,736.374939 516.281677,737.045166 516.343018,742.824402 
	C516.348328,743.323364 516.361145,743.823059 516.343811,744.321472 
	C516.234314,747.471130 516.991272,751.018433 515.783997,753.670593 
	C514.237427,757.068176 510.108551,754.898010 507.170258,755.523438 
	C498.186249,757.435608 494.078400,762.152283 494.006653,771.463257 
	C493.942596,779.780151 494.030670,788.098083 494.046478,796.899658 
z"/>
</svg>